<?xml version="1.0" encoding="UTF-8"?><svg id="Layer_2" xmlns="http://www.w3.org/2000/svg" xmlns:xlink="http://www.w3.org/1999/xlink" viewBox="0 0 42.62 42.62"><defs><style>.cls-1{fill:url(#linear-gradient);}.cls-2{fill:url(#linear-gradient-3);}.cls-3{fill:url(#linear-gradient-2);}</style><linearGradient id="linear-gradient" x1="-1.02" y1="42.84" x2="34.82" y2="8.36" gradientUnits="userSpaceOnUse"><stop offset="0" stop-color="#ad87ff"/><stop offset="1" stop-color="#00cfff"/></linearGradient><linearGradient id="linear-gradient-2" x1=".77" y1="43.01" x2="34.01" y2="11.03" xlink:href="#linear-gradient"/><linearGradient id="linear-gradient-3" x1="-15.23" y1="46.14" x2="32.1" y2=".6" xlink:href="#linear-gradient"/></defs><g id="Layer_1-2"><path class="cls-1" d="m21.33,42.62C9.57,42.62,0,33.05,0,21.29,0,9.59,9.53.04,21.25,0c5.76,0,11.11,2.22,15.14,6.26,4.03,4.03,6.24,9.4,6.23,15.12-.04,11.63-9.16,20.95-20.76,21.23-.18,0-.36,0-.53,0Zm0-39.71C11.29,2.9,3.03,11.03,2.91,21.01c-.06,5.01,1.82,9.7,5.3,13.22,3.49,3.54,8.14,5.48,13.08,5.48,10.13-.01,18.38-8.24,18.43-18.34-.02-10.18-8.28-18.47-18.41-18.47Z"/><path class="cls-3" d="m17.35,35.04c-.22,0-.43-.04-.63-.11-.99-.38-1.5-1.39-1.19-2.35.14-.42.31-.82.48-1.22.11-.26.22-.52.32-.78l.51-1.32c.56-1.45,1.13-2.94,1.63-4.43.18-.53.23-1.11.29-1.74.02-.22.04-.43.07-.65.04-.32.05-.64.07-.96,0-.2.02-.4.03-.6.02-.21,0-.24-.19-.29l-1.32-.4c-1.35-.41-2.71-.82-4.06-1.21-.36-.1-1.46-.42-1.63-1.67-.07-.49.06-.97.36-1.35.3-.39.74-.65,1.25-.71.09-.01.19-.02.28-.02.41,0,.77.11,1.09.21l.28.08c1.48.4,2.96.79,4.45,1.18.55.15,1.13.22,1.72.22.72,0,1.47-.11,2.27-.32,1.57-.43,3.14-.87,4.71-1.31.23-.06.46-.1.68-.1.92,0,1.63.55,1.86,1.44.23.91-.3,1.92-1.17,2.21-.66.22-1.32.42-1.98.62l-1.88.56c-.67.2-1.34.4-2.01.61-.06.02-.08.03-.08.12.03,1.7.12,3.66.86,5.46.84,2.07,1.68,4.15,2.49,6.24.38.98,0,1.95-.96,2.4-.26.13-.55.19-.84.19-.7,0-1.32-.38-1.62-.99-.39-.8-.77-1.62-1.14-2.43l-1.04-2.25s-1.9,3.87-2.3,4.69c-.3.6-.94.99-1.64.99Z"/><path class="cls-2" d="m21.27,14.81c-1.86,0-3.79-1.47-3.8-3.84,0-1.01.39-1.97,1.11-2.7.73-.74,1.7-1.14,2.73-1.14,2.16.01,3.84,1.71,3.85,3.86,0,1.01-.39,1.98-1.13,2.71-.71.71-1.66,1.12-2.61,1.12,0,0-.16,0-.16,0Z"/></g></svg>