<?xml version="1.0" encoding="UTF-8"?><svg id="Layer_2" xmlns="http://www.w3.org/2000/svg" xmlns:xlink="http://www.w3.org/1999/xlink" viewBox="0 0 43.91 25.19"><defs><style>.cls-1{fill:url(#linear-gradient);}.cls-2{fill:url(#linear-gradient-8);}.cls-3{fill:url(#linear-gradient-3);}.cls-4{fill:url(#linear-gradient-4);}.cls-5{fill:url(#linear-gradient-2);}.cls-6{fill:url(#linear-gradient-6);}.cls-7{fill:url(#linear-gradient-7);}.cls-8{fill:url(#linear-gradient-5);}</style><linearGradient id="linear-gradient" x1="3.13" y1="30.33" x2="27.99" y2="-2.65" gradientUnits="userSpaceOnUse"><stop offset="0" stop-color="#ad87ff"/><stop offset="1" stop-color="#00cfff"/></linearGradient><linearGradient id="linear-gradient-2" x1="8.95" y1="34.72" x2="33.81" y2="1.74" xlink:href="#linear-gradient"/><linearGradient id="linear-gradient-3" x1="10.47" y1="35.86" x2="35.33" y2="2.88" xlink:href="#linear-gradient"/><linearGradient id="linear-gradient-4" x1="-2.51" y1="26.08" x2="22.36" y2="-6.9" xlink:href="#linear-gradient"/><linearGradient id="linear-gradient-5" x1="-2.81" y1="25.85" x2="22.05" y2="-7.13" xlink:href="#linear-gradient"/><linearGradient id="linear-gradient-6" x1="5.09" y1="31.81" x2="29.95" y2="-1.17" xlink:href="#linear-gradient"/><linearGradient id="linear-gradient-7" x1="21.63" y1="44.27" x2="46.49" y2="11.3" xlink:href="#linear-gradient"/><linearGradient id="linear-gradient-8" x1="13.88" y1="38.43" x2="38.74" y2="5.46" xlink:href="#linear-gradient"/></defs><g id="Layer_1-2"><path class="cls-1" d="m26.28,9.76h-15.55c-.72,0-1.31-.59-1.31-1.31s.59-1.31,1.31-1.31h15.55c.24,0,2.39-.07,2.39-1.56,0-.68-.24-.96-.42-1.12-.72-.63-2.26-.57-2.75-.5-.7.09-1.38-.39-1.48-1.11-.1-.71.39-1.38,1.1-1.48.31-.04,3.08-.4,4.83,1.11.61.52,1.33,1.49,1.33,3.1,0,3.3-3.28,4.18-5.01,4.18Z"/><path class="cls-5" d="m35.84,14.32H14.79c-.72,0-1.31-.59-1.31-1.31s.59-1.31,1.31-1.31h21.05c.72,0,1.31.59,1.31,1.31s-.59,1.31-1.31,1.31Z"/><path class="cls-3" d="m29.49,25.19c-.18,0-.36,0-.54,0h-.51c-.72,0-1.31-.59-1.31-1.31s.59-1.31,1.31-1.31h.53c1.27.02,2.72.02,3.28-.53.26-.25.39-.71.39-1.36,0-.57-.14-.98-.43-1.27-.48-.48-1.33-.58-1.62-.58H11.3c-.72,0-1.31-.59-1.31-1.31s.59-1.31,1.31-1.31h19.25c.19.01,2.12,0,3.48,1.32.8.79,1.23,1.88,1.23,3.15,0,1.37-.39,2.46-1.16,3.22-1.2,1.19-2.96,1.3-4.6,1.3Z"/><path class="cls-4" d="m9.95,14.32h-5.2c-.72,0-1.31-.59-1.31-1.31s.59-1.31,1.31-1.31h5.2c.72,0,1.31.59,1.31,1.31s-.59,1.31-1.31,1.31Z"/><path class="cls-8" d="m5.66,18.81H1.31c-.72,0-1.31-.59-1.31-1.31s.59-1.31,1.31-1.31h4.35c.72,0,1.31.59,1.31,1.31s-.59,1.31-1.31,1.31Z"/><path class="cls-6" d="m19.86,23.55H4.75c-.72,0-1.31-.59-1.31-1.31s.59-1.31,1.31-1.31h15.11c.72,0,1.31.59,1.31,1.31s-.59,1.31-1.31,1.31Z"/><path class="cls-7" d="m39.36,25.19h-.04c-.72-.01-1.3-.61-1.28-1.34.01-.71.6-1.28,1.31-1.28h.03c.57,0,1.92-.19,1.92-1.91,0-.96-.39-1.29-.51-1.4-.77-.65-2.34-.55-2.83-.47-.72.13-1.39-.35-1.52-1.06-.12-.71.35-1.39,1.06-1.52.31-.06,3.13-.51,4.97,1.03.67.56,1.46,1.6,1.46,3.41,0,1.66-.68,2.68-1.24,3.23-1.25,1.23-2.96,1.29-3.31,1.29Z"/><path class="cls-2" d="m38.03,9.69c-.11,0-.19,0-.23,0h-3.86c-.72,0-1.31-.58-1.31-1.31s.59-1.31,1.31-1.31h3.92c.54.03,1.99-.09,2.75-.82.37-.36.56-.86.56-1.52,0-.83-.3-1.2-.52-1.4-.77-.7-2.29-.74-2.81-.69-.72.07-1.36-.46-1.43-1.18-.07-.72.45-1.36,1.17-1.43.31-.03,3.05-.25,4.82,1.35.91.82,1.39,1.98,1.39,3.35s-.48,2.56-1.38,3.42c-1.49,1.41-3.65,1.54-4.39,1.54Z"/></g></svg>