<svg xmlns="http://www.w3.org/2000/svg" width="30.246" height="28.355" viewBox="0 0 30.246 28.355">
  <path id="Icon_awesome-cat" data-name="Icon awesome-cat" d="M17.166,11.7a11.348,11.348,0,0,0-9.6,5.077V11.7A5.677,5.677,0,0,0,1.89,6.031a1.89,1.89,0,1,0,0,3.781,1.893,1.893,0,0,1,1.89,1.89V26.825a3.784,3.784,0,0,0,3.781,3.781h10.4a.945.945,0,0,0,.945-.945v-.945a1.891,1.891,0,0,0-1.89-1.89h-1.89l7.561-5.671V29.66a.945.945,0,0,0,.945.945h1.89a.945.945,0,0,0,.945-.945V17.483a7.486,7.486,0,0,1-1.89.268A7.574,7.574,0,0,1,17.166,11.7Zm9.3-5.671H22.684L18.9,2.25v7.94a5.671,5.671,0,1,0,11.342,0V2.25Zm-4.253,4.726a.945.945,0,1,1,.945-.945A.945.945,0,0,1,22.212,10.757Zm4.726,0a.945.945,0,1,1,.945-.945A.945.945,0,0,1,26.938,10.757Z" transform="translate(0 -2.25)" fill="#0082fe"/>
</svg>
