<?xml version="1.0" encoding="UTF-8"?><svg id="Layer_2" xmlns="http://www.w3.org/2000/svg" xmlns:xlink="http://www.w3.org/1999/xlink" viewBox="0 0 33.82 31.71"><defs><style>.cls-1{fill:url(#linear-gradient);}</style><linearGradient id="linear-gradient" x1="-13.61" y1="55.81" x2="20.23" y2="11.16" gradientUnits="userSpaceOnUse"><stop offset="0" stop-color="#ad87ff"/><stop offset="1" stop-color="#00cfff"/></linearGradient></defs><g id="Layer_1-2"><path id="Icon_awesome-cat" class="cls-1" d="m19.2,10.57c-4.31-.05-8.35,2.08-10.74,5.68v-5.68c0-3.5-2.85-6.34-6.35-6.34-1.17,0-2.11.95-2.11,2.11s.95,2.11,2.11,2.11c1.17,0,2.11.95,2.11,2.11v16.91c0,2.33,1.89,4.23,4.23,4.23h11.63c.58,0,1.06-.47,1.06-1.06v-1.06c0-1.17-.95-2.11-2.11-2.11h-2.11l8.46-6.34v9.51c0,.58.47,1.06,1.06,1.06h2.11c.58,0,1.06-.47,1.06-1.06v-13.62c-.69.19-1.4.29-2.11.3-4.02,0-7.48-2.83-8.29-6.77Zm10.4-6.34h-4.23L21.14,0v8.88c0,3.5,2.84,6.34,6.34,6.34s6.34-2.84,6.34-6.34V0l-4.22,4.23Zm-4.76,5.29c-.58,0-1.06-.47-1.06-1.06s.47-1.06,1.06-1.06c.58,0,1.06.47,1.06,1.06h0c0,.58-.47,1.06-1.05,1.06,0,0,0,0,0,0h0Zm5.29,0c-.58,0-1.06-.47-1.06-1.06s.47-1.06,1.06-1.06c.58,0,1.06.47,1.06,1.06h0c0,.58-.47,1.06-1.05,1.06,0,0,0,0,0,0h0Z"/></g></svg>