<?xml version="1.0" encoding="UTF-8"?><svg id="Layer_2" xmlns="http://www.w3.org/2000/svg" xmlns:xlink="http://www.w3.org/1999/xlink" viewBox="0 0 19.33 35.55"><defs><style>.cls-1{fill:none;}.cls-2{fill:url(#linear-gradient);}.cls-3{fill:url(#linear-gradient-3);}.cls-4{fill:url(#linear-gradient-2);}</style><linearGradient id="linear-gradient" x1="-7.67" y1="34.76" x2="7.85" y2="7.16" gradientUnits="userSpaceOnUse"><stop offset="0" stop-color="#ad87ff"/><stop offset="1" stop-color="#00cfff"/></linearGradient><linearGradient id="linear-gradient-2" x1="-4.04" y1="36.8" x2="11.48" y2="9.2" xlink:href="#linear-gradient"/><linearGradient id="linear-gradient-3" x1="2.27" y1="40.35" x2="17.78" y2="12.75" xlink:href="#linear-gradient"/></defs><g id="Layer_1-2"><circle class="cls-2" cx="10.4" cy="2.62" r="2.62"/><path class="cls-1" d="m12.48,30.74c0,2.66-2.15,4.81-4.81,4.81s-4.81-2.15-4.81-4.81c0-1.71.9-3.21,2.25-4.06-1.35.85-2.25,2.35-2.25,4.06,0,2.66,2.15,4.81,4.81,4.81s4.81-2.15,4.81-4.81c0-1.99-1.21-3.7-2.94-4.43,1.73.73,2.94,2.44,2.94,4.43Z"/><path class="cls-4" d="m18.45,7.83L1.44,4.13c-.6-.13-1.2.25-1.33.86l-.08.38c-.13.6.25,1.2.85,1.33l6.09,1.33.07,16.08c0,.38.2.7.49.9.05,0,.09,0,.14,0,.44,0,.87.05,1.28.15.42-.16.72-.56.72-1.04v-7.71l6.29,6.29c.44.44,1.15.44,1.58,0l.27-.27c.44-.44.44-1.15,0-1.58l-5.48-5.48h.03v-6.15l5.53,1.2c.6.13,1.2-.25,1.33-.85l.08-.38c.13-.6-.25-1.2-.85-1.33Z"/><path class="cls-3" d="m2.86,30.74c0,2.66,2.15,4.81,4.81,4.81s4.81-2.15,4.81-4.81c0-1.99-1.21-3.7-2.94-4.43-.58-.24-1.21-.38-1.87-.38-.94,0-1.82.28-2.56.75-1.35.85-2.25,2.35-2.25,4.06Z"/></g></svg>