<svg xmlns="http://www.w3.org/2000/svg" xmlns:xlink="http://www.w3.org/1999/xlink" width="723.34" height="282.357" viewBox="0 0 723.34 282.357">
  <defs>
    <linearGradient id="linear-gradient" x1="0.221" y1="1.446" x2="0.939" y2="-0.036" gradientUnits="objectBoundingBox">
      <stop offset="0" stop-color="#ad87ff"/>
      <stop offset="1" stop-color="#00cfff"/>
    </linearGradient>
    <clipPath id="clip-path">
      <rect id="Rectangle_1989" data-name="Rectangle 1989" width="646.166" height="282.357" fill="#60b0fd"/>
    </clipPath>
    <clipPath id="clip-path-2">
      <path id="Path_754" data-name="Path 754" d="M560.736,19.636,489.2,95.365l-54.35-31.786L380.5,134.636l-54.357-115L324.8,20.95,271.784,72.928l-54.357-9.35L163.07,93.5,126.1,56.324,54.357,165.487,0,218.779H597.919V31.848Z" fill="url(#linear-gradient)"/>
    </clipPath>
    <linearGradient id="linear-gradient-3" x1="0.5" x2="0.5" y2="1" gradientUnits="objectBoundingBox">
      <stop offset="0" stop-color="#ad87ff"/>
      <stop offset="1" stop-color="#15c6ff"/>
    </linearGradient>
  </defs>
  <g id="Group_632" data-name="Group 632" transform="translate(-473.66 -738.561)">
    <g id="Group_449" data-name="Group 449" transform="translate(473.66 738.561)">
      <g id="Group_320" data-name="Group 320" clip-path="url(#clip-path)">
        <path id="Path_615" data-name="Path 615" d="M1.816,71.681v-.808l1.2-1c2.887-2.36,4.192-3.616,4.209-5.082,0-.987-.557-1.9-2.244-1.9a4.187,4.187,0,0,0-2.4.823l-.491-.927a5.467,5.467,0,0,1,3.2-.987c2.435,0,3.461,1.436,3.461,2.827,0,1.8-1.513,3.246-3.9,5.217l-.9.718v.03H9.035v1.092Zm16.433-4.963c0,3.3-1.422,5.127-3.927,5.127-2.209,0-3.7-1.78-3.74-4.993,0-3.261,1.635-5.056,3.931-5.056,2.383,0,3.735,1.825,3.735,4.922m-6.136.15c0,2.524.9,3.96,2.3,3.96,1.565,0,2.313-1.567,2.313-4.05,0-2.394-.713-3.964-2.3-3.964-1.339,0-2.313,1.406-2.313,4.054" transform="translate(6.081 169.313)" fill="#616974"/>
        <path id="Path_616" data-name="Path 616" d="M6.946,59.179V56.535H1.7v-.868l5.04-6.2H8.389V55.5H9.972v1.032H8.389v2.644Zm0-3.676V52.256q0-.763.052-1.526H6.946c-.348.568-.626.987-.939,1.436L3.245,55.472v.03Zm11.7-1.286c0,3.3-1.422,5.127-3.927,5.127-2.209,0-3.7-1.776-3.74-4.993,0-3.257,1.635-5.053,3.931-5.053,2.383,0,3.735,1.821,3.735,4.918m-6.136.15c0,2.524.9,3.96,2.3,3.96,1.565,0,2.313-1.567,2.313-4.05,0-2.394-.713-3.96-2.3-3.96-1.339,0-2.313,1.4-2.313,4.05" transform="translate(5.682 135.068)" fill="#616974"/>
        <path id="Path_617" data-name="Path 617" d="M8.417,37.89a6.739,6.739,0,0,0-1.148.056A4.279,4.279,0,0,0,3.337,41.4H3.39A3.593,3.593,0,0,1,6.121,40.28,3.117,3.117,0,0,1,9.53,43.421a3.5,3.5,0,0,1-3.757,3.422,3.817,3.817,0,0,1-4-4.14A5.674,5.674,0,0,1,3.685,38.32,6.628,6.628,0,0,1,7.3,36.888a8,8,0,0,1,1.113-.079ZM7.982,43.5a2.123,2.123,0,0,0-2.331-2.229,2.566,2.566,0,0,0-2.187,1.2.968.968,0,0,0-.174.58c.03,1.6.883,2.782,2.483,2.782A2.152,2.152,0,0,0,7.982,43.5M18.4,41.716c0,3.3-1.422,5.127-3.927,5.127-2.209,0-3.7-1.78-3.74-4.993,0-3.257,1.635-5.052,3.931-5.052,2.383,0,3.735,1.821,3.735,4.918m-6.136.15c0,2.524.9,3.96,2.3,3.96,1.565,0,2.313-1.567,2.313-4.05,0-2.393-.713-3.96-2.3-3.96-1.339,0-2.313,1.4-2.313,4.05" transform="translate(5.934 100.82)" fill="#616974"/>
        <path id="Path_618" data-name="Path 618" d="M1.785,31.71c0-1.223.848-2.091,2.239-2.6l-.017-.045A2.437,2.437,0,0,1,2.22,26.882c0-1.541,1.509-2.584,3.492-2.584C7.9,24.3,9,25.476,9,26.688a2.5,2.5,0,0,1-1.861,2.274v.045c1.409.479,2.274,1.331,2.274,2.513,0,1.687-1.683,2.824-3.84,2.824-2.366,0-3.788-1.212-3.788-2.633m6.084-.06c0-1.178-.957-1.746-2.487-2.12-1.318.329-2.035,1.077-2.035,2-.052.984.818,1.851,2.261,1.851,1.374,0,2.261-.733,2.261-1.735M3.659,26.792c0,.972.852,1.5,2.157,1.8.974-.284,1.722-.883,1.722-1.765,0-.778-.539-1.586-1.913-1.586-1.27,0-1.966.718-1.966,1.556m14.694,2.423c0,3.3-1.422,5.127-3.927,5.127-2.209,0-3.7-1.78-3.74-4.993,0-3.257,1.635-5.052,3.931-5.052,2.383,0,3.735,1.821,3.735,4.918m-6.136.15c0,2.524.9,3.96,2.3,3.96,1.565,0,2.313-1.567,2.313-4.05,0-2.393-.713-3.96-2.3-3.96-1.339,0-2.313,1.4-2.313,4.05" transform="translate(5.977 66.572)" fill="#616974"/>
        <path id="Path_619" data-name="Path 619" d="M2.3,13.189H2.261L.3,14.1l-.3-1,2.47-1.133h1.3v9.716H2.3Zm13.111,3.527c0,3.3-1.426,5.127-3.927,5.127-2.209,0-3.7-1.78-3.74-4.993,0-3.257,1.635-5.052,3.931-5.052,2.379,0,3.735,1.821,3.735,4.918m-6.136.15c0,2.524.9,3.96,2.3,3.96,1.561,0,2.309-1.567,2.309-4.05,0-2.393-.713-3.96-2.292-3.96-1.339,0-2.313,1.4-2.313,4.05m15.059-.15c0,3.3-1.422,5.127-3.927,5.127-2.209,0-3.7-1.78-3.74-4.993,0-3.257,1.635-5.052,3.931-5.052,2.383,0,3.735,1.821,3.735,4.918m-6.136.15c0,2.524.9,3.96,2.3,3.96,1.565,0,2.313-1.567,2.313-4.05,0-2.393-.713-3.96-2.3-3.96-1.339,0-2.313,1.4-2.313,4.05" transform="translate(0 32.324)" fill="#616974"/>
        <path id="Path_620" data-name="Path 620" d="M11.5,77.216c0,3.306-1.422,5.127-3.927,5.127-2.209,0-3.7-1.78-3.74-4.993,0-3.261,1.635-5.053,3.931-5.053,2.383,0,3.735,1.821,3.735,4.918m-6.136.15c0,2.528.9,3.964,2.3,3.964,1.565,0,2.313-1.571,2.313-4.054,0-2.393-.713-3.964-2.3-3.964-1.339,0-2.313,1.406-2.313,4.054" transform="translate(12.832 198.084)" fill="#616974"/>
        <path id="Path_622" data-name="Path 622" d="M12.268,282.357a2.04,2.04,0,0,1-2.174-1.87V1.87A2.04,2.04,0,0,1,12.268,0a2.04,2.04,0,0,1,2.174,1.87V280.487a2.04,2.04,0,0,1-2.174,1.87" transform="translate(33.8)" fill="#3a4352"/>
        <path id="Path_623" data-name="Path 623" d="M610.192,78.224H12.268a1.891,1.891,0,1,1,0-3.74H610.192a1.891,1.891,0,1,1,0,3.74" transform="translate(33.8 204.073)" fill="#3a4352"/>
      </g>
    </g>
    <path id="Path_755" data-name="Path 755" d="M-21432.5-17522.178l30.27-55.887,85.148-145.455,56.117,72.184,28.26-41.887,57.766,30.32,51.26-60.617,74.723,60.617,55.346-23.135h55.881l38.256-37.482,58.707-18.6v246.957l-596.107-5.162Z" transform="translate(21963 18511.066)" fill="rgba(35,192,255,0.27)"/>
    <g id="Group_486" data-name="Group 486" transform="translate(524.473 797.402)">
      <g id="Group_485" data-name="Group 485" clip-path="url(#clip-path-2)">
        <path id="Path_756" data-name="Path 756" d="M0,0H597.919V218.779H0Z" transform="translate(0 0)" fill="url(#linear-gradient)"/>
      </g>
    </g>
    <circle id="Ellipse_607" data-name="Ellipse 607" cx="15" cy="15" r="15" transform="translate(1167 777)" fill="#c2eeff"/>
    <circle id="Ellipse_608" data-name="Ellipse 608" cx="15" cy="15" r="15" transform="translate(1167 845)" fill="url(#linear-gradient-3)"/>
  </g>
</svg>
