<svg xmlns="http://www.w3.org/2000/svg" width="14.651" height="16.279" viewBox="0 0 14.651 16.279">
  <path id="Icon_material-date-range" data-name="Icon material-date-range" d="M9.384,10.326H7.756v1.628H9.384Zm3.256,0H11.012v1.628H12.64Zm3.256,0H14.268v1.628H15.9Zm1.628-5.7H16.71V3H15.082V4.628H8.57V3H6.942V4.628H6.128a1.621,1.621,0,0,0-1.62,1.628L4.5,17.651a1.627,1.627,0,0,0,1.628,1.628h11.4a1.633,1.633,0,0,0,1.628-1.628V6.256A1.633,1.633,0,0,0,17.523,4.628Zm0,13.023H6.128V8.7h11.4Z" transform="translate(-4.5 -3)"/>
</svg>
