<svg xmlns="http://www.w3.org/2000/svg" width="41.375" height="28.963" viewBox="0 0 41.375 28.963">
  <path id="Icon_awesome-car-side" data-name="Icon awesome-car-side" d="M35.169,12.594H34.134L27.1,3.8A4.139,4.139,0,0,0,23.871,2.25H10.042A4.137,4.137,0,0,0,6.2,4.851L3.1,12.74A4.128,4.128,0,0,0,0,16.731v7.241a1.034,1.034,0,0,0,1.034,1.034h3.1a6.206,6.206,0,0,0,12.412,0h8.275a6.206,6.206,0,1,0,12.412,0h3.1a1.034,1.034,0,0,0,1.034-1.034V18.8A6.206,6.206,0,0,0,35.169,12.594ZM10.344,28.109a3.1,3.1,0,1,1,3.1-3.1A3.106,3.106,0,0,1,10.344,28.109ZM15,12.594H7.559l2.482-6.206H15Zm3.1,0V6.388h5.769l4.965,6.206Zm12.93,15.516a3.1,3.1,0,1,1,3.1-3.1A3.106,3.106,0,0,1,31.031,28.109Z" transform="translate(0 -2.25)" fill="#0082fe"/>
</svg>
