<?xml version="1.0" encoding="UTF-8"?><svg id="Layer_2" xmlns="http://www.w3.org/2000/svg" xmlns:xlink="http://www.w3.org/1999/xlink" viewBox="0 0 37.4 20.6"><defs><style>.cls-1{fill:url(#linear-gradient);}.cls-2{fill:url(#linear-gradient-8);}.cls-3{fill:url(#linear-gradient-3);}.cls-4{fill:url(#linear-gradient-4);}.cls-5{fill:url(#linear-gradient-2);}.cls-6{fill:url(#linear-gradient-6);}.cls-7{fill:url(#linear-gradient-7);}.cls-8{fill:url(#linear-gradient-5);}</style><linearGradient id="linear-gradient" x1="-11.39" y1="39.43" x2="20.37" y2="7.28" gradientTransform="translate(12.83 -8.21) rotate(45)" gradientUnits="userSpaceOnUse"><stop offset="0" stop-color="#ad87ff"/><stop offset="1" stop-color="#00cfff"/></linearGradient><linearGradient id="linear-gradient-2" x1="-15.63" y1="35.24" x2="16.13" y2="3.1" gradientTransform="translate(-5.72 8.95) rotate(-45)" xlink:href="#linear-gradient"/><linearGradient id="linear-gradient-3" x1="-16.19" y1="34.69" x2="15.57" y2="2.54" gradientTransform="matrix(1,0,0,1,0,0)" xlink:href="#linear-gradient"/><linearGradient id="linear-gradient-4" x1="-16.19" y1="34.69" x2="15.57" y2="2.54" gradientTransform="matrix(1,0,0,1,0,0)" xlink:href="#linear-gradient"/><linearGradient id="linear-gradient-5" x1="-15.02" y1="35.85" x2="16.74" y2="3.7" gradientTransform="matrix(1,0,0,1,0,0)" xlink:href="#linear-gradient"/><linearGradient id="linear-gradient-6" x1="-7.18" y1="43.59" x2="24.58" y2="11.44" gradientTransform="matrix(1,0,0,1,0,0)" xlink:href="#linear-gradient"/><linearGradient id="linear-gradient-7" x1="-4.78" y1="45.96" x2="26.98" y2="13.81" gradientTransform="matrix(1,0,0,1,0,0)" xlink:href="#linear-gradient"/><linearGradient id="linear-gradient-8" x1="-1.83" y1="48.87" x2="29.93" y2="16.73" gradientTransform="matrix(1,0,0,1,0,0)" xlink:href="#linear-gradient"/></defs><g id="Layer_1-2"><rect class="cls-1" x="15.48" y="8.13" width="1.68" height="6.5" transform="translate(-3.27 14.87) rotate(-45)"/><rect class="cls-5" x="7.1" y="8.13" width="1.68" height="6.5" transform="translate(10.37 -2.29) rotate(45)"/><g id="Ellipse_464"><circle class="cls-3" cx="12.1" cy="6.06" r="5.32"/><circle class="cls-4" cx="12.1" cy="6.06" r="4.56"/></g><circle id="Ellipse_465" class="cls-8" cx="4.35" cy="16.24" r="4.35"/><circle id="Ellipse_466" class="cls-6" cx="19.83" cy="16.24" r="4.35"/><path class="cls-7" d="m31.48,18.5c-.83,0-1.5-.67-1.5-1.5V1.5c0-.83.67-1.5,1.5-1.5s1.5.67,1.5,1.5v15.5c0,.83-.67,1.5-1.5,1.5Z"/><path class="cls-2" d="m31.48,20.51c-.38,0-.76-.14-1.05-.43l-4.09-4.02c-.59-.58-.6-1.53-.02-2.12.58-.59,1.53-.6,2.12-.02l3.08,3.03,3.36-3.06c.61-.56,1.56-.51,2.12.1s.51,1.56-.1,2.12l-4.41,4.02c-.29.26-.65.39-1.01.39Z"/></g></svg>