<svg xmlns="http://www.w3.org/2000/svg" width="42.015" height="24.971" viewBox="0 0 42.015 24.971">
  <g id="Layer_1-2" transform="translate(-0.003)">
    <g id="Group_302" data-name="Group 302" transform="translate(0.003 0)">
      <path id="Path_562" data-name="Path 562" d="M4.925,24.923H3.288c-.083-1.07-.166-2.118-.242-3.165-.141-1.918-.31-3.833-.4-5.754A7.82,7.82,0,0,1,2.9,14.086,9.767,9.767,0,0,0,3,9.858a29.877,29.877,0,0,1-.389-6.709V1.406a1.2,1.2,0,0,0-1.3,1.366c-.01,2.1,0,4.192,0,6.288v6H.035C.023,14.834,0,14.624,0,14.414Q0,8.675,0,2.938A2.64,2.64,0,0,1,2.928.008Q15.147,0,27.367,0a3.538,3.538,0,0,1,3.416,2.106c2.247,4.377,4.541,8.73,6.8,13.1a.877.877,0,0,0,.932.573c1.093-.04,2.189-.013,3.505-.013-.577.558-1.05.956-1.446,1.42a1.54,1.54,0,0,0-.367.89c-.034,1.814-.013,3.63-.018,5.445,0,1.024-.394,1.373-1.406,1.441a1.99,1.99,0,0,1-1.74-.715c-2.665-2.862-5.375-5.682-8.069-8.517-.148-.156-.284-.322-.565-.642v9.82H26.735c-.175-1.618-.459-3.221-.494-4.829-.04-1.844-1.065-3.243-1.836-4.766-.07-.137-.4-.2-.606-.2-1.556-.017-3.115-.073-4.667.005a24.048,24.048,0,0,1-7.106-.822c-1.235-.309-2.487-.546-3.727-.834a.674.674,0,0,0-.871.322.384.384,0,0,1-.036.053c-.81,1.065-1.94,2.023-2.345,3.225-.412,1.225-.117,2.691-.123,4.05-.006,1.249,0,2.5,0,3.81Z" transform="translate(-0.003 0)" fill="#0082fe"/>
      <path id="Path_563" data-name="Path 563" d="M52.464,116.664H51.175c0,.364.006.705,0,1.045-.01.381.066.866-.514.857-.532-.009-.469-.46-.473-.826,0-.341,0-.682,0-1.067H48.693c.274,2.164.543,4.3.82,6.486H47.887c-.429-1.739-.788-3.517-1.318-5.242-.447-1.456.064-2.431,1.013-3.659.862-1.115,1.158-1.286,2.526-.859,1.635.511,3.351.761,5.146,1.15a15.755,15.755,0,0,1-1.131,1.264,2.579,2.579,0,0,0-.731,1.817,3.567,3.567,0,0,1-.024.45c-.068.41-.183.389-.484.4-.337-.023-.348-.28-.395-.507a6.816,6.816,0,0,1-.023-1.308Z" transform="translate(-40.346 -98.258)" fill="#0082fe"/>
      <path id="Path_564" data-name="Path 564" d="M162.87,133.045c.157-1.271.3-2.465.451-3.658.2-1.542.338-2.52.561-4.06.03-.209.214-.564.327-.564.4,0,.974-.01,1.159.231a2.531,2.531,0,0,1,.534,2.446c-.541,1.793-.85,3.079-1.23,4.917-.117.567-.353.765-.9.694a7.592,7.592,0,0,0-.9-.006Z" transform="translate(-141.75 -108.094)" fill="#0082fe"/>
    </g>
  </g>
</svg>
