<?xml version="1.0" encoding="UTF-8"?><svg id="Layer_2" xmlns="http://www.w3.org/2000/svg" xmlns:xlink="http://www.w3.org/1999/xlink" viewBox="0 0 30.2 40.26"><defs><style>.cls-1{fill:url(#linear-gradient);}</style><linearGradient id="linear-gradient" x1="-6.91" y1="59.16" x2="17.98" y2="8.45" gradientUnits="userSpaceOnUse"><stop offset="0" stop-color="#ad87ff"/><stop offset="1" stop-color="#00cfff"/></linearGradient></defs><g id="Layer_1-2"><path id="Icon_awesome-child" class="cls-1" d="m9.44,5.66C9.44,2.54,11.97,0,15.1,0c3.13,0,5.66,2.53,5.66,5.66,0,3.13-2.53,5.66-5.66,5.66h0c-3.13,0-5.66-2.53-5.66-5.66h0Zm20.02.11c-.98-.98-2.58-.98-3.56,0h0s-6.81,6.81-6.81,6.81h-7.98l-6.81-6.81c-.98-.98-2.58-.98-3.56,0-.98.98-.98,2.58,0,3.56h0l7.44,7.44v20.98c0,1.39,1.13,2.52,2.52,2.52h1.26c1.39,0,2.52-1.13,2.52-2.52v-8.81h1.26v8.81c0,1.39,1.13,2.52,2.52,2.52h1.26c1.39,0,2.52-1.13,2.52-2.52v-20.98l7.44-7.44c.98-.98.98-2.58,0-3.56h0s0,0,0,0Z"/></g></svg>