<svg xmlns="http://www.w3.org/2000/svg" width="49.015" height="33.703" viewBox="0 0 49.015 33.703">
  <g id="Group_429" data-name="Group 429" transform="translate(12796.617 11606.209)">
    <path id="Exclusion_1" data-name="Exclusion 1" d="M45.037,33.7a1.316,1.316,0,0,1-.937-.389L40.18,29.4h-5.42a7.7,7.7,0,0,0,.871-3.318,7.542,7.542,0,0,0-.871-3.973h5.42l3.92-3.92a1.325,1.325,0,1,1,1.874,1.874l-3.588,3.588v4.2l3.588,3.588a1.326,1.326,0,0,1-.937,2.263Zm-41.061,0a1.326,1.326,0,0,1-.937-2.263l3.588-3.588v-4.2L3.039,20.059a1.326,1.326,0,1,1,1.875-1.874l3.919,3.92h5.42a7.541,7.541,0,0,0-.871,3.973,7.7,7.7,0,0,0,.871,3.318H8.833L4.914,33.315A1.317,1.317,0,0,1,3.977,33.7Zm42.055-4.971a2.982,2.982,0,1,1,2.982-2.982A2.986,2.986,0,0,1,46.032,28.733Zm-43.049,0A2.982,2.982,0,1,1,5.965,25.75,2.986,2.986,0,0,1,2.982,28.733Zm31.729-8.562h0a7.7,7.7,0,0,0-1.729-2.961,7.544,7.544,0,0,0-3.426-2.193l3.832-3.832V5.64a1.326,1.326,0,0,1,2.651,0v5.075l2.973,2.973h5.075a1.325,1.325,0,1,1,0,2.651H38.544L34.713,20.17Zm-20.41,0h0L10.47,16.338H4.926a1.326,1.326,0,0,1,0-2.651H10l2.973-2.972V5.64a1.326,1.326,0,1,1,2.651,0v5.543l3.832,3.833a7.6,7.6,0,0,0-3.426,2.193A7.7,7.7,0,0,0,14.3,20.169Zm6.323-5.916h0V8.833l-3.92-3.919a1.326,1.326,0,0,1,1.875-1.875l3.588,3.588h4.2l3.588-3.588a1.326,1.326,0,0,1,1.875,1.875l-3.92,3.919v5.419a7.485,7.485,0,0,0-3.6-.879,7.887,7.887,0,0,0-3.7.88ZM40.1,12.606a2.983,2.983,0,1,1,2.109-.874A2.963,2.963,0,0,1,40.1,12.606Zm-31.194,0a2.983,2.983,0,1,1,2.109-.874A2.962,2.962,0,0,1,8.91,12.606ZM24.271,5.965a2.982,2.982,0,1,1,2.982-2.982A2.986,2.986,0,0,1,24.271,5.965Z" transform="translate(-12796.617 -11606.209)" fill="#0082fe"/>
  </g>
</svg>
