<?xml version="1.0" encoding="UTF-8"?><svg id="Layer_2" xmlns="http://www.w3.org/2000/svg" xmlns:xlink="http://www.w3.org/1999/xlink" viewBox="0 0 54.82 37.69"><defs><style>.cls-1{fill:url(#linear-gradient);}</style><linearGradient id="linear-gradient" x1="-.52" y1="57.02" x2="30.03" y2="22.24" gradientUnits="userSpaceOnUse"><stop offset="0" stop-color="#ad87ff"/><stop offset="1" stop-color="#00cfff"/></linearGradient></defs><g id="Layer_1-2"><g id="Group_429"><path id="Exclusion_1" class="cls-1" d="m50.37,37.69c-.39,0-.77-.16-1.05-.44l-4.38-4.37h-6.06c.6-1.15.93-2.42.97-3.71.09-1.54-.25-3.08-.97-4.44h6.06l4.38-4.38c.58-.58,1.52-.58,2.1,0s.58,1.52,0,2.1l-4.01,4.01v4.7l4.01,4.01c.58.58.58,1.52,0,2.1-.28.28-.65.43-1.05.43h0Zm-45.92,0c-.82,0-1.48-.67-1.48-1.48,0-.39.16-.77.43-1.05l4.01-4.01v-4.7l-4.01-4.02c-.6-.56-.62-1.5-.06-2.1.56-.6,1.5-.62,2.1-.06.02.02.04.04.06.06l4.38,4.38h6.06c-.73,1.36-1.06,2.9-.97,4.44.04,1.29.37,2.56.97,3.71h-6.06l-4.38,4.38c-.28.28-.66.43-1.05.43h0Zm47.04-5.56c-1.84,0-3.34-1.49-3.34-3.34s1.49-3.34,3.34-3.34c1.84,0,3.34,1.49,3.34,3.34h0c0,1.84-1.49,3.34-3.33,3.34h0Zm-48.15,0C1.49,32.13,0,30.64,0,28.79c0-1.84,1.49-3.33,3.34-3.33,1.84,0,3.33,1.49,3.33,3.34h0c0,1.84-1.49,3.34-3.34,3.34h0Zm35.49-9.58h0c-.39-1.24-1.05-2.37-1.93-3.31-1.03-1.15-2.35-2-3.83-2.45l4.29-4.29v-6.2c.02-.82.7-1.46,1.52-1.44.79.02,1.42.65,1.44,1.44v5.68l3.33,3.33h5.68c.82,0,1.48.66,1.48,1.48s-.66,1.48-1.48,1.48h-6.2l-4.28,4.28h0Zm-22.83,0h0l-4.28-4.28h-6.2c-.82-.02-1.46-.7-1.44-1.52.02-.79.65-1.42,1.44-1.44h5.67l3.33-3.32v-5.68c-.02-.82.62-1.5,1.44-1.52.82-.02,1.5.62,1.52,1.44,0,.03,0,.05,0,.08v6.2l4.29,4.29c-1.48.45-2.8,1.3-3.83,2.45-.89.94-1.55,2.08-1.93,3.31h0Zm7.07-6.62h0v-6.06l-4.38-4.38c-.57-.59-.55-1.53.03-2.1.58-.56,1.49-.56,2.06,0l4.01,4.01h4.7l4.01-4.01c.59-.57,1.53-.55,2.1.03.56.58.56,1.49,0,2.06l-4.38,4.38v6.06c-1.24-.66-2.62-1-4.03-.98-1.44-.01-2.86.32-4.14.98h.02Zm21.78-1.84c-1.84,0-3.34-1.49-3.34-3.34,0-1.84,1.49-3.34,3.34-3.34s3.34,1.49,3.34,3.34c0,.88-.35,1.73-.98,2.36-.62.63-1.47.98-2.36.98Zm-34.89,0c-1.84,0-3.34-1.49-3.34-3.34,0-1.84,1.49-3.34,3.34-3.34,1.84,0,3.34,1.49,3.34,3.34,0,.88-.35,1.73-.98,2.36-.62.63-1.47.98-2.35.98h0Zm17.18-7.43c-1.84,0-3.34-1.49-3.34-3.34S25.3,0,27.14,0c1.84,0,3.34,1.49,3.34,3.34,0,1.84-1.49,3.33-3.34,3.34Z"/></g></g></svg>