<?xml version="1.0" encoding="UTF-8"?><svg id="Layer_2" xmlns="http://www.w3.org/2000/svg" xmlns:xlink="http://www.w3.org/1999/xlink" viewBox="0 0 25.03 28.61"><defs><style>.cls-1{fill:url(#linear-gradient);}</style><linearGradient id="linear-gradient" x1="-6.26" y1="57.06" x2="15.83" y2="6.77" gradientUnits="userSpaceOnUse"><stop offset="0" stop-color="#ad87ff"/><stop offset="1" stop-color="#00cfff"/></linearGradient></defs><g id="Layer_1-2"><path id="Icon_awesome-database" class="cls-1" d="m25.03,4.09v2.55c0,2.25-5.61,4.09-12.52,4.09S0,8.89,0,6.64v-2.55C0,1.84,5.61,0,12.52,0s12.52,1.84,12.52,4.09Zm0,5.75v5.75c0,2.25-5.61,4.09-12.52,4.09S0,17.83,0,15.58v-5.75c2.69,1.85,7.61,2.71,12.52,2.71s9.83-.86,12.52-2.71Zm0,8.94v5.75c0,2.25-5.61,4.09-12.52,4.09S0,26.78,0,24.52v-5.75c2.69,1.85,7.61,2.71,12.52,2.71s9.83-.86,12.52-2.71Z"/></g></svg>