<?xml version="1.0" encoding="UTF-8"?><svg id="Layer_2" xmlns="http://www.w3.org/2000/svg" xmlns:xlink="http://www.w3.org/1999/xlink" viewBox="0 0 33.55 49.21"><defs><style>.cls-1{fill:url(#linear-gradient);}.cls-2{fill:url(#linear-gradient-3);}.cls-3{fill:url(#linear-gradient-4);}.cls-4{fill:url(#linear-gradient-2);}</style><linearGradient id="linear-gradient" x1="16.27" y1="61.81" x2="34.13" y2="33.14" gradientUnits="userSpaceOnUse"><stop offset="0" stop-color="#ad87ff"/><stop offset="1" stop-color="#00cfff"/></linearGradient><linearGradient id="linear-gradient-2" x1="9.57" y1="57.64" x2="27.43" y2="28.97" xlink:href="#linear-gradient"/><linearGradient id="linear-gradient-3" x1="-5.77" y1="48.08" x2="12.09" y2="19.41" xlink:href="#linear-gradient"/><linearGradient id="linear-gradient-4" x1="-13.01" y1="43.57" x2="4.85" y2="14.9" xlink:href="#linear-gradient"/></defs><g id="Layer_1-2"><polygon class="cls-1" points="22.37 42.66 22.37 44.84 22.37 49.21 26.84 49.21 29.08 49.21 29.08 47.02 31.32 47.02 31.32 44.84 31.32 42.66 26.84 42.66 22.37 42.66"/><polygon class="cls-4" points="32.81 24.45 32.81 22.26 31.32 22.26 31.32 20.08 29.08 20.08 29.08 17.9 24.61 17.9 24.61 20.08 22.37 20.08 22.37 22.26 20.13 22.26 20.13 24.45 20.13 26.63 20.13 28.82 20.13 31 22.37 31 22.37 33.19 24.61 33.19 26.84 33.19 26.84 33.19 22.37 33.19 22.37 39.74 24.61 39.74 26.84 39.74 29.08 39.74 31.32 39.74 31.32 37.56 33.55 37.56 33.55 35.37 33.55 31 33.55 28.82 33.55 26.63 33.55 24.45 32.81 24.45"/><polygon class="cls-2" points="4.47 24.76 2.24 24.76 2.24 26.95 2.24 29.13 4.47 29.13 4.47 31.32 6.71 31.32 8.95 31.32 11.18 31.32 11.18 26.95 11.18 24.76 8.95 24.76 4.47 24.76"/><polygon class="cls-3" points="11.18 2.18 8.95 2.18 8.95 0 6.71 0 4.47 0 4.47 2.18 2.24 2.18 2.24 4.37 .75 4.37 .75 6.55 0 6.55 0 8.74 0 10.92 0 13.11 0 17.48 0 17.48 0 19.66 2.24 19.66 2.24 21.85 4.47 21.85 4.47 21.85 6.71 21.85 8.95 21.85 8.95 21.85 11.18 21.85 11.18 15.29 8.95 15.29 11.18 15.29 11.18 13.11 13.42 13.11 13.42 10.92 13.42 8.74 13.42 6.55 13.42 4.37 11.18 4.37 11.18 2.18"/></g></svg>