<svg xmlns="http://www.w3.org/2000/svg" width="30" height="44" viewBox="0 0 30 44">
  <g id="Group_427" data-name="Group 427" transform="translate(12677.976 11881.124)">
    <path id="Union_6" data-name="Union 6" d="M6,28H2V24.093H6V22.14h4v1.953h0v1.953H8V28Zm0-1.954H6ZM4,24.093H2V22.14H6v1.953Zm4-4.558H6V17.581H6V15.628H6V13.674H6V11.721H6V9.768H6V7.814H6V5.86H6V3.907H8V1.953h2V3.907h1.333V5.86H10V7.814h0V9.768h0v1.953h0v1.953h0v1.954h0v1.953h0v1.953Zm-4,0H2v-5.86H6v1.954H6v1.953H6v1.953Zm6-1.953V15.628h2v1.953Zm0-1.953V11.721h2v3.907ZM4,13.674H2V11.721H6v1.953Zm6-1.953V9.768h2v1.953Zm-6,0V9.768H6v1.953Zm-2,0H0V9.768H4v1.953Zm8-1.953V7.814h2V9.768Zm-6,0V7.814H6V9.768Zm-2,0H0V7.814H4V9.768Zm8-1.954V5.86h2V7.814Zm-6,0H0V5.86H6V7.814ZM4,5.86H0V3.907H2V1.953H4V0H8V3.907H6V5.86Z" transform="translate(-12659.976 -11865.124)" fill="#0082fe"/>
    <path id="Union_5" data-name="Union 5" d="M8,28V24.093h2V28ZM6,28V26.046H8V28ZM4,28V26.046H6V28Zm2-1.954V24.093H8v1.953Zm-2,0V24.093H6v1.953Zm-2,0V24.093H4v1.953Zm6-1.953V22.14h2v1.953Zm-2,0H4V22.14H8v1.953Zm-4,0V22.14H4v1.953Zm6-4.558v-5.86h2v5.86Zm-2,0H4V17.581H4V15.628H4V13.674H4V11.721H4V9.768H4V7.814H4V5.86H4V3.907H6V0H8V5.86h2V7.814h0V9.768h0v1.953H8v1.953H8v1.954H8v1.953H8v1.953ZM8,9.768H8ZM8,7.814H8ZM2,19.535V17.581H4v1.953Zm0-1.953H0V15.628H4v1.953Zm0-1.953H0V11.721H0V9.768H0V7.814H0V5.86H4V7.814H4V9.768H4v1.953H4v1.953H4v1.954Zm6-1.954V11.721h2v1.953Zm2-1.953V9.768h2v1.953Zm0-1.953V7.814h2V9.768Zm0-1.954V5.86h2V7.814ZM10,5.86V3.907h2V5.86Zm-2,0V1.953h2V5.86Zm-5.333,0h-2V3.907H2V1.953H4V0H6V3.907H4V5.86Z" transform="translate(-12677.976 -11881.124)" fill="#0082fe"/>
  </g>
</svg>
