<svg xmlns="http://www.w3.org/2000/svg" width="18.12" height="18.12" viewBox="0 0 18.12 18.12">
  <path id="Icon_awesome-donate" data-name="Icon awesome-donate" d="M9.06,14.723A7.361,7.361,0,1,0,1.7,7.361,7.36,7.36,0,0,0,9.06,14.723ZM8.274,3.447V2.853a.586.586,0,0,1,.587-.587h.393a.586.586,0,0,1,.587.587v.6A2.79,2.79,0,0,1,11.364,4a.4.4,0,0,1,.042.605l-.577.549a.4.4,0,0,1-.5.035,1.165,1.165,0,0,0-.63-.18H8.327a.616.616,0,0,0-.577.648.639.639,0,0,0,.428.623l2.2.662A2.217,2.217,0,0,1,11.93,9.067a2.182,2.182,0,0,1-2.092,2.208v.595a.586.586,0,0,1-.587.587H8.858a.586.586,0,0,1-.587-.587v-.6a2.79,2.79,0,0,1-1.522-.545.4.4,0,0,1-.042-.605l.577-.549a.4.4,0,0,1,.5-.035,1.165,1.165,0,0,0,.63.18H9.786a.616.616,0,0,0,.577-.648.639.639,0,0,0-.428-.623l-2.2-.662A2.217,2.217,0,0,1,6.183,5.655,2.185,2.185,0,0,1,8.274,3.447Zm8.713,9.011h-1.15a8.578,8.578,0,0,1-2.584,2.265h2.258a.316.316,0,0,1,.34.283v.566a.316.316,0,0,1-.34.283H2.6a.316.316,0,0,1-.34-.283v-.566a.316.316,0,0,1,.34-.283H4.863a8.62,8.62,0,0,1-2.584-2.265H1.133A1.131,1.131,0,0,0,0,13.59v3.4A1.131,1.131,0,0,0,1.133,18.12H16.988a1.131,1.131,0,0,0,1.133-1.133v-3.4A1.131,1.131,0,0,0,16.988,12.458Z" fill="#db064f"/>
</svg>
