<?xml version="1.0" encoding="utf-8"?>
<!-- Generator: Adobe Illustrator 27.4.1, SVG Export Plug-In . SVG Version: 6.00 Build 0)  -->
<svg version="1.1" id="Layer_1" xmlns="http://www.w3.org/2000/svg" xmlns:xlink="http://www.w3.org/1999/xlink" x="0px" y="0px"
	 viewBox="0 0 29.2 29.2" style="enable-background:new 0 0 29.2 29.2;" xml:space="preserve">
<style type="text/css">
	.st0{fill:#FFFFFF;}
	.st1{fill:#0080F6;}
</style>
<circle class="st0" cx="14.6" cy="14.6" r="13"/>
<path id="Icon_ionic-ios-arrow-dropright-circle" class="st1" d="M14.6,0C6.5,0,0,6.5,0,14.6s6.5,14.6,14.6,14.6s14.6-6.5,14.6-14.6
	C29.3,6.5,22.7,0,14.6,0C14.6,0,14.6,0,14.6,0z M14.6,17.2l5.7-5.8c0.5-0.5,1.4-0.5,1.9,0s0.5,1.4,0,1.9l0,0l-6.7,6.7
	c-0.5,0.5-1.3,0.5-1.9,0L7,13.5c-0.5-0.5-0.5-1.4,0-1.9s1.4-0.5,1.9,0L14.6,17.2z"/>
</svg>
