<?xml version="1.0" encoding="UTF-8"?><svg id="Layer_2" xmlns="http://www.w3.org/2000/svg" xmlns:xlink="http://www.w3.org/1999/xlink" viewBox="0 0 39.81 48.57"><defs><style>.cls-1{fill:url(#linear-gradient);}.cls-2{fill:url(#linear-gradient-3);}.cls-3{fill:url(#linear-gradient-2);}</style><linearGradient id="linear-gradient" x1="-1.68" y1="50.89" x2="24.86" y2="12.92" gradientUnits="userSpaceOnUse"><stop offset="0" stop-color="#ad87ff"/><stop offset="1" stop-color="#00cfff"/></linearGradient><linearGradient id="linear-gradient-2" x1="3" y1="54.16" x2="29.53" y2="16.19" xlink:href="#linear-gradient"/><linearGradient id="linear-gradient-3" x1="21.86" y1="67.34" x2="48.4" y2="29.37" xlink:href="#linear-gradient"/></defs><g id="Layer_1-2"><path class="cls-1" d="m29.73,11.88c3.28,0,5.94-2.66,5.94-5.94s-2.66-5.94-5.94-5.94-5.94,2.66-5.94,5.94,2.66,5.94,5.94,5.94Z"/><path class="cls-3" d="m35.78,42.28h2.17s.05-12.59-1.09-15.96c-.94-2.79-2.97-4.05-5.46-4.48L20.95,5.13c-.68-1.09-2.11-1.42-3.19-.75-3.72,1.3-12.7,5.58-15.62,14.03C-1.02,27.55.03,33.1.86,34.1c.72.87.7,1.19,3.29,1.21v9.91c0,1.28,1.04,2.33,2.33,2.33s2.33-1.04,2.33-2.33v-9.99c.84-.03,1.73-.07,2.58-.12v10.1c0,1.28,1.04,2.33,2.33,2.33s2.33-1.04,2.33-2.33v-10.38c.4-.03.62-.04.62-.04,0,0,2.38-.48,2.66-2.54.28-2.06-3.2-13.1-3.2-13.1,0,0,3.35-2.29,5.52-4.13l4.71,7.53c-1.35.88-2.38,2.4-3.18,4.49-1.39,3.59-2.1,20.33-1.5,20.26.6-.07,2.14,0,2.14,0,0,0-.18-4.83,0-7.46.07-1.05.08-2.76.22-4.7h11.72c.12,3.72.03,7.15.03,7.15Zm-11.49-9.73c.29-2.2.82-4.46,1.8-6.23.43-.78.95-1.37,1.51-1.78l.36.58c.68,1.09,2.11,1.42,3.2.74.61-.38.98-1,1.07-1.66.97.46,1.8,1.22,2.31,2.12.59,1.04.91,3.52,1.08,6.23h-11.34Z"/><path class="cls-2" d="m36.97,42.89c-1.57,0-2.84,1.27-2.84,2.84s1.27,2.84,2.84,2.84,2.84-1.27,2.84-2.84-1.27-2.84-2.84-2.84Z"/></g></svg>