<?xml version="1.0" encoding="UTF-8"?><svg id="Layer_2" xmlns="http://www.w3.org/2000/svg" xmlns:xlink="http://www.w3.org/1999/xlink" viewBox="0 0 29.25 20.25"><defs><style>.cls-1{fill:url(#linear-gradient);}.cls-2{fill:url(#linear-gradient-2);}</style><linearGradient id="linear-gradient" x1="-2.93" y1="26.76" x2="19.33" y2="6.46" gradientUnits="userSpaceOnUse"><stop offset="0" stop-color="#ad87ff"/><stop offset="1" stop-color="#00cfff"/></linearGradient><linearGradient id="linear-gradient-2" x1="-7.74" y1="21.48" x2="14.52" y2="1.18" xlink:href="#linear-gradient"/></defs><g id="Layer_1-2"><g id="Icon_ionic-ios-mail"><path id="Path_908" class="cls-1" d="m29.01,2.48l-7.57,7.71c-.06.05-.06.14,0,.19,0,0,0,0,0,0l5.3,5.64c.36.35.36.93,0,1.29,0,0,0,0,0,0-.36.36-.94.36-1.29,0l-5.27-5.62c-.06-.05-.14-.05-.2,0l-1.29,1.31c-1.06,1.09-2.52,1.7-4.04,1.7-1.55,0-3.04-.64-4.12-1.75l-1.24-1.26c-.06-.05-.14-.05-.2,0l-5.28,5.62c-.36.36-.94.36-1.29,0-.36-.35-.36-.93,0-1.29,0,0,0,0,0,0l5.3-5.64c.05-.06.05-.14,0-.2L.24,2.48c-.05-.06-.14-.06-.2,0-.03.03-.04.06-.04.1v15.42c0,1.24,1.01,2.25,2.25,2.25h24.75c1.24,0,2.25-1.01,2.25-2.25V2.58c0-.08-.07-.14-.14-.14-.04,0-.07.01-.09.04Z"/><path id="Path_909" class="cls-2" d="m14.63,12.87c1.03,0,2.03-.41,2.75-1.15L28.41.49C28.01.17,27.52,0,27.01,0H2.24c-.51,0-1,.17-1.39.49l11.03,11.23c.72.74,1.71,1.15,2.74,1.15Z"/></g></g></svg>