<?xml version="1.0" encoding="UTF-8"?><svg id="Layer_2" xmlns="http://www.w3.org/2000/svg" xmlns:xlink="http://www.w3.org/1999/xlink" viewBox="0 0 35.23 40.26"><defs><style>.cls-1{fill:url(#linear-gradient);}.cls-2{fill:url(#linear-gradient-3);}.cls-3{fill:url(#linear-gradient-2);}</style><linearGradient id="linear-gradient" x1="4.91" y1="51.59" x2="21.82" y2="17.31" gradientUnits="userSpaceOnUse"><stop offset="0" stop-color="#ad87ff"/><stop offset="1" stop-color="#00cfff"/></linearGradient><linearGradient id="linear-gradient-2" x1="1.65" y1="49.98" x2="18.56" y2="15.7" xlink:href="#linear-gradient"/><linearGradient id="linear-gradient-3" x1="1.52" y1="49.92" x2="18.43" y2="15.64" xlink:href="#linear-gradient"/></defs><g id="Layer_1-2"><path id="Icon_awesome-podcast" class="cls-1" d="m21.02,38.42c-.4,1.5-1.93,1.84-3.41,1.84s-3.01-.35-3.42-1.84c-.86-3.42-1.4-6.92-1.62-10.44,0-2.76,2.45-3.44,5.03-3.44s5.03.67,5.03,3.44c-.22,3.52-.76,7.02-1.62,10.44Zm-3.41-25.84c-2.78,0-5.03,2.25-5.03,5.03s2.25,5.03,5.03,5.03,5.03-2.25,5.03-5.03-2.25-5.03-5.03-5.03Z"/><path class="cls-3" d="m17.61,0C7.88,0,0,7.9,0,17.63c0,6.73,3.84,12.87,9.89,15.82.23.11.52.01.63-.22.04-.09.06-.18.04-.28-.19-1.22-.34-2.43-.42-3.49-.01-.14-.09-.27-.21-.35C3.57,24.87,1.86,16.27,6.11,9.92,10.36,3.56,18.95,1.85,25.31,6.1c6.35,4.25,8.06,12.84,3.81,19.2-1.05,1.57-2.42,2.92-4.01,3.94-.08,1.1-.24,2.41-.45,3.71-.04.26.14.5.4.54.09.01.19,0,.28-.04,8.74-4.27,12.37-14.82,8.1-23.57C30.48,3.84,24.34,0,17.61,0Z"/><path class="cls-2" d="m12.33,22.69c-2.98-2.92-3.03-7.7-.12-10.68,2.92-2.98,7.7-3.03,10.68-.12,2.98,2.92,3.03,7.7.12,10.68-.04.04-.08.08-.12.12-.19.18-.19.48-.01.67.02.02.04.04.06.05.72.51,1.29,1.2,1.67,1.99.11.24.39.34.62.23.04-.02.08-.05.12-.08,4.56-4.28,4.8-11.44.52-16.01-4.28-4.56-11.44-4.8-16.01-.52-4.56,4.28-4.8,11.44-.52,16.01.17.18.34.35.52.52.19.18.49.16.66-.03.03-.04.06-.08.08-.12.38-.79.95-1.48,1.67-1.99.21-.15.26-.45.1-.66-.02-.02-.03-.04-.05-.06Z"/></g></svg>