<svg xmlns="http://www.w3.org/2000/svg" width="42.353" height="42.394" viewBox="0 0 42.353 42.394">
  <path id="Icon_weather-solar-eclipse" data-name="Icon weather-solar-eclipse" d="M5.244,25.977a1.684,1.684,0,0,1,.5-1.236,1.723,1.723,0,0,1,1.2-.479h4.068a1.511,1.511,0,0,1,1.157.5,1.873,1.873,0,0,1,.02,2.433,1.482,1.482,0,0,1-1.157.5H6.959a1.627,1.627,0,0,1-1.2-.5A1.659,1.659,0,0,1,5.244,25.977Zm5.7,13.819a1.847,1.847,0,0,1,.459-1.216l2.931-2.851a1.533,1.533,0,0,1,1.176-.459,1.689,1.689,0,0,1,1.2.459,1.491,1.491,0,0,1,.479,1.137,1.881,1.881,0,0,1-.479,1.276l-2.832,2.832a1.811,1.811,0,0,1-2.453,0A1.61,1.61,0,0,1,10.947,39.8Zm0-27.6a1.847,1.847,0,0,1,.459-1.216,1.915,1.915,0,0,1,1.276-.5,1.676,1.676,0,0,1,1.176.479l2.851,2.931a1.548,1.548,0,0,1,.479,1.176,1.636,1.636,0,0,1-1.675,1.675,1.548,1.548,0,0,1-1.176-.479l-2.911-2.851A1.669,1.669,0,0,1,10.947,12.2Zm5.085,13.779a10.064,10.064,0,0,1,1.4-5.184,10.413,10.413,0,0,1,3.809-3.809,10.23,10.23,0,0,1,9.212-.558,10.418,10.418,0,0,1,3.31,2.233A10.463,10.463,0,0,1,36.79,26a10.084,10.084,0,0,1-1.4,5.2,10.457,10.457,0,0,1-3.789,3.789,10.4,10.4,0,0,1-10.409,0A10.457,10.457,0,0,1,17.408,31.2,10.594,10.594,0,0,1,16.032,25.977ZM24.726,41.49a1.566,1.566,0,0,1,.5-1.2,1.689,1.689,0,0,1,1.2-.479,1.669,1.669,0,0,1,1.216.479,1.623,1.623,0,0,1,.479,1.2v3.968a1.684,1.684,0,0,1-.5,1.236,1.627,1.627,0,0,1-1.2.5,1.6,1.6,0,0,1-1.2-.5,1.684,1.684,0,0,1-.5-1.236V41.49Zm0-30.907V6.515a1.627,1.627,0,0,1,.5-1.2A1.659,1.659,0,0,1,26.441,4.8a1.6,1.6,0,0,1,1.2.5,1.627,1.627,0,0,1,.5,1.2v4.088a1.511,1.511,0,0,1-.5,1.157,1.67,1.67,0,0,1-1.2.459,1.724,1.724,0,0,1-1.2-.459A1.569,1.569,0,0,1,24.726,10.583Zm.219,8.614a7.008,7.008,0,0,1,6.142,6.939,6.749,6.749,0,0,1-1.555,4.387,6.847,6.847,0,0,1-3.948,2.413c.4.04.7.08.877.08a7.08,7.08,0,0,0,7.059-7.059,6.722,6.722,0,0,0-2.074-4.925A6.832,6.832,0,0,0,26.46,19,11.609,11.609,0,0,0,24.945,19.2ZM35.733,36.864a1.566,1.566,0,0,1,1.575-1.575,1.689,1.689,0,0,1,1.2.459L41.416,38.6a1.735,1.735,0,0,1,.479,1.216,1.61,1.61,0,0,1-.479,1.176,1.776,1.776,0,0,1-2.393,0L36.191,38.16A1.941,1.941,0,0,1,35.733,36.864Zm0-21.775a1.546,1.546,0,0,1,.459-1.176l2.832-2.931A1.676,1.676,0,0,1,40.2,10.5a1.566,1.566,0,0,1,1.2.5,1.627,1.627,0,0,1,.5,1.2,1.684,1.684,0,0,1-.479,1.236L38.5,16.286a1.759,1.759,0,0,1-1.2.479,1.448,1.448,0,0,1-1.117-.479A1.689,1.689,0,0,1,35.733,15.089Zm4.507,10.887a1.783,1.783,0,0,1,.479-1.236,1.553,1.553,0,0,1,1.137-.479h4.028a1.692,1.692,0,0,1,1.2,2.911,1.627,1.627,0,0,1-1.2.5H41.854a1.482,1.482,0,0,1-1.157-.5A1.724,1.724,0,0,1,40.239,25.977Z" transform="translate(-5.244 -4.8)" fill="#0082fe"/>
</svg>
