<?xml version="1.0" encoding="UTF-8"?><svg id="Layer_2" xmlns="http://www.w3.org/2000/svg" xmlns:xlink="http://www.w3.org/1999/xlink" viewBox="0 0 47.38 47.42"><defs><style>.cls-1{fill:url(#linear-gradient);}.cls-2{fill:url(#linear-gradient-3);}.cls-3{fill:url(#linear-gradient-2);}</style><linearGradient id="linear-gradient" x1="1.61" y1="60.64" x2="24.62" y2="22.14" gradientUnits="userSpaceOnUse"><stop offset="0" stop-color="#ad87ff"/><stop offset="1" stop-color="#00cfff"/></linearGradient><linearGradient id="linear-gradient-2" x1="1.6" y1="60.64" x2="24.61" y2="22.13" xlink:href="#linear-gradient"/><linearGradient id="linear-gradient-3" x1="-2.95" y1="57.92" x2="20.06" y2="19.41" xlink:href="#linear-gradient"/></defs><g id="Layer_1-2"><path id="Icon_weather-solar-eclipse" class="cls-1" d="m0,23.69c-.01-.52.19-1.02.56-1.38.36-.35.84-.54,1.34-.54h4.55c.49-.01.96.19,1.29.56.68.78.69,1.93.02,2.72-.33.37-.8.57-1.29.56H1.92c-.51,0-.99-.19-1.34-.56C.2,24.69,0,24.2,0,23.69Zm6.37,15.46c0-.5.18-.98.51-1.36l3.28-3.19c.34-.35.82-.54,1.32-.51.5-.01.98.17,1.34.51.35.33.55.79.54,1.27,0,.53-.19,1.04-.54,1.43l-3.17,3.17c-.78.71-1.97.71-2.74,0-.35-.35-.54-.82-.53-1.31h0Zm0-30.87c0-.5.18-.98.51-1.36.39-.36.9-.56,1.43-.56.49,0,.96.19,1.32.54l3.19,3.28c.36.34.55.82.54,1.32.02,1.01-.77,1.85-1.79,1.87-.03,0-.06,0-.09,0-.49.02-.97-.18-1.32-.54l-3.26-3.19c-.35-.36-.55-.85-.53-1.35h0Zm15.41,32.76c-.02-.51.19-1,.56-1.34.36-.35.84-.54,1.34-.54.51-.01,1,.18,1.36.54.36.35.55.84.54,1.34v4.44c.01.52-.19,1.02-.56,1.38-.35.36-.84.57-1.34.56-.51.01-.99-.19-1.34-.56-.37-.36-.57-.86-.56-1.38v-4.44h0Zm0-34.57V1.92c0-.51.19-.99.56-1.34C22.7.2,23.19,0,23.71,0c.51-.01.99.19,1.34.56.36.35.57.84.56,1.34v4.57c.01.49-.19.96-.56,1.29-.36.34-.84.53-1.34.51-.5,0-.98-.18-1.34-.51-.37-.33-.58-.8-.58-1.3Zm12.31,29.39c0-.97.77-1.76,1.74-1.76,0,0,.01,0,.02,0,.5-.01.98.17,1.34.51l3.25,3.19c.35.37.54.85.54,1.36,0,.49-.18.97-.54,1.32-.76.69-1.92.69-2.68,0l-3.17-3.17c-.34-.4-.52-.92-.51-1.45Zm0-24.35c-.02-.49.16-.97.51-1.32l3.17-3.28c.35-.35.82-.54,1.32-.54.51-.02,1,.19,1.34.56.36.35.57.84.56,1.34.02.51-.18,1.01-.54,1.38l-3.27,3.19c-.36.34-.84.53-1.34.54-.47.01-.93-.18-1.25-.54-.34-.36-.52-.84-.5-1.34Zm5.04,12.18c0-.51.19-1.01.54-1.38.33-.35.79-.54,1.27-.54h4.5c1.04-.02,1.91.82,1.92,1.86,0,.52-.2,1.03-.58,1.39-.35.36-.84.57-1.34.56h-4.51c-.49.02-.97-.19-1.29-.56-.34-.36-.52-.84-.51-1.34h0Z"/><path class="cls-3" d="m31.89,15.5c-1.06-1.06-2.32-1.91-3.7-2.5-3.34-1.44-7.16-1.21-10.3.62-1.77,1.02-3.24,2.49-4.26,4.26-1.04,1.75-1.58,3.76-1.57,5.8h0c0,2.05.53,4.06,1.54,5.84,1.02,1.76,2.48,3.22,4.23,4.24,3.6,2.08,8.04,2.08,11.64,0,1.76-1.02,3.22-2.48,4.24-4.24,1.04-1.76,1.58-3.77,1.57-5.82,0-3.08-1.22-6.03-3.39-8.21Zm-8.16,16.06c-.2,0-.53-.04-.98-.09,1.74-.36,3.3-1.31,4.42-2.7,1.14-1.38,1.76-3.12,1.74-4.91,0-3.94-2.95-7.27-6.86-7.76,0,0,0,0-.01,0h0s0,0,.01,0c.56-.11,1.12-.19,1.68-.22,2.09-.04,4.11.78,5.58,2.27,1.5,1.44,2.34,3.43,2.32,5.51-.01,4.35-3.54,7.88-7.9,7.89Z"/><polygon class="cls-2" points="22.03 16.11 22.05 16.1 22.03 16.1 22.03 16.11"/></g></svg>