<svg xmlns="http://www.w3.org/2000/svg" width="35.119" height="31.225" viewBox="0 0 35.119 31.225">
  <path id="Icon_awesome-leaf" data-name="Icon awesome-leaf" d="M33.306.591A.949.949,0,0,0,31.58.518a10.456,10.456,0,0,1-9.14,5.335H17.562A11.71,11.71,0,0,0,5.854,17.561a12.057,12.057,0,0,0,.091,1.25c3.89-2.787,9.506-5.152,17.47-5.152a.976.976,0,1,1,0,1.951c-15.329,0-21.829,9.4-23.268,12.927a1.954,1.954,0,0,0,3.616,1.482,16.042,16.042,0,0,1,4.384-5.524A11.681,11.681,0,0,0,18.812,29.2c9.573-.7,16.311-9.281,16.311-19.793A22.173,22.173,0,0,0,33.306.591Z" transform="translate(-0.004 0.002)" fill="#0082fe"/>
</svg>
