<?xml version="1.0" encoding="UTF-8"?><svg id="Layer_2" xmlns="http://www.w3.org/2000/svg" xmlns:xlink="http://www.w3.org/1999/xlink" viewBox="0 0 35.18 31.49"><defs><style>.cls-1{fill:url(#linear-gradient);}</style><linearGradient id="linear-gradient" x1="6.65" y1="15.41" x2="35.18" y2="15.41" gradientUnits="userSpaceOnUse"><stop offset="0" stop-color="#ad87ff"/><stop offset="1" stop-color="#00cfff"/></linearGradient></defs><g id="Layer_1-2"><path class="cls-1" d="m6.65,24.81s7.84,12.38,20.46,1.6C39.73,15.64,34.55,3.45,31.43,0c0,0-.04,17.7-10.9,19.21-11.11,1.55-13.87,5.6-13.87,5.6Z"/><path d="m6.01,23.95s-1.01-5.75,2.2-9.8c3.21-4.06,11.3-2.4,16.79-4.13,5.5-1.73,6.42-10.02,6.42-10.02,0,0,2.2,8.8-2.08,13.98-2.34,2.83-4.52,4.17-14.98,5.44-4.93.6-8.36,4.53-8.36,4.53Z"/><path d="m2.81,30.43s1.74-2.89,3.61-4.83c4.23-4.36,8.43-5.09,14.91-6.44,6.5-1.35,8.97-5.79,9.29-7.19,0,0-2.55,5.01-10.63,5.79-3.37.32-11.18,2.02-14.14,4.22-2.31,1.73-4.77,4.4-5.65,6.96-1.02,2.96,2.1,3.16,2.61,1.47Z"/></g></svg>