<?xml version="1.0" encoding="UTF-8"?><svg id="Layer_2" xmlns="http://www.w3.org/2000/svg" xmlns:xlink="http://www.w3.org/1999/xlink" viewBox="0 0 47.02 27.94"><defs><style>.cls-1{fill:url(#linear-gradient);}.cls-2{fill:url(#linear-gradient-3);}.cls-3{fill:url(#linear-gradient-2);}</style><linearGradient id="linear-gradient" x1="-11.76" y1="39.56" x2="29.13" y2="9.48" gradientUnits="userSpaceOnUse"><stop offset="0" stop-color="#ad87ff"/><stop offset="1" stop-color="#00cfff"/></linearGradient><linearGradient id="linear-gradient-2" x1="-12.43" y1="38.64" x2="28.46" y2="8.56" xlink:href="#linear-gradient"/><linearGradient id="linear-gradient-3" x1="-6.57" y1="46.62" x2="34.32" y2="16.54" xlink:href="#linear-gradient"/></defs><g id="Layer_1-2"><g id="Layer_1-2"><g id="Group_302"><path id="Path_562" class="cls-1" d="m5.53,27.89h-1.83c-.09-1.2-.19-2.37-.27-3.54-.16-2.15-.35-4.29-.45-6.44,0-.72.1-1.44.28-2.15.38-1.55.42-3.16.11-4.73-.43-2.48-.57-4.99-.44-7.5v-1.95c-.74-.07-1.39.47-1.46,1.21,0,.11,0,.21,0,.32-.01,2.35,0,4.69,0,7.03v6.71H.06c-.01-.25-.04-.49-.04-.72V3.3C-.17,1.68.99.21,2.61.02c.23-.03.46-.03.69,0,9.11,0,18.22,0,27.33,0,1.64-.08,3.16.85,3.82,2.36,2.51,4.9,5.08,9.76,7.61,14.65.16.43.59.7,1.04.64,1.22-.04,2.45-.01,3.92-.01-.65.62-1.17,1.07-1.62,1.59-.24.28-.38.63-.41,1-.04,2.03-.01,4.06-.02,6.09,0,1.15-.44,1.54-1.57,1.61-.74.08-1.47-.22-1.95-.8-2.98-3.2-6.01-6.35-9.02-9.53-.17-.17-.32-.36-.63-.72v10.98h-1.87c-.2-1.81-.51-3.6-.55-5.4-.04-2.06-1.19-3.63-2.05-5.33-.08-.15-.45-.22-.68-.22-1.74-.02-3.48-.08-5.22,0-2.68.09-5.36-.22-7.95-.92-1.38-.35-2.78-.61-4.17-.93-.37-.16-.8,0-.97.36-.01.02-.03.04-.04.06-.91,1.19-2.17,2.26-2.62,3.61-.46,1.37-.13,3.01-.14,4.53,0,1.4,0,2.8,0,4.26h0Z"/></g></g><path id="Path_563" class="cls-3" d="m13.58,20.6h-1.44c0,.41,0,.79,0,1.17-.01.43.07.97-.57.96-.6-.01-.52-.51-.53-.92v-1.19h-1.67c.31,2.42.61,4.81.92,7.25h-1.82c-.48-1.94-.88-3.93-1.47-5.86-.5-1.63.07-2.72,1.13-4.09.96-1.25,1.3-1.44,2.83-.96,1.83.57,3.75.85,5.76,1.29-.4.49-.82.97-1.26,1.41-.53.54-.82,1.27-.82,2.03,0,.17,0,.34-.03.5-.08.46-.2.44-.54.45-.38-.03-.39-.31-.44-.57-.06-.49-.06-.98-.03-1.46h0Z"/><path id="Path_564" class="cls-2" d="m23.64,27.92c.18-1.42.34-2.76.5-4.09.22-1.72.38-2.82.63-4.54.03-.23.24-.63.37-.63.45,0,1.09-.01,1.3.26.67.74.89,1.78.6,2.74-.61,2.01-.95,3.44-1.38,5.5-.13.63-.39.86-1.01.78-.34-.02-.67-.02-1.01,0h0Z"/></g></svg>