<svg xmlns="http://www.w3.org/2000/svg" width="28.126" height="28.399" viewBox="0 0 28.126 28.399">
  <path id="Icon_simple-furrynetwork" data-name="Icon simple-furrynetwork" d="M18.852,0C15.162,0,11.5,0,7.841.035c0,.059-.071.059-.106.095A12.419,12.419,0,0,0,3.406,3.171,13.921,13.921,0,0,0,.969,6.721c-.237.45-.449.935-.651,1.42a.482.482,0,0,1-.154.3V15.8a1.558,1.558,0,0,1,.095.355A10.247,10.247,0,0,0,4.3,21.867c.035.036.059.106.13.071-.035-.035-.035-.071-.071-.095-.284-.426-.544-.816-.792-1.231a10.772,10.772,0,0,1-1.514-6.591A11.943,11.943,0,0,1,4.08,8.662,27.3,27.3,0,0,1,8.385,3.716,15.434,15.434,0,0,1,12.241,1.16,10.428,10.428,0,0,1,17.469.237c.828.071,1.644.2,2.448.319l.225.035a.6.6,0,0,0,.248.035A12.626,12.626,0,0,0,19.042.106a.4.4,0,0,1-.189-.095ZM16.889.781a10.774,10.774,0,0,0-1.5.154,23,23,0,0,0-2.543.686,8.833,8.833,0,0,0-1.7.734c-.024,0-.095,0-.095.071h.059a33.244,33.244,0,0,1,3.607-.39,8.889,8.889,0,0,1,1.857.095,6.947,6.947,0,0,1,2.507.911,12.777,12.777,0,0,1,5.2,5.561,17.921,17.921,0,0,1,1.632,6.425,17.826,17.826,0,0,1,.035,2.39l-.095,1.349c-.035.39-.095.781-.166,1.171a7.221,7.221,0,0,1-.319,1.384,13.846,13.846,0,0,1-1.833,3.23,28.077,28.077,0,0,1-1.892,2.2,1.542,1.542,0,0,0-.225.26c.071,0,.071-.035.095-.035a19.8,19.8,0,0,0,2.732-1.905,12.862,12.862,0,0,0,3.785-5.266l.2-.485h.035v6.946c0,.024,0-10.851.024-17.749a.113.113,0,0,1-.024.083L28.232,8.5a12.722,12.722,0,0,0-1.8-3.23A11.55,11.55,0,0,0,16.889.781ZM28.279,8.52l.012-.024V8.52ZM12.9,4.579a1.853,1.853,0,0,0-1.407.5,2.757,2.757,0,0,0-.733,1.065,4.788,4.788,0,0,0-.26,2.84,2.91,2.91,0,0,0,1.088,1.87,1.657,1.657,0,0,0,1.963.237,2.459,2.459,0,0,0,.9-.911A4.3,4.3,0,0,0,15,7.987,5.169,5.169,0,0,0,14.9,6.946a3.314,3.314,0,0,0-.733-1.657,2,2,0,0,0-1.277-.71Zm6.056,1.515a2.814,2.814,0,0,0-2.034.982,4.044,4.044,0,0,0-.769,1.16,3.6,3.6,0,0,0-.449,1.81,3.111,3.111,0,0,0,.248,1.3,1.8,1.8,0,0,0,1.7,1.183,2.239,2.239,0,0,0,1.419-.509,4.438,4.438,0,0,0,1.774-3.041,3.66,3.66,0,0,0-.2-1.657,1.8,1.8,0,0,0-.97-1.089,1.9,1.9,0,0,0-.71-.142ZM7.581,8.946a1.634,1.634,0,0,0-1.313.71A3.525,3.525,0,0,0,5.677,11.6a3.927,3.927,0,0,0,.461,1.976,3.405,3.405,0,0,0,1.088,1.3,1.733,1.733,0,0,0,1.928.024,2.328,2.328,0,0,0,.71-.911,3.724,3.724,0,0,0,.189-2.355A3.905,3.905,0,0,0,8.8,9.431a1.884,1.884,0,0,0-1.218-.473Zm14.027,3.124a2.175,2.175,0,0,0-1.064.237A4.141,4.141,0,0,0,18.4,14.637a2.888,2.888,0,0,0-.13,1.87,1.5,1.5,0,0,0,1.064,1.171,2.849,2.849,0,0,0,.71.095,1.8,1.8,0,0,0,.946-.2,4.137,4.137,0,0,0,1.514-1.219,3.433,3.433,0,0,0,.745-2.911,1.538,1.538,0,0,0-1.289-1.325,2.211,2.211,0,0,0-.355-.047ZM13.2,14.022a1.88,1.88,0,0,0-.414.035,4.233,4.233,0,0,0-1.774.473,8.1,8.1,0,0,0-1.857,1.491A11.915,11.915,0,0,0,7.51,18.187a2.657,2.657,0,0,0-.378,1.455,2.218,2.218,0,0,0,.166.8,2.416,2.416,0,0,0,1.407.911,5.4,5.4,0,0,0,1.632-.035,12.932,12.932,0,0,1,1.774-.095,4.413,4.413,0,0,1,2.507.935c.284.237.544.485.863.71a2.4,2.4,0,0,0,1.987.45A1.382,1.382,0,0,0,18.628,22.2a4.141,4.141,0,0,0,.024-1.526,11.2,11.2,0,0,0-.438-1.775,11.777,11.777,0,0,0-1.183-2.674,4.558,4.558,0,0,0-1.36-1.491,4.351,4.351,0,0,0-2.472-.71ZM.165,17.323v2.52a2.1,2.1,0,0,1,.26.544,15.148,15.148,0,0,0,2.85,4.946,11.354,11.354,0,0,0,4.53,3.029c.035,0,.059.035.095.035h9.474c.035-.035.035-.035.059-.035A10.264,10.264,0,0,0,19.787,27.3a13.487,13.487,0,0,0,5.039-5.68,10.813,10.813,0,0,0,.828-3.787.474.474,0,0,0,0-.284c-.024.024-.059.059-.059.095l-.26.828a9.81,9.81,0,0,1-2.212,3.787,9.556,9.556,0,0,1-3.371,2.26,10.518,10.518,0,0,1-3.536.71,24.108,24.108,0,0,1-2.626-.059,28.776,28.776,0,0,1-3.667-.521,18.3,18.3,0,0,1-4.435-1.609,12.006,12.006,0,0,1-3.9-3.266A8.876,8.876,0,0,1,.165,17.323Z" transform="translate(-0.165)" fill="#896c44"/>
</svg>
