<?xml version="1.0" encoding="utf-8"?>
<!-- Generator: Adobe Illustrator 27.4.1, SVG Export Plug-In . SVG Version: 6.00 Build 0)  -->
<svg version="1.1" id="Layer_1" xmlns="http://www.w3.org/2000/svg" xmlns:xlink="http://www.w3.org/1999/xlink" x="0px" y="0px"
	 viewBox="0 0 28.1 28.4" style="enable-background:new 0 0 28.1 28.4;" xml:space="preserve">
<style type="text/css">
	.st0{fill:#896C44;}
</style>
<path id="Icon_simple-furrynetwork" class="st0" d="M18.7,0c-3.7,0-7.4,0-11,0c0,0.1-0.1,0.1-0.1,0.1c-1.6,0.7-3.1,1.7-4.3,3
	c-1,1-1.8,2.2-2.4,3.5C0.6,7.2,0.4,7.7,0.2,8.1c0,0.1-0.1,0.2-0.2,0.3v7.4c0,0.1,0.1,0.2,0.1,0.4c0.6,2.3,2.1,4.3,4,5.7
	c0,0,0.1,0.1,0.1,0.1c0,0,0-0.1-0.1-0.1c-0.3-0.4-0.5-0.8-0.8-1.2c-1.2-2-1.7-4.3-1.5-6.6c0.2-1.9,0.9-3.8,2-5.4
	c1.2-1.8,2.7-3.5,4.3-4.9c1.1-1,2.4-1.9,3.9-2.6c1.6-0.8,3.4-1.1,5.2-0.9c0.8,0.1,1.6,0.2,2.4,0.3l0.2,0c0.1,0,0.2,0,0.2,0
	c-0.4-0.2-0.9-0.4-1.3-0.5C18.8,0.1,18.7,0.1,18.7,0L18.7,0z M16.7,0.8c-0.5,0-1,0.1-1.5,0.2c-0.9,0.2-1.7,0.4-2.5,0.7
	c-0.6,0.2-1.2,0.4-1.7,0.7c0,0-0.1,0-0.1,0.1h0.1c1.2-0.2,2.4-0.3,3.6-0.4c0.6,0,1.2,0,1.9,0.1c0.9,0.1,1.7,0.4,2.5,0.9
	c2.3,1.3,4.1,3.2,5.2,5.6c0.9,2,1.5,4.2,1.6,6.4c0.1,0.8,0.1,1.6,0,2.4l-0.1,1.3c0,0.4-0.1,0.8-0.2,1.2c-0.1,0.5-0.2,0.9-0.3,1.4
	c-0.5,1.2-1.1,2.2-1.8,3.2c-0.6,0.8-1.2,1.5-1.9,2.2c-0.1,0.1-0.2,0.2-0.2,0.3c0.1,0,0.1,0,0.1,0c1-0.6,1.9-1.2,2.7-1.9
	c1.7-1.4,3-3.2,3.8-5.3l0.2-0.5h0v6.9c0,0,0-10.9,0-17.7c0,0,0,0.1,0,0.1l0-0.1c-0.4-1.2-1-2.2-1.8-3.2C24,2.3,20.4,0.7,16.7,0.8z
	 M28.1,8.5L28.1,8.5L28.1,8.5L28.1,8.5z M12.7,4.6c-0.5,0-1,0.1-1.4,0.5c-0.3,0.3-0.6,0.7-0.7,1.1C10.2,7,10.1,8,10.3,9
	c0.1,0.7,0.5,1.4,1.1,1.9c0.5,0.5,1.3,0.6,2,0.2c0.4-0.2,0.7-0.5,0.9-0.9c0.4-0.7,0.6-1.4,0.5-2.2c0-0.3,0-0.7-0.1-1
	c-0.1-0.6-0.3-1.2-0.7-1.7C13.7,4.9,13.2,4.6,12.7,4.6L12.7,4.6z M18.8,6.1c-0.8,0-1.5,0.4-2,1c-0.3,0.3-0.6,0.7-0.8,1.2
	c-0.3,0.6-0.5,1.2-0.4,1.8c0,0.4,0.1,0.9,0.2,1.3c0.3,0.7,0.7,2.6,1.5,2.5c0.5,0,1.3-1.5,1.7-1.9c1-0.7,1.6-1.8,1.8-3
	c0.1-0.6,0-1.1-0.2-1.7c-0.2-0.5-0.5-0.9-1-1.1C19.3,6.1,19,6.1,18.8,6.1L18.8,6.1z M6.5,8.8C6,8.8,6.4,9.2,6.1,9.7
	c-0.4,0.6-0.6,1.3-0.6,1.9c0,0.7,0.1,1.4,0.5,2c0.2,0.5,0.6,1,1.1,1.3c0.6,0.4,1.3,0.4,1.9,0c0.3-0.2,0.6-0.6,0.7-0.9
	c0.3-0.7,1.1-1.5,1-2.3c-0.2-0.9-1.4-1.7-2-2.3C8.3,9.1,7.8,8.2,7.4,8.2L6.5,8.8z M21.4,12.1c-0.4,0-0.7,0.1-1.1,0.2
	c-1,0.5-1.8,1.3-2.1,2.3c-0.3,0.6-0.3,1.2-0.1,1.9c0.1,0.6,0.2,1.5,0.8,1.7c0.2,0.1,0.7-0.4,1-0.4c0.3,0,0.7,0,0.9-0.2
	c0.6-0.3,1.1-0.7,1.5-1.2c0.7-0.8,1-1.9,0.7-2.9c-0.1-0.7-0.6-1.2-1.3-1.3C21.7,12.1,21.6,12.1,21.4,12.1L21.4,12.1z M13,14
	c-0.1,0-0.3,0-0.4,0c-0.6,0-1.2,0.2-1.8,0.5C10.2,14.9,9.5,15.4,9,16c-0.6,0.7-1.2,1.4-1.6,2.2C7.1,18.6,7,19.1,7,19.6
	c0,0.3,0.1,0.5,0.2,0.8c0.3,0.5,0.8,0.8,1.4,0.9c0.5,0.1,1.1,0.1,1.6,0c0.6-0.1,1.2-0.1,1.8-0.1c0.9,0,1.8,0.4,2.5,0.9
	c0.3,0.2,0.5,0.5,0.9,0.7c0.6,0.4,1.3,0.6,2,0.5c0.6-0.1,1.1-0.5,1.2-1.1c0.1-0.5,0.1-1,0-1.5c-0.1-0.6-0.2-1.2-0.4-1.8
	c-0.3-0.9-0.7-1.8-1.2-2.7c-0.3-0.6-0.8-1.1-1.4-1.5C14.8,14.3,13.9,14,13,14L13,14z M0,17.3v2.5c0.1,0.2,0.2,0.4,0.3,0.5
	c0.6,1.8,1.6,3.5,2.8,4.9c1.2,1.4,2.8,2.4,4.5,3c0,0,0.1,0,0.1,0h9.5c0,0,0,0,0.1,0c0.8-0.3,1.6-0.6,2.4-1.1c2.2-1.4,3.9-3.3,5-5.7
	c0.5-1.2,0.8-2.5,0.8-3.8c0-0.1,0-0.2,0-0.3c0,0-0.1,0.1-0.1,0.1l-0.3,0.8c-0.4,1.4-1.2,2.7-2.2,3.8c-0.9,1-2.1,1.8-3.4,2.3
	c-1.1,0.4-2.3,0.7-3.5,0.7c-0.9,0-1.8,0-2.6-0.1c-1.2-0.1-2.5-0.3-3.7-0.5c-1.5-0.3-3-0.9-4.4-1.6c-1.5-0.8-2.8-1.9-3.9-3.3
	C0.8,19,0.3,18.2,0,17.3z"/>
</svg>
