<?xml version="1.0" encoding="UTF-8"?><svg id="Layer_2" xmlns="http://www.w3.org/2000/svg" xmlns:xlink="http://www.w3.org/1999/xlink" viewBox="0 0 35.26 35.75"><defs><style>.cls-1,.cls-2{fill:none;}.cls-3{fill:url(#linear-gradient);}.cls-4{fill:#1250ff;}.cls-2{stroke:#000;stroke-miterlimit:10;stroke-width:4.89px;}</style><linearGradient id="linear-gradient" x1="10.62" y1="48.41" x2="19.27" y2="10.72" gradientUnits="userSpaceOnUse"><stop offset="0" stop-color="#ad87ff"/><stop offset="1" stop-color="#00cfff"/></linearGradient></defs><g id="Layer_1-2"><path class="cls-2" d="m2.45,17.87c0,8.52,6.91,15.43,15.43,15.43s14.94-6.91,14.94-15.43S26.39,2.45,17.87,2.45,2.45,9.35,2.45,17.87Z"/><path class="cls-3" d="m20.33,2.7c-.18-.03-.37-.05-.55-.08-.7-.1-1.41-.17-2.15-.17-8.52,0-15.43,6.91-15.43,15.43s6.91,15.43,15.43,15.43c.73,0,1.44-.07,2.15-.17.18-.03.37-.04.55-.08,7.23-1.28,12.73-7.58,12.73-15.18S27.56,3.97,20.33,2.7Z"/><path class="cls-1" d="m28.24,20.9s-.4-.57-1.34-1.5c.94.93,1.34,1.5,1.34,1.5h0Z"/><path d="m11.99,27.38l3.13,1.35,4.57-10.58c-1.08-.41-2.17-.8-3.21-1.16l-4.49,10.39Z"/><path d="m23.15,10.13l-3.13-1.35-1.47,3.41c1.09.58,2.09,1.14,2.98,1.7l1.62-3.76Z"/><path d="m26.9,19.4c-.19-.19-.4-.39-.63-.6-1.14-1.05-2.83-2.4-5.18-3.88-.89-.56-1.88-1.13-2.98-1.71-1.95-1.04-4.21-2.09-6.86-3.12l-1.54,3.56s3.27.95,7.2,2.33c1.04.36,2.13.75,3.21,1.17,3.09,1.17,6.17,2.51,8.12,3.76,0,0-.4-.57-1.34-1.5Z"/><path class="cls-4" d="m20.12,17.14c3.09,1.17,6.17,2.51,8.12,3.76h0c-1.94-1.26-5.02-2.59-8.12-3.76h0Z"/><path class="cls-4" d="m16.91,15.97h0c1.04.36,2.13.75,3.21,1.17h0c-1.08-.41-2.17-.8-3.21-1.17Z"/></g></svg>