<?xml version="1.0" encoding="UTF-8"?><svg id="Layer_2" xmlns="http://www.w3.org/2000/svg" xmlns:xlink="http://www.w3.org/1999/xlink" viewBox="0 0 34.62 44.3"><defs><style>.cls-1{fill:url(#linear-gradient);}.cls-2{fill:url(#linear-gradient-3);}.cls-3{fill:url(#linear-gradient-4);}.cls-4{fill:url(#linear-gradient-2);}</style><linearGradient id="linear-gradient" x1="-2.4" y1="58.9" x2="19.56" y2="26.41" gradientUnits="userSpaceOnUse"><stop offset="0" stop-color="#ad87ff"/><stop offset="1" stop-color="#00cfff"/></linearGradient><linearGradient id="linear-gradient-2" x1="-21.11" y1="46.25" x2=".85" y2="13.77" xlink:href="#linear-gradient"/><linearGradient id="linear-gradient-3" x1="-14.25" y1="50.89" x2="7.71" y2="18.4" xlink:href="#linear-gradient"/><linearGradient id="linear-gradient-4" x1="-2.09" y1="59.11" x2="19.87" y2="26.62" xlink:href="#linear-gradient"/></defs><g id="Layer_1-2"><path id="Icon_material-local-florist" class="cls-1" d="m17.31,44.3c7.46,0,13.5-6.04,13.5-13.5-7.46,0-13.5,6.04-13.5,13.5ZM7.71,26.67c0,2.07,1.68,3.75,3.76,3.75.76,0,1.5-.23,2.12-.66l-.03.28c0,2.07,1.68,3.75,3.75,3.75s3.75-1.68,3.75-3.75l-.03-.28c.63.43,1.37.66,2.13.66,2.07,0,3.75-1.66,3.75-3.73,0-1.45-.83-2.78-2.15-3.39,1.87-.89,2.66-3.12,1.77-4.99-.89-1.87-3.12-2.66-4.99-1.77-.18.09-.35.18-.51.3l.03-.28c0-2.07-1.68-3.75-3.75-3.75s-3.75,1.68-3.75,3.75l.03.28c-.63-.43-1.37-.66-2.13-.66-2.07,0-3.75,1.66-3.75,3.73,0,1.45.83,2.78,2.15,3.39-1.31.62-2.14,1.93-2.15,3.38Zm9.6-7.12c2.07,0,3.75,1.68,3.75,3.75s-1.68,3.75-3.75,3.75-3.75-1.68-3.75-3.75c0-2.07,1.68-3.75,3.75-3.75ZM3.81,30.8c0,7.46,6.04,13.5,13.5,13.5,0-7.46-6.04-13.5-13.5-13.5Z"/><path class="cls-4" d="m0,8.27c0-.5.18-.98.51-1.36.39-.36.9-.56,1.43-.56.49,0,.96.19,1.32.54l3.19,3.28c.36.34.55.82.54,1.32.02,1.01-.77,1.85-1.79,1.87-.03,0-.06,0-.09,0-.49.02-.97-.18-1.32-.54l-3.26-3.19C.18,9.27,0,8.78,0,8.28h0Z"/><path class="cls-2" d="m15.41,6.47V1.92c0-.51.19-.99.56-1.34C16.33.2,16.82,0,17.33,0c.51-.01.99.19,1.34.56.36.35.57.84.56,1.34v4.57c.01.49-.19.96-.56,1.29-.36.34-.84.53-1.34.51-.5,0-.98-.18-1.34-.51-.37-.33-.58-.8-.58-1.3Z"/><path class="cls-3" d="m27.72,11.51c-.02-.49.16-.97.51-1.32l3.17-3.28c.35-.35.82-.54,1.32-.54.51-.02,1,.19,1.34.56.36.35.57.84.56,1.34.02.51-.18,1.01-.54,1.38l-3.27,3.19c-.36.34-.84.53-1.34.54-.47.01-.93-.18-1.25-.54-.34-.36-.52-.84-.5-1.34Z"/></g></svg>