<svg xmlns="http://www.w3.org/2000/svg" width="19.144" height="13.4" viewBox="0 0 19.144 13.4">
  <path id="Icon_awesome-box-open" data-name="Icon awesome-box-open" d="M12.731,8.948a1.45,1.45,0,0,1-1.238-.7L9.57,5.06,7.649,8.249a1.455,1.455,0,0,1-1.241.7,1.376,1.376,0,0,1-.4-.057l-4.1-1.172v5.324a.954.954,0,0,0,.724.927L9.1,15.592a1.944,1.944,0,0,0,.927,0L16.5,13.973a.959.959,0,0,0,.724-.927V7.722l-4.1,1.169A1.376,1.376,0,0,1,12.731,8.948ZM19.09,5.592,17.55,2.518a.489.489,0,0,0-.5-.266L9.57,3.206l2.743,4.549a.492.492,0,0,0,.553.218l5.919-1.69a.493.493,0,0,0,.305-.691ZM1.59,2.518.049,5.592a.488.488,0,0,0,.3.688L6.271,7.97a.492.492,0,0,0,.553-.218L9.57,3.206,2.086,2.251a.489.489,0,0,0-.5.266Z" transform="translate(0.003 -2.247)" fill="#db064f"/>
</svg>
