<svg xmlns="http://www.w3.org/2000/svg" width="37.326" height="26.127" viewBox="0 0 37.326 26.127">
  <path id="Icon_awesome-box-open" data-name="Icon awesome-box-open" d="M24.825,15.313a2.827,2.827,0,0,1-2.414-1.365l-3.75-6.217-3.744,6.217a2.836,2.836,0,0,1-2.42,1.37,2.682,2.682,0,0,1-.776-.111l-7.99-2.286V23.3A1.86,1.86,0,0,0,5.143,25.11l12.608,3.155a3.791,3.791,0,0,0,1.808,0l12.62-3.155A1.87,1.87,0,0,0,33.591,23.3V12.922L25.6,15.2A2.682,2.682,0,0,1,24.825,15.313Zm12.4-6.543-3-6a.952.952,0,0,0-.974-.519L18.661,4.116l5.348,8.87a.959.959,0,0,0,1.079.426l11.541-3.295a.96.96,0,0,0,.595-1.347ZM3.1,2.774l-3,6a.951.951,0,0,0,.589,1.341l11.541,3.295a.959.959,0,0,0,1.079-.426l5.354-8.864L4.07,2.255a.953.953,0,0,0-.968.519Z" transform="translate(0.003 -2.247)" fill="#0082fe"/>
</svg>
