<?xml version="1.0" encoding="UTF-8"?><svg id="Layer_2" xmlns="http://www.w3.org/2000/svg" xmlns:xlink="http://www.w3.org/1999/xlink" viewBox="0 0 26.35 34.56"><defs><style>.cls-1{fill:url(#linear-gradient);}</style><linearGradient id="linear-gradient" x1="-47.09" y1="96.95" x2="17.7" y2="18.53" gradientUnits="userSpaceOnUse"><stop offset="0" stop-color="#ad87ff"/><stop offset="1" stop-color="#00cfff"/></linearGradient></defs><g id="Layer_1-2"><path id="Icon_map-city-hall" class="cls-1" d="m1.25,14.98h2.51v16.12h3.77v-13.82h3.77v13.82h3.76v-13.82h3.77v13.82h3.76V14.98h2.51c.66.03,1.23-.49,1.26-1.15,0-.38-.2-.73-.52-.93h-.02s-.03-.04-.03-.04l-11.98-6.2v-1.81c2.21,1.02,4.03-.73,6.9.32V1.15c-2.87-1.05-4.69.7-6.9-.32v-.25c-.03-.35-.33-.6-.68-.58-.31.02-.55.27-.58.58v6.08L.57,12.86l-.03.02h-.02C.2,13.09,0,13.44,0,13.82c.03.67.59,1.18,1.25,1.16Zm1.25,17.28l-2.51,2.3h26.35l-2.51-2.3H2.51Z"/></g></svg>