<?xml version="1.0" encoding="UTF-8"?><svg id="Layer_2" xmlns="http://www.w3.org/2000/svg" xmlns:xlink="http://www.w3.org/1999/xlink" viewBox="0 0 37.23 50.31"><defs><style>.cls-1{fill:url(#linear-gradient);}.cls-2{fill:url(#linear-gradient-8);}.cls-3{fill:url(#linear-gradient-9);}.cls-4{fill:url(#linear-gradient-3);}.cls-5{fill:url(#linear-gradient-4);}.cls-6{fill:url(#linear-gradient-2);}.cls-7{fill:url(#linear-gradient-6);}.cls-8{fill:url(#linear-gradient-7);}.cls-9{fill:url(#linear-gradient-5);}.cls-10{fill:url(#linear-gradient-14);}.cls-11{fill:url(#linear-gradient-18);}.cls-12{fill:url(#linear-gradient-20);}.cls-13{fill:url(#linear-gradient-15);}.cls-14{fill:url(#linear-gradient-19);}.cls-15{fill:url(#linear-gradient-16);}.cls-16{fill:url(#linear-gradient-17);}.cls-17{fill:url(#linear-gradient-13);}.cls-18{fill:url(#linear-gradient-12);}.cls-19{fill:url(#linear-gradient-10);}.cls-20{fill:url(#linear-gradient-11);}</style><linearGradient id="linear-gradient" x1="3.79" y1="76.17" x2="27.76" y2="20.7" gradientUnits="userSpaceOnUse"><stop offset="0" stop-color="#ad87ff"/><stop offset="1" stop-color="#00cfff"/></linearGradient><linearGradient id="linear-gradient-2" x1="-.61" y1="74.26" x2="23.36" y2="18.8" xlink:href="#linear-gradient"/><linearGradient id="linear-gradient-3" x1="-7" y1="71.5" x2="16.97" y2="16.04" xlink:href="#linear-gradient"/><linearGradient id="linear-gradient-4" x1="-12.8" y1="69" x2="11.17" y2="13.54" xlink:href="#linear-gradient"/><linearGradient id="linear-gradient-5" x1="-17.95" y1="66.77" x2="6.02" y2="11.31" xlink:href="#linear-gradient"/><linearGradient id="linear-gradient-6" x1="-17.58" y1="66.93" x2="6.39" y2="11.47" xlink:href="#linear-gradient"/><linearGradient id="linear-gradient-7" x1="7.35" y1="77.7" x2="31.32" y2="22.24" xlink:href="#linear-gradient"/><linearGradient id="linear-gradient-8" x1="-11.28" y1="69.65" x2="12.69" y2="14.19" xlink:href="#linear-gradient"/><linearGradient id="linear-gradient-9" x1="-6.57" y1="71.69" x2="17.4" y2="16.23" xlink:href="#linear-gradient"/><linearGradient id="linear-gradient-10" x1="-1.4" y1="73.92" x2="22.57" y2="18.46" xlink:href="#linear-gradient"/><linearGradient id="linear-gradient-11" x1="4.19" y1="76.34" x2="28.16" y2="20.88" xlink:href="#linear-gradient"/><linearGradient id="linear-gradient-12" x1="-2.53" y1="73.43" x2="21.44" y2="17.97" xlink:href="#linear-gradient"/><linearGradient id="linear-gradient-13" x1="-1" y1="74.1" x2="22.97" y2="18.64" xlink:href="#linear-gradient"/><linearGradient id="linear-gradient-14" x1="1.44" y1="75.15" x2="25.41" y2="19.69" xlink:href="#linear-gradient"/><linearGradient id="linear-gradient-15" x1="-3.14" y1="73.17" x2="20.83" y2="17.71" xlink:href="#linear-gradient"/><linearGradient id="linear-gradient-16" x1="-.27" y1="74.41" x2="23.7" y2="18.95" xlink:href="#linear-gradient"/><linearGradient id="linear-gradient-17" x1="2.74" y1="75.71" x2="26.71" y2="20.25" xlink:href="#linear-gradient"/><linearGradient id="linear-gradient-18" x1="3.23" y1="75.92" x2="27.2" y2="20.46" xlink:href="#linear-gradient"/><linearGradient id="linear-gradient-19" x1="6.67" y1="77.41" x2="30.64" y2="21.95" xlink:href="#linear-gradient"/><linearGradient id="linear-gradient-20" x1="4.45" y1="76.45" x2="28.42" y2="20.99" xlink:href="#linear-gradient"/></defs><g id="Layer_1-2"><g id="Group_304"><g id="Group_303"><path id="Path_565" class="cls-1" d="m36.62,50.31c-.31-.14-.62-.28-.94-.41-5.2-2.19-9.9-5.39-13.85-9.43-3.56-3.65-6.57-7.8-8.95-12.31-2.08-3.89-3.78-7.97-5.09-12.18-.03-.09-.05-.18-.06-.27-.04-.21.09-.42.3-.48.21-.08.45.02.55.22.05.09.09.19.11.29,1.4,4.49,3.25,8.82,5.54,12.93,2.66,4.87,6.11,9.26,10.21,13,3.63,3.28,7.81,5.88,12.36,7.68.15.07.3.15.44.24v.73h-.62Z"/><path id="Path_566" class="cls-6" d="m10.26,37.24c.64-.04,1.19-.09,1.75-.1,1.48-.02,2.96-.07,4.44-.02,1.23.11,2.28.95,2.67,2.13.34.98-.18,2.06-1.16,2.4-.21.07-.42.11-.64.1-.6.04-1.2-.11-1.71-.43-1.04-.69-2.06-1.41-3.06-2.15-.69-.52-1.34-1.1-2-1.66-.08-.06-.15-.14-.29-.27"/><path id="Path_567" class="cls-4" d="m5.98,29.8c.71.05,1.43.07,2.14.15,1.24.13,2.49.24,3.72.47,1.2.18,2.18,1.07,2.46,2.26.33.99-.21,2.07-1.2,2.39-.3.1-.61.12-.92.07-.6-.07-1.16-.31-1.63-.68-1.26-1.03-2.43-2.15-3.51-3.37-.37-.39-.72-.8-1.08-1.2l.03-.08"/><path id="Path_568" class="cls-5" d="m2.57,22c1.02.19,2.05.36,3.07.58.95.19,1.89.43,2.81.73,1.11.35,1.91,1.33,2.03,2.49.19,1.03-.49,2.02-1.52,2.21-.29.05-.58.04-.87-.04-.61-.14-1.17-.46-1.6-.92-1.09-1.14-2.1-2.35-3.01-3.64-.33-.44-.64-.89-.96-1.33l.04-.07"/><path id="Path_569" class="cls-9" d="m.05,13.96c.69.2,1.38.37,2.06.59,1.15.38,2.31.74,3.43,1.19,1.13.4,1.9,1.44,1.96,2.64.15,1.04-.57,2.01-1.62,2.16-.37.05-.75,0-1.09-.16-.56-.2-1.04-.56-1.39-1.05-.84-1.21-1.66-2.43-2.46-3.67-.35-.53-.64-1.09-.95-1.64l.05-.07Z"/><path id="Path_570" class="cls-7" d="m5.77,5.29s.09.1.12.15c.96,1.66,1.94,3.31,2.88,4.98.43.73.53,1.62.26,2.43-.21.99-1.18,1.62-2.17,1.41-.41-.09-.78-.31-1.04-.64-.55-.56-.87-1.3-.89-2.08-.01-1.29.11-2.57.36-3.83.12-.73.27-1.47.41-2.2.01-.06.03-.12.06-.22"/><path id="Path_571" class="cls-8" d="m29.28,6.91c-.05.17-.08.29-.13.4-1.72,4.53-2.41,9.39-2.01,14.23.45,6.21,2.52,12.19,6.01,17.35.02.03.04.06.06.09.14.23.12.45-.05.54-.22.12-.37.02-.5-.16-.09-.12-.17-.25-.25-.37-3-4.55-4.95-9.7-5.7-15.1-.82-5.68-.19-11.47,1.82-16.84.03-.1.06-.22.13-.27.1-.09.23-.13.36-.12.1.02.18.17.26.25"/><path id="Path_572" class="cls-2" d="m14.34,10.26c.01.05.02.11.02.16-.08,1.82-.14,3.63-.25,5.44-.03.92-.56,1.75-1.38,2.16-.89.48-1.99.16-2.48-.73-.02-.03-.03-.06-.05-.09-.51-.87-.46-1.96.11-2.79.38-.56.81-1.09,1.29-1.57.83-.84,1.7-1.64,2.56-2.46.04-.04.1-.07.17-.13"/><path id="Path_573" class="cls-3" d="m16.44,16.84c.04.44.1.83.11,1.21.07,1.55.16,3.11.19,4.66,0,.73-.35,1.42-.94,1.86-.77.68-1.94.61-2.62-.16-.11-.12-.2-.25-.27-.4-.51-.79-.54-1.8-.08-2.62.42-.73.9-1.43,1.43-2.09.62-.79,1.31-1.53,1.97-2.28.05-.05.1-.1.19-.18"/><path id="Path_574" class="cls-19" d="m19.16,23.09c.09.45.18.8.24,1.17.25,1.54.5,3.09.72,4.63.06.62-.13,1.24-.54,1.72-.6.87-1.79,1.08-2.66.49-.3-.2-.53-.49-.67-.82-.42-.76-.45-1.67-.09-2.45.52-1.1,1.13-2.14,1.85-3.12.36-.52.73-1.03,1.15-1.61"/><path id="Path_575" class="cls-20" d="m22.59,28.97c.28.84.58,1.67.83,2.52.33,1.03.61,2.07.83,3.13.15.85-.19,1.72-.88,2.24-.67.55-1.64.54-2.29-.04-.83-.64-1.19-1.72-.91-2.73.32-1.14.78-2.24,1.36-3.27.32-.62.66-1.23.99-1.84h.08"/><path id="Path_576" class="cls-18" d="m22.86,8.26c.41.44.8.84,1.17,1.27.58.67,1.16,1.34,1.7,2.04.57.76.62,1.79.12,2.6-.37.64-1.2.87-1.84.49-.1-.06-.2-.13-.28-.22-.46-.42-.73-1.02-.74-1.64-.08-1.48-.12-2.96-.18-4.44,0-.02.01-.03.05-.11"/><path id="Path_577" class="cls-17" d="m21.57,14.62c.35.27.67.5.96.74.81.67,1.63,1.34,2.41,2.04.6.54.86,1.35.7,2.14-.05.55-.4,1.02-.92,1.21-.51.2-1.1.07-1.47-.34-.25-.24-.46-.53-.61-.85-.55-1.6-.91-3.27-1.08-4.95"/><path id="Path_578" class="cls-10" d="m21.38,21.2c1.39.61,2.72,1.36,3.96,2.25.71.52,1.03,1.42.82,2.27-.13.73-.82,1.22-1.55,1.09-.11-.02-.21-.05-.32-.1-.51-.21-.92-.59-1.16-1.08-.6-1.19-1.11-2.42-1.51-3.7-.08-.24-.16-.49-.24-.74"/><path id="Path_579" class="cls-13" d="m25.12,2.25c.31.46.64.91.93,1.38.47.74.95,1.47,1.36,2.24.47.81.39,1.83-.21,2.55-.42.61-1.26.76-1.87.34-.15-.1-.27-.23-.37-.39-.28-.39-.43-.85-.43-1.33.01-1.29.13-2.59.37-3.86.05-.3.1-.6.15-.9l.07-.02"/><path id="Path_580" class="cls-15" d="m32.39.04c-.1.64-.18,1.29-.3,1.93-.17.89-.31,1.78-.56,2.65-.18.72-.77,1.26-1.51,1.38-.57.13-1.15-.18-1.36-.73-.32-.71-.2-1.54.31-2.13.62-.71,1.28-1.37,1.98-2,.43-.41.91-.76,1.37-1.14l.08.04"/><path id="Path_581" class="cls-16" d="m34.87,6.82c-.96,1.04-1.89,2.09-2.89,3.1-.43.4-1.04.54-1.6.37-.71-.17-1.15-.89-.98-1.61,0-.02.01-.04.02-.07.12-.7.65-1.26,1.34-1.43.88-.2,1.78-.29,2.67-.4.45-.06.9-.05,1.36-.07l.07.11"/><path id="Path_582" class="cls-11" d="m33.23,11.2c-.51.82-.97,1.58-1.45,2.32-.28.43-.58.85-.89,1.25-.29.36-.72.59-1.18.62-.75.12-1.46-.39-1.59-1.14-.04-.25-.01-.5.08-.74.16-.6.59-1.08,1.17-1.31,1.05-.41,2.14-.71,3.25-.89.17-.03.34-.06.61-.11"/><path id="Path_583" class="cls-14" d="m32.15,20.55c-.12.57-.22,1.07-.34,1.57-.2.8-.41,1.59-.62,2.38-.12.44-.4.81-.78,1.05-.61.46-1.48.35-1.95-.26-.17-.23-.27-.51-.28-.79-.08-.64.16-1.28.64-1.71.82-.71,1.71-1.32,2.66-1.84.2-.12.41-.23.68-.38"/><path id="Path_584" class="cls-12" d="m32.26,15.91c-.19.46-.36.93-.56,1.39-.34.77-.67,1.53-1.03,2.29-.22.44-.6.78-1.07.93-.69.29-1.48-.04-1.77-.73-.07-.16-.1-.33-.1-.5-.07-.69.24-1.35.81-1.74.84-.54,1.74-.98,2.68-1.31.33-.13.66-.25.99-.37l.06.05"/></g></g></g></svg>