<svg id="Group_304" data-name="Group 304" xmlns="http://www.w3.org/2000/svg" xmlns:xlink="http://www.w3.org/1999/xlink" width="33.291" height="44.987" viewBox="0 0 33.291 44.987">
  <defs>
    <clipPath id="clip-path">
      <rect id="Rectangle_1928" data-name="Rectangle 1928" width="33.291" height="44.987" fill="#0082fe" stroke="#0082fe" stroke-width="1"/>
    </clipPath>
  </defs>
  <g id="Group_303" data-name="Group 303" clip-path="url(#clip-path)">
    <path id="Path_565" data-name="Path 565" d="M164,303.022c-.279-.124-.556-.252-.837-.37a37.859,37.859,0,0,1-12.38-8.429,47.566,47.566,0,0,1-8-11.006,62.753,62.753,0,0,1-4.554-10.893,1.033,1.033,0,0,1-.055-.243.384.384,0,0,1,.267-.431.393.393,0,0,1,.489.2,1.257,1.257,0,0,1,.1.255,61.288,61.288,0,0,0,4.951,11.563,44.89,44.89,0,0,0,9.132,11.627,36.537,36.537,0,0,0,11.047,6.864,3.514,3.514,0,0,1,.39.211v.651Z" transform="translate(-131.262 -258.035)" fill="#0082fe" stroke="#0082fe" stroke-width="1"/>
    <path id="Path_566" data-name="Path 566" d="M183.223,662.971c.57-.035,1.066-.084,1.562-.092,1.324-.02,2.649-.064,3.971-.018a2.763,2.763,0,0,1,2.384,1.9A1.685,1.685,0,0,1,189.531,667a2.5,2.5,0,0,1-1.527-.387c-.926-.62-1.843-1.257-2.736-1.923-.62-.462-1.2-.985-1.79-1.482-.069-.058-.132-.122-.255-.238" transform="translate(-174.054 -629.671)" fill="#0082fe" stroke="#0082fe" stroke-width="1"/>
    <path id="Path_567" data-name="Path 567" d="M106.266,532.4c.639.043,1.279.064,1.915.132,1.11.119,2.226.218,3.323.416a2.671,2.671,0,0,1,2.2,2.019,1.694,1.694,0,0,1-1.9,2.2,2.868,2.868,0,0,1-1.456-.612,27.063,27.063,0,0,1-3.134-3.01c-.329-.351-.646-.713-.969-1.069l.03-.073" transform="translate(-100.92 -505.758)" fill="#0082fe" stroke="#0082fe" stroke-width="1"/>
    <path id="Path_568" data-name="Path 568" d="M45.3,393c.916.17,1.836.319,2.746.518a21.881,21.881,0,0,1,2.512.652,2.619,2.619,0,0,1,1.813,2.224,1.693,1.693,0,0,1-2.132,1.935,2.887,2.887,0,0,1-1.434-.819,28.181,28.181,0,0,1-2.688-3.253c-.292-.392-.572-.794-.857-1.192L45.3,393" transform="translate(-42.999 -373.33)" fill="#0082fe" stroke="#0082fe" stroke-width="1"/>
    <path id="Path_569" data-name="Path 569" d="M.048,249.514c.615.175,1.237.33,1.844.529,1.029.337,2.063.665,3.068,1.064a2.635,2.635,0,0,1,1.749,2.36,1.705,1.705,0,0,1-2.418,1.784,2.534,2.534,0,0,1-1.239-.936q-1.124-1.622-2.2-3.277c-.309-.473-.57-.976-.853-1.465Z" transform="translate(0 -237.028)" fill="#0082fe" stroke="#0082fe" stroke-width="1"/>
    <path id="Path_570" data-name="Path 570" d="M88.776,94.558a1.317,1.317,0,0,1,.11.134c.861,1.483,1.731,2.962,2.578,4.453a2.656,2.656,0,0,1,.236,2.174,1.633,1.633,0,0,1-2.866.689,2.765,2.765,0,0,1-.8-1.863,16.657,16.657,0,0,1,.324-3.428c.108-.657.245-1.31.37-1.965.01-.054.028-.107.051-.195" transform="translate(-83.619 -89.826)" fill="#0082fe" stroke="#0082fe" stroke-width="1"/>
    <path id="Path_571" data-name="Path 571" d="M473.526,119.018c-.048.154-.074.259-.113.359a29.024,29.024,0,0,0-1.794,12.72,31.838,31.838,0,0,0,5.371,15.509c.019.028.037.055.055.084.123.206.11.4-.048.485-.193.109-.334.015-.446-.143-.077-.109-.151-.22-.224-.331a32.812,32.812,0,0,1-5.1-13.5,30.491,30.491,0,0,1,1.629-15.055c.031-.086.054-.2.118-.243a.464.464,0,0,1,.321-.111c.093.021.161.153.231.226" transform="translate(-447.346 -112.843)" fill="#0082fe" stroke="#0082fe" stroke-width="1"/>
    <path id="Path_572" data-name="Path 572" d="M180,183.358a.925.925,0,0,1,.021.145c-.07,1.623-.122,3.246-.22,4.867a2.242,2.242,0,0,1-1.237,1.933,1.633,1.633,0,0,1-2.258-.732,2.339,2.339,0,0,1,.094-2.494,9.306,9.306,0,0,1,1.156-1.405c.741-.754,1.524-1.467,2.29-2.2.04-.038.087-.067.153-.117" transform="translate(-167.182 -174.182)" fill="#0082fe" stroke="#0082fe" stroke-width="1"/>
    <path id="Path_573" data-name="Path 573" d="M227.017,300.971c.038.393.085.738.1,1.084.066,1.389.145,2.778.172,4.168a2.1,2.1,0,0,1-.839,1.666,1.66,1.66,0,0,1-2.583-.5,2.282,2.282,0,0,1-.07-2.341,14.482,14.482,0,0,1,1.281-1.872c.556-.706,1.172-1.364,1.763-2.042.041-.047.09-.086.174-.165" transform="translate(-212.323 -285.91)" fill="#0082fe" stroke="#0082fe" stroke-width="1"/>
    <path id="Path_574" data-name="Path 574" d="M287.209,412.525c.083.4.162.718.214,1.042.221,1.38.449,2.759.641,4.143a2.061,2.061,0,0,1-.48,1.538,1.707,1.707,0,0,1-2.974-.3,2.422,2.422,0,0,1-.081-2.192,17.092,17.092,0,0,1,1.652-2.789c.319-.465.654-.92,1.027-1.444" transform="translate(-270.079 -391.881)" fill="#0082fe" stroke="#0082fe" stroke-width="1"/>
    <path id="Path_575" data-name="Path 575" d="M360.8,517.558c.25.749.52,1.492.744,2.249a26.92,26.92,0,0,1,.74,2.8,2.049,2.049,0,0,1-.791,2,1.575,1.575,0,0,1-2.051-.037,2.307,2.307,0,0,1-.818-2.444,13.229,13.229,0,0,1,1.219-2.923c.282-.555.587-1.1.881-1.649l.075.005" transform="translate(-340.601 -491.653)" fill="#0082fe" stroke="#0082fe" stroke-width="1"/>
    <path id="Path_576" data-name="Path 576" d="M407.566,147.556c.363.391.717.753,1.048,1.136.517.6,1.04,1.194,1.52,1.822a2.083,2.083,0,0,1,.11,2.328,1.206,1.206,0,0,1-1.9.246,2.061,2.061,0,0,1-.665-1.467c-.076-1.321-.109-2.645-.159-3.968,0-.014.012-.029.042-.1" transform="translate(-387.13 -140.172)" fill="#0082fe" stroke="#0082fe" stroke-width="1"/>
    <path id="Path_577" data-name="Path 577" d="M385.4,261.253c.313.241.6.444.862.666.723.6,1.457,1.194,2.154,1.826a2.026,2.026,0,0,1,.628,1.914,1.284,1.284,0,0,1-.819,1.083,1.2,1.2,0,0,1-1.316-.3,2.593,2.593,0,0,1-.547-.762,19.667,19.667,0,0,1-.962-4.428" transform="translate(-366.117 -248.179)" fill="#0082fe" stroke="#0082fe" stroke-width="1"/>
    <path id="Path_578" data-name="Path 578" d="M381.884,378.844a19.57,19.57,0,0,1,3.538,2.011,1.948,1.948,0,0,1,.734,2.028,1.2,1.2,0,0,1-1.669.892,2.008,2.008,0,0,1-1.037-.968,21.519,21.519,0,0,1-1.35-3.305c-.075-.218-.144-.438-.215-.658" transform="translate(-362.773 -359.886)" fill="#0082fe" stroke="#0082fe" stroke-width="1"/>
    <path id="Path_579" data-name="Path 579" d="M438.753,40.236c.279.411.57.814.834,1.234.416.662.848,1.317,1.212,2.007a1.989,1.989,0,0,1-.191,2.276,1.2,1.2,0,0,1-2-.044,2.01,2.01,0,0,1-.384-1.192,20.432,20.432,0,0,1,.327-3.451c.041-.27.091-.539.136-.808l.064-.022" transform="translate(-416.295 -38.222)" fill="#0082fe" stroke="#0082fe" stroke-width="1"/>
    <path id="Path_580" data-name="Path 580" d="M512.424.039c-.089.575-.165,1.152-.272,1.724-.149.793-.279,1.594-.5,2.369a1.676,1.676,0,0,1-1.346,1.237,1.058,1.058,0,0,1-1.218-.651,1.783,1.783,0,0,1,.274-1.908,21.3,21.3,0,0,1,1.768-1.791c.384-.364.813-.68,1.222-1.018l.068.039" transform="translate(-483.464)" fill="#0082fe" stroke="#0082fe" stroke-width="1"/>
    <path id="Path_581" data-name="Path 581" d="M529.881,119.878c-.857.926-1.694,1.873-2.582,2.769a1.453,1.453,0,0,1-1.427.329,1.189,1.189,0,0,1-.86-1.494,1.606,1.606,0,0,1,1.2-1.281c.784-.176,1.59-.26,2.389-.359.4-.05.808-.046,1.212-.066l.065.1" transform="translate(-498.7 -113.782)" fill="#0082fe" stroke="#0082fe" stroke-width="1"/>
    <path id="Path_582" data-name="Path 582" d="M507.026,200c-.458.735-.868,1.41-1.3,2.072-.249.384-.516.758-.8,1.117a1.522,1.522,0,0,1-1.056.558,1.236,1.236,0,0,1-1.349-1.677,1.761,1.761,0,0,1,1.044-1.172,14.954,14.954,0,0,1,2.91-.8c.153-.031.308-.056.546-.1" transform="translate(-477.313 -189.989)" fill="#0082fe" stroke="#0082fe" stroke-width="1"/>
    <path id="Path_583" data-name="Path 583" d="M506.606,367.186c-.111.51-.2.958-.308,1.4-.177.711-.365,1.42-.557,2.127a1.636,1.636,0,0,1-.7.94,1.241,1.241,0,0,1-1.992-.945,1.753,1.753,0,0,1,.572-1.533,13.772,13.772,0,0,1,2.38-1.646c.182-.108.369-.208.609-.343" transform="translate(-477.861 -348.811)" fill="#0082fe" stroke="#0082fe" stroke-width="1"/>
    <path id="Path_584" data-name="Path 584" d="M499.289,283.388c-.167.414-.324.832-.5,1.241-.3.687-.6,1.371-.923,2.049a1.613,1.613,0,0,1-.959.828,1.21,1.21,0,0,1-1.676-1.1,1.688,1.688,0,0,1,.724-1.56,11.11,11.11,0,0,1,2.395-1.172c.293-.118.591-.223.887-.334l.054.044" transform="translate(-470.443 -269.165)" fill="#0082fe" stroke="#0082fe" stroke-width="1"/>
  </g>
</svg>
