<?xml version="1.0" encoding="utf-8"?>
<!-- Generator: Adobe Illustrator 27.4.1, SVG Export Plug-In . SVG Version: 6.00 Build 0)  -->
<svg version="1.1" id="Layer_1" xmlns="http://www.w3.org/2000/svg" xmlns:xlink="http://www.w3.org/1999/xlink" x="0px" y="0px"
	 viewBox="0 0 799.6 314.4" style="enable-background:new 0 0 799.6 314.4;" xml:space="preserve">
<style type="text/css">
	.st0{fill:#616974;}
	.st1{fill:url(#Path_621_00000024002611678102693330000014580800715177765809_);}
	.st2{fill:#3A4352;}
	.st3{fill:none;}
	.st4{enable-background:new    ;}
	.st5{fill:url(#SVGID_1_);stroke:#00AFD8;stroke-width:2;stroke-miterlimit:10;}
	.st6{fill:url(#SVGID_00000110431138359103167120000015749915329155510945_);stroke:#006F9B;stroke-width:2;stroke-miterlimit:10;}
	.st7{fill:none;stroke:#00AFD8;stroke-width:2;stroke-linecap:round;stroke-linejoin:round;}
	.st8{opacity:0.46;fill:url(#SVGID_00000015321258408141482330000007959631150774859956_);}
	.st9{fill:none;stroke:#006F9B;stroke-width:2;stroke-linecap:round;stroke-linejoin:round;}
</style>
<g>
	<g id="Layer_2_00000011734099848019064710000016628442666371113606_">
		<g id="Layer_1-2">
			<path id="Path_615" class="st0" d="M33,241v-0.8l1.2-1c2.9-2.4,4.2-3.6,4.2-5.1c0-1-0.6-1.9-2.2-1.9c-0.9,0-1.7,0.3-2.4,0.8
				l-0.5-0.9c0.9-0.7,2.1-1,3.2-1c2.4,0,3.5,1.4,3.5,2.8c0,1.8-1.5,3.2-3.9,5.2l-0.9,0.7l0,0h5.1v1.1L33,241L33,241z M49.4,236
				c0,3.3-1.4,5.1-3.9,5.1c-2.2,0-3.7-1.8-3.7-5c0-3.3,1.6-5.1,3.9-5.1S49.4,232.9,49.4,236 M43.3,236.2c0,2.5,0.9,4,2.3,4
				c1.6,0,2.3-1.6,2.3-4.1s-0.7-4-2.3-4C44.2,232.1,43.3,233.5,43.3,236.2"/>
			<path id="Path_616" class="st0" d="M37.7,194.2v-2.6h-5.2v-0.9l5-6.2h1.7v6h1.6v1h-1.6v2.6L37.7,194.2L37.7,194.2z M37.7,190.6
				v-3.2c0-0.5,0-1,0-1.5l0,0c-0.3,0.6-0.6,1-0.9,1.4l-2.8,3.3l0,0H37.7z M49.4,189.3c0,3.3-1.4,5.1-3.9,5.1c-2.2,0-3.7-1.8-3.7-5
				c0-3.3,1.6-5.1,3.9-5.1S49.4,186.2,49.4,189.3 M43.3,189.4c0,2.5,0.9,4,2.3,4c1.6,0,2.3-1.6,2.3-4.1s-0.7-4-2.3-4
				C44.2,185.4,43.3,186.8,43.3,189.4"/>
			<path id="Path_617" class="st0" d="M39.4,138.7c-0.4,0-0.8,0-1.2,0.1c-1.9,0.1-3.6,1.5-3.9,3.4l0,0c0.7-0.8,1.7-1.2,2.7-1.1
				c1.7-0.2,3.2,1.1,3.4,2.8c0,0.1,0,0.2,0,0.3c0,1.9-1.6,3.5-3.6,3.4c-0.1,0-0.1,0-0.2,0c-2.1,0.1-3.9-1.5-4-3.6c0-0.2,0-0.4,0-0.5
				c0-1.7,0.7-3.3,1.9-4.4c1-0.8,2.3-1.3,3.6-1.4c0.4-0.1,0.7-0.1,1.1-0.1L39.4,138.7L39.4,138.7z M39,144.3c0.1-1.2-0.8-2.2-2-2.2
				c-0.1,0-0.2,0-0.3,0c-0.9,0-1.7,0.4-2.2,1.2c-0.1,0.2-0.2,0.4-0.2,0.6c0,1.6,0.9,2.8,2.5,2.8c1.2,0,2.2-0.9,2.2-2.1
				C39,144.5,39,144.4,39,144.3 M49.4,142.5c0,3.3-1.4,5.1-3.9,5.1c-2.2,0-3.7-1.8-3.7-5c0-3.3,1.6-5.1,3.9-5.1
				S49.4,139.4,49.4,142.5 M43.3,142.7c0,2.5,0.9,4,2.3,4c1.6,0,2.3-1.6,2.3-4.1s-0.7-4-2.3-4C44.2,138.6,43.3,140,43.3,142.7"/>
			<path id="Path_618" class="st0" d="M32.8,98.3c0-1.2,0.8-2.1,2.2-2.6v-0.1c-1-0.3-1.7-1.2-1.8-2.2c0-1.5,1.5-2.6,3.5-2.6
				c2.2,0,3.3,1.2,3.3,2.4c-0.1,1.1-0.8,2-1.9,2.3v0.1c1.4,0.5,2.3,1.3,2.3,2.5c0,1.7-1.7,2.8-3.8,2.8
				C34.2,100.9,32.8,99.7,32.8,98.3 M38.9,98.2c0-1.2-1-1.8-2.5-2.1c-1.3,0.3-2,1.1-2,2c0,1,0.8,1.8,2.3,1.8S38.9,99.2,38.9,98.2
				 M34.7,93.4c0,1,0.8,1.5,2.2,1.8c1-0.3,1.7-0.9,1.7-1.8c0-0.8-0.5-1.6-1.9-1.6C35.4,91.8,34.7,92.5,34.7,93.4 M49.4,95.8
				c0,3.3-1.4,5.1-3.9,5.1c-2.2,0-3.7-1.8-3.7-5c0-3.3,1.6-5.1,3.9-5.1S49.4,92.7,49.4,95.8 M43.2,95.9c0,2.5,0.9,4,2.3,4
				c1.6,0,2.3-1.6,2.3-4.1s-0.7-4-2.3-4C44.2,91.9,43.2,93.3,43.2,95.9"/>
			<path id="Path_619" class="st0" d="M27.4,45.5L27.4,45.5l-2,0.9l-0.3-1l2.5-1.1h1.3V54h-1.5V45.5L27.4,45.5z M40.5,49
				c0,3.3-1.4,5.1-3.9,5.1c-2.2,0-3.7-1.8-3.7-5c0-3.3,1.6-5,3.9-5S40.5,46,40.5,49 M34.3,49.2c0,2.5,0.9,4,2.3,4
				c1.6,0,2.3-1.6,2.3-4s-0.7-4-2.3-4C35.3,45.2,34.3,46.6,34.3,49.2 M49.4,49.1c0,3.3-1.4,5.1-3.9,5.1c-2.2,0-3.7-1.8-3.7-5
				c0-3.3,1.6-5,3.9-5S49.4,46,49.4,49.1 M43.3,49.2c0,2.5,0.9,4,2.3,4c1.6,0,2.3-1.6,2.3-4s-0.7-4-2.3-4
				C44.2,45.2,43.3,46.6,43.3,49.2"/>
			<path id="Path_620" class="st0" d="M49.4,275.3c0,3.3-1.4,5.1-3.9,5.1c-2.2,0-3.7-1.8-3.7-5c0-3.3,1.6-5,3.9-5
				S49.4,272.2,49.4,275.3 M43.2,275.5c0,2.5,0.9,4,2.3,4c1.6,0,2.3-1.6,2.3-4s-0.7-4-2.3-4C44.2,271.4,43.2,272.8,43.2,275.5"/>
			
				<linearGradient id="Path_621_00000170991212747442245260000004755942426682031272_" gradientUnits="userSpaceOnUse" x1="370.05" y1="789.34" x2="370.05" y2="610.12" gradientTransform="matrix(1 0 0 1 0 -452)">
				<stop  offset="0.39" style="stop-color:#AD87FF"/>
				<stop  offset="1" style="stop-color:#00CFFF"/>
			</linearGradient>
			<path id="Path_621" style="fill:url(#Path_621_00000170991212747442245260000004755942426682031272_);" d="M71.1,280.4l2.2-91.4
				l36.9-30.6l52.2-50l67.7,51.2l57.1-16.1l39.4-30.3l64.7,67.2l34.6,21.5L515,97.7l52.3,25.1l61.9-88l39.8,144v101.6H71.1
				L71.1,280.4z"/>
			<path id="Path_623" class="st2" d="M669.1,282.3h-598c-1,0.2-2-0.6-2.2-1.6s0.6-2,1.6-2.1c0.2,0,0.4,0,0.6,0H669
				c1-0.2,2,0.6,2.2,1.6s-0.6,2-1.6,2.1C669.4,282.3,669.2,282.3,669.1,282.3"/>
			<rect x="25.1" class="st3" width="646.2" height="282.4"/>
			<g class="st4">
				<path class="st0" d="M74.3,297.1H76v7.1c0,0.9-0.3,1.7-0.9,2.2s-1.4,0.8-2.3,0.8c-1,0-1.8-0.2-2.4-0.7s-0.9-1.2-0.8-2.2l0,0h1.6
					c0,0.6,0.1,1,0.4,1.2c0.3,0.3,0.7,0.4,1.2,0.4c0.4,0,0.8-0.2,1.1-0.5c0.3-0.3,0.4-0.7,0.4-1.2L74.3,297.1L74.3,297.1z"/>
				<path class="st0" d="M82.3,307c-0.1-0.2-0.1-0.4-0.1-0.5s-0.1-0.4-0.1-0.5c-0.2,0.3-0.5,0.6-0.9,0.9c-0.4,0.2-0.8,0.4-1.2,0.4
					c-0.8,0-1.4-0.2-1.8-0.6s-0.6-0.9-0.6-1.6s0.3-1.3,0.8-1.7c0.6-0.4,1.4-0.6,2.4-0.6h1.3V302c0-0.4-0.1-0.7-0.3-0.9
					s-0.6-0.3-1-0.3s-0.7,0.1-0.9,0.3s-0.3,0.4-0.3,0.7H78l0,0c0-0.6,0.2-1.1,0.8-1.6s1.3-0.7,2.2-0.7c0.9,0,1.6,0.2,2.1,0.7
					s0.8,1.1,0.8,1.9v3.3c0,0.3,0,0.6,0.1,0.9c0,0.3,0.1,0.6,0.2,0.8L82.3,307L82.3,307z M80.3,305.8c0.4,0,0.8-0.1,1.1-0.3
					s0.6-0.4,0.7-0.7v-1.1h-1.3c-0.5,0-0.9,0.1-1.1,0.4c-0.3,0.2-0.4,0.5-0.4,0.8s0.1,0.5,0.3,0.7C79.7,305.8,79.9,305.8,80.3,305.8
					z"/>
				<path class="st0" d="M87,299.6l0.1,1.1c0.2-0.4,0.5-0.7,0.9-0.9c0.4-0.2,0.8-0.3,1.2-0.3c0.8,0,1.4,0.2,1.8,0.7s0.6,1.2,0.6,2.2
					v4.6H90v-4.6c0-0.6-0.1-1-0.3-1.2c-0.2-0.2-0.6-0.4-1-0.4c-0.3,0-0.6,0.1-0.9,0.2s-0.5,0.3-0.6,0.6v5.4h-1.7v-7.4L87,299.6
					L87,299.6z"/>
			</g>
			<g class="st4">
				<path class="st0" d="M128.6,302.8h-4.4v4.2h-1.7v-10h6.7v1.3h-5.1v3h4.4L128.6,302.8L128.6,302.8z"/>
				<path class="st0" d="M133.4,307.2c-1,0-1.9-0.3-2.5-1s-0.9-1.6-0.9-2.6v-0.3c0-1.1,0.3-2,0.9-2.7c0.6-0.7,1.4-1.1,2.3-1.1
					c1,0,1.8,0.3,2.3,0.9s0.8,1.4,0.8,2.4v1h-4.6l0,0c0,0.6,0.2,1.1,0.5,1.4s0.8,0.6,1.3,0.6c0.4,0,0.8-0.1,1.1-0.2s0.6-0.3,0.9-0.5
					l0.5,1.1c-0.3,0.2-0.6,0.5-1.1,0.6C134.5,307.1,134,307.2,133.4,307.2z M133.2,300.8c-0.4,0-0.7,0.2-1,0.5s-0.4,0.7-0.5,1.2l0,0
					h2.9v-0.2c0-0.5-0.1-0.9-0.4-1.1S133.7,300.8,133.2,300.8z"/>
				<path class="st0" d="M144.1,303.6c0,1.1-0.3,1.9-0.8,2.6s-1.2,1-2.1,1c-0.5,0-0.9-0.1-1.2-0.3s-0.6-0.5-0.9-0.8l-0.2,1h-1.4
					v-10.7h1.7v4.1c0.2-0.3,0.5-0.6,0.8-0.7s0.7-0.3,1.1-0.3c0.9,0,1.6,0.4,2.1,1.1S144,302.3,144.1,303.6L144.1,303.6L144.1,303.6z
					 M142.5,303.4c0-0.8-0.1-1.4-0.4-1.9s-0.7-0.7-1.3-0.7c-0.4,0-0.7,0.1-0.9,0.2s-0.4,0.4-0.6,0.7v3.1c0.1,0.3,0.3,0.5,0.6,0.7
					s0.6,0.2,0.9,0.2c0.6,0,1-0.2,1.3-0.6s0.4-0.9,0.4-1.6V303.4z"/>
			</g>
			<g class="st4">
				<path class="st0" d="M177,297.1l2.9,7.7l0,0l2.9-7.7h2.2v10h-1.7v-3.4l0.2-4.3l0,0l-3,7.7h-1.1l-2.9-7.7l0,0l0.2,4.3v3.4H175
					v-10H177z"/>
				<path class="st0" d="M191.4,307c-0.1-0.2-0.1-0.4-0.1-0.5s-0.1-0.4-0.1-0.5c-0.2,0.3-0.5,0.6-0.9,0.9c-0.4,0.2-0.8,0.4-1.2,0.4
					c-0.8,0-1.4-0.2-1.8-0.6s-0.6-0.9-0.6-1.6s0.3-1.3,0.8-1.7c0.6-0.4,1.4-0.6,2.4-0.6h1.3V302c0-0.4-0.1-0.7-0.3-0.9
					s-0.6-0.3-1-0.3s-0.7,0.1-0.9,0.3s-0.3,0.4-0.3,0.7H187l0,0c0-0.6,0.2-1.1,0.8-1.6s1.3-0.7,2.2-0.7s1.6,0.2,2.1,0.7
					s0.8,1.1,0.8,1.9v3.3c0,0.3,0,0.6,0.1,0.9c0,0.3,0.1,0.6,0.2,0.8L191.4,307L191.4,307z M189.3,305.8c0.4,0,0.8-0.1,1.1-0.3
					s0.6-0.4,0.7-0.7v-1.1h-1.3c-0.5,0-0.9,0.1-1.1,0.4c-0.3,0.2-0.4,0.5-0.4,0.8s0.1,0.5,0.3,0.7
					C188.7,305.8,189,305.8,189.3,305.8z"/>
				<path class="st0" d="M198.2,301.1h-0.7c-0.3,0-0.6,0.1-0.8,0.2s-0.4,0.3-0.5,0.6v5.1h-1.7v-7.4h1.5l0.1,1.1
					c0.2-0.4,0.4-0.7,0.7-0.9s0.6-0.3,1-0.3c0.1,0,0.2,0,0.3,0s0.2,0,0.2,0.1L198.2,301.1z"/>
			</g>
			<g class="st4">
				<path class="st0" d="M232.6,304.7h-3.9l-0.8,2.3h-1.7l3.7-10h1.6l3.6,10h-1.7L232.6,304.7z M229.1,303.3h2.9l-1.4-4.3l0,0
					L229.1,303.3z"/>
				<path class="st0" d="M242.5,303.6c0,1.1-0.3,1.9-0.8,2.6s-1.2,1-2.1,1c-0.4,0-0.8-0.1-1.1-0.2s-0.6-0.4-0.8-0.7v3.6H236v-10.2
					h1.4l0.2,0.9c0.2-0.3,0.5-0.6,0.9-0.8s0.7-0.3,1.2-0.3c0.9,0,1.6,0.4,2.1,1.1s0.8,1.7,0.8,2.9L242.5,303.6L242.5,303.6z
					 M240.8,303.4c0-0.8-0.1-1.4-0.4-1.9c-0.3-0.5-0.7-0.7-1.3-0.7c-0.3,0-0.6,0.1-0.9,0.2c-0.2,0.1-0.4,0.4-0.6,0.6v3.3
					c0.1,0.3,0.3,0.5,0.6,0.6s0.5,0.2,0.9,0.2c0.6,0,1-0.2,1.3-0.6s0.4-1,0.4-1.6V303.4z"/>
				<path class="st0" d="M247.6,301.1h-0.7c-0.3,0-0.6,0.1-0.8,0.2s-0.4,0.3-0.5,0.6v5.1h-1.7v-7.4h1.5l0.1,1.1
					c0.2-0.4,0.4-0.7,0.7-0.9s0.6-0.3,1-0.3c0.1,0,0.2,0,0.3,0s0.2,0,0.2,0.1L247.6,301.1z"/>
			</g>
			<g class="st4">
				<path class="st0" d="M281.6,297.1l2.9,7.7l0,0l2.9-7.7h2.2v10h-1.7v-3.4l0.2-4.3l0,0l-3,7.7H284l-2.9-7.7l0,0l0.2,4.3v3.4h-1.7
					v-10H281.6z"/>
				<path class="st0" d="M296,307c-0.1-0.2-0.1-0.4-0.1-0.5s-0.1-0.4-0.1-0.5c-0.2,0.3-0.5,0.6-0.9,0.9c-0.4,0.2-0.8,0.4-1.2,0.4
					c-0.8,0-1.4-0.2-1.8-0.6s-0.6-0.9-0.6-1.6s0.3-1.3,0.8-1.7c0.6-0.4,1.4-0.6,2.4-0.6h1.3V302c0-0.4-0.1-0.7-0.3-0.9
					s-0.6-0.3-1-0.3s-0.7,0.1-0.9,0.3s-0.3,0.4-0.3,0.7h-1.6l0,0c0-0.6,0.2-1.1,0.8-1.6s1.3-0.7,2.2-0.7c0.9,0,1.6,0.2,2.1,0.7
					s0.8,1.1,0.8,1.9v3.3c0,0.3,0,0.6,0.1,0.9c0,0.3,0.1,0.6,0.2,0.8L296,307L296,307z M294,305.8c0.4,0,0.8-0.1,1.1-0.3
					s0.6-0.4,0.7-0.7v-1.1h-1.3c-0.5,0-0.9,0.1-1.1,0.4c-0.3,0.2-0.4,0.5-0.4,0.8s0.1,0.5,0.3,0.7
					C293.3,305.8,293.6,305.8,294,305.8z"/>
				<path class="st0" d="M301.5,304.1l0.2,0.7l0,0l1.6-5.2h1.8l-3.1,8.5c-0.2,0.5-0.5,1-0.8,1.3s-0.9,0.5-1.5,0.5
					c-0.1,0-0.3,0-0.4,0s-0.3-0.1-0.5-0.1l0.2-1.3c0.1,0,0.1,0,0.3,0s0.2,0,0.2,0c0.3,0,0.5-0.1,0.7-0.3s0.3-0.4,0.4-0.7l0.3-0.7
					l-2.7-7.3h1.8L301.5,304.1z"/>
			</g>
			<g class="st4">
				<path class="st0" d="M335.9,297.1h1.7v7.1c0,0.9-0.3,1.7-0.9,2.2s-1.4,0.8-2.3,0.8c-1,0-1.8-0.2-2.4-0.7s-0.9-1.2-0.8-2.2l0,0
					h1.6c0,0.6,0.1,1,0.4,1.2c0.3,0.3,0.7,0.4,1.2,0.4c0.4,0,0.8-0.2,1.1-0.5c0.3-0.3,0.4-0.7,0.4-1.2L335.9,297.1L335.9,297.1z"/>
				<path class="st0" d="M344,306c-0.2,0.4-0.5,0.7-0.9,0.9c-0.4,0.2-0.8,0.3-1.2,0.3c-0.8,0-1.4-0.3-1.9-0.8s-0.7-1.3-0.7-2.4v-4.4
					h1.7v4.4c0,0.6,0.1,1.1,0.3,1.4s0.5,0.4,1,0.4c0.4,0,0.7-0.1,1-0.2s0.5-0.4,0.6-0.6v-5.3h1.7v7.4h-1.4L344,306z"/>
				<path class="st0" d="M348.9,299.6l0.1,1.1c0.2-0.4,0.5-0.7,0.9-0.9c0.4-0.2,0.8-0.3,1.2-0.3c0.8,0,1.4,0.2,1.8,0.7
					s0.6,1.2,0.6,2.2v4.6h-1.7v-4.6c0-0.6-0.1-1-0.3-1.2c-0.2-0.2-0.6-0.4-1-0.4c-0.3,0-0.6,0.1-0.9,0.2s-0.5,0.3-0.6,0.6v5.4h-1.7
					v-7.4L348.9,299.6L348.9,299.6z"/>
			</g>
			<g class="st4">
				<path class="st0" d="M388.2,297.1h1.7v7.1c0,0.9-0.3,1.7-0.9,2.2s-1.4,0.8-2.3,0.8c-1,0-1.8-0.2-2.4-0.7s-0.9-1.2-0.8-2.2l0,0
					h1.6c0,0.6,0.1,1,0.4,1.2c0.3,0.3,0.7,0.4,1.2,0.4c0.4,0,0.8-0.2,1.1-0.5c0.3-0.3,0.4-0.7,0.4-1.2L388.2,297.1L388.2,297.1z"/>
				<path class="st0" d="M396.4,306c-0.2,0.4-0.5,0.7-0.9,0.9c-0.4,0.2-0.8,0.3-1.2,0.3c-0.8,0-1.4-0.3-1.9-0.8s-0.7-1.3-0.7-2.4
					v-4.4h1.7v4.4c0,0.6,0.1,1.1,0.3,1.4s0.5,0.4,1,0.4c0.4,0,0.7-0.1,1-0.2s0.5-0.4,0.6-0.6v-5.3h1.7v7.4h-1.4L396.4,306z"/>
				<path class="st0" d="M401.4,307h-1.7v-10.7h1.7V307z"/>
			</g>
			<g class="st4">
				<path class="st0" d="M441.8,304.7h-3.9l-0.8,2.3h-1.7l3.7-10h1.6l3.6,10h-1.7L441.8,304.7z M438.4,303.3h2.9l-1.4-4.3l0,0
					L438.4,303.3z"/>
				<path class="st0" d="M449.8,306c-0.2,0.4-0.5,0.7-0.9,0.9c-0.4,0.2-0.8,0.3-1.2,0.3c-0.8,0-1.4-0.3-1.9-0.8
					c-0.4-0.5-0.7-1.3-0.7-2.4v-4.4h1.7v4.4c0,0.6,0.1,1.1,0.3,1.4c0.2,0.3,0.5,0.4,1,0.4c0.4,0,0.7-0.1,1-0.2s0.5-0.4,0.6-0.6v-5.3
					h1.7v7.4H450L449.8,306z"/>
				<path class="st0" d="M452.9,303.4c0-1.2,0.3-2.1,0.8-2.9c0.5-0.7,1.2-1.1,2.1-1.1c0.4,0,0.8,0.1,1.2,0.3
					c0.3,0.2,0.6,0.5,0.9,0.8l0.2-1h1.4v7.4c0,1-0.3,1.7-0.9,2.2S457,310,456,310c-0.4,0-0.7-0.1-1.2-0.2c-0.4-0.1-0.8-0.2-1.1-0.4
					l0.4-1.3c0.3,0.1,0.6,0.3,0.9,0.3c0.3,0.1,0.7,0.1,1,0.1c0.6,0,1-0.1,1.3-0.4s0.4-0.7,0.4-1.2v-0.8c-0.2,0.3-0.5,0.5-0.8,0.7
					s-0.7,0.2-1.1,0.2c-0.9,0-1.6-0.3-2.1-1S452.9,304.5,452.9,303.4L452.9,303.4L452.9,303.4z M454.5,303.6c0,0.7,0.1,1.2,0.4,1.6
					s0.7,0.6,1.3,0.6c0.4,0,0.7-0.1,0.9-0.2c0.2-0.1,0.4-0.4,0.6-0.6v-3.2c-0.2-0.3-0.4-0.5-0.6-0.6c-0.2-0.2-0.5-0.2-0.9-0.2
					c-0.6,0-1,0.2-1.3,0.7S454.5,302.8,454.5,303.6L454.5,303.6z"/>
			</g>
			<g class="st4">
				<path class="st0" d="M494.1,304.5c0-0.4-0.2-0.8-0.5-1c-0.3-0.3-0.9-0.5-1.6-0.7c-1.1-0.3-2-0.7-2.6-1.2s-0.9-1.1-0.9-1.9
					s0.3-1.5,1-2s1.5-0.8,2.6-0.8s2,0.3,2.6,0.9c0.7,0.6,1,1.3,1,2.1l0,0h-1.6c0-0.5-0.2-0.9-0.5-1.2c-0.3-0.3-0.8-0.5-1.5-0.5
					c-0.6,0-1.1,0.1-1.4,0.4s-0.5,0.6-0.5,1s0.2,0.7,0.5,0.9c0.4,0.2,0.9,0.5,1.8,0.7c1.1,0.3,1.9,0.7,2.4,1.2
					c0.6,0.5,0.8,1.2,0.8,1.9c0,0.8-0.3,1.5-1,2s-1.5,0.7-2.6,0.7c-1,0-2-0.3-2.7-0.8c-0.8-0.6-1.2-1.3-1.1-2.3l0,0h1.6
					c0,0.6,0.2,1.1,0.6,1.4s1,0.4,1.6,0.4s1.1-0.1,1.4-0.4S494.1,304.9,494.1,304.5z"/>
				<path class="st0" d="M500.5,307.2c-1,0-1.9-0.3-2.5-1s-0.9-1.6-0.9-2.6v-0.3c0-1.1,0.3-2,0.9-2.7s1.4-1.1,2.3-1.1
					c1,0,1.8,0.3,2.3,0.9s0.8,1.4,0.8,2.4v1h-4.6l0,0c0,0.6,0.2,1.1,0.5,1.4c0.3,0.4,0.8,0.6,1.3,0.6c0.4,0,0.8-0.1,1.1-0.2
					c0.3-0.1,0.6-0.3,0.9-0.5l0.5,1.1c-0.3,0.2-0.6,0.5-1.1,0.6C501.6,307.1,501.1,307.2,500.5,307.2z M500.3,300.8
					c-0.4,0-0.7,0.2-1,0.5s-0.4,0.7-0.5,1.2l0,0h2.9v-0.2c0-0.5-0.1-0.9-0.4-1.1S500.8,300.8,500.3,300.8z"/>
				<path class="st0" d="M511.2,303.6c0,1.1-0.3,1.9-0.8,2.6s-1.2,1-2.1,1c-0.4,0-0.8-0.1-1.1-0.2c-0.3-0.2-0.6-0.4-0.8-0.7v3.6
					h-1.7v-10.2h1.4l0.2,0.9c0.2-0.3,0.5-0.6,0.9-0.8s0.7-0.3,1.2-0.3c0.9,0,1.6,0.4,2.1,1.1s0.8,1.7,0.8,2.9v0.1H511.2z
					 M509.6,303.4c0-0.8-0.1-1.4-0.4-1.9s-0.7-0.7-1.3-0.7c-0.3,0-0.6,0.1-0.9,0.2c-0.2,0.1-0.4,0.4-0.6,0.6v3.3
					c0.1,0.3,0.3,0.5,0.6,0.6c0.2,0.1,0.5,0.2,0.9,0.2c0.6,0,1-0.2,1.3-0.6s0.4-1,0.4-1.6V303.4z"/>
			</g>
			<g class="st4">
				<path class="st0" d="M548.8,302.9c0,1.2-0.4,2.2-1.1,3c-0.8,0.8-1.8,1.2-3,1.2s-2.2-0.4-2.9-1.2c-0.7-0.8-1.1-1.8-1.1-3v-1.8
					c0-1.2,0.4-2.2,1.1-3s1.7-1.2,2.9-1.2s2.2,0.4,3,1.2s1.1,1.8,1.1,3V302.9z M547.2,301.1c0-0.8-0.2-1.5-0.7-2s-1-0.8-1.8-0.8
					c-0.7,0-1.3,0.3-1.7,0.8s-0.6,1.2-0.6,2v1.8c0,0.8,0.2,1.5,0.6,2.1c0.4,0.5,1,0.8,1.7,0.8c0.8,0,1.4-0.3,1.8-0.8
					c0.4-0.5,0.7-1.2,0.7-2.1V301.1z"/>
				<path class="st0" d="M553.4,305.8c0.4,0,0.7-0.1,1-0.4c0.3-0.2,0.4-0.5,0.4-0.9h1.5l0,0c0,0.7-0.3,1.3-0.8,1.8
					c-0.6,0.5-1.3,0.8-2.1,0.8c-1.1,0-1.9-0.4-2.5-1.1s-0.9-1.6-0.9-2.7v-0.2c0-1.1,0.3-2,0.9-2.7c0.6-0.7,1.4-1.1,2.5-1.1
					c0.9,0,1.6,0.3,2.2,0.8c0.6,0.5,0.8,1.2,0.8,2l0,0h-1.5c0-0.4-0.1-0.8-0.4-1s-0.6-0.4-1-0.4c-0.6,0-1.1,0.2-1.3,0.7
					c-0.3,0.5-0.4,1-0.4,1.7v0.2c0,0.7,0.1,1.3,0.4,1.7C552.4,305.6,552.8,305.8,553.4,305.8z"/>
				<path class="st0" d="M559.8,297.8v1.8h1.3v1.2h-1.3v4.1c0,0.3,0.1,0.5,0.2,0.7c0.1,0.1,0.3,0.2,0.5,0.2c0.1,0,0.2,0,0.3,0
					s0.2,0,0.2-0.1l0.2,1.2c-0.1,0.1-0.3,0.1-0.5,0.2c-0.2,0-0.4,0.1-0.6,0.1c-0.6,0-1.1-0.2-1.4-0.5c-0.3-0.4-0.5-0.9-0.5-1.7v-4.1
					H557v-1.2h1.1v-1.8h1.7V297.8z"/>
			</g>
			<g class="st4">
				<path class="st0" d="M601.1,307h-1.7l-4.4-7.3l0,0v7.3h-1.7v-10h1.7l4.4,7.3l0,0v-7.2h1.7V307z"/>
				<path class="st0" d="M602.8,303.3c0-1.1,0.3-2,0.9-2.7c0.6-0.7,1.4-1.1,2.5-1.1s1.9,0.4,2.5,1.1s0.9,1.6,0.9,2.7v0.1
					c0,1.1-0.3,2-0.9,2.7c-0.6,0.7-1.4,1-2.5,1s-1.9-0.4-2.5-1.1S602.8,304.4,602.8,303.3L602.8,303.3z M604.5,303.4
					c0,0.7,0.1,1.3,0.4,1.8c0.3,0.5,0.7,0.7,1.3,0.7s1-0.2,1.3-0.7s0.4-1,0.4-1.8v-0.1c0-0.7-0.1-1.3-0.4-1.7
					c-0.3-0.5-0.7-0.7-1.3-0.7s-1,0.2-1.3,0.7s-0.4,1-0.4,1.7V303.4z"/>
				<path class="st0" d="M613.5,304.5l0.1,0.6l0,0l0.1-0.6l1.5-4.9h1.7l-2.6,7.4h-1.4l-2.6-7.4h1.7L613.5,304.5z"/>
			</g>
			<g class="st4">
				<path class="st0" d="M645.7,307v-10h3.2c1.3,0,2.3,0.4,3.1,1.2c0.8,0.8,1.2,1.8,1.2,3v1.5c0,1.2-0.4,2.3-1.2,3
					c-0.8,0.8-1.8,1.2-3.1,1.2L645.7,307L645.7,307z M647.3,298.4v7.3h1.5c0.8,0,1.5-0.3,1.9-0.8s0.7-1.2,0.7-2.1v-1.5
					c0-0.8-0.2-1.5-0.7-2.1s-1.1-0.8-1.9-0.8H647.3z"/>
				<path class="st0" d="M657.8,307.2c-1,0-1.9-0.3-2.5-1s-0.9-1.6-0.9-2.6v-0.3c0-1.1,0.3-2,0.9-2.7c0.6-0.7,1.4-1.1,2.3-1.1
					c1,0,1.8,0.3,2.3,0.9s0.8,1.4,0.8,2.4v1h-4.6l0,0c0,0.6,0.2,1.1,0.5,1.4c0.3,0.4,0.8,0.6,1.3,0.6c0.4,0,0.8-0.1,1.1-0.2
					s0.6-0.3,0.9-0.5l0.5,1.1c-0.3,0.2-0.6,0.5-1.1,0.6C659,307.1,658.4,307.2,657.8,307.2z M657.6,300.8c-0.4,0-0.7,0.2-1,0.5
					s-0.4,0.7-0.5,1.2l0,0h2.9v-0.2c0-0.5-0.1-0.9-0.4-1.1S658.1,300.8,657.6,300.8z"/>
				<path class="st0" d="M665.1,305.8c0.4,0,0.7-0.1,1-0.4c0.3-0.2,0.4-0.5,0.4-0.9h1.5l0,0c0,0.7-0.3,1.3-0.8,1.8
					c-0.6,0.5-1.3,0.8-2.1,0.8c-1.1,0-1.9-0.4-2.5-1.1s-0.9-1.6-0.9-2.7v-0.2c0-1.1,0.3-2,0.9-2.7c0.6-0.7,1.4-1.1,2.5-1.1
					c0.9,0,1.6,0.3,2.2,0.8c0.6,0.5,0.8,1.2,0.8,2l0,0h-1.5c0-0.4-0.1-0.8-0.4-1s-0.6-0.4-1-0.4c-0.6,0-1.1,0.2-1.3,0.7
					c-0.3,0.5-0.4,1-0.4,1.7v0.2c0,0.7,0.1,1.3,0.4,1.7C664.1,305.6,664.5,305.8,665.1,305.8z"/>
			</g>
			<g class="st4">
				<path d="M755.3,141h-7.1v-1.2l3.5-3.8c0.6-0.6,1-1.1,1.2-1.5s0.3-0.8,0.3-1.2c0-0.5-0.1-0.9-0.4-1.2s-0.7-0.5-1.1-0.5
					c-0.6,0-1.1,0.2-1.4,0.5s-0.5,0.8-0.5,1.5H748l0,0c0-0.9,0.3-1.7,0.9-2.4c0.6-0.6,1.5-1,2.7-1c1,0,1.8,0.3,2.4,0.8
					c0.6,0.6,0.9,1.3,0.9,2.2c0,0.6-0.2,1.2-0.5,1.8s-0.9,1.2-1.6,2l-2.4,2.5l0,0h4.8L755.3,141L755.3,141z"/>
				<path d="M763.7,136.8c0,1.4-0.3,2.4-0.9,3.2s-1.5,1.1-2.5,1.1c-1.1,0-1.9-0.4-2.6-1.1s-0.9-1.8-0.9-3.2v-2.4
					c0-1.4,0.3-2.4,0.9-3.2s1.5-1.1,2.6-1.1s1.9,0.4,2.6,1.1s0.9,1.8,0.9,3.2L763.7,136.8L763.7,136.8z M761.9,134.1
					c0-0.9-0.1-1.5-0.4-1.9c-0.3-0.4-0.7-0.6-1.3-0.6s-1,0.2-1.3,0.6c-0.3,0.4-0.4,1.1-0.4,1.9v3c0,0.9,0.1,1.5,0.4,2
					c0.3,0.4,0.7,0.6,1.3,0.6s1-0.2,1.3-0.6c0.3-0.4,0.4-1.1,0.4-2V134.1z"/>
				<path d="M772.3,141h-7.1v-1.2l3.5-3.8c0.6-0.6,1-1.1,1.2-1.5s0.3-0.8,0.3-1.2c0-0.5-0.1-0.9-0.4-1.2s-0.7-0.5-1.1-0.5
					c-0.6,0-1.1,0.2-1.4,0.5s-0.5,0.8-0.5,1.5h-1.7l0,0c0-0.9,0.3-1.7,0.9-2.4c0.6-0.6,1.5-1,2.7-1c1,0,1.8,0.3,2.4,0.8
					c0.6,0.6,0.9,1.3,0.9,2.2c0,0.6-0.2,1.2-0.5,1.8s-0.9,1.2-1.6,2l-2.4,2.5l0,0h4.8L772.3,141L772.3,141z"/>
				<path d="M780.8,141h-7.1v-1.2l3.5-3.8c0.6-0.6,1-1.1,1.2-1.5s0.3-0.8,0.3-1.2c0-0.5-0.1-0.9-0.4-1.2s-0.7-0.5-1.1-0.5
					c-0.6,0-1.1,0.2-1.4,0.5s-0.5,0.8-0.5,1.5h-1.7l0,0c0-0.9,0.3-1.7,0.9-2.4c0.6-0.6,1.5-1,2.7-1c1,0,1.8,0.3,2.4,0.8
					c0.6,0.6,0.9,1.3,0.9,2.2c0,0.6-0.2,1.2-0.5,1.8s-0.9,1.2-1.6,2l-2.4,2.5l0,0h4.8L780.8,141L780.8,141z"/>
			</g>
			<g class="st4">
				<path d="M755.3,191h-7.1v-1.2l3.5-3.8c0.6-0.6,1-1.1,1.2-1.5s0.3-0.8,0.3-1.2c0-0.5-0.1-0.9-0.4-1.2s-0.7-0.5-1.1-0.5
					c-0.6,0-1.1,0.2-1.4,0.5s-0.5,0.8-0.5,1.5H748l0,0c0-0.9,0.3-1.7,0.9-2.4c0.6-0.6,1.5-1,2.7-1c1,0,1.8,0.3,2.4,0.8
					c0.6,0.6,0.9,1.3,0.9,2.2c0,0.6-0.2,1.2-0.5,1.8s-0.9,1.2-1.6,2l-2.4,2.5l0,0h4.8L755.3,191L755.3,191z"/>
				<path d="M763.7,186.9c0,1.4-0.3,2.4-0.9,3.2s-1.5,1.1-2.5,1.1c-1.1,0-1.9-0.4-2.6-1.1s-0.9-1.8-0.9-3.2v-2.4
					c0-1.4,0.3-2.4,0.9-3.2s1.5-1.1,2.6-1.1s1.9,0.4,2.6,1.1s0.9,1.8,0.9,3.2L763.7,186.9L763.7,186.9z M761.9,184.2
					c0-0.9-0.1-1.5-0.4-1.9c-0.3-0.4-0.7-0.6-1.3-0.6s-1,0.2-1.3,0.6c-0.3,0.4-0.4,1.1-0.4,1.9v3c0,0.9,0.1,1.5,0.4,2
					c0.3,0.4,0.7,0.6,1.3,0.6s1-0.2,1.3-0.6c0.3-0.4,0.4-1.1,0.4-2V184.2z"/>
				<path d="M772.3,191h-7.1v-1.2l3.5-3.8c0.6-0.6,1-1.1,1.2-1.5s0.3-0.8,0.3-1.2c0-0.5-0.1-0.9-0.4-1.2s-0.7-0.5-1.1-0.5
					c-0.6,0-1.1,0.2-1.4,0.5s-0.5,0.8-0.5,1.5h-1.7l0,0c0-0.9,0.3-1.7,0.9-2.4c0.6-0.6,1.5-1,2.7-1c1,0,1.8,0.3,2.4,0.8
					c0.6,0.6,0.9,1.3,0.9,2.2c0,0.6-0.2,1.2-0.5,1.8s-0.9,1.2-1.6,2l-2.4,2.5l0,0h4.8L772.3,191L772.3,191z"/>
				<path d="M778.2,191h-1.8v-9h-2.2v-1.3l3.9-0.4L778.2,191L778.2,191z"/>
			</g>
			<g class="st4">
				<path d="M9.3,192.9L9.3,192.9c1.1,0,2,0.3,2.7,1s1,1.7,1,2.9s-0.4,2.3-1.3,3c-0.8,0.8-1.9,1.2-3.2,1.2h-2
					c-1.3,0-2.4-0.4-3.2-1.2S2,198,2,196.8c0-1.3,0.3-2.3,1-3s1.6-1.1,2.7-1.1l0,0v1.7c-0.7,0-1.3,0.2-1.7,0.6
					c-0.4,0.4-0.6,1-0.6,1.7s0.3,1.3,0.9,1.7s1.3,0.6,2.2,0.6h2c0.9,0,1.6-0.2,2.2-0.7c0.6-0.4,0.9-1,0.9-1.8c0-0.7-0.2-1.3-0.6-1.7
					c-0.4-0.4-1-0.6-1.7-0.6C9.3,194.2,9.3,192.9,9.3,192.9z"/>
				<path d="M8.8,191.7c-1.2,0-2.1-0.3-2.9-1s-1.1-1.5-1.1-2.7c0-1.1,0.4-2,1.1-2.7c0.8-0.6,1.7-1,2.9-1H9c1.2,0,2.2,0.3,2.9,1
					c0.7,0.6,1.1,1.5,1.1,2.7c0,1.1-0.4,2-1.1,2.7c-0.8,0.6-1.7,1-2.9,1H8.8z M8.9,189.9c0.8,0,1.4-0.2,1.9-0.5s0.7-0.8,0.7-1.4
					c0-0.6-0.2-1.1-0.7-1.4c-0.5-0.3-1.1-0.5-1.9-0.5H8.8c-0.8,0-1.4,0.2-1.9,0.5s-0.7,0.8-0.7,1.4c0,0.6,0.2,1.1,0.7,1.4
					C7.4,189.7,8,189.9,8.9,189.9L8.9,189.9z"/>
				<path d="M4.9,181.2l1-0.1c-0.4-0.3-0.7-0.6-0.9-1s-0.3-0.8-0.3-1.4c0-0.5,0.1-1,0.4-1.3s0.6-0.6,1.1-0.8c-0.4-0.2-0.8-0.6-1-1
					s-0.4-0.9-0.4-1.4c0-0.8,0.3-1.4,0.8-1.9s1.4-0.7,2.5-0.7h4.8v1.8H8c-0.7,0-1.1,0.1-1.4,0.3s-0.4,0.6-0.4,1s0.1,0.7,0.3,1
					s0.5,0.5,0.8,0.6c0.1,0,0.1,0,0.2,0s0.1,0,0.2,0h5.1v1.8H8c-0.6,0-1.1,0.1-1.4,0.4c-0.3,0.2-0.4,0.6-0.4,1s0.1,0.7,0.2,0.9
					c0.1,0.3,0.3,0.5,0.6,0.6h5.8v1.8H4.9V181.2z"/>
				<path d="M9.1,162.9c1.2,0,2.1,0.3,2.8,0.8S13,165,13,166c0,0.4-0.1,0.8-0.2,1.2s-0.4,0.6-0.7,0.9h3.8v1.8h-11v-1.5l1-0.2
					c-0.4-0.3-0.7-0.6-0.8-0.9c-0.2-0.4-0.3-0.8-0.3-1.2c0-1,0.4-1.7,1.2-2.3c0.8-0.5,1.8-0.8,3.1-0.8l0,0V162.9z M9,164.7
					c-0.8,0-1.5,0.2-2,0.5s-0.8,0.8-0.8,1.4c0,0.4,0.1,0.7,0.2,0.9c0.2,0.3,0.4,0.5,0.7,0.6h3.6c0.3-0.2,0.5-0.4,0.6-0.6
					c0.1-0.3,0.2-0.6,0.2-1c0-0.6-0.2-1.1-0.7-1.4s-1-0.5-1.8-0.5h0V164.7z"/>
				<path d="M12.8,159.4v1.8H1.4v-1.8H12.8z"/>
				<path d="M13,154c0,1.1-0.4,2-1.1,2.7c-0.7,0.7-1.7,1-2.8,1H8.8c-1.2,0-2.1-0.3-2.9-1s-1.1-1.5-1.1-2.5c0-1.1,0.3-1.9,1-2.5
					c0.6-0.6,1.5-0.9,2.6-0.9h1v4.9l0,0c0.6,0,1.1-0.2,1.5-0.6c0.4-0.3,0.6-0.8,0.6-1.4c0-0.5-0.1-0.9-0.2-1.2s-0.3-0.7-0.5-1
					l1.2-0.6c0.3,0.3,0.5,0.7,0.7,1.2C12.9,152.8,13,153.4,13,154z M6.2,154.2c0,0.4,0.2,0.8,0.5,1.1s0.8,0.5,1.3,0.5l0,0v-3.1H7.9
					c-0.5,0-0.9,0.1-1.2,0.4C6.3,153.3,6.2,153.7,6.2,154.2z"/>
				<path d="M3,147.3h1.9v-1.4h1.3v1.4h4.4c0.3,0,0.6-0.1,0.7-0.2c0.1-0.1,0.2-0.3,0.2-0.6c0-0.1,0-0.2,0-0.3s0-0.2-0.1-0.3l1.3-0.2
					c0.1,0.2,0.1,0.3,0.2,0.5c0,0.2,0.1,0.4,0.1,0.7c0,0.7-0.2,1.2-0.6,1.5c-0.4,0.4-1,0.6-1.8,0.6H6.2v1.2H4.9V149H3V147.3z"/>
				<path d="M3,142.4v1.8H1.4v-1.8H3z M12.8,142.4v1.8H4.9v-1.8H12.8z"/>
				<path d="M8.8,140.7c-1.2,0-2.1-0.3-2.9-1s-1.1-1.5-1.1-2.7c0-1.1,0.4-2,1.1-2.7c0.8-0.6,1.7-1,2.9-1H9c1.2,0,2.2,0.3,2.9,1
					c0.7,0.6,1.1,1.5,1.1,2.7c0,1.1-0.4,2-1.1,2.7c-0.8,0.6-1.7,1-2.9,1H8.8z M8.9,138.9c0.8,0,1.4-0.2,1.9-0.5s0.7-0.8,0.7-1.4
					c0-0.6-0.2-1.1-0.7-1.4c-0.5-0.3-1.1-0.5-1.9-0.5H8.8c-0.8,0-1.4,0.2-1.9,0.5s-0.7,0.8-0.7,1.4c0,0.6,0.2,1.1,0.7,1.4
					C7.4,138.7,8,138.9,8.9,138.9L8.9,138.9z"/>
				<path d="M4.9,130.3l1.1-0.1c-0.4-0.3-0.7-0.6-0.9-1c-0.2-0.4-0.3-0.8-0.3-1.3c0-0.8,0.2-1.5,0.8-1.9c0.5-0.5,1.3-0.7,2.3-0.7h5
					v1.8h-5c-0.6,0-1,0.1-1.3,0.4c-0.3,0.2-0.4,0.6-0.4,1.1c0,0.3,0.1,0.7,0.2,0.9c0.2,0.3,0.4,0.5,0.6,0.7h5.8v1.8H4.9V130.3z"/>
				<path d="M10.7,119c-0.3,0-0.5,0.1-0.7,0.4s-0.3,0.7-0.5,1.3c-0.2,0.9-0.5,1.7-0.9,2.1c-0.4,0.5-0.9,0.7-1.5,0.7
					c-0.7,0-1.2-0.3-1.7-0.8s-0.7-1.3-0.7-2.2c0-1,0.2-1.7,0.7-2.3c0.5-0.6,1.1-0.8,1.8-0.8l0,0v1.7c-0.3,0-0.6,0.1-0.8,0.4
					s-0.4,0.6-0.4,1s0.1,0.8,0.3,1c0.2,0.2,0.4,0.3,0.7,0.3s0.5-0.1,0.7-0.3c0.2-0.2,0.3-0.6,0.4-1.3c0.2-1,0.5-1.7,0.9-2.2
					s0.9-0.7,1.5-0.7c0.7,0,1.3,0.3,1.7,0.9s0.7,1.4,0.7,2.3c0,1-0.3,1.8-0.8,2.4s-1.1,0.9-1.8,0.8l0,0V122c0.5,0,0.8-0.2,1-0.5
					s0.3-0.7,0.3-1.1c0-0.5-0.1-0.8-0.3-1.1S11,119,10.7,119z"/>
			</g>
			
				<linearGradient id="SVGID_1_" gradientUnits="userSpaceOnUse" x1="712.2901" y1="608.241" x2="723.6701" y2="586.451" gradientTransform="matrix(1 0 0 1 0 -452)">
				<stop  offset="0.2" style="stop-color:#AD87FF"/>
				<stop  offset="1" style="stop-color:#00CFFF"/>
			</linearGradient>
			<circle class="st5" cx="722.6" cy="136.5" r="6.9"/>
			
				<linearGradient id="SVGID_00000145747309183476164130000013323412727986340755_" gradientUnits="userSpaceOnUse" x1="494.2614" y1="-1535.9996" x2="500.7314" y2="-1549.9297" gradientTransform="matrix(-0.7071 0.7071 -0.7071 -0.7071 -16.39 -1257.1974)">
				<stop  offset="0" style="stop-color:#ADFFFF"/>
				<stop  offset="1" style="stop-color:#00CFFF"/>
			</linearGradient>
			
				<circle style="fill:url(#SVGID_00000145747309183476164130000013323412727986340755_);stroke:#006F9B;stroke-width:2;stroke-miterlimit:10;" cx="722.6" cy="184.9" r="6.9"/>
			<polyline class="st7" points="73.3,189 110.3,158.5 162.5,108.4 230.2,159.6 287.3,143.5 326.7,113.2 391.4,180.4 426,201.8 
				515,97.7 567.3,122.8 629.2,34.8 668.7,177.6 			"/>
			
				<linearGradient id="SVGID_00000052095503322157821000000017063708856256703666_" gradientUnits="userSpaceOnUse" x1="304.1755" y1="836.3118" x2="464.8356" y2="490.2619" gradientTransform="matrix(1 0 0 1 0 -452)">
				<stop  offset="8.000000e-02" style="stop-color:#00CFFF"/>
				<stop  offset="0.74" style="stop-color:#ADFFFF"/>
			</linearGradient>
			<polygon style="opacity:0.46;fill:url(#SVGID_00000052095503322157821000000017063708856256703666_);" points="71.3,205.6 
				157.3,175.5 217,221.5 292,228.2 370.6,134.4 417.5,178.8 487.6,91.9 553.6,192.7 615.7,178.1 669.1,236.8 669.1,278.6 
				71.1,278.6 			"/>
			<polyline class="st9" points="71.1,205.6 157.3,175.5 217,221.5 292,228.2 370.6,134.4 417.5,178.8 487.6,91.9 553.6,192.7 
				615.7,178.1 668,235.6 			"/>
			<path id="Path_622" class="st2" d="M71.1,282.4c-1.1,0.1-2.1-0.8-2.2-1.9V1.9C69,0.8,70-0.1,71.1,0c1.1-0.1,2.1,0.8,2.2,1.9
				v278.6C73.2,281.6,72.2,282.4,71.1,282.4"/>
		</g>
	</g>
</g>
</svg>
