<?xml version="1.0" encoding="UTF-8"?><svg id="Layer_2" xmlns="http://www.w3.org/2000/svg" xmlns:xlink="http://www.w3.org/1999/xlink" viewBox="0 0 45.3 15.1"><defs><style>.cls-1{fill:url(#linear-gradient);}</style><linearGradient id="linear-gradient" x1="-7.51" y1="33.38" x2="31.5" y2="-3.75" gradientUnits="userSpaceOnUse"><stop offset="0" stop-color="#ad87ff"/><stop offset="1" stop-color="#00cfff"/></linearGradient></defs><g id="Layer_1-2"><path id="Icon_awesome-hand-holding" class="cls-1" d="m44.45.64c-.97-.82-2.39-.82-3.36,0l-7.27,5.82c-.89.72-2,1.1-3.14,1.1h-9.3c-.69,0-1.26-.56-1.26-1.26s.56-1.26,1.26-1.26h6.16c1.26.03,2.36-.85,2.62-2.09.24-1.37-.69-2.67-2.06-2.91C27.97.01,27.82,0,27.68,0h-12.58c-2.12,0-4.18.73-5.83,2.07l-3.66,2.96H1.25c-.69,0-1.25.57-1.25,1.26v7.55c0,.69.56,1.26,1.26,1.26h28.06c1.14,0,2.25-.39,3.15-1.1l11.89-9.52c1.09-.87,1.26-2.45.4-3.54-.09-.11-.19-.22-.29-.31Z"/></g></svg>