<?xml version="1.0" encoding="UTF-8"?><svg id="Layer_2" xmlns="http://www.w3.org/2000/svg" xmlns:xlink="http://www.w3.org/1999/xlink" viewBox="0 0 39.4 41.66"><defs><style>.cls-1{fill:url(#linear-gradient);}</style><linearGradient id="linear-gradient" x1="-14.1" y1="74.63" x2="29.16" y2="7.84" gradientUnits="userSpaceOnUse"><stop offset="0" stop-color="#ad87ff"/><stop offset="1" stop-color="#00cfff"/></linearGradient></defs><g id="Layer_1-2"><path id="Icon_metro-justice" class="cls-1" d="m31.69,6.2l-5.71,12.69h-1.66l6.09-13.51h-9.41v31.47c1.94.07,11.83,3.28,11.83,3.28v1.54H6.24v-1.65c3.82-1.25,7.71-2.31,11.64-3.18V5.38h-9.11l6.1,13.51h-1.66L7.48,6.2,1.77,18.88H.11L6.24,5.29v-1.57h10.23c-.16-1.84,1.15-3.48,2.98-3.72,1.83.24,3.14,1.89,2.98,3.72h10.42v1.34l6.23,13.8h-1.67l-5.71-12.67Zm-16.73,14.23c.21,4.21-3.04,7.79-7.24,7.99-.08,0-.16,0-.24,0C3.24,28.31-.11,24.77,0,20.52c0-.03,0-.06,0-.09h14.96,0Zm9.45,0h14.96c.27,4.13-2.86,7.7-7,7.97-4.13.27-7.7-2.86-7.97-7-.02-.32-.02-.65,0-.97Z"/></g></svg>