<?xml version="1.0" encoding="utf-8"?>
<!-- Generator: Adobe Illustrator 27.4.1, SVG Export Plug-In . SVG Version: 6.00 Build 0)  -->
<svg version="1.1" id="Layer_1" xmlns="http://www.w3.org/2000/svg" xmlns:xlink="http://www.w3.org/1999/xlink" x="0px" y="0px"
	 viewBox="0 0 46 29.1" style="enable-background:new 0 0 46 29.1;" xml:space="preserve">
<style type="text/css">
	.st0{fill:#EAA200;}
	.st1{fill:#1AB77E;}
	.st2{fill:#43D7FF;}
	.st3{fill:#10AF7E;}
	.st4{fill:#00CAE5;}
	.st5{fill:#EC7DFF;}
	.st6{fill:#EA2424;}
	.st7{fill:#6470FF;}
	.st8{fill:#40A0FF;}
	.st9{fill:#CC0000;}
	.st10{fill:none;stroke:#000000;stroke-width:1.085;}
	.st11{fill:#FFFFFF;}
	.st12{fill:#1AB77E;stroke:#000000;stroke-width:7;stroke-linecap:round;stroke-miterlimit:10;}
	.st13{fill:#D1783B;stroke:#000000;stroke-width:7;stroke-linecap:round;stroke-miterlimit:10;}
	.st14{fill:#FFBC00;stroke:#000000;stroke-width:7;stroke-linecap:round;stroke-miterlimit:10;}
	.st15{fill:#43D7FF;stroke:#000000;stroke-width:7;stroke-linecap:round;stroke-miterlimit:10;}
	.st16{fill:#D1783B;stroke:#000000;stroke-width:4.5895;stroke-linecap:round;stroke-miterlimit:10;}
	.st17{fill:#EAA200;stroke:#000000;stroke-width:4;stroke-linecap:round;stroke-miterlimit:10;}
	.st18{fill:#1FAAC1;}
	.st19{fill:none;stroke:#000000;stroke-miterlimit:10;}
	.st20{fill:#1DB754;}
	.st21{fill:#62F473;}
</style>
<circle class="st0" cx="-1277.3" cy="-495.9" r="22.9"/>
<circle class="st0" cx="-1243.1" cy="-385.3" r="22.9"/>
<circle class="st1" cx="-2027.7" cy="-465.4" r="22.9"/>
<circle class="st2" cx="-1877.4" cy="-419.5" r="22.9"/>
<g>
	<path d="M-4167.3-1571.4h45.4c7.6,0,13,1.7,16.5,5.1c3.4,3.4,5.1,8.9,5.1,16.5v10.8c0,7.6-1.7,13.1-5.1,16.5
		c-3.4,3.4-8.9,5.1-16.5,5.1h-25.9v21.6h-19.4V-1571.4z M-4119.8-1549.8c0-4.3-2.2-6.5-6.5-6.5h-21.6v23.8h21.6
		c4.3,0,6.5-2.2,6.5-6.5V-1549.8z"/>
	<path d="M-4089-1551.9c13.2-1.4,25.1-2.2,35.6-2.2c4.9,0,8.8,1.5,11.8,4.4c3,3,4.4,6.9,4.4,11.8v42.1h-16.7l-1.1-5.4
		c-3.4,2.2-6.9,3.9-10.4,4.9c-3.6,1-6.6,1.6-9,1.6h-3.8c-4.9,0-8.8-1.5-11.8-4.4c-3-3-4.4-6.9-4.4-11.8v-4.9c0-4.9,1.5-8.8,4.4-11.8
		c3-3,6.9-4.4,11.8-4.4h22.1v-4.3c0-1.1-0.4-2-1.1-2.7c-0.7-0.7-1.6-1.1-2.7-1.1c-4.7,0-9.8,0.2-15.5,0.6c-5.7,0.4-10.2,0.8-13.7,1
		V-1551.9z M-4069.1-1509.8c3.8,0,8.1-0.7,13-2.2v-6.5h-15.7c-1.1,0-2,0.4-2.7,1.1c-0.7,0.7-1.1,1.6-1.1,2.7v1.1
		c0,1.1,0.4,2,1.1,2.7c0.7,0.7,1.6,1.1,2.7,1.1H-4069.1z"/>
	<path d="M-3994.5-1537.3c-4.5,0-9.2,1.1-14,3.2v38.3h-18.9v-57.2h16.7l1.1,7c6.2-5.4,12.7-8.1,19.4-8.1h4.9v16.7H-3994.5z"/>
	<path d="M-3937.8-1495.8c-7,0.7-13.8,1.1-20.5,1.1c-4.9,0-8.8-1.5-11.8-4.4c-3-3-4.4-6.9-4.4-11.8v-27.5h-6.5v-14.6h6.5l2.2-13
		h16.7v13h13.5v14.6h-13.5v24.8c0,1.1,0.4,2,1.1,2.7c0.7,0.7,1.6,1.1,2.7,1.1h14V-1495.8z"/>
	<path d="M-3927.6-1551.9c13.2-1.4,25.1-2.2,35.6-2.2c4.9,0,8.8,1.5,11.8,4.4c3,3,4.4,6.9,4.4,11.8v42.1h-16.7l-1.1-5.4
		c-3.4,2.2-6.9,3.9-10.4,4.9c-3.6,1-6.6,1.6-9,1.6h-3.8c-4.9,0-8.8-1.5-11.8-4.4c-3-3-4.4-6.9-4.4-11.8v-4.9c0-4.9,1.5-8.8,4.4-11.8
		c3-3,6.9-4.4,11.8-4.4h22.1v-4.3c0-1.1-0.4-2-1.1-2.7c-0.7-0.7-1.6-1.1-2.7-1.1c-4.7,0-9.8,0.2-15.5,0.6c-5.7,0.4-10.2,0.8-13.7,1
		V-1551.9z M-3907.6-1509.8c3.8,0,8.1-0.7,13-2.2v-6.5h-15.7c-1.1,0-2,0.4-2.7,1.1c-0.7,0.7-1.1,1.6-1.1,2.7v1.1
		c0,1.1,0.4,2,1.1,2.7c0.7,0.7,1.6,1.1,2.7,1.1H-3907.6z"/>
	<path d="M-3847.1-1518.4v22.7h-18.9v-75.6h18.9v38.3h8.6l11.9-20h20l-16.2,27.5l16.2,29.7h-20l-12.4-22.7H-3847.1z"/>
	<path d="M-3748.3-1496.8c-13.9,1.4-26.5,2.2-37.8,2.2c-4.9,0-8.8-1.5-11.8-4.4c-3-3-4.4-6.9-4.4-11.8v-25.9c0-5.4,1.5-9.6,4.6-12.7
		c3.1-3.1,7.3-4.6,12.7-4.6h21.6c5.4,0,9.6,1.5,12.7,4.6c3.1,3.1,4.6,7.3,4.6,12.7v20h-37.3v4.3c0,1.1,0.4,2,1.1,2.7
		c0.7,0.7,1.6,1.1,2.7,1.1c7.1,0,17.6-0.5,31.3-1.6V-1496.8z M-3779.1-1540.6c-2.9,0-4.3,1.4-4.3,4.3v5.9h18.4v-5.9
		c0-2.9-1.4-4.3-4.3-4.3H-3779.1z"/>
</g>
<g>
	<path d="M-4166.8-1014.5c0-12.1,0-24.3,0-36.7c0-12.4,0-24.6,0-36.7c4.5,0,8.9,0,13.4,0c4.5,0,8.9,0,13.3,0
		c5.5,0,10.4,1.1,14.5,3.2c4.1,2.1,7.3,5.1,9.6,8.9c2.3,3.8,3.5,8.3,3.5,13.4c0,5-1.1,9.5-3.4,13.3c-2.3,3.8-5.4,6.8-9.3,8.9
		c-3.9,2.1-8.4,3.1-13.3,3.1c-1.6,0-3.2,0-4.7,0c-1.5,0-3.1,0-4.7,0c0,3.7,0,7.5,0,11.3c0,3.8,0,7.6,0,11.3c-3.1,0-6.2,0-9.4,0
		C-4160.5-1014.5-4163.6-1014.5-4166.8-1014.5z M-4140-1071c-1.3,0-2.6,0-3.9,0c-1.3,0-2.6,0-3.9,0c0,2.9,0,5.8,0,8.7s0,5.8,0,8.7
		c1.4,0,2.9,0,4.5,0c1.5,0,3,0,4.5,0c2.2,0,4.1-0.8,5.5-2.5c1.4-1.7,2.1-3.7,2.1-6.2c0-2.5-0.8-4.6-2.3-6.3
		C-4135.2-1070.2-4137.3-1071-4140-1071z"/>
	<path d="M-4066.6-1014.5c0-0.6,0-1.1,0-1.7c0-0.5,0-1.1,0-1.6c-1.8,1.5-3.8,2.7-6.1,3.5s-4.7,1.2-7.3,1.2c-3.7,0-7.1-0.7-10.4-2.1
		c-3.2-1.4-6.1-3.4-8.6-6c-2.5-2.6-4.4-5.7-5.8-9.3c-1.4-3.6-2.1-7.6-2.1-12c0-4.5,0.7-8.5,2.1-12.1c1.4-3.6,3.3-6.7,5.8-9.2
		s5.3-4.5,8.6-5.9c3.2-1.4,6.7-2.1,10.3-2.1c2.6,0,5,0.4,7.3,1.2c2.3,0.8,4.4,2,6.2,3.4c0-0.6,0-1.1,0-1.6c0-0.5,0-1,0-1.5
		c3,0,5.9,0,9,0s6,0,8.9,0c0,9.2,0,18.5,0,27.9c0,9.4,0,18.7,0,27.9c-2.9,0-5.8,0-8.9,0S-4063.6-1014.5-4066.6-1014.5z
		 M-4077.6-1028.8c3.5,0,6.2-1.3,8.3-3.8c2.1-2.5,3.1-5.8,3.1-9.9s-1-7.4-3.1-9.9c-2.1-2.5-4.9-3.7-8.3-3.7c-3.5,0-6.3,1.2-8.4,3.7
		c-2.1,2.4-3.1,5.8-3.1,9.9c0,4.2,1,7.5,3.1,10C-4083.9-1030-4081.1-1028.8-4077.6-1028.8z"/>
	<path d="M-4036.9-1014.5c0-9.2,0-18.5,0-27.9c0-9.4,0-18.7,0-27.9c3,0,5.9,0,9,0c3,0,6,0,8.9,0c0,0.5,0,1,0,1.5c0,0.5,0,1,0,1.5
		c2.2-1.6,4.8-2.8,7.6-3.6c2.8-0.8,5.9-1,9.2-0.6c0,2.9,0,5.8,0,8.7c0,3,0,5.9,0,8.7c-5.7-0.8-9.9-0.3-12.6,1.5
		c-2.7,1.8-4.1,4.6-4.1,8.6c0,4.8,0,9.7,0,14.7c0,5,0,9.9,0,14.8c-2.9,0-5.8,0-8.9,0C-4030.9-1014.5-4033.9-1014.5-4036.9-1014.5z"
		/>
	<path d="M-3988.4-1014.5c0-6.6,0-13.3,0-20s0-13.3,0-19.9c-1.4,0-2.9,0-4.4,0c-1.5,0-2.9,0-4.4,0c0-2.7,0-5.3,0-8c0-2.7,0-5.3,0-8
		c1.4,0,2.9,0,4.4,0c1.5,0,2.9,0,4.4,0c0-2.5,0-5,0-7.5s0-4.9,0-7.4c3,0,5.9,0,9,0s6,0,8.9,0c0,2.4,0,4.9,0,7.4s0,5,0,7.5
		c1.7,0,3.3,0,5.1,0s3.4,0,5.1,0c0,2.7,0,5.3,0,8c0,2.7,0,5.3,0,8c-1.7,0-3.3,0-5.1,0s-3.4,0-5.1,0c0,6.6,0,13.2,0,19.9s0,13.4,0,20
		c-2.9,0-5.8,0-8.9,0S-3985.4-1014.5-3988.4-1014.5z"/>
	<path d="M-3914.5-1014.5c0-0.6,0-1.1,0-1.7c0-0.5,0-1.1,0-1.6c-1.8,1.5-3.8,2.7-6.1,3.5s-4.7,1.2-7.3,1.2c-3.7,0-7.1-0.7-10.4-2.1
		c-3.2-1.4-6.1-3.4-8.6-6c-2.5-2.6-4.4-5.7-5.8-9.3c-1.4-3.6-2.1-7.6-2.1-12c0-4.5,0.7-8.5,2.1-12.1c1.4-3.6,3.3-6.7,5.8-9.2
		s5.3-4.5,8.6-5.9c3.2-1.4,6.7-2.1,10.3-2.1c2.6,0,5,0.4,7.3,1.2c2.3,0.8,4.4,2,6.2,3.4c0-0.6,0-1.1,0-1.6c0-0.5,0-1,0-1.5
		c3,0,5.9,0,9,0s6,0,8.9,0c0,9.2,0,18.5,0,27.9c0,9.4,0,18.7,0,27.9c-2.9,0-5.8,0-8.9,0S-3911.6-1014.5-3914.5-1014.5z
		 M-3925.5-1028.8c3.5,0,6.2-1.3,8.3-3.8c2.1-2.5,3.1-5.8,3.1-9.9s-1-7.4-3.1-9.9c-2.1-2.5-4.9-3.7-8.3-3.7c-3.5,0-6.3,1.2-8.4,3.7
		c-2.1,2.4-3.1,5.8-3.1,9.9c0,4.2,1,7.5,3.1,10C-3931.9-1030-3929.1-1028.8-3925.5-1028.8z"/>
	<path d="M-3884.3-1014.5c0-13,0-26.2,0-39.4c0-13.2,0-26.4,0-39.4c3,0,5.9,0,9,0s6,0,8.9,0c0,7.1,0,14.2,0,21.5
		c0,7.3,0,14.4,0,21.5c2.6-3.3,5.2-6.6,7.8-10c2.6-3.3,5.2-6.7,7.8-10c3.5,0,6.9,0,10.4,0c3.5,0,7,0,10.4,0
		c-3.4,4.2-6.8,8.5-10.3,12.9c-3.5,4.3-6.9,8.6-10.3,12.9c3.6,5,7.2,10,10.9,15.1c3.6,5.1,7.2,10.1,10.7,15.1c-3.5,0-7.1,0-10.6,0
		c-3.5,0-7.1,0-10.6,0c-2.7-3.8-5.4-7.7-8.1-11.6c-2.7-3.9-5.4-7.8-8.1-11.6c0,3.8,0,7.7,0,11.6c0,3.9,0,7.8,0,11.6
		c-2.9,0-5.8,0-8.9,0S-3881.3-1014.5-3884.3-1014.5z"/>
	<path d="M-3775.1-1017.1c-5,2.1-9.9,3.4-14.8,3.9c-4.9,0.5-9.5,0.2-13.9-0.8c-4.4-1-8.2-2.8-11.6-5.3c-3.4-2.5-6-5.7-7.9-9.6
		c-1.9-3.9-2.9-8.4-2.9-13.5c0-4.2,0.7-8.2,2.1-11.7s3.4-6.7,6-9.4c2.6-2.7,5.7-4.8,9.2-6.3c3.5-1.5,7.4-2.2,11.6-2.2
		c3.7,0,7.1,0.6,10.2,1.8c3,1.2,5.7,2.9,7.9,5.1c2.2,2.2,4,4.8,5.4,7.8c1.4,3,2.2,6.3,2.6,9.9c0.4,3.6,0.1,7.4-0.6,11.4
		c-5.9,0-11.8,0-17.8,0c-6,0-11.9,0-17.8,0c1.4,2.7,3.7,4.7,6.9,5.8c3.2,1.2,7,1.5,11.4,1.1c4.4-0.4,9.2-1.6,14.2-3.5
		c0,2.5,0,5.1,0,7.7S-3775.1-1019.6-3775.1-1017.1z M-3797.8-1056.1c-2.1,0-4,0.6-5.8,1.7c-1.8,1.2-3.1,2.9-4,5.3c3.2,0,6.5,0,9.8,0
		c3.3,0,6.5,0,9.8,0c-0.9-2.4-2.1-4.2-3.8-5.3C-3793.6-1055.5-3795.5-1056.1-3797.8-1056.1z"/>
</g>
<g>
	<path d="M-2046.4-1071.8c13.2-1.4,25.1-2.2,35.6-2.2c4.9,0,8.8,1.5,11.8,4.4c3,3,4.4,6.9,4.4,11.8v42.1h-16.7l-1.1-5.4
		c-3.4,2.2-6.9,3.9-10.4,4.9c-3.6,1-6.6,1.6-9,1.6h-3.8c-4.9,0-8.8-1.5-11.8-4.4c-3-3-4.4-6.9-4.4-11.8v-4.9c0-4.9,1.5-8.8,4.4-11.8
		c3-3,6.9-4.4,11.8-4.4h22.1v-4.3c0-1.1-0.4-2-1.1-2.7c-0.7-0.7-1.6-1.1-2.7-1.1c-4.7,0-9.8,0.2-15.5,0.6c-5.7,0.4-10.2,0.8-13.7,1
		V-1071.8z M-2026.5-1029.7c3.8,0,8.1-0.7,13-2.2v-6.5h-15.7c-1.1,0-2,0.4-2.7,1.1c-0.7,0.7-1.1,1.6-1.1,2.7v1.1
		c0,1.1,0.4,2,1.1,2.7c0.7,0.7,1.6,1.1,2.7,1.1H-2026.5z"/>
	<path d="M-1951.9-1057.2c-4.5,0-9.2,1.1-14,3.2v38.3h-18.9v-57.2h16.7l1.1,7c6.2-5.4,12.7-8.1,19.4-8.1h4.9v16.7H-1951.9z"/>
	<path d="M-1895.2-1015.6c-7,0.7-13.8,1.1-20.5,1.1c-4.9,0-8.8-1.5-11.8-4.4c-3-3-4.4-6.9-4.4-11.8v-27.5h-6.5v-14.6h6.5l2.2-13
		h16.7v13h13.5v14.6h-13.5v24.8c0,1.1,0.4,2,1.1,2.7c0.7,0.7,1.6,1.1,2.7,1.1h14V-1015.6z"/>
	<path d="M-1887.1-1071.8c13.2-1.4,25.1-2.2,35.6-2.2c4.9,0,8.8,1.5,11.8,4.4c3,3,4.4,6.9,4.4,11.8v42.1h-16.7l-1.1-5.4
		c-3.4,2.2-6.9,3.9-10.4,4.9c-3.6,1-6.6,1.6-9,1.6h-3.8c-4.9,0-8.8-1.5-11.8-4.4c-3-3-4.4-6.9-4.4-11.8v-4.9c0-4.9,1.5-8.8,4.4-11.8
		c3-3,6.9-4.4,11.8-4.4h22.1v-4.3c0-1.1-0.4-2-1.1-2.7c-0.7-0.7-1.6-1.1-2.7-1.1c-4.7,0-9.8,0.2-15.5,0.6s-10.2,0.8-13.7,1V-1071.8z
		 M-1867.2-1029.7c3.8,0,8.1-0.7,13-2.2v-6.5h-15.7c-1.1,0-2,0.4-2.7,1.1c-0.7,0.7-1.1,1.6-1.1,2.7v1.1c0,1.1,0.4,2,1.1,2.7
		c0.7,0.7,1.6,1.1,2.7,1.1H-1867.2z"/>
	<path d="M-1806.7-1038.3v22.7h-18.9v-86.3h18.9v49h8.6l11.9-20h20l-16.2,27.5l16.2,29.7h-20l-12.4-22.7H-1806.7z"/>
	<path d="M-1708.9-1016.7c-13.9,1.4-26.5,2.2-37.8,2.2c-4.9,0-8.8-1.5-11.8-4.4c-3-3-4.4-6.9-4.4-11.8v-25.9c0-5.4,1.5-9.6,4.6-12.7
		c3.1-3.1,7.3-4.6,12.7-4.6h21.6c5.4,0,9.6,1.5,12.7,4.6c3.1,3.1,4.6,7.3,4.6,12.7v20h-37.3v4.3c0,1.1,0.4,2,1.1,2.7
		c0.7,0.7,1.6,1.1,2.7,1.1c7.1,0,17.6-0.5,31.3-1.6V-1016.7z M-1739.7-1060.4c-2.9,0-4.3,1.4-4.3,4.3v5.9h18.4v-5.9
		c0-2.9-1.4-4.3-4.3-4.3H-1739.7z"/>
</g>
<g>
	<path d="M-2862.7-1026.6h45.4c7.6,0,13,1.7,16.5,5.1c3.4,3.4,5.1,8.9,5.1,16.5v10.8c0,7.6-1.7,13.1-5.1,16.5
		c-3.4,3.4-8.9,5.1-16.5,5.1h-25.9v21.6h-19.4V-1026.6z M-2815.2-1005c0-4.3-2.2-6.5-6.5-6.5h-21.6v23.8h21.6c4.3,0,6.5-2.2,6.5-6.5
		V-1005z"/>
	<path d="M-2784.4-1007.2c13.2-1.4,25.1-2.2,35.6-2.2c4.9,0,8.8,1.5,11.8,4.4c3,3,4.4,6.9,4.4,11.8v42.1h-16.7l-1.1-5.4
		c-3.4,2.2-6.9,3.9-10.4,4.9c-3.6,1-6.6,1.6-9,1.6h-3.8c-4.9,0-8.8-1.5-11.8-4.4c-3-3-4.4-6.9-4.4-11.8v-4.9c0-4.9,1.5-8.8,4.4-11.8
		c3-3,6.9-4.4,11.8-4.4h22.1v-4.3c0-1.1-0.4-2-1.1-2.7c-0.7-0.7-1.6-1.1-2.7-1.1c-4.7,0-9.8,0.2-15.5,0.6c-5.7,0.4-10.2,0.8-13.7,1
		V-1007.2z M-2764.4-965.1c3.8,0,8.1-0.7,13-2.2v-6.5h-15.7c-1.1,0-2,0.4-2.7,1.1c-0.7,0.7-1.1,1.6-1.1,2.7v1.1c0,1.1,0.4,2,1.1,2.7
		c0.7,0.7,1.6,1.1,2.7,1.1H-2764.4z"/>
	<path d="M-2689.9-992.6c-4.5,0-9.2,1.1-14,3.2v38.3h-18.9v-57.2h16.7l1.1,7c6.2-5.4,12.7-8.1,19.4-8.1h4.9v16.7H-2689.9z"/>
	<path d="M-2633.2-951c-7,0.7-13.8,1.1-20.5,1.1c-4.9,0-8.8-1.5-11.8-4.4c-3-3-4.4-6.9-4.4-11.8v-27.5h-6.5v-14.6h6.5l2.2-13h16.7
		v13h13.5v14.6h-13.5v24.8c0,1.1,0.4,2,1.1,2.7c0.7,0.7,1.6,1.1,2.7,1.1h14V-951z"/>
	<path d="M-2622.9-1007.2c13.2-1.4,25.1-2.2,35.6-2.2c4.9,0,8.8,1.5,11.8,4.4c3,3,4.4,6.9,4.4,11.8v42.1h-16.7l-1.1-5.4
		c-3.4,2.2-6.9,3.9-10.4,4.9c-3.6,1-6.6,1.6-9,1.6h-3.8c-4.9,0-8.8-1.5-11.8-4.4c-3-3-4.4-6.9-4.4-11.8v-4.9c0-4.9,1.5-8.8,4.4-11.8
		c3-3,6.9-4.4,11.8-4.4h22.1v-4.3c0-1.1-0.4-2-1.1-2.7c-0.7-0.7-1.6-1.1-2.7-1.1c-4.7,0-9.8,0.2-15.5,0.6c-5.7,0.4-10.2,0.8-13.7,1
		V-1007.2z M-2602.9-965.1c3.8,0,8.1-0.7,13-2.2v-6.5h-15.7c-1.1,0-2,0.4-2.7,1.1c-0.7,0.7-1.1,1.6-1.1,2.7v1.1c0,1.1,0.4,2,1.1,2.7
		c0.7,0.7,1.6,1.1,2.7,1.1H-2602.9z"/>
	<path d="M-2542.5-973.7v22.7h-18.9v-75.6h18.9v38.3h8.6l11.9-20h20l-16.2,27.5l16.2,29.7h-20l-12.4-22.7H-2542.5z"/>
	<path d="M-2443.6-952.1c-13.9,1.4-26.5,2.2-37.8,2.2c-4.9,0-8.8-1.5-11.8-4.4c-3-3-4.4-6.9-4.4-11.8v-25.9c0-5.4,1.5-9.6,4.6-12.7
		c3.1-3.1,7.3-4.6,12.7-4.6h21.6c5.4,0,9.6,1.5,12.7,4.6c3.1,3.1,4.6,7.3,4.6,12.7v20h-37.3v4.3c0,1.1,0.4,2,1.1,2.7
		c0.7,0.7,1.6,1.1,2.7,1.1c7.1,0,17.6-0.5,31.3-1.6V-952.1z M-2474.4-995.9c-2.9,0-4.3,1.4-4.3,4.3v5.9h18.4v-5.9
		c0-2.9-1.4-4.3-4.3-4.3H-2474.4z"/>
</g>
<g>
	<path d="M-2869.5-1123.8v-75.6h34c5.2,0,9.8,1.1,13.8,3.3c4,2.2,7.2,5.3,9.5,9.2c2.3,3.9,3.5,8.4,3.5,13.4c0,5.3-1.2,9.9-3.5,14
		c-2.3,4.1-5.5,7.3-9.5,9.7c-4,2.3-8.6,3.5-13.8,3.5h-10.7v22.5H-2869.5z M-2846.6-1166.1h6.8c1.4,0,2.6-0.3,3.7-0.8
		c1.1-0.5,1.9-1.3,2.5-2.3c0.6-1,0.9-2.3,0.9-3.8s-0.3-2.7-0.9-3.7c-0.6-0.9-1.5-1.6-2.5-2.1c-1.1-0.5-2.3-0.7-3.7-0.7h-6.8V-1166.1
		z"/>
	<path d="M-2776.2-1122.8c-4.8,0-9.1-1.3-12.9-3.8c-3.7-2.6-6.7-6.1-8.9-10.6c-2.2-4.5-3.2-9.7-3.2-15.5c0-5.9,1.1-11.1,3.2-15.6
		c2.1-4.5,5.1-8,8.9-10.6c3.8-2.6,8.2-3.8,13.1-3.8c2.6,0,5,0.4,7.1,1.1c2.2,0.7,4.1,1.7,5.7,3c1.7,1.3,3.1,2.8,4.3,4.5
		c1.2,1.7,2.3,3.5,3.1,5.5l-4.4-0.1v-12.7h21.5v57.8h-22v-14.1l4.9,0.4c-0.7,2.1-1.7,4-3,5.8c-1.3,1.8-2.8,3.3-4.5,4.6
		s-3.7,2.3-5.8,3.1S-2773.6-1122.8-2776.2-1122.8z M-2769.9-1140.7c2.1,0,3.9-0.5,5.3-1.4c1.5-0.9,2.6-2.3,3.3-4.1
		c0.8-1.8,1.1-4,1.1-6.6s-0.4-4.8-1.1-6.6s-1.9-3.2-3.3-4.2c-1.5-0.9-3.3-1.4-5.3-1.4c-2.1,0-3.9,0.5-5.3,1.4
		c-1.4,0.9-2.5,2.3-3.3,4.2c-0.8,1.8-1.1,4-1.1,6.6s0.4,4.8,1.1,6.6c0.8,1.8,1.9,3.2,3.3,4.1
		C-2773.8-1141.1-2772-1140.7-2769.9-1140.7z"/>
	<path d="M-2723.5-1123.8v-57.8h20.3l1.3,19.2l-4.9-3c0.9-3.3,2.4-6.3,4.4-8.9c2-2.6,4.4-4.7,7.3-6.2c2.8-1.5,5.9-2.3,9.1-2.3
		c1.3,0,2.5,0.1,3.7,0.3c1.2,0.2,2.3,0.4,3.3,0.7l-6,24.3c-0.7-0.5-1.9-1-3.4-1.4c-1.5-0.4-3.2-0.6-5-0.6c-1.3,0-2.5,0.2-3.5,0.6
		c-1,0.4-1.9,1-2.6,1.8c-0.7,0.8-1.2,1.7-1.6,2.8c-0.4,1.1-0.5,2.3-0.5,3.8v26.8H-2723.5z"/>
	<path d="M-2676.2-1163.2v-18.4h40.4v18.4H-2676.2z M-2667.2-1123.8v-72.4h21.9v72.4H-2667.2z"/>
	<path d="M-2605.5-1122.8c-4.8,0-9.1-1.3-12.9-3.8c-3.7-2.6-6.7-6.1-8.9-10.6c-2.2-4.5-3.2-9.7-3.2-15.5c0-5.9,1.1-11.1,3.2-15.6
		c2.1-4.5,5.1-8,8.9-10.6c3.8-2.6,8.2-3.8,13.1-3.8c2.6,0,5,0.4,7.1,1.1c2.2,0.7,4.1,1.7,5.7,3c1.7,1.3,3.1,2.8,4.3,4.5
		c1.2,1.7,2.3,3.5,3.1,5.5l-4.4-0.1v-12.7h21.5v57.8h-22v-14.1l4.9,0.4c-0.7,2.1-1.7,4-3,5.8c-1.3,1.8-2.8,3.3-4.5,4.6
		s-3.7,2.3-5.8,3.1S-2602.9-1122.8-2605.5-1122.8z M-2599.2-1140.7c2.1,0,3.9-0.5,5.3-1.4c1.5-0.9,2.6-2.3,3.3-4.1
		c0.8-1.8,1.1-4,1.1-6.6s-0.4-4.8-1.1-6.6s-1.9-3.2-3.3-4.2c-1.5-0.9-3.3-1.4-5.3-1.4c-2.1,0-3.9,0.5-5.3,1.4
		c-1.4,0.9-2.5,2.3-3.3,4.2c-0.8,1.8-1.1,4-1.1,6.6s0.4,4.8,1.1,6.6c0.8,1.8,1.9,3.2,3.3,4.1
		C-2603.1-1141.1-2601.3-1140.7-2599.2-1140.7z"/>
	<path d="M-2552.8-1123.8v-79.9h21.9v79.9H-2552.8z M-2531.3-1140l-10.8-13.6l26.7-28h28.5L-2531.3-1140z M-2513.4-1123.8
		l-19.2-27.1l15.3-11l28.9,38.1H-2513.4z"/>
	<path d="M-2452.5-1122.7c-6.7,0-12.5-1.3-17.3-3.9c-4.8-2.6-8.5-6.1-11.1-10.6c-2.6-4.5-3.9-9.7-3.9-15.5c0-4.3,0.7-8.3,2.2-12
		c1.4-3.7,3.5-6.9,6.1-9.6c2.6-2.7,5.7-4.8,9.3-6.3c3.6-1.5,7.5-2.2,11.7-2.2c4.2,0,8.1,0.7,11.6,2.2c3.5,1.5,6.5,3.6,9,6.3
		c2.5,2.7,4.4,5.9,5.8,9.6c1.3,3.7,1.9,7.7,1.8,12l-0.1,4.5h-45.3l-2.5-10.3h30.3l-2.1,2.2v-1.9c0-1.4-0.3-2.6-1-3.6
		c-0.7-1-1.6-1.9-2.9-2.4c-1.2-0.6-2.7-0.9-4.3-0.9c-2.1,0-3.9,0.4-5.3,1.3c-1.4,0.9-2.5,2.1-3.3,3.7c-0.8,1.6-1.1,3.5-1.1,5.7
		c0,2.6,0.6,4.9,1.7,6.8c1.1,1.9,2.8,3.5,5,4.5c2.2,1.1,4.9,1.6,8.2,1.6c2.2,0,4-0.3,5.6-0.8c1.5-0.5,3.2-1.4,4.9-2.6l10,14.1
		c-2.7,2.1-5.3,3.7-7.8,4.9c-2.6,1.2-5.1,2-7.6,2.5C-2447.4-1123-2449.9-1122.7-2452.5-1122.7z"/>
</g>
<g>
	<path d="M-2144.1-219v-75.6h31.3c4.3,0,8.2,1,11.7,3.1c3.5,2.1,6.2,4.9,8.3,8.5c2.1,3.6,3.1,7.6,3.1,12c0,4.5-1,8.6-3.1,12.2
		c-2.1,3.6-4.8,6.5-8.3,8.6s-7.3,3.2-11.7,3.2h-17.7v27.9H-2144.1z M-2130.5-259.5h16.8c1.8,0,3.5-0.5,5-1.6c1.5-1,2.7-2.4,3.6-4.1
		c0.9-1.7,1.4-3.6,1.4-5.7c0-2.1-0.5-4-1.4-5.6c-0.9-1.7-2.1-3-3.6-3.9c-1.5-1-3.2-1.5-5-1.5h-16.8V-259.5z"/>
	<path d="M-2055.6-218c-4.8,0-9-1.3-12.9-3.9c-3.8-2.6-6.9-6.1-9.1-10.6c-2.3-4.5-3.4-9.5-3.4-15.2c0-5.7,1.2-10.8,3.5-15.2
		c2.3-4.5,5.4-8,9.4-10.5c4-2.5,8.4-3.8,13.4-3.8c2.9,0,5.5,0.4,7.9,1.3c2.4,0.9,4.5,2,6.3,3.5c1.8,1.5,3.3,3.2,4.5,5.2
		c1.2,2,2,4.1,2.4,6.3l-2.8-0.8V-276h13v56.9h-13.1v-13.6l3-0.5c-0.5,1.9-1.4,3.8-2.8,5.7c-1.3,1.8-3,3.5-5,4.9
		c-2,1.4-4.2,2.5-6.6,3.4C-2050.4-218.4-2053-218-2055.6-218z M-2052.2-229.5c3.2,0,6-0.8,8.4-2.3c2.4-1.5,4.3-3.7,5.6-6.4
		c1.3-2.7,2-5.8,2-9.5c0-3.5-0.7-6.5-2-9.2c-1.3-2.7-3.2-4.8-5.6-6.4c-2.4-1.5-5.2-2.3-8.4-2.3c-3.1,0-5.8,0.8-8.2,2.3
		c-2.4,1.5-4.2,3.7-5.6,6.4c-1.3,2.7-2,5.8-2,9.2c0,3.6,0.7,6.8,2,9.5c1.3,2.7,3.2,4.8,5.6,6.4
		C-2058-230.3-2055.3-229.5-2052.2-229.5z"/>
	<path d="M-2008-219V-276h12.7l0.2,18.1l-1.7-4.1c0.8-2.9,2.2-5.5,4.1-7.8c1.9-2.3,4.2-4.1,6.8-5.5c2.6-1.3,5.2-2,7.9-2
		c1.2,0,2.4,0.1,3.5,0.3c1.1,0.2,2,0.5,2.8,0.8l-3.5,14.1c-0.8-0.4-1.8-0.7-2.9-1c-1.2-0.3-2.3-0.4-3.3-0.4c-1.9,0-3.6,0.4-5.3,1.1
		c-1.7,0.7-3.1,1.7-4.3,2.9c-1.2,1.2-2.1,2.7-2.9,4.3c-0.7,1.7-1.1,3.5-1.1,5.4v30.6H-2008z"/>
	<path d="M-1967.8-263.9V-276h36.8v12.1H-1967.8z M-1956.6-219v-71.4h13v71.4H-1956.6z"/>
	<path d="M-1899.4-218c-4.8,0-9-1.3-12.9-3.9c-3.8-2.6-6.9-6.1-9.1-10.6c-2.3-4.5-3.4-9.5-3.4-15.2c0-5.7,1.2-10.8,3.5-15.2
		c2.3-4.5,5.4-8,9.4-10.5c4-2.5,8.4-3.8,13.4-3.8c2.9,0,5.5,0.4,7.9,1.3c2.4,0.9,4.5,2,6.3,3.5c1.8,1.5,3.3,3.2,4.5,5.2
		c1.2,2,2,4.1,2.4,6.3l-2.8-0.8V-276h13v56.9h-13.1v-13.6l3-0.5c-0.5,1.9-1.4,3.8-2.8,5.7c-1.3,1.8-3,3.5-5,4.9
		c-2,1.4-4.2,2.5-6.6,3.4C-1894.2-218.4-1896.7-218-1899.4-218z M-1895.9-229.5c3.2,0,6-0.8,8.4-2.3c2.4-1.5,4.3-3.7,5.6-6.4
		c1.3-2.7,2-5.8,2-9.5c0-3.5-0.7-6.5-2-9.2c-1.3-2.7-3.2-4.8-5.6-6.4c-2.4-1.5-5.2-2.3-8.4-2.3c-3.1,0-5.8,0.8-8.2,2.3
		c-2.4,1.5-4.2,3.7-5.6,6.4c-1.3,2.7-2,5.8-2,9.2c0,3.6,0.7,6.8,2,9.5c1.3,2.7,3.2,4.8,5.6,6.4
		C-1901.8-230.3-1899-229.5-1895.9-229.5z"/>
	<path d="M-1851.7-219V-299h13v79.9H-1851.7z M-1839.6-236.5l-2.4-12.3l27.1-27.1h17.3L-1839.6-236.5z M-1813.4-219l-21-25.3
		l9.2-7.9l27.9,33.2H-1813.4z"/>
	<path d="M-1761.9-218c-6,0-11.3-1.3-15.8-3.8c-4.6-2.5-8.1-5.9-10.7-10.3c-2.6-4.3-3.8-9.3-3.8-15c0-4.5,0.7-8.5,2.2-12.2
		c1.4-3.7,3.5-6.9,6-9.6s5.7-4.8,9.2-6.3c3.6-1.5,7.4-2.2,11.6-2.2c3.7,0,7.2,0.7,10.5,2.2c3.2,1.4,6,3.4,8.4,5.9
		c2.4,2.5,4.2,5.4,5.5,8.9c1.3,3.4,1.9,7.1,1.8,11.1l-0.1,4.8h-46.2l-2.5-9.1h37.7l-1.6,1.8v-2.5c-0.2-2.2-1-4.1-2.2-5.8
		c-1.3-1.7-2.8-3.1-4.8-4.1c-1.9-1-4-1.5-6.4-1.5c-3.5,0-6.5,0.7-9,2.1c-2.4,1.4-4.3,3.4-5.6,6c-1.3,2.6-1.9,5.9-1.9,9.8
		c0,3.7,0.8,6.9,2.4,9.7c1.6,2.8,3.8,4.9,6.7,6.4c2.9,1.5,6.2,2.2,10,2.2c2.7,0,5.2-0.4,7.5-1.3c2.3-0.9,4.7-2.4,7.3-4.6l6.4,9
		c-1.9,1.8-4,3.3-6.5,4.6c-2.5,1.3-5.1,2.3-7.8,3C-1756.5-218.3-1759.2-218-1761.9-218z"/>
</g>
<path d="M-801.7-1439.3v-96.1h52.5c8,0,15.1,2,21.3,6.1c6.2,4,11.1,9.6,14.7,16.6c3.6,7,5.3,15.1,5.3,24.2c0,9.5-1.8,18-5.3,25.4
	c-3.6,7.4-8.4,13.2-14.7,17.5c-6.2,4.2-13.3,6.3-21.3,6.3h-16.5H-801.7z"/>
<path d="M-2611.8-1813.8v-53.1h34c5.2,0,9.8,1.1,13.8,3.3c4,2.2,7.2,5.3,9.5,9.2c2.3,3.9,3.5,8.4,3.5,13.4c0,5.3-1.2,9.9-3.5,14
	c-2.3,4.1-5.5,7.3-9.5,9.7c-4,2.3-8.6,3.5-13.8,3.5h-10.7H-2611.8z"/>
<g>
	<path d="M-4167.9-462.8v-74.4h25.2c12.2,0,21.5,2,27.7,6c6.2,4,9.3,9.9,9.3,17.7c0,5.4-1.4,10-4,13.8c-2.7,3.8-6.5,6.7-11.4,8.6
		c-4.9,2-10.7,3-17.3,3h-5.6v25.4H-4167.9z M-4139.4-503.2c3.8,0,6.8-0.8,8.9-2.4c2.1-1.6,3.1-4,3.1-7.1c0-3-1-5.2-3-6.6
		c-2-1.5-4.9-2.2-8.7-2.2h-4.9v18.4H-4139.4z"/>
	<path d="M-4074.7-462c-5,0-9.5-1.2-13.5-3.6c-4-2.4-7.2-5.7-9.6-10c-2.3-4.2-3.5-9.1-3.5-14.6c0-5.5,1.2-10.3,3.5-14.4
		c2.3-4.1,5.5-7.3,9.6-9.7c4-2.3,8.5-3.5,13.5-3.5c3.5,0,6.9,1,10.3,2.9c3.3,1.9,5.9,5.1,7.7,9.6v-11.8h22.5v54.1h-22.7v-10
		c-1.7,3.5-4,6.2-6.9,8.1C-4066.8-462.9-4070.4-462-4074.7-462z M-4067.7-479c3,0,5.5-1.1,7.6-3.2c2.1-2.1,3.1-4.7,3.1-7.8
		c0-3.1-1-5.6-3.1-7.6c-2.1-2-4.6-3-7.6-3c-3.1,0-5.7,1-7.8,3.1c-2.1,2.1-3.1,4.6-3.1,7.7s1,5.6,3.1,7.7
		C-4073.3-480.1-4070.8-479-4067.7-479z"/>
	<path d="M-4023.5-462.8v-54.1h22.5v13.5c1.4-4.9,3.7-8.5,6.8-10.8c3.1-2.3,6.7-3.5,11-3.5l2.7,19.1c-1.7-0.2-3.4-0.3-5.1-0.3
		c-10,0-15,4.1-15,12.3v23.8H-4023.5z"/>
	<path d="M-3952.1-462c-5.1,0-9.3-0.9-12.5-2.6c-3.2-1.7-5.5-4.1-7-7c-1.4-3-2.2-6.3-2.2-9.9v-22h-6.9v-13.4h8.5l10-17.1h11.1v17.1
		h12.5v13.4h-12.5v18.9c0,1.7,0.5,2.9,1.6,3.8c1.1,0.9,2.5,1.4,4.2,1.4c1.7,0,3.5-0.4,5.2-1.3l1.6,15c-1.7,1.2-3.9,2.2-6.6,2.8
		C-3947.5-462.3-3949.9-462-3952.1-462z"/>
	<path d="M-3906.6-462c-5,0-9.5-1.2-13.5-3.6c-4-2.4-7.2-5.7-9.6-10c-2.3-4.2-3.5-9.1-3.5-14.6c0-5.5,1.2-10.3,3.5-14.4
		c2.3-4.1,5.5-7.3,9.6-9.7c4-2.3,8.5-3.5,13.5-3.5c3.5,0,6.9,1,10.3,2.9c3.3,1.9,5.9,5.1,7.7,9.6v-11.8h22.5v54.1h-22.7v-10
		c-1.7,3.5-4,6.2-6.9,8.1C-3898.7-462.9-3902.3-462-3906.6-462z M-3899.6-479c3,0,5.5-1.1,7.6-3.2c2.1-2.1,3.1-4.7,3.1-7.8
		c0-3.1-1-5.6-3.1-7.6c-2.1-2-4.6-3-7.6-3c-3.1,0-5.7,1-7.8,3.1c-2.1,2.1-3.1,4.6-3.1,7.7s1,5.6,3.1,7.7
		C-3905.3-480.1-3902.7-479-3899.6-479z"/>
	<path d="M-3832.7-462.8h-22.8V-534l22.8-3.3v37l25.4-20.6l11.7,15l-15.2,12.7c1,5.1,2.5,8.7,4.4,10.7c1.9,2.1,4.5,3.1,7.6,3.1
		c1.3,0,2.8-0.2,4.6-0.6l-1.6,17.4c-1.4,0.3-2.6,0.5-3.7,0.5c-1.1,0.1-2.1,0.1-3.1,0.1c-7.1,0-12.8-1.7-16.9-5.1
		c-4.1-3.4-7.2-8.4-9.1-15.1l-4,3.5V-462.8z"/>
	<path d="M-3754.2-477.1c2.1,0,4.3-0.2,6.6-0.6c2.3-0.4,4.7-1.2,7.2-2.4l2.6,13.9c-2.7,1.4-5.6,2.4-8.7,3.1
		c-3.1,0.7-6.7,1.1-10.7,1.1c-7.3,0-13.4-1.2-18.3-3.6c-4.9-2.4-8.7-5.7-11.2-9.8c-2.5-4.2-3.8-9-3.8-14.5c0-5.6,1.3-10.5,4-14.7
		s6.3-7.4,10.9-9.7c4.5-2.3,9.5-3.5,15-3.5c8.1,0,14.4,2.5,18.7,7.6c4.3,5.1,6.5,12.3,6.5,21.7l-32.2,4.1
		C-3765.3-479.5-3760.8-477.1-3754.2-477.1z M-3769.4-494.3l17-3.6c-0.3-2.3-1.1-4-2.4-5.1c-1.3-1.1-2.9-1.7-4.9-1.7
		c-2.9,0-5.2,1-6.9,3C-3768.2-499.7-3769.1-497.2-3769.4-494.3z"/>
</g>
<g>
	<path d="M-3587.9-1062.8v-74.4h25.2c12.2,0,21.5,2,27.7,6c6.2,4,9.3,9.9,9.3,17.7c0,5.4-1.3,10-4,13.8c-2.7,3.8-6.5,6.7-11.4,8.6
		c-4.9,2-10.7,3-17.3,3h-5.6v25.4H-3587.9z M-3559.4-1103.2c3.8,0,6.8-0.8,8.9-2.4c2.1-1.6,3.1-4,3.1-7.1c0-3-1-5.2-3-6.6
		c-2-1.5-4.9-2.2-8.7-2.2h-4.9v18.4H-3559.4z"/>
	<path d="M-3496.2-1062c-5,0-9.5-1.2-13.5-3.6c-4-2.4-7.2-5.7-9.6-10c-2.3-4.2-3.5-9.1-3.5-14.6c0-5.5,1.2-10.3,3.5-14.4
		c2.3-4.1,5.5-7.3,9.6-9.7c4-2.3,8.5-3.5,13.5-3.5c3.5,0,6.9,1,10.3,2.9c3.3,1.9,5.9,5.1,7.7,9.6v-11.8h22.5v54.1h-22.7v-10
		c-1.7,3.5-4,6.2-6.9,8.1C-3488.3-1062.9-3491.9-1062-3496.2-1062z M-3489.2-1079c3,0,5.5-1.1,7.6-3.2c2.1-2.1,3.1-4.7,3.1-7.8
		c0-3.1-1-5.6-3.1-7.6c-2.1-2-4.6-3-7.6-3c-3.1,0-5.7,1-7.8,3.1c-2.1,2.1-3.1,4.6-3.1,7.7s1,5.6,3.1,7.7
		C-3494.9-1080.1-3492.3-1079-3489.2-1079z"/>
	<path d="M-3445-1062.8v-54.1h22.5v13.5c1.4-4.9,3.7-8.5,6.8-10.8c3.1-2.3,6.7-3.5,11-3.5l2.7,19.1c-1.7-0.2-3.4-0.3-5.1-0.3
		c-10,0-15,4.1-15,12.3v23.8H-3445z"/>
	<path d="M-3371.5-1062c-5.1,0-9.3-0.9-12.5-2.6c-3.2-1.7-5.5-4.1-7-7c-1.4-3-2.2-6.3-2.2-9.9v-22h-6.9v-13.4h8.5l10-17.1h11.1v17.1
		h12.5v13.4h-12.5v18.9c0,1.7,0.5,2.9,1.6,3.8c1.1,0.9,2.5,1.4,4.2,1.4c1.7,0,3.5-0.4,5.2-1.3l1.6,15c-1.7,1.2-3.9,2.2-6.6,2.8
		C-3366.9-1062.3-3369.3-1062-3371.5-1062z"/>
	<path d="M-3327.1-1062c-5,0-9.5-1.2-13.5-3.6c-4-2.4-7.2-5.7-9.6-10c-2.3-4.2-3.5-9.1-3.5-14.6c0-5.5,1.2-10.3,3.5-14.4
		c2.3-4.1,5.5-7.3,9.6-9.7c4-2.3,8.5-3.5,13.5-3.5c3.5,0,6.9,1,10.3,2.9c3.3,1.9,5.9,5.1,7.7,9.6v-11.8h22.5v54.1h-22.7v-10
		c-1.7,3.5-4,6.2-6.9,8.1C-3319.1-1062.9-3322.7-1062-3327.1-1062z M-3320-1079c3,0,5.5-1.1,7.6-3.2c2.1-2.1,3.1-4.7,3.1-7.8
		c0-3.1-1-5.6-3.1-7.6c-2.1-2-4.6-3-7.6-3c-3.1,0-5.7,1-7.8,3.1c-2.1,2.1-3.1,4.6-3.1,7.7s1,5.6,3.1,7.7
		C-3325.7-1080.1-3323.1-1079-3320-1079z"/>
	<path d="M-3253.1-1062.8h-22.8v-71.2l22.8-3.3v37l25.4-20.6l11.7,15l-15.2,12.7c1,5.1,2.5,8.7,4.4,10.7c1.9,2.1,4.5,3.1,7.6,3.1
		c1.3,0,2.8-0.2,4.6-0.6l-1.6,17.4c-1.4,0.3-2.6,0.5-3.7,0.5c-1.1,0.1-2.1,0.1-3.1,0.1c-7.1,0-12.8-1.7-16.9-5.1
		c-4.1-3.4-7.2-8.4-9.1-15.1l-4,3.5V-1062.8z"/>
	<path d="M-3176.3-1077.1c2.1,0,4.3-0.2,6.6-0.6c2.3-0.4,4.7-1.2,7.2-2.4l2.6,13.9c-2.7,1.4-5.6,2.4-8.7,3.1
		c-3.1,0.7-6.7,1.1-10.7,1.1c-7.3,0-13.4-1.2-18.3-3.6c-4.9-2.4-8.7-5.7-11.2-9.8c-2.5-4.2-3.8-9-3.8-14.5c0-5.6,1.3-10.5,4-14.7
		s6.3-7.4,10.9-9.7c4.5-2.3,9.5-3.5,15-3.5c8.1,0,14.4,2.5,18.7,7.6c4.3,5.1,6.5,12.3,6.5,21.7l-32.2,4.1
		C-3187.3-1079.5-3182.9-1077.1-3176.3-1077.1z M-3191.4-1094.3l17-3.6c-0.3-2.3-1.1-4-2.4-5.1c-1.3-1.1-2.9-1.7-4.9-1.7
		c-2.9,0-5.2,1-6.9,3C-3190.2-1099.7-3191.2-1097.2-3191.4-1094.3z"/>
</g>
<g>
	<path d="M-1471.1-194.5v-74.4h25.2c12.2,0,21.5,2,27.7,6c6.2,4,9.3,9.9,9.3,17.7c0,5.4-1.3,10-4,13.8c-2.7,3.8-6.5,6.7-11.4,8.6
		c-4.9,2-10.7,3-17.3,3h-5.6v25.4H-1471.1z M-1442.5-234.9c3.8,0,6.8-0.8,8.9-2.4c2.1-1.6,3.1-4,3.1-7.1c0-3-1-5.2-3-6.6
		c-2-1.5-4.9-2.2-8.7-2.2h-4.9v18.4H-1442.5z"/>
	<path d="M-1379.4-193.7c-5,0-9.5-1.2-13.5-3.6c-4-2.4-7.2-5.7-9.6-10c-2.3-4.2-3.5-9.1-3.5-14.6c0-5.5,1.2-10.3,3.5-14.4
		c2.3-4.1,5.5-7.3,9.6-9.7c4-2.3,8.5-3.5,13.5-3.5c3.5,0,6.9,1,10.3,2.9c3.3,1.9,5.9,5.1,7.7,9.6v-11.8h22.5v54.1h-22.7v-10
		c-1.7,3.5-4,6.2-6.9,8.1C-1371.4-194.6-1375-193.7-1379.4-193.7z M-1372.3-210.7c3,0,5.5-1.1,7.6-3.2c2.1-2.1,3.1-4.7,3.1-7.8
		c0-3.1-1-5.6-3.1-7.6c-2.1-2-4.6-3-7.6-3c-3.1,0-5.7,1-7.8,3.1c-2.1,2.1-3.1,4.6-3.1,7.7s1,5.6,3.1,7.7
		C-1378-211.8-1375.4-210.7-1372.3-210.7z"/>
	<path d="M-1328.2-194.5v-54.1h22.5v13.5c1.4-4.9,3.7-8.5,6.8-10.8c3.1-2.3,6.7-3.5,11-3.5l2.7,19.1c-1.7-0.2-3.4-0.3-5.1-0.3
		c-10,0-15,4.1-15,12.3v23.8H-1328.2z"/>
	<path d="M-1254.6-193.7c-5.1,0-9.3-0.9-12.5-2.6c-3.2-1.7-5.5-4.1-7-7c-1.4-3-2.2-6.3-2.2-9.9v-22h-6.9v-13.4h8.5l10-17.1h11.1
		v17.1h12.5v13.4h-12.5v18.9c0,1.7,0.5,2.9,1.6,3.8c1.1,0.9,2.5,1.4,4.2,1.4c1.7,0,3.5-0.4,5.2-1.3l1.6,15c-1.7,1.2-3.9,2.2-6.6,2.8
		C-1250.1-194-1252.5-193.7-1254.6-193.7z"/>
	<path d="M-1210.2-193.7c-5,0-9.5-1.2-13.5-3.6c-4-2.4-7.2-5.7-9.6-10c-2.3-4.2-3.5-9.1-3.5-14.6c0-5.5,1.2-10.3,3.5-14.4
		c2.3-4.1,5.5-7.3,9.6-9.7c4-2.3,8.5-3.5,13.5-3.5c3.5,0,6.9,1,10.3,2.9c3.3,1.9,5.9,5.1,7.7,9.6v-11.8h22.5v54.1h-22.7v-10
		c-1.7,3.5-4,6.2-6.9,8.1C-1202.3-194.6-1205.9-193.7-1210.2-193.7z M-1203.2-210.7c3,0,5.5-1.1,7.6-3.2c2.1-2.1,3.1-4.7,3.1-7.8
		c0-3.1-1-5.6-3.1-7.6c-2.1-2-4.6-3-7.6-3c-3.1,0-5.7,1-7.8,3.1c-2.1,2.1-3.1,4.6-3.1,7.7s1,5.6,3.1,7.7
		C-1208.9-211.8-1206.3-210.7-1203.2-210.7z"/>
	<path d="M-1136.3-194.5h-22.8v-71.2l22.8-3.3v37l25.4-20.6l11.7,15l-15.2,12.7c1,5.1,2.5,8.7,4.4,10.7c1.9,2.1,4.5,3.1,7.6,3.1
		c1.3,0,2.8-0.2,4.6-0.6l-1.6,17.4c-1.4,0.3-2.6,0.5-3.7,0.5c-1.1,0.1-2.1,0.1-3.1,0.1c-7.1,0-12.8-1.7-16.9-5.1
		c-4.1-3.4-7.2-8.4-9.1-15.1l-4,3.5V-194.5z"/>
	<path d="M-1059.5-208.8c2.1,0,4.3-0.2,6.6-0.6c2.3-0.4,4.7-1.2,7.2-2.4l2.6,13.9c-2.7,1.4-5.6,2.4-8.7,3.1
		c-3.1,0.7-6.7,1.1-10.7,1.1c-7.3,0-13.4-1.2-18.3-3.6c-4.9-2.4-8.7-5.7-11.2-9.8c-2.5-4.2-3.8-9-3.8-14.5c0-5.6,1.3-10.5,4-14.7
		s6.3-7.4,10.9-9.7c4.5-2.3,9.5-3.5,15-3.5c8.1,0,14.4,2.5,18.7,7.6c4.3,5.1,6.5,12.3,6.5,21.7l-32.2,4.1
		C-1070.5-211.2-1066-208.8-1059.5-208.8z M-1074.6-225.9l17-3.6c-0.3-2.3-1.1-4-2.4-5.1c-1.3-1.1-2.9-1.7-4.9-1.7
		c-2.9,0-5.2,1-6.9,3C-1073.4-231.4-1074.4-228.9-1074.6-225.9z"/>
</g>
<path class="st3" d="M-1393.8-1452.7v-74.4h25.2c12.2,0,21.5,2,27.7,6c6.2,4,9.3,9.9,9.3,17.7c0,5.4-1.3,10-4,13.8
	c-2.7,3.8-6.5,6.7-11.4,8.6c-4.9,2-10.7,3-17.3,3h-5.6v25.4H-1393.8z M-1365.3-1493.1c3.8,0,6.8-0.8,8.9-2.4c2.1-1.6,3.1-4,3.1-7.1
	c0-3-1-5.2-3-6.6c-2-1.5-4.9-2.2-8.7-2.2h-4.9v18.4H-1365.3z"/>
<path class="st4" d="M-1325.1-1451.9c-5,0-9.5-1.2-13.5-3.6c-4-2.4-7.2-5.7-9.6-10c-2.3-4.2-3.5-9.1-3.5-14.6
	c0-5.5,1.2-10.3,3.5-14.4c2.3-4.1,5.5-7.3,9.6-9.7c4-2.3,8.5-3.5,13.5-3.5c3.5,0,6.9,1,10.3,2.9c3.3,1.9,5.9,5.1,7.7,9.6v-11.8h22.5
	v54.1h-22.7v-10c-1.7,3.5-4,6.2-6.9,8.1C-1317.2-1452.8-1320.8-1451.9-1325.1-1451.9z M-1318.1-1468.9c3,0,5.5-1.1,7.6-3.2
	c2.1-2.1,3.1-4.7,3.1-7.8c0-3.1-1-5.6-3.1-7.6c-2.1-2-4.6-3-7.6-3c-3.1,0-5.7,1-7.8,3.1c-2.1,2.1-3.1,4.6-3.1,7.7s1,5.6,3.1,7.7
	C-1323.7-1470-1321.2-1468.9-1318.1-1468.9z"/>
<path class="st5" d="M-1291.9-1452.7v-54.1h22.5v13.5c1.4-4.9,3.7-8.5,6.8-10.8c3.1-2.3,6.7-3.5,11-3.5l2.7,19.1
	c-1.7-0.2-3.4-0.3-5.1-0.3c-10,0-15,4.1-15,12.3v23.8H-1291.9z"/>
<path class="st0" d="M-1235.3-1451.9c-5.1,0-9.3-0.9-12.5-2.6c-3.2-1.7-5.5-4.1-7-7c-1.4-3-2.2-6.3-2.2-9.9v-22h-6.9v-13.4h8.5
	l10-17.1h11.1v17.1h12.5v13.4h-12.5v18.9c0,1.7,0.5,2.9,1.6,3.8c1.1,0.9,2.5,1.4,4.2,1.4c1.7,0,3.5-0.4,5.2-1.3l1.6,15
	c-1.7,1.2-3.9,2.2-6.6,2.8C-1230.8-1452.2-1233.2-1451.9-1235.3-1451.9z"/>
<path class="st6" d="M-1210-1451.9c-5,0-9.5-1.2-13.5-3.6c-4-2.4-7.2-5.7-9.6-10c-2.3-4.2-3.5-9.1-3.5-14.6c0-5.5,1.2-10.3,3.5-14.4
	c2.3-4.1,5.5-7.3,9.6-9.7c4-2.3,8.5-3.5,13.5-3.5c3.5,0,6.9,1,10.3,2.9c3.3,1.9,5.9,5.1,7.7,9.6v-11.8h22.5v54.1h-22.7v-10
	c-1.7,3.5-4,6.2-6.9,8.1C-1202-1452.8-1205.6-1451.9-1210-1451.9z M-1202.9-1468.9c3,0,5.5-1.1,7.6-3.2c2.1-2.1,3.1-4.7,3.1-7.8
	c0-3.1-1-5.6-3.1-7.6c-2.1-2-4.6-3-7.6-3c-3.1,0-5.7,1-7.8,3.1c-2.1,2.1-3.1,4.6-3.1,7.7s1,5.6,3.1,7.7
	C-1208.6-1470-1206-1468.9-1202.9-1468.9z"/>
<path class="st7" d="M-1154-1452.7h-22.8v-71.2l22.8-3.3v37l25.4-20.6l11.7,15l-15.2,12.7c1,5.1,2.5,8.7,4.4,10.7
	c1.9,2.1,4.5,3.1,7.6,3.1c1.3,0,2.8-0.2,4.6-0.6l-1.6,17.4c-1.4,0.3-2.6,0.5-3.7,0.5c-1.1,0.1-2.1,0.1-3.1,0.1
	c-7.1,0-12.8-1.7-16.9-5.1c-4.1-3.4-7.2-8.4-9.1-15.1l-4,3.5V-1452.7z"/>
<path class="st8" d="M-1097.2-1467c2.1,0,4.3-0.2,6.6-0.6c2.3-0.4,4.7-1.2,7.2-2.4l2.6,13.9c-2.7,1.4-5.6,2.4-8.7,3.1
	c-3.1,0.7-6.7,1.1-10.7,1.1c-7.3,0-13.4-1.2-18.3-3.6c-4.9-2.4-8.7-5.7-11.2-9.8c-2.5-4.2-3.8-9-3.8-14.5c0-5.6,1.3-10.5,4-14.7
	s6.3-7.4,10.9-9.7c4.5-2.3,9.5-3.5,15-3.5c8.1,0,14.4,2.5,18.7,7.6c4.3,5.1,6.5,12.3,6.5,21.7l-32.2,4.1
	C-1108.2-1469.4-1103.7-1467-1097.2-1467z M-1112.3-1484.1l17-3.6c-0.3-2.3-1.1-4-2.4-5.1c-1.3-1.1-2.9-1.7-4.9-1.7
	c-2.9,0-5.2,1-6.9,3C-1111.1-1489.6-1112.1-1487.1-1112.3-1484.1z"/>
<g>
	<path class="st3" d="M-2089.9-1461.8v-74.4h25.2c12.2,0,21.5,2,27.7,6c6.2,4,9.3,9.9,9.3,17.7c0,5.4-1.3,10-4,13.8
		c-2.7,3.8-6.5,6.7-11.4,8.6c-4.9,2-10.7,3-17.3,3h-5.6v25.4H-2089.9z M-2061.4-1502.2c3.8,0,6.8-0.8,8.9-2.4c2.1-1.6,3.1-4,3.1-7.1
		c0-3-1-5.2-3-6.6c-2-1.5-4.9-2.2-8.7-2.2h-4.9v18.4H-2061.4z"/>
	<path class="st3" d="M-1998.2-1461c-5,0-9.5-1.2-13.5-3.6c-4-2.4-7.2-5.7-9.6-10c-2.3-4.2-3.5-9.1-3.5-14.6
		c0-5.5,1.2-10.3,3.5-14.4c2.3-4.1,5.5-7.3,9.6-9.7c4-2.3,8.5-3.5,13.5-3.5c3.5,0,6.9,1,10.3,2.9c3.3,1.9,5.9,5.1,7.7,9.6v-11.8
		h22.5v54.1h-22.7v-10c-1.7,3.5-4,6.2-6.9,8.1C-1990.3-1461.9-1993.9-1461-1998.2-1461z M-1991.2-1478c3,0,5.5-1.1,7.6-3.2
		c2.1-2.1,3.1-4.7,3.1-7.8c0-3.1-1-5.6-3.1-7.6c-2.1-2-4.6-3-7.6-3c-3.1,0-5.7,1-7.8,3.1c-2.1,2.1-3.1,4.6-3.1,7.7s1,5.6,3.1,7.7
		C-1996.9-1479.1-1994.3-1478-1991.2-1478z"/>
	<path class="st3" d="M-1947-1461.8v-54.1h22.5v13.5c1.4-4.9,3.7-8.5,6.8-10.8c3.1-2.3,6.7-3.5,11-3.5l2.7,19.1
		c-1.7-0.2-3.4-0.3-5.1-0.3c-10,0-15,4.1-15,12.3v23.8H-1947z"/>
	<path class="st9" d="M-1873.5-1461c-5.1,0-9.3-0.9-12.5-2.6c-3.2-1.7-5.5-4.1-7-7c-1.4-3-2.2-6.3-2.2-9.9v-22h-6.9v-13.4h8.5
		l10-17.1h11.1v17.1h12.5v13.4h-12.5v18.9c0,1.7,0.5,2.9,1.6,3.8c1.1,0.9,2.5,1.4,4.2,1.4c1.7,0,3.5-0.4,5.2-1.3l1.6,15
		c-1.7,1.2-3.9,2.2-6.6,2.8C-1868.9-1461.3-1871.3-1461-1873.5-1461z"/>
	<path class="st0" d="M-1829.1-1461c-5,0-9.5-1.2-13.5-3.6c-4-2.4-7.2-5.7-9.6-10c-2.3-4.2-3.5-9.1-3.5-14.6
		c0-5.5,1.2-10.3,3.5-14.4c2.3-4.1,5.5-7.3,9.6-9.7c4-2.3,8.5-3.5,13.5-3.5c3.5,0,6.9,1,10.3,2.9c3.3,1.9,5.9,5.1,7.7,9.6v-11.8
		h22.5v54.1h-22.7v-10c-1.7,3.5-4,6.2-6.9,8.1C-1821.1-1461.9-1824.7-1461-1829.1-1461z M-1822-1478c3,0,5.5-1.1,7.6-3.2
		c2.1-2.1,3.1-4.7,3.1-7.8c0-3.1-1-5.6-3.1-7.6c-2.1-2-4.6-3-7.6-3c-3.1,0-5.7,1-7.8,3.1c-2.1,2.1-3.1,4.6-3.1,7.7s1,5.6,3.1,7.7
		C-1827.7-1479.1-1825.1-1478-1822-1478z"/>
	<path class="st0" d="M-1755.1-1461.8h-22.8v-71.2l22.8-3.3v37l25.4-20.6l11.7,15l-15.2,12.7c1,5.1,2.5,8.7,4.4,10.7
		c1.9,2.1,4.5,3.1,7.6,3.1c1.3,0,2.8-0.2,4.6-0.6l-1.6,17.4c-1.4,0.3-2.6,0.5-3.7,0.5c-1.1,0.1-2.1,0.1-3.1,0.1
		c-7.1,0-12.8-1.7-16.9-5.1c-4.1-3.4-7.2-8.4-9.1-15.1l-4,3.5V-1461.8z"/>
	<path class="st0" d="M-1678.3-1476.1c2.1,0,4.3-0.2,6.6-0.6c2.3-0.4,4.7-1.2,7.2-2.4l2.6,13.9c-2.7,1.4-5.6,2.4-8.7,3.1
		c-3.1,0.7-6.7,1.1-10.7,1.1c-7.3,0-13.4-1.2-18.3-3.6c-4.9-2.4-8.7-5.7-11.2-9.8c-2.5-4.2-3.8-9-3.8-14.5c0-5.6,1.3-10.5,4-14.7
		s6.3-7.4,10.9-9.7c4.5-2.3,9.5-3.5,15-3.5c8.1,0,14.4,2.5,18.7,7.6c4.3,5.1,6.5,12.3,6.5,21.7l-32.2,4.1
		C-1689.3-1478.5-1684.9-1476.1-1678.3-1476.1z M-1693.4-1493.3l17-3.6c-0.3-2.3-1.1-4-2.4-5.1c-1.3-1.1-2.9-1.7-4.9-1.7
		c-2.9,0-5.2,1-6.9,3C-1692.2-1498.7-1693.2-1496.2-1693.4-1493.3z"/>
</g>
<path d="M-3570.8-1533.2v-97.1h32.8c16,0,28,2.6,36.1,7.8c8.1,5.2,12.2,12.9,12.2,23c0,7-1.8,13-5.3,18c-3.5,4.9-8.5,8.7-14.9,11.3
	c-6.4,2.6-13.9,3.9-22.5,3.9h-7.3v33.1H-3570.8z M-3533.6-1585.9c5,0,8.8-1,11.6-3.1c2.7-2.1,4.1-5.2,4.1-9.3c0-3.9-1.3-6.7-3.9-8.7
	c-2.6-1.9-6.4-2.9-11.4-2.9h-6.3v24H-3533.6z"/>
<path d="M-2835.2-1368c-5,0-9.5-1.2-13.5-3.6c-4-2.4-7.2-5.7-9.6-10c-2.3-4.2-3.5-9.1-3.5-14.6c0-5.5,1.2-10.3,3.5-14.4
	c2.3-4.1,5.5-7.3,9.6-9.7c4-2.3,8.5-3.5,13.5-3.5c3.5,0,6.9,1,10.3,2.9c3.3,1.9,5.9,5.1,7.7,9.6v-11.8h22.5v54.1h-22.7v-10
	c-1.7,3.5-4,6.2-6.9,8.1C-2827.3-1368.9-2830.9-1368-2835.2-1368z M-2828.2-1385c3,0,5.5-1.1,7.6-3.2c2.1-2.1,3.1-4.7,3.1-7.8
	c0-3.1-1-5.6-3.1-7.6c-2.1-2-4.6-3-7.6-3c-3.1,0-5.7,1-7.8,3.1c-2.1,2.1-3.1,4.6-3.1,7.7s1,5.6,3.1,7.7
	C-2833.9-1386.1-2831.3-1385-2828.2-1385z"/>
<path d="M-2784-1368.8v-54.1h22.5v13.5c1.4-4.9,3.7-8.5,6.8-10.8c3.1-2.3,6.7-3.5,11-3.5l2.7,19.1c-1.7-0.2-3.4-0.3-5.1-0.3
	c-10,0-15,4.1-15,12.3v23.8H-2784z"/>
<path d="M-2710.5-1368c-5.1,0-9.3-0.9-12.5-2.6c-3.2-1.7-5.5-4.1-7-7c-1.4-3-2.2-6.3-2.2-9.9v-22h-6.9v-13.4h8.5l10-17.1h11.1v17.1
	h12.5v13.4h-12.5v18.9c0,1.7,0.5,2.9,1.6,3.8c1.1,0.9,2.5,1.4,4.2,1.4c1.7,0,3.5-0.4,5.2-1.3l1.6,15c-1.7,1.2-3.9,2.2-6.6,2.8
	C-2705.9-1368.3-2708.3-1368-2710.5-1368z"/>
<path d="M-2666.1-1368c-5,0-9.5-1.2-13.5-3.6c-4-2.4-7.2-5.7-9.6-10c-2.3-4.2-3.5-9.1-3.5-14.6c0-5.5,1.2-10.3,3.5-14.4
	c2.3-4.1,5.5-7.3,9.6-9.7c4-2.3,8.5-3.5,13.5-3.5c3.5,0,6.9,1,10.3,2.9c3.3,1.9,5.9,5.1,7.7,9.6v-11.8h22.5v54.1h-22.7v-10
	c-1.7,3.5-4,6.2-6.9,8.1C-2658.1-1368.9-2661.7-1368-2666.1-1368z M-2659-1385c3,0,5.5-1.1,7.6-3.2c2.1-2.1,3.1-4.7,3.1-7.8
	c0-3.1-1-5.6-3.1-7.6c-2.1-2-4.6-3-7.6-3c-3.1,0-5.7,1-7.8,3.1c-2.1,2.1-3.1,4.6-3.1,7.7s1,5.6,3.1,7.7
	C-2664.7-1386.1-2662.1-1385-2659-1385z"/>
<path d="M-2592.1-1368.8h-22.8v-71.2l22.8-3.3v37l25.4-20.6l11.7,15l-15.2,12.7c1,5.1,2.5,8.7,4.4,10.7c1.9,2.1,4.5,3.1,7.6,3.1
	c1.3,0,2.8-0.2,4.6-0.6l-1.6,17.4c-1.4,0.3-2.6,0.5-3.7,0.5c-1.1,0.1-2.1,0.1-3.1,0.1c-7.1,0-12.8-1.7-16.9-5.1
	c-4.1-3.4-7.2-8.4-9.1-15.1l-4,3.5V-1368.8z"/>
<path d="M-2515.3-1383.1c2.1,0,4.3-0.2,6.6-0.6c2.3-0.4,4.7-1.2,7.2-2.4l2.6,13.9c-2.7,1.4-5.6,2.4-8.7,3.1
	c-3.1,0.7-6.7,1.1-10.7,1.1c-7.3,0-13.4-1.2-18.3-3.6c-4.9-2.4-8.7-5.7-11.2-9.8c-2.5-4.2-3.8-9-3.8-14.5c0-5.6,1.3-10.5,4-14.7
	s6.3-7.4,10.9-9.7c4.5-2.3,9.5-3.5,15-3.5c8.1,0,14.4,2.5,18.7,7.6c4.3,5.1,6.5,12.3,6.5,21.7l-32.2,4.1
	C-2526.3-1385.5-2521.9-1383.1-2515.3-1383.1z M-2530.4-1400.3l17-3.6c-0.3-2.3-1.1-4-2.4-5.1c-1.3-1.1-2.9-1.7-4.9-1.7
	c-2.9,0-5.2,1-6.9,3C-2529.2-1405.7-2530.2-1403.2-2530.4-1400.3z"/>
<g>
	<path d="M-4164.3-586.4V-662h32.6c4.8,0,9,1.1,12.7,3.2c3.7,2.2,6.7,5.1,8.9,8.9c2.2,3.7,3.3,8,3.3,12.6c0,4.9-1.1,9.3-3.3,13.1
		c-2.2,3.9-5.1,6.9-8.9,9.1c-3.7,2.2-7.9,3.3-12.7,3.3h-14.3v25.3H-4164.3z M-4146.3-627.8h12c1.6,0,3-0.4,4.3-1.2
		c1.3-0.8,2.3-1.9,3.1-3.2c0.8-1.4,1.2-3,1.2-4.8c0-1.9-0.4-3.5-1.2-4.8c-0.8-1.3-1.8-2.3-3.1-3c-1.3-0.7-2.7-1.1-4.3-1.1h-12
		V-627.8z"/>
	<path d="M-4074.6-605.5c-4.8,0-9.1-1.3-12.9-3.8c-3.8-2.6-6.8-6.1-9-10.6c-2.2-4.5-3.3-9.6-3.3-15.3c0-5.8,1.1-11,3.3-15.4
		c2.2-4.5,5.3-8,9.2-10.5c3.9-2.6,8.3-3.8,13.3-3.8c2.7,0,5.2,0.4,7.5,1.2c2.3,0.8,4.3,1.9,6,3.3s3.2,3,4.4,4.9
		c1.2,1.8,2.1,3.8,2.7,5.9l-3.6-0.4v-13.6h17.2v57.3h-17.5v-13.8l3.9-0.1c-0.6,2-1.5,3.9-2.8,5.7c-1.3,1.8-2.9,3.4-4.8,4.8
		c-1.9,1.4-4,2.4-6.3,3.2C-4069.5-605.9-4072-605.5-4074.6-605.5z M-4069.8-620c2.7,0,5-0.6,6.9-1.8c1.9-1.2,3.5-3,4.5-5.2
		s1.6-4.9,1.6-8c0-3.1-0.5-5.8-1.6-8s-2.6-4-4.5-5.3c-1.9-1.3-4.2-1.9-6.9-1.9c-2.6,0-4.8,0.6-6.8,1.9c-1.9,1.3-3.4,3-4.5,5.3
		s-1.6,5-1.6,8c0,3.1,0.5,5.8,1.6,8s2.6,4,4.5,5.2C-4074.7-620.7-4072.4-620-4069.8-620z"/>
	<path d="M-4024.6-606.4v-57.3h16.4l0.8,18.7l-3.2-3.6c0.9-3.1,2.3-5.9,4.3-8.3c2-2.4,4.3-4.4,7-5.8c2.7-1.4,5.5-2.2,8.5-2.2
		c1.3,0,2.5,0.1,3.6,0.3c1.1,0.2,2.1,0.5,3.1,0.8l-4.8,19.1c-0.8-0.5-1.9-0.9-3.2-1.2c-1.3-0.3-2.7-0.5-4.2-0.5
		c-1.6,0-3.1,0.3-4.4,0.8c-1.4,0.5-2.5,1.3-3.5,2.3c-0.9,1-1.7,2.2-2.2,3.6c-0.5,1.4-0.8,2.9-0.8,4.6v28.7H-4024.6z"/>
	<path d="M-3978.7-648.7v-15.1h38.6v15.1H-3978.7z M-3968.5-606.4v-71.8h17.3v71.8H-3968.5z"/>
	<path d="M-3909.7-605.5c-4.8,0-9.1-1.3-12.9-3.8c-3.8-2.6-6.8-6.1-9-10.6c-2.2-4.5-3.3-9.6-3.3-15.3c0-5.8,1.1-11,3.3-15.4
		c2.2-4.5,5.3-8,9.2-10.5c3.9-2.6,8.3-3.8,13.3-3.8c2.7,0,5.2,0.4,7.5,1.2c2.3,0.8,4.3,1.9,6,3.3s3.2,3,4.4,4.9
		c1.2,1.8,2.1,3.8,2.7,5.9l-3.6-0.4v-13.6h17.2v57.3h-17.5v-13.8l3.9-0.1c-0.6,2-1.5,3.9-2.8,5.7c-1.3,1.8-2.9,3.4-4.8,4.8
		c-1.9,1.4-4,2.4-6.3,3.2C-3904.6-605.9-3907.1-605.5-3909.7-605.5z M-3904.9-620c2.7,0,5-0.6,6.9-1.8c1.9-1.2,3.5-3,4.5-5.2
		s1.6-4.9,1.6-8c0-3.1-0.5-5.8-1.6-8s-2.6-4-4.5-5.3c-1.9-1.3-4.2-1.9-6.9-1.9c-2.6,0-4.8,0.6-6.8,1.9c-1.9,1.3-3.4,3-4.5,5.3
		s-1.6,5-1.6,8c0,3.1,0.5,5.8,1.6,8s2.6,4,4.5,5.2C-3909.7-620.7-3907.5-620-3904.9-620z"/>
	<path d="M-3859.7-606.4v-79.9h17.3v79.9H-3859.7z M-3843-623.3l-6.4-13l26.8-27.5h22.8L-3843-623.3z M-3820.8-606.4l-20.2-26.1
		l12.2-9.5l28.4,35.6H-3820.8z"/>
	<path d="M-3767.1-605.4c-6.3,0-11.8-1.3-16.5-3.8c-4.7-2.6-8.3-6-10.9-10.5c-2.6-4.4-3.9-9.5-3.9-15.2c0-4.4,0.7-8.4,2.2-12.1
		c1.4-3.7,3.5-6.9,6-9.6c2.6-2.7,5.7-4.8,9.2-6.3c3.6-1.5,7.5-2.2,11.7-2.2c4,0,7.7,0.7,11.1,2.2c3.3,1.4,6.2,3.5,8.7,6
		c2.4,2.6,4.3,5.7,5.6,9.2c1.3,3.5,1.9,7.4,1.7,11.6l-0.1,4.6h-45.7l-2.5-9.7h34.1l-1.8,2.1v-2.2c-0.1-1.8-0.7-3.4-1.7-4.8
		c-1-1.4-2.3-2.5-3.8-3.3c-1.6-0.8-3.4-1.2-5.4-1.2c-2.8,0-5.2,0.6-7.2,1.7c-2,1.1-3.5,2.7-4.5,4.9c-1,2.1-1.5,4.7-1.5,7.8
		c0,3.2,0.7,5.9,2,8.3c1.3,2.3,3.3,4.2,5.8,5.5c2.6,1.3,5.6,1.9,9.1,1.9c2.4,0,4.6-0.4,6.5-1.1c1.9-0.7,4-1.9,6.2-3.7l8.1,11.4
		c-2.2,1.9-4.6,3.5-7.1,4.8c-2.5,1.2-5.1,2.1-7.7,2.8C-3761.9-605.7-3764.5-605.4-3767.1-605.4z"/>
</g>
<g>
	<path d="M-3552.8-577.5V-715h59.3c8.6,0,16.3,2,23.1,5.9c6.7,3.9,12.1,9.3,16.1,16.1c4,6.8,6,14.5,6,23c0,8.9-2,16.9-6,23.9
		c-4,7-9.4,12.5-16.1,16.6c-6.7,4.1-14.4,6.1-23.1,6.1h-25.9v46H-3552.8z M-3520-652.7h21.8c2.9,0,5.5-0.7,7.9-2.2
		c2.4-1.4,4.3-3.4,5.7-5.9c1.4-2.5,2.2-5.4,2.2-8.6c0-3.4-0.7-6.3-2.2-8.6c-1.4-2.4-3.3-4.2-5.7-5.5c-2.4-1.3-5-2-7.9-2h-21.8
		V-652.7z"/>
	<path d="M-3439.6-609.5c-4.8,0-9.1-1.3-12.9-3.8c-3.8-2.6-6.8-6.1-9-10.6c-2.2-4.5-3.3-9.6-3.3-15.3c0-5.8,1.1-11,3.3-15.4
		c2.2-4.5,5.3-8,9.2-10.5c3.9-2.6,8.3-3.8,13.3-3.8c2.7,0,5.2,0.4,7.5,1.2c2.3,0.8,4.3,1.9,6,3.3s3.2,3,4.4,4.9
		c1.2,1.8,2.1,3.8,2.7,5.9l-3.6-0.4v-13.6h17.2v57.3h-17.5v-13.8l3.9-0.1c-0.6,2-1.5,3.9-2.8,5.7c-1.3,1.8-2.9,3.4-4.8,4.8
		c-1.9,1.4-4,2.4-6.3,3.2C-3434.5-609.9-3437-609.5-3439.6-609.5z M-3434.8-624c2.7,0,5-0.6,6.9-1.8c1.9-1.2,3.5-3,4.5-5.2
		s1.6-4.9,1.6-8c0-3.1-0.5-5.8-1.6-8s-2.6-4-4.5-5.3c-1.9-1.3-4.2-1.9-6.9-1.9c-2.6,0-4.8,0.6-6.8,1.9c-1.9,1.3-3.4,3-4.5,5.3
		s-1.6,5-1.6,8c0,3.1,0.5,5.8,1.6,8s2.6,4,4.5,5.2C-3439.7-624.7-3437.4-624-3434.8-624z"/>
	<path d="M-3389.6-610.4v-57.3h16.4l0.8,18.7l-3.2-3.6c0.9-3.1,2.3-5.9,4.3-8.3c2-2.4,4.3-4.4,7-5.8c2.7-1.4,5.5-2.2,8.5-2.2
		c1.3,0,2.5,0.1,3.6,0.3c1.1,0.2,2.1,0.5,3.1,0.8l-4.8,19.1c-0.8-0.5-1.9-0.9-3.2-1.2c-1.3-0.3-2.7-0.5-4.2-0.5
		c-1.6,0-3.1,0.3-4.4,0.8c-1.4,0.5-2.5,1.3-3.5,2.3c-0.9,1-1.7,2.2-2.2,3.6c-0.5,1.4-0.8,2.9-0.8,4.6v28.7H-3389.6z"/>
	<path d="M-3343.7-652.7v-15.1h38.6v15.1H-3343.7z M-3333.5-610.4v-71.8h17.3v71.8H-3333.5z"/>
	<path d="M-3274.7-609.5c-4.8,0-9.1-1.3-12.9-3.8c-3.8-2.6-6.8-6.1-9-10.6c-2.2-4.5-3.3-9.6-3.3-15.3c0-5.8,1.1-11,3.3-15.4
		c2.2-4.5,5.3-8,9.2-10.5c3.9-2.6,8.3-3.8,13.3-3.8c2.7,0,5.2,0.4,7.5,1.2c2.3,0.8,4.3,1.9,6,3.3s3.2,3,4.4,4.9
		c1.2,1.8,2.1,3.8,2.7,5.9l-3.6-0.4v-13.6h17.2v57.3h-17.5v-13.8l3.9-0.1c-0.6,2-1.5,3.9-2.8,5.7c-1.3,1.8-2.9,3.4-4.8,4.8
		c-1.9,1.4-4,2.4-6.3,3.2C-3269.6-609.9-3272.1-609.5-3274.7-609.5z M-3269.9-624c2.7,0,5-0.6,6.9-1.8c1.9-1.2,3.5-3,4.5-5.2
		s1.6-4.9,1.6-8c0-3.1-0.5-5.8-1.6-8s-2.6-4-4.5-5.3c-1.9-1.3-4.2-1.9-6.9-1.9c-2.6,0-4.8,0.6-6.8,1.9c-1.9,1.3-3.4,3-4.5,5.3
		s-1.6,5-1.6,8c0,3.1,0.5,5.8,1.6,8s2.6,4,4.5,5.2C-3274.7-624.7-3272.5-624-3269.9-624z"/>
	<path d="M-3224.7-610.4v-79.9h17.3v79.9H-3224.7z M-3208-627.3l-6.4-13l26.8-27.5h22.8L-3208-627.3z M-3185.8-610.4l-20.2-26.1
		l12.2-9.5l28.4,35.6H-3185.8z"/>
	<path d="M-3132.1-609.4c-6.3,0-11.8-1.3-16.5-3.8c-4.7-2.6-8.3-6-10.9-10.5c-2.6-4.4-3.9-9.5-3.9-15.2c0-4.4,0.7-8.4,2.2-12.1
		c1.4-3.7,3.5-6.9,6-9.6c2.6-2.7,5.7-4.8,9.2-6.3c3.6-1.5,7.5-2.2,11.7-2.2c4,0,7.7,0.7,11.1,2.2c3.3,1.4,6.2,3.5,8.7,6
		c2.4,2.6,4.3,5.7,5.6,9.2c1.3,3.5,1.9,7.4,1.7,11.6l-0.1,4.6h-45.7l-2.5-9.7h34.1l-1.8,2.1v-2.2c-0.1-1.8-0.7-3.4-1.7-4.8
		c-1-1.4-2.3-2.5-3.8-3.3c-1.6-0.8-3.4-1.2-5.4-1.2c-2.8,0-5.2,0.6-7.2,1.7c-2,1.1-3.5,2.7-4.5,4.9c-1,2.1-1.5,4.7-1.5,7.8
		c0,3.2,0.7,5.9,2,8.3c1.3,2.3,3.3,4.2,5.8,5.5c2.6,1.3,5.6,1.9,9.1,1.9c2.4,0,4.6-0.4,6.5-1.1c1.9-0.7,4-1.9,6.2-3.7l8.1,11.4
		c-2.2,1.9-4.6,3.5-7.1,4.8c-2.5,1.2-5.1,2.1-7.7,2.8C-3126.9-609.7-3129.5-609.4-3132.1-609.4z"/>
</g>
<g>
	<path d="M-4166.8-742.5c0-12.1,0-24.3,0-36.7c0-12.4,0-24.6,0-36.7c4.5,0,8.9,0,13.4,0c4.5,0,8.9,0,13.3,0c5.5,0,10.4,1.1,14.5,3.2
		c4.1,2.1,7.3,5.1,9.6,8.9c2.3,3.8,3.5,8.3,3.5,13.4c0,5-1.1,9.5-3.4,13.3c-2.3,3.8-5.4,6.8-9.3,8.9c-3.9,2.1-8.4,3.1-13.3,3.1
		c-1.6,0-3.2,0-4.7,0c-1.5,0-3.1,0-4.7,0c0,3.7,0,7.5,0,11.3c0,3.8,0,7.6,0,11.3c-3.1,0-6.2,0-9.4,0
		C-4160.5-742.5-4163.6-742.5-4166.8-742.5z M-4140-799c-1.3,0-2.6,0-3.9,0c-1.3,0-2.6,0-3.9,0c0,2.9,0,5.8,0,8.7s0,5.8,0,8.7
		c1.4,0,2.9,0,4.5,0c1.5,0,3,0,4.5,0c2.2,0,4.1-0.8,5.5-2.5c1.4-1.7,2.1-3.7,2.1-6.2c0-2.5-0.8-4.6-2.3-6.3
		C-4135.2-798.2-4137.3-799-4140-799z"/>
	<path d="M-4068.2-742.5c0-0.6,0-1.1,0-1.7s0-1.1,0-1.6c-1.8,1.5-3.8,2.7-6.1,3.5c-2.3,0.8-4.7,1.2-7.3,1.2c-3.7,0-7.1-0.7-10.4-2.1
		c-3.2-1.4-6.1-3.4-8.6-6c-2.5-2.6-4.4-5.7-5.8-9.3c-1.4-3.6-2.1-7.6-2.1-12c0-4.5,0.7-8.5,2.1-12.1c1.4-3.6,3.3-6.7,5.8-9.2
		s5.3-4.5,8.6-5.9c3.2-1.4,6.7-2.1,10.3-2.1c2.6,0,5,0.4,7.3,1.2c2.3,0.8,4.4,2,6.2,3.4c0-0.6,0-1.1,0-1.6c0-0.5,0-1,0-1.5
		c3,0,5.9,0,9,0s6,0,8.9,0c0,9.2,0,18.5,0,27.9s0,18.7,0,27.9c-2.9,0-5.8,0-8.9,0S-4065.2-742.5-4068.2-742.5z M-4079.2-756.8
		c3.5,0,6.2-1.3,8.3-3.8c2.1-2.5,3.1-5.8,3.1-9.9c0-4.1-1-7.4-3.1-9.9c-2.1-2.5-4.9-3.7-8.3-3.7c-3.5,0-6.3,1.2-8.4,3.7
		c-2.1,2.4-3.1,5.8-3.1,9.9c0,4.2,1,7.5,3.1,10C-4085.5-758-4082.7-756.8-4079.2-756.8z"/>
	<path d="M-4038.5-742.5c0-9.2,0-18.5,0-27.9s0-18.7,0-27.9c3,0,5.9,0,9,0c3,0,6,0,8.9,0c0,0.5,0,1,0,1.5c0,0.5,0,1,0,1.5
		c2.2-1.6,4.8-2.8,7.6-3.6c2.8-0.8,5.9-1,9.2-0.6c0,2.9,0,5.8,0,8.7c0,3,0,5.9,0,8.7c-5.7-0.8-9.9-0.3-12.6,1.5
		c-2.7,1.8-4.1,4.6-4.1,8.6c0,4.8,0,9.7,0,14.7s0,9.9,0,14.8c-2.9,0-5.8,0-8.9,0C-4032.6-742.5-4035.5-742.5-4038.5-742.5z"/>
	<path d="M-3990-742.5c0-6.6,0-13.3,0-20c0-6.7,0-13.3,0-19.9c-1.4,0-2.9,0-4.4,0c-1.5,0-2.9,0-4.4,0c0-2.7,0-5.3,0-8
		c0-2.7,0-5.3,0-8c1.4,0,2.9,0,4.4,0c1.5,0,2.9,0,4.4,0c0-2.5,0-5,0-7.5s0-4.9,0-7.4c3,0,5.9,0,9,0s6,0,8.9,0c0,2.4,0,4.9,0,7.4
		s0,5,0,7.5c1.7,0,3.3,0,5.1,0s3.4,0,5.1,0c0,2.7,0,5.3,0,8c0,2.7,0,5.3,0,8c-1.7,0-3.3,0-5.1,0s-3.4,0-5.1,0c0,6.6,0,13.2,0,19.9
		c0,6.7,0,13.4,0,20c-2.9,0-5.8,0-8.9,0S-3987.1-742.5-3990-742.5z"/>
	<path d="M-3916.7-742.5c0-0.6,0-1.1,0-1.7s0-1.1,0-1.6c-1.8,1.5-3.8,2.7-6.1,3.5c-2.3,0.8-4.7,1.2-7.3,1.2c-3.7,0-7.1-0.7-10.4-2.1
		c-3.2-1.4-6.1-3.4-8.6-6c-2.5-2.6-4.4-5.7-5.8-9.3c-1.4-3.6-2.1-7.6-2.1-12c0-4.5,0.7-8.5,2.1-12.1c1.4-3.6,3.3-6.7,5.8-9.2
		s5.3-4.5,8.6-5.9c3.2-1.4,6.7-2.1,10.3-2.1c2.6,0,5,0.4,7.3,1.2c2.3,0.8,4.4,2,6.2,3.4c0-0.6,0-1.1,0-1.6c0-0.5,0-1,0-1.5
		c3,0,5.9,0,9,0s6,0,8.9,0c0,9.2,0,18.5,0,27.9s0,18.7,0,27.9c-2.9,0-5.8,0-8.9,0S-3913.7-742.5-3916.7-742.5z M-3927.7-756.8
		c3.5,0,6.2-1.3,8.3-3.8c2.1-2.5,3.1-5.8,3.1-9.9c0-4.1-1-7.4-3.1-9.9c-2.1-2.5-4.9-3.7-8.3-3.7c-3.5,0-6.3,1.2-8.4,3.7
		c-2.1,2.4-3.1,5.8-3.1,9.9c0,4.2,1,7.5,3.1,10C-3934-758-3931.2-756.8-3927.7-756.8z"/>
	<path d="M-3886.4-742.5c0-13,0-26.2,0-39.4c0-13.2,0-26.4,0-39.4c3,0,5.9,0,9,0s6,0,8.9,0c0,7.1,0,14.2,0,21.5c0,7.3,0,14.4,0,21.5
		c2.6-3.3,5.2-6.6,7.8-10c2.6-3.3,5.2-6.7,7.8-10c3.5,0,6.9,0,10.4,0c3.5,0,7,0,10.4,0c-3.4,4.2-6.8,8.5-10.3,12.9
		c-3.5,4.3-6.9,8.6-10.3,12.9c3.6,5,7.2,10,10.9,15.1c3.6,5.1,7.2,10.1,10.7,15.1c-3.5,0-7.1,0-10.6,0c-3.5,0-7.1,0-10.6,0
		c-2.7-3.8-5.4-7.7-8.1-11.6c-2.7-3.9-5.4-7.8-8.1-11.6c0,3.8,0,7.7,0,11.6s0,7.8,0,11.6c-2.9,0-5.8,0-8.9,0
		S-3883.5-742.5-3886.4-742.5z"/>
	<path d="M-3779.4-745.1c-5,2.1-9.9,3.4-14.8,3.9c-4.9,0.5-9.5,0.2-13.9-0.8c-4.4-1-8.2-2.8-11.6-5.3c-3.4-2.5-6-5.7-7.9-9.6
		c-1.9-3.9-2.9-8.4-2.9-13.5c0-4.2,0.7-8.2,2.1-11.7c1.4-3.6,3.4-6.7,6-9.4c2.6-2.7,5.7-4.8,9.2-6.3c3.5-1.5,7.4-2.2,11.6-2.2
		c3.7,0,7.1,0.6,10.2,1.8c3,1.2,5.7,2.9,7.9,5.1c2.2,2.2,4,4.8,5.4,7.8c1.4,3,2.2,6.3,2.6,9.9c0.4,3.6,0.1,7.4-0.6,11.4
		c-5.9,0-11.8,0-17.8,0c-6,0-11.9,0-17.8,0c1.4,2.7,3.7,4.7,6.9,5.8c3.2,1.2,7,1.5,11.4,1.1c4.4-0.4,9.2-1.6,14.2-3.5
		c0,2.5,0,5.1,0,7.7S-3779.4-747.6-3779.4-745.1z M-3802.1-784.1c-2.1,0-4,0.6-5.8,1.7c-1.8,1.2-3.1,2.9-4,5.3c3.2,0,6.5,0,9.8,0
		c3.3,0,6.5,0,9.8,0c-0.9-2.4-2.1-4.2-3.8-5.3C-3797.9-783.5-3799.9-784.1-3802.1-784.1z"/>
</g>
<g>
	<path class="st10" d="M-3549.3-799.9c0-26.7,0-53.7,0-81c0-27.3,0-54.3,0-81c9.8,0,19.7,0,29.7,0c9.9,0,19.7,0,29.4,0
		c12.2,0,22.9,2.3,31.9,7c9.1,4.7,16.1,11.2,21.2,19.7c5.1,8.4,7.6,18.3,7.6,29.5c0,11.1-2.5,20.9-7.5,29.3
		c-5,8.4-11.8,14.9-20.5,19.5c-8.7,4.6-18.5,6.9-29.4,6.9c-3.5,0-6.9,0-10.4,0c-3.4,0-6.9,0-10.4,0c0,8.3,0,16.6,0,25
		c0,8.4,0,16.8,0,25c-6.8,0-13.7,0-20.7,0C-3535.3-799.9-3542.3-799.9-3549.3-799.9z M-3490.2-924.5c-2.9,0-5.8,0-8.7,0
		c-2.9,0-5.8,0-8.7,0c0,6.4,0,12.7,0,19.2s0,12.8,0,19.2c3.2,0,6.5,0,9.9,0c3.4,0,6.7,0,9.9,0c4.9,0,8.9-1.8,12-5.5
		c3.1-3.7,4.6-8.2,4.6-13.6c0-5.6-1.7-10.2-5-13.8C-3479.4-922.7-3484.1-924.5-3490.2-924.5z"/>
	<path d="M-3436.2-876.5c0-0.6,0-1.1,0-1.7s0-1.1,0-1.6c-1.8,1.5-3.8,2.7-6.1,3.5c-2.3,0.8-4.7,1.2-7.3,1.2c-3.7,0-7.1-0.7-10.4-2.1
		c-3.2-1.4-6.1-3.4-8.6-6c-2.5-2.6-4.4-5.7-5.8-9.3c-1.4-3.6-2.1-7.6-2.1-12c0-4.5,0.7-8.5,2.1-12.1c1.4-3.6,3.3-6.7,5.8-9.2
		s5.3-4.5,8.6-5.9c3.2-1.4,6.7-2.1,10.3-2.1c2.6,0,5,0.4,7.3,1.2c2.3,0.8,4.4,2,6.2,3.4c0-0.6,0-1.1,0-1.6c0-0.5,0-1,0-1.5
		c3,0,5.9,0,9,0s6,0,8.9,0c0,9.2,0,18.5,0,27.9s0,18.7,0,27.9c-2.9,0-5.8,0-8.9,0S-3433.2-876.5-3436.2-876.5z M-3447.2-890.8
		c3.5,0,6.2-1.3,8.3-3.8c2.1-2.5,3.1-5.8,3.1-9.9c0-4.1-1-7.4-3.1-9.9c-2.1-2.5-4.9-3.7-8.3-3.7c-3.5,0-6.3,1.2-8.4,3.7
		c-2.1,2.4-3.1,5.8-3.1,9.9c0,4.2,1,7.5,3.1,10C-3453.5-892-3450.7-890.8-3447.2-890.8z"/>
	<path d="M-3406.5-876.5c0-9.2,0-18.5,0-27.9s0-18.7,0-27.9c3,0,5.9,0,9,0c3,0,6,0,8.9,0c0,0.5,0,1,0,1.5c0,0.5,0,1,0,1.5
		c2.2-1.6,4.8-2.8,7.6-3.6c2.8-0.8,5.9-1,9.2-0.6c0,2.9,0,5.8,0,8.7c0,3,0,5.9,0,8.7c-5.7-0.8-9.9-0.3-12.6,1.5
		c-2.7,1.8-4.1,4.6-4.1,8.6c0,4.8,0,9.7,0,14.7s0,9.9,0,14.8c-2.9,0-5.8,0-8.9,0C-3400.6-876.5-3403.5-876.5-3406.5-876.5z"/>
	<path d="M-3358-876.5c0-6.6,0-13.3,0-20c0-6.7,0-13.3,0-19.9c-1.4,0-2.9,0-4.4,0c-1.5,0-2.9,0-4.4,0c0-2.7,0-5.3,0-8
		c0-2.7,0-5.3,0-8c1.4,0,2.9,0,4.4,0c1.5,0,2.9,0,4.4,0c0-2.5,0-5,0-7.5s0-4.9,0-7.4c3,0,5.9,0,9,0s6,0,8.9,0c0,2.4,0,4.9,0,7.4
		s0,5,0,7.5c1.7,0,3.3,0,5.1,0s3.4,0,5.1,0c0,2.7,0,5.3,0,8c0,2.7,0,5.3,0,8c-1.7,0-3.3,0-5.1,0s-3.4,0-5.1,0c0,6.6,0,13.2,0,19.9
		c0,6.7,0,13.4,0,20c-2.9,0-5.8,0-8.9,0S-3355.1-876.5-3358-876.5z"/>
	<path d="M-3284.7-876.5c0-0.6,0-1.1,0-1.7s0-1.1,0-1.6c-1.8,1.5-3.8,2.7-6.1,3.5c-2.3,0.8-4.7,1.2-7.3,1.2c-3.7,0-7.1-0.7-10.4-2.1
		c-3.2-1.4-6.1-3.4-8.6-6c-2.5-2.6-4.4-5.7-5.8-9.3c-1.4-3.6-2.1-7.6-2.1-12c0-4.5,0.7-8.5,2.1-12.1c1.4-3.6,3.3-6.7,5.8-9.2
		s5.3-4.5,8.6-5.9c3.2-1.4,6.7-2.1,10.3-2.1c2.6,0,5,0.4,7.3,1.2c2.3,0.8,4.4,2,6.2,3.4c0-0.6,0-1.1,0-1.6c0-0.5,0-1,0-1.5
		c3,0,5.9,0,9,0s6,0,8.9,0c0,9.2,0,18.5,0,27.9s0,18.7,0,27.9c-2.9,0-5.8,0-8.9,0S-3281.7-876.5-3284.7-876.5z M-3295.7-890.8
		c3.5,0,6.2-1.3,8.3-3.8c2.1-2.5,3.1-5.8,3.1-9.9c0-4.1-1-7.4-3.1-9.9c-2.1-2.5-4.9-3.7-8.3-3.7c-3.5,0-6.3,1.2-8.4,3.7
		c-2.1,2.4-3.1,5.8-3.1,9.9c0,4.2,1,7.5,3.1,10C-3302-892-3299.2-890.8-3295.7-890.8z"/>
	<path d="M-3254.4-876.5c0-13,0-26.2,0-39.4c0-13.2,0-26.4,0-39.4c3,0,5.9,0,9,0s6,0,8.9,0c0,7.1,0,14.2,0,21.5c0,7.3,0,14.4,0,21.5
		c2.6-3.3,5.2-6.6,7.8-10c2.6-3.3,5.2-6.7,7.8-10c3.5,0,6.9,0,10.4,0c3.5,0,7,0,10.4,0c-3.4,4.2-6.8,8.5-10.3,12.9
		c-3.5,4.3-6.9,8.6-10.3,12.9c3.6,5,7.2,10,10.9,15.1c3.6,5.1,7.2,10.1,10.7,15.1c-3.5,0-7.1,0-10.6,0c-3.5,0-7.1,0-10.6,0
		c-2.7-3.8-5.4-7.7-8.1-11.6c-2.7-3.9-5.4-7.8-8.1-11.6c0,3.8,0,7.7,0,11.6s0,7.8,0,11.6c-2.9,0-5.8,0-8.9,0
		S-3251.5-876.5-3254.4-876.5z"/>
	<path d="M-3147.4-879.1c-5,2.1-9.9,3.4-14.8,3.9c-4.9,0.5-9.5,0.2-13.9-0.8c-4.4-1-8.2-2.8-11.6-5.3c-3.4-2.5-6-5.7-7.9-9.6
		c-1.9-3.9-2.9-8.4-2.9-13.5c0-4.2,0.7-8.2,2.1-11.7c1.4-3.6,3.4-6.7,6-9.4c2.6-2.7,5.7-4.8,9.2-6.3c3.5-1.5,7.4-2.2,11.6-2.2
		c3.7,0,7.1,0.6,10.2,1.8c3,1.2,5.7,2.9,7.9,5.1c2.2,2.2,4,4.8,5.4,7.8c1.4,3,2.2,6.3,2.6,9.9c0.4,3.6,0.1,7.4-0.6,11.4
		c-5.9,0-11.8,0-17.8,0c-6,0-11.9,0-17.8,0c1.4,2.7,3.7,4.7,6.9,5.8c3.2,1.2,7,1.5,11.4,1.1c4.4-0.4,9.2-1.6,14.2-3.5
		c0,2.5,0,5.1,0,7.7S-3147.4-881.6-3147.4-879.1z M-3170.1-918.1c-2.1,0-4,0.6-5.8,1.7c-1.8,1.2-3.1,2.9-4,5.3c3.2,0,6.5,0,9.8,0
		c3.3,0,6.5,0,9.8,0c-0.9-2.4-2.1-4.2-3.8-5.3C-3165.9-917.5-3167.9-918.1-3170.1-918.1z"/>
</g>
<g>
	<path d="M-4167.3-1322.4h45.4c7.6,0,13,1.7,16.5,5.1c3.4,3.4,5.1,8.9,5.1,16.5v10.8c0,7.6-1.7,13.1-5.1,16.5
		c-3.4,3.4-8.9,5.1-16.5,5.1h-25.9v21.6h-19.4V-1322.4z M-4119.8-1300.8c0-4.3-2.2-6.5-6.5-6.5h-21.6v23.8h21.6
		c4.3,0,6.5-2.2,6.5-6.5V-1300.8z"/>
	<path d="M-4089-1302.9c13.2-1.4,25.1-2.2,35.6-2.2c4.9,0,8.8,1.5,11.8,4.4c3,3,4.4,6.9,4.4,11.8v42.1h-16.7l-1.1-5.4
		c-3.4,2.2-6.9,3.9-10.4,4.9c-3.6,1-6.6,1.6-9,1.6h-3.8c-4.9,0-8.8-1.5-11.8-4.4c-3-3-4.4-6.9-4.4-11.8v-4.9c0-4.9,1.5-8.8,4.4-11.8
		c3-3,6.9-4.4,11.8-4.4h22.1v-4.3c0-1.1-0.4-2-1.1-2.7c-0.7-0.7-1.6-1.1-2.7-1.1c-4.7,0-9.8,0.2-15.5,0.6c-5.7,0.4-10.2,0.8-13.7,1
		V-1302.9z M-4069.1-1260.8c3.8,0,8.1-0.7,13-2.2v-6.5h-15.7c-1.1,0-2,0.4-2.7,1.1c-0.7,0.7-1.1,1.6-1.1,2.7v1.1
		c0,1.1,0.4,2,1.1,2.7c0.7,0.7,1.6,1.1,2.7,1.1H-4069.1z"/>
	<path d="M-3994.5-1288.3c-4.5,0-9.2,1.1-14,3.2v38.3h-18.9v-57.2h16.7l1.1,7c6.2-5.4,12.7-8.1,19.4-8.1h4.9v16.7H-3994.5z"/>
	<path d="M-3937.8-1246.8c-7,0.7-13.8,1.1-20.5,1.1c-4.9,0-8.8-1.5-11.8-4.4c-3-3-4.4-6.9-4.4-11.8v-27.5h-6.5v-14.6h6.5l2.2-13
		h16.7v13h13.5v14.6h-13.5v24.8c0,1.1,0.4,2,1.1,2.7c0.7,0.7,1.6,1.1,2.7,1.1h14V-1246.8z"/>
	<path d="M-3929.7-1302.9c13.2-1.4,25.1-2.2,35.6-2.2c4.9,0,8.8,1.5,11.8,4.4c3,3,4.4,6.9,4.4,11.8v42.1h-16.7l-1.1-5.4
		c-3.4,2.2-6.9,3.9-10.4,4.9c-3.6,1-6.6,1.6-9,1.6h-3.8c-4.9,0-8.8-1.5-11.8-4.4c-3-3-4.4-6.9-4.4-11.8v-4.9c0-4.9,1.5-8.8,4.4-11.8
		c3-3,6.9-4.4,11.8-4.4h22.1v-4.3c0-1.1-0.4-2-1.1-2.7c-0.7-0.7-1.6-1.1-2.7-1.1c-4.7,0-9.8,0.2-15.5,0.6c-5.7,0.4-10.2,0.8-13.7,1
		V-1302.9z M-3909.8-1260.8c3.8,0,8.1-0.7,13-2.2v-6.5h-15.7c-1.1,0-2,0.4-2.7,1.1c-0.7,0.7-1.1,1.6-1.1,2.7v1.1
		c0,1.1,0.4,2,1.1,2.7c0.7,0.7,1.6,1.1,2.7,1.1H-3909.8z"/>
	<path d="M-3849.3-1269.4v22.7h-18.9v-75.6h18.9v38.3h8.6l11.9-20h20l-16.2,27.5l16.2,29.7h-20l-12.4-22.7H-3849.3z"/>
	<path d="M-3751.5-1247.8c-13.9,1.4-26.5,2.2-37.8,2.2c-4.9,0-8.8-1.5-11.8-4.4c-3-3-4.4-6.9-4.4-11.8v-25.9c0-5.4,1.5-9.6,4.6-12.7
		c3.1-3.1,7.3-4.6,12.7-4.6h21.6c5.4,0,9.6,1.5,12.7,4.6c3.1,3.1,4.6,7.3,4.6,12.7v20h-37.3v4.3c0,1.1,0.4,2,1.1,2.7
		c0.7,0.7,1.6,1.1,2.7,1.1c7.1,0,17.6-0.5,31.3-1.6V-1247.8z M-3782.3-1291.6c-2.9,0-4.3,1.4-4.3,4.3v5.9h18.4v-5.9
		c0-2.9-1.4-4.3-4.3-4.3H-3782.3z"/>
</g>
<rect x="-813.3" y="-1535.4" width="23.3" height="153.2"/>
<path d="M-3577.8-1646.7c0,0,9.1-24.2,39-24.2s38,20.8,38,20.8h21.2c0,0-4.1-44.4-59.1-44.4s-61.7,47.8-61.7,47.8H-3577.8z"/>
<g>
	<path d="M-3175.1-1361c-2.7,2.1-21.6,2.1-26.6,2.1h-6.1v-78h6.3c5,0,22.8,0,25.4,1.9c2.2,1.6,5.5,4,5.9,7l25.4-3
		c-0.1-9.9-3.2-13.4-11.2-18.5c-8.1-5.2-34.2-7.8-50.1-7.8h-32.8v151.1h31.1v-33.1h7.3c8.6,0,30.2-1.3,36.5-3.9
		c6.4-2.6,11.3-6.3,14.9-11.3c2.5-3.5,3.1-3.5,3.8-8l-25.6-4C-3171.5-1364.6-3173.6-1362.1-3175.1-1361z"/>
</g>
<g>
	<path d="M-3340.1-1666c-2.7,2.1-6.6,3.1-11.6,3.1h-6.1v-24h6.3c5,0,8.8,1,11.4,2.9c2.2,1.6,3.5,4,3.9,7h28.4
		c-0.1-9.9-4.2-17.4-12.2-22.5c-8.1-5.2-20.2-7.8-36.1-7.8h-32.8v97.1h31.1v-33.1h7.3c8.6,0,16.2-1.3,22.5-3.9
		c6.4-2.6,11.3-6.3,14.9-11.3c2.5-3.5,4.1-7.5,4.8-12h-28.6C-3337.5-1668.6-3338.6-1667.1-3340.1-1666z"/>
</g>
<path d="M-2820.8-1448.9v21c0,0-50-15-63,15s12,42,18,46c7.9,5.3,33.6,11,45,4c0,0-1,12-1,22c-23,3-65-7-76-30v78.6h-21.5v-157.6
	c0,0,13.5,0,47.5,0C-2837.6-1449.9-2820.8-1448.9-2820.8-1448.9z"/>
<rect x="-2553.8" y="-472.9" class="st3" width="55" height="55"/>
<rect x="-2611.8" y="-472.9" class="st0" width="55" height="55"/>
<polygon class="st11" points="-786.2,-1516.5 -698.5,-1517.6 -698.5,-1461.5 -786.2,-1461.5 "/>
<rect x="-2084.6" y="-1008.4" width="189.4" height="21.8"/>
<rect x="-1781.1" y="-1008.4" class="st2" width="74.3" height="21.8"/>
<rect x="-1882.6" y="-1008.4" class="st1" width="89.7" height="21.8"/>
<rect x="-1901.1" y="-1102.1" class="st1" width="65.8" height="21.8"/>
<rect x="-1795.9" y="-1102.1" class="st2" width="89.1" height="21.8"/>
<rect x="-2084.6" y="-1102.1" width="171.6" height="21.8"/>
<rect x="-2164" y="-1022.5" transform="matrix(6.123234e-17 -1 1 6.123234e-17 -1062.1039 -3085.3948)" width="180.5" height="21.8"/>
<path class="st12" d="M-2011.1-489.5c-20.9,24.4-19.7,52.1-19.7,64.6c0,15.4,0.2,30.9,12.5,32.4c9.4,1.2,13-4.4,14.1-10.5
	c1.1-6.1,0.9-50.6,15.6-69.8c7.9-10.3,31.2-35.4,66.5-30.8c-9.9-51.9-96.3-81.5-150.9-28.9c-43.4,41.8-34.7,105.7-34.7,110.9
	c0,5.2,4.7,11.9,10.4,13.6c9.2,2.8,15-5.4,15-5.4"/>
<path class="st12" d="M-2030.8-402.2c0,0-5.7,8.2-15,5.4c-5.7-1.7-10.4-8.4-10.4-13.6c0-5.2-7.8-52.8,20.6-88.2"/>
<path class="st12" d="M-2056.9-407.1c0,0-5.7,8.2-15,5.4c-5.7-1.7-10.4-8.4-10.4-13.6s-7.8-52.8,20.6-88.2"/>
<path class="st13" d="M-1932.8-437.1c8.3-10.5,17.8-37.5,10.7-66.4c0,0-23.5-5.4-48.8,13.4c0,0,34.8,6.4,25.4,36.3
	C-1955.3-422.5-1946.4-419.9-1932.8-437.1z"/>
<path class="st14" d="M-1978.8-447c-8.3,10.5-17.8,37.5-10.7,66.4c0,0,23.5,5.4,48.8-13.4c0,0-34.8-6.4-25.4-36.3
	C-1956.3-461.6-1965.2-464.2-1978.8-447z"/>
<path class="st15" d="M-1900.5-394.6c20.9-24.4,19.7-52.1,19.7-64.6c0-15.4-0.2-30.9-12.5-32.4c-9.4-1.2-13,4.4-14.1,10.5
	c-1.1,6.1-0.9,50.6-15.6,69.8c-7.9,10.3-31.2,35.4-66.5,30.8c9.9,51.9,96.3,81.5,150.9,28.9c43.4-41.8,34.7-105.7,34.7-110.9
	s-4.7-11.9-10.4-13.6c-9.2-2.8-15,5.4-15,5.4"/>
<path class="st15" d="M-1854.7-477c0,0,5.7-8.2,15-5.4c5.7,1.7,10.4,8.4,10.4,13.6c0,5.2,7.8,52.8-20.6,88.2"/>
<path class="st15" d="M-1880.8-481.9c0,0,5.7-8.2,15-5.4c5.7,1.7,10.4,8.4,10.4,13.6c0,5.2,7.8,52.8-20.6,88.2"/>
<path class="st16" d="M-1155-452.3c5.4-14.3,6.4-47.2-11.3-76.4c0,0-32.8-0.2-53.9,29.1c0,0,50.5-2.2,45.6,33.3
	C-1178.7-436.1-1163.9-428.8-1155-452.3z"/>
<path class="st17" d="M-1245.5-513.6c-30.3,10.9-42.9,35.5-49.1,46.4c-7.6,13.4-15.1,27-5.2,34.4c7.6,5.7,13.5,2.6,17.5-2.1
	s24.7-38.3,51-56.5c10.7-7.4,48.7-28.5,77.1-7c-9.3-49.4-50.4-101.8-123.8-83.1c-58.4,14.9-82.5,74.7-85.1,79.2
	c-2.6,4.5-1.8,12.6,2.3,17c6.7,7,15.7,2.7,15.7,2.7"/>
<path class="st17" d="M-1305.8-447.5c0,0-9,4.3-15.7-2.7c-4.1-4.3-4.9-12.5-2.3-17s19.4-49.7,61.6-66.4"/>
<path class="st17" d="M-1326.1-464.7c0,0-9,4.3-15.7-2.7c-4.1-4.3-4.9-12.5-2.3-17c2.6-4.5,19.4-49.7,61.6-66.4"/>
<path class="st16" d="M-1362.4-434.1c-5.4,14.3-6.4,47.2,11.3,76.4c0,0,32.8,0.2,53.9-29.1c0,0-50.5,2.2-45.6-33.3
	C-1338.7-450.4-1353.5-457.7-1362.4-434.1z"/>
<path class="st17" d="M-1271.9-372.9c30.3-10.9,42.9-35.5,49.1-46.4c7.6-13.4,15.1-27,5.2-34.4c-7.6-5.7-13.5-2.6-17.5,2.1
	c-4,4.7-24.7,38.3-51,56.5c-10.7,7.4-48.7,28.5-77.1,7c9.3,49.4,50.4,101.8,123.8,83.1c58.4-14.9,82.5-74.7,85.1-79.2
	c2.6-4.5,1.8-12.6-2.3-17c-6.7-7-15.7-2.7-15.7-2.7"/>
<path class="st17" d="M-1211.6-439c0,0,9-4.3,15.7,2.7c4.1,4.3,4.9,12.5,2.3,17c-2.6,4.5-19.4,49.7-61.6,66.4"/>
<path class="st17" d="M-1191.4-421.7c0,0,9-4.3,15.7,2.7c4.1,4.3,4.9,12.5,2.3,17s-19.4,49.7-61.6,66.4"/>
<path d="M-675.1-1459.9v-57.8h20.3l1.3,19.2l-4.9-3c0.9-3.3,2.4-6.3,4.4-8.9c2-2.6,4.4-4.7,7.3-6.2c2.8-1.5,5.9-2.3,9.1-2.3
	c1.3,0,2.5,0.1,3.7,0.3c1.2,0.2,2.3,0.4,3.3,0.7l-6,24.3c-0.7-0.5-1.9-1-3.4-1.4c-1.5-0.4-3.2-0.6-5-0.6c-1.3,0-2.5,0.2-3.5,0.6
	c-1,0.4-1.9,1-2.6,1.8c-0.7,0.8-1.2,1.7-1.6,2.8c-0.4,1.1-0.5,2.3-0.5,3.8v26.8H-675.1z"/>
<path d="M-625.6-1499.3v-18.4h40.4v18.4H-625.6z M-616.7-1459.9v-72.4h21.9v72.4H-616.7z"/>
<path d="M-555.4-1458.9c-4.8,0-9.1-1.3-12.9-3.8c-3.7-2.6-6.7-6.1-8.9-10.6c-2.2-4.5-3.2-9.7-3.2-15.5c0-5.9,1.1-11.1,3.2-15.6
	c2.1-4.5,5.1-8,8.9-10.6c3.8-2.6,8.2-3.8,13.1-3.8c2.6,0,5,0.4,7.1,1.1c2.2,0.7,4.1,1.7,5.7,3c1.7,1.3,3.1,2.8,4.3,4.5
	c1.2,1.7,2.3,3.5,3.1,5.5l-4.4-0.1v-12.7h21.5v57.8h-22v-14.1l4.9,0.4c-0.7,2.1-1.7,4-3,5.8c-1.3,1.8-2.8,3.3-4.5,4.6
	c-1.7,1.3-3.7,2.3-5.8,3.1S-552.9-1458.9-555.4-1458.9z M-549.2-1476.7c2.1,0,3.9-0.5,5.3-1.4c1.5-0.9,2.6-2.3,3.3-4.1
	c0.8-1.8,1.1-4,1.1-6.6c0-2.6-0.4-4.8-1.1-6.6s-1.9-3.2-3.3-4.2c-1.5-0.9-3.3-1.4-5.3-1.4c-2.1,0-3.9,0.5-5.3,1.4
	c-1.4,0.9-2.5,2.3-3.3,4.2s-1.1,4-1.1,6.6c0,2.6,0.4,4.8,1.1,6.6c0.8,1.8,1.9,3.2,3.3,4.1C-553-1477.2-551.3-1476.7-549.2-1476.7z"
	/>
<path d="M-502.7-1459.9v-79.9h21.9v79.9H-502.7z M-481.2-1476.1l-10.8-13.6l26.7-28h28.5L-481.2-1476.1z M-463.4-1459.9l-19.2-27.1
	l15.3-11l28.9,38.1H-463.4z"/>
<path d="M-404.9-1458.8c-6.7,0-12.5-1.3-17.3-3.9c-4.8-2.6-8.5-6.1-11.1-10.6c-2.6-4.5-3.9-9.7-3.9-15.5c0-4.3,0.7-8.3,2.2-12
	c1.4-3.7,3.5-6.9,6.1-9.6c2.6-2.7,5.7-4.8,9.3-6.3c3.6-1.5,7.5-2.2,11.7-2.2c4.2,0,8.1,0.7,11.6,2.2c3.5,1.5,6.5,3.6,9,6.3
	c2.5,2.7,4.4,5.9,5.8,9.6c1.3,3.7,1.9,7.7,1.8,12l-0.1,4.5h-45.3l-2.5-10.3h30.3l-2.1,2.2v-1.9c0-1.4-0.3-2.6-1-3.6
	c-0.7-1-1.6-1.9-2.9-2.4c-1.2-0.6-2.7-0.9-4.3-0.9c-2.1,0-3.9,0.4-5.3,1.3c-1.4,0.9-2.5,2.1-3.3,3.7c-0.8,1.6-1.1,3.5-1.1,5.7
	c0,2.6,0.6,4.9,1.7,6.8c1.1,1.9,2.8,3.5,5,4.5s4.9,1.6,8.2,1.6c2.2,0,4-0.3,5.6-0.8c1.5-0.5,3.2-1.4,4.9-2.6l10,14.1
	c-2.7,2.1-5.3,3.7-7.8,4.9c-2.6,1.2-5.1,2-7.6,2.5C-399.8-1459-402.3-1458.8-404.9-1458.8z"/>
<path d="M-752.5-1458.9c-4.8,0-9.1-1.3-12.9-3.8c-3.7-2.6-6.7-6.1-8.9-10.6c-2.2-4.5-3.2-9.7-3.2-15.5c0-5.9,1.1-11.1,3.2-15.6
	c2.1-4.5,5.1-8,8.9-10.6c3.8-2.6,8.2-3.8,13.1-3.8c2.6,0,5,0.4,7.1,1.1c2.2,0.7,4.1,1.7,5.7,3c1.7,1.3,3.1,2.8,4.3,4.5
	c1.2,1.7,2.3,3.5,3.1,5.5l-4.4-0.1v-12.7h21.5v57.8h-22v-14.1l4.9,0.4c-0.7,2.1-1.7,4-3,5.8c-1.3,1.8-2.8,3.3-4.5,4.6
	c-1.7,1.3-3.7,2.3-5.8,3.1S-749.9-1458.9-752.5-1458.9z M-746.2-1476.7c2.1,0,3.9-0.5,5.3-1.4c1.5-0.9,2.6-2.3,3.3-4.1
	c0.8-1.8,1.1-4,1.1-6.6c0-2.6-0.4-4.8-1.1-6.6s-1.9-3.2-3.3-4.2c-1.5-0.9-3.3-1.4-5.3-1.4c-2.1,0-3.9,0.5-5.3,1.4
	c-1.4,0.9-2.5,2.3-3.3,4.2c-0.8,1.8-1.1,4-1.1,6.6c0,2.6,0.4,4.8,1.1,6.6c0.8,1.8,1.9,3.2,3.3,4.1
	C-750.1-1477.2-748.3-1476.7-746.2-1476.7z"/>
<rect x="-737.9" y="-1517.6" class="st11" width="23" height="57.8"/>
<polygon class="st18" points="-1380.5,-924.7 -1411.3,-922.9 -1427.9,-957.9 -1386,-954.8 "/>
<rect x="-715.9" y="-1517.6" width="23" height="58.9"/>
<g>
	<path d="M-1445.6-897.4v-74.4h25.2c12.2,0,21.5,2,27.7,6c6.2,4,9.3,9.9,9.3,17.7c0,5.4-1.4,10-4.1,13.8c-2.7,3.8-6.5,6.7-11.4,8.6
		c-4.9,2-10.7,3-17.3,3h-5.6v25.4H-1445.6z M-1400.3-913.6c7.2,0,12.7-1.5,16.6-4.5c3.9-3,5.9-7.4,5.9-13.4c0-5.5-1.9-9.7-5.7-12.5
		c-3.8-2.8-9.3-4.2-16.4-4.2h-9.1v34.5H-1400.3z"/>
	<path d="M-1353.9-896.5c-5,0-9.5-1.2-13.5-3.6c-4-2.4-7.2-5.7-9.6-10c-2.3-4.2-3.5-9.1-3.5-14.6c0-5.5,1.2-10.3,3.5-14.4
		c2.3-4.1,5.5-7.3,9.6-9.7c4-2.3,8.5-3.5,13.5-3.5c3.5,0,6.9,1,10.3,2.9c3.3,1.9,5.9,5.1,7.7,9.6v-11.8h22.5v54.1h-22.7v-10
		c-1.7,3.5-4,6.2-6.9,8.1C-1346-897.4-1349.6-896.5-1353.9-896.5z M-1346.9-913.6c3,0,5.5-1.1,7.6-3.2c2.1-2.1,3.1-4.7,3.1-7.8
		c0-3.1-1-5.6-3.1-7.6c-2.1-2-4.6-3-7.6-3c-3.1,0-5.7,1-7.8,3.1c-2.1,2.1-3.1,4.6-3.1,7.7s1,5.6,3.1,7.7
		C-1352.6-914.6-1350-913.6-1346.9-913.6z"/>
	<path d="M-1302.7-897.4v-54.1h22.5v13.5c1.4-4.9,3.7-8.5,6.8-10.8c3.1-2.3,6.7-3.5,11-3.5l2.7,19.1c-1.7-0.2-3.4-0.3-5.1-0.3
		c-10,0-15,4.1-15,12.3v23.8H-1302.7z"/>
	<path d="M-1229.2-896.5c-5.1,0-9.3-0.9-12.5-2.6c-3.2-1.7-5.5-4.1-7-7c-1.4-3-2.2-6.3-2.2-9.9v-22h-6.9v-13.4h8.5l10-17.1h11.1
		v17.1h12.5v13.4h-12.5v18.9c0,1.7,0.5,2.9,1.6,3.8c1.1,0.9,2.5,1.4,4.2,1.4c1.7,0,3.5-0.4,5.2-1.3l1.6,15c-1.7,1.2-3.9,2.2-6.6,2.8
		C-1224.6-896.8-1227-896.5-1229.2-896.5z"/>
	<path d="M-1184.8-896.5c-5,0-9.5-1.2-13.5-3.6c-4-2.4-7.2-5.7-9.6-10c-2.3-4.2-3.5-9.1-3.5-14.6c0-5.5,1.2-10.3,3.5-14.4
		c2.3-4.1,5.5-7.3,9.6-9.7c4-2.3,8.5-3.5,13.5-3.5c3.5,0,6.9,1,10.3,2.9c3.3,1.9,5.9,5.1,7.7,9.6v-11.8h22.5v54.1h-22.7v-10
		c-1.7,3.5-4,6.2-6.9,8.1C-1176.9-897.4-1180.5-896.5-1184.8-896.5z M-1177.8-913.6c3,0,5.5-1.1,7.6-3.2c2.1-2.1,3.1-4.7,3.1-7.8
		c0-3.1-1-5.6-3.1-7.6c-2.1-2-4.6-3-7.6-3c-3.1,0-5.7,1-7.8,3.1c-2.1,2.1-3.1,4.6-3.1,7.7s1,5.6,3.1,7.7
		C-1183.5-914.6-1180.9-913.6-1177.8-913.6z"/>
	<path d="M-1110.8-897.4h-22.8v-71.2l22.8-3.3v37l25.4-20.6l11.7,15l-15.2,12.7c1,5.1,2.5,8.7,4.4,10.7c1.9,2.1,4.5,3.1,7.6,3.1
		c1.3,0,2.8-0.2,4.6-0.6l-1.6,17.4c-1.4,0.3-2.6,0.5-3.7,0.5c-1.1,0.1-2.1,0.1-3.1,0.1c-7.1,0-12.8-1.7-16.9-5.1
		c-4.1-3.4-7.2-8.4-9.1-15.1l-4,3.5V-897.4z"/>
	<path d="M-1034-911.6c2.1,0,4.3-0.2,6.6-0.6c2.3-0.4,4.7-1.2,7.2-2.4l2.6,13.9c-2.7,1.4-5.6,2.4-8.7,3.1c-3.1,0.7-6.7,1.1-10.7,1.1
		c-7.3,0-13.4-1.2-18.3-3.6c-4.9-2.4-8.7-5.7-11.2-9.8c-2.5-4.2-3.8-9-3.8-14.5c0-5.6,1.3-10.5,4-14.7c2.7-4.2,6.3-7.4,10.9-9.7
		c4.5-2.3,9.5-3.5,15-3.5c8.1,0,14.4,2.5,18.7,7.6c4.3,5.1,6.5,12.3,6.5,21.7l-32.2,4.1C-1045.1-914-1040.6-911.6-1034-911.6z
		 M-1049.2-928.8l17-3.6c-0.3-2.3-1.1-4-2.4-5.1c-1.3-1.1-2.9-1.7-4.9-1.7c-2.9,0-5.2,1-6.9,3
		C-1048-934.2-1048.9-931.8-1049.2-928.8z"/>
</g>
<path class="st19" d="M-1409-948v34.5c0,0,31.7,3.8,31.7-17.5S-1409-948-1409-948z"/>
<path class="st19" d="M-1409.3-923.4c0,0,22.6,0.3,25.9-20.4c0,0,15.2,11,1.3,25.6c0,0-13.3,7.4-26.8,4.7L-1409.3-923.4z"/>
<path class="st18" d="M-1294.7-1129.7v138.5c0,0,127.6,15.2,127.6-70.3S-1294.7-1129.7-1294.7-1129.7z"/>
<path d="M-1294.5-1030.8c0,0,106.9-1.4,101.3-82.2c10.6,5.8,48.9,46.2,9.9,95.3c0,0-35.3,38.6-111.3,26.5L-1294.5-1030.8z"/>
<rect x="-743.5" y="-1137.4" class="st20" width="95.2" height="95.2"/>
<rect x="-684.5" y="-1078.4" class="st21" width="72.4" height="72.4"/>
<rect x="-684.5" y="-1078.4" class="st11" width="29.9" height="29.9"/>
<g>
	<path d="M-746.6-913.9v-75.6h34c5.2,0,9.8,1.1,13.8,3.3c4,2.2,7.2,5.3,9.5,9.2c2.3,3.9,3.5,8.4,3.5,13.4c0,5.3-1.2,9.9-3.5,14
		c-2.3,4.1-5.5,7.3-9.5,9.7c-4,2.3-8.6,3.5-13.8,3.5h-10.7v22.5H-746.6z M-723.7-956.3h6.8c1.4,0,2.6-0.3,3.7-0.8
		c1.1-0.5,1.9-1.3,2.5-2.3c0.6-1,0.9-2.3,0.9-3.8c0-1.5-0.3-2.7-0.9-3.7c-0.6-0.9-1.5-1.6-2.5-2.1c-1.1-0.5-2.3-0.7-3.7-0.7h-6.8
		V-956.3z"/>
	<path d="M-653.3-913c-4.8,0-9.1-1.3-12.9-3.8c-3.7-2.6-6.7-6.1-8.9-10.6c-2.2-4.5-3.2-9.7-3.2-15.5c0-5.9,1.1-11.1,3.2-15.6
		c2.1-4.5,5.1-8,8.9-10.6c3.8-2.6,8.2-3.8,13.1-3.8c2.6,0,5,0.4,7.1,1.1c2.2,0.7,4.1,1.7,5.7,3c1.7,1.3,3.1,2.8,4.3,4.5
		c1.2,1.7,2.3,3.5,3.1,5.5l-4.4-0.1v-12.7h21.5v57.8h-22v-14.1l4.9,0.4c-0.7,2.1-1.7,4-3,5.8c-1.3,1.8-2.8,3.3-4.5,4.6
		c-1.7,1.3-3.7,2.3-5.8,3.1C-648.3-913.3-650.7-913-653.3-913z M-647-930.8c2.1,0,3.9-0.5,5.3-1.4c1.5-0.9,2.6-2.3,3.3-4.1
		c0.8-1.8,1.1-4,1.1-6.6c0-2.6-0.4-4.8-1.1-6.6s-1.9-3.2-3.3-4.2c-1.5-0.9-3.3-1.4-5.3-1.4c-2.1,0-3.9,0.5-5.3,1.4
		c-1.4,0.9-2.5,2.3-3.3,4.2c-0.8,1.8-1.1,4-1.1,6.6c0,2.6,0.4,4.8,1.1,6.6c0.8,1.8,1.9,3.2,3.3,4.1
		C-650.9-931.3-649.1-930.8-647-930.8z"/>
	<path d="M-600.6-913.9v-57.8h20.3l1.3,19.2l-4.9-3c0.9-3.3,2.4-6.3,4.4-8.9c2-2.6,4.4-4.7,7.3-6.2c2.8-1.5,5.9-2.3,9.1-2.3
		c1.3,0,2.5,0.1,3.7,0.3c1.2,0.2,2.3,0.4,3.3,0.7l-6,24.3c-0.7-0.5-1.9-1-3.4-1.4c-1.5-0.4-3.2-0.6-5-0.6c-1.3,0-2.5,0.2-3.5,0.6
		c-1,0.4-1.9,1-2.6,1.8c-0.7,0.8-1.2,1.7-1.6,2.8c-0.4,1.1-0.5,2.3-0.5,3.8v26.8H-600.6z"/>
	<path d="M-553.3-953.4v-18.4h40.4v18.4H-553.3z M-544.3-913.9v-72.4h21.9v72.4H-544.3z"/>
	<path d="M-482.5-913c-4.8,0-9.1-1.3-12.9-3.8c-3.7-2.6-6.7-6.1-8.9-10.6c-2.2-4.5-3.2-9.7-3.2-15.5c0-5.9,1.1-11.1,3.2-15.6
		c2.1-4.5,5.1-8,8.9-10.6c3.8-2.6,8.2-3.8,13.1-3.8c2.6,0,5,0.4,7.1,1.1c2.2,0.7,4.1,1.7,5.7,3c1.7,1.3,3.1,2.8,4.3,4.5
		c1.2,1.7,2.3,3.5,3.1,5.5l-4.4-0.1v-12.7h21.5v57.8h-22v-14.1l4.9,0.4c-0.7,2.1-1.7,4-3,5.8c-1.3,1.8-2.8,3.3-4.5,4.6
		c-1.7,1.3-3.7,2.3-5.8,3.1C-477.6-913.3-479.9-913-482.5-913z M-476.3-930.8c2.1,0,3.9-0.5,5.3-1.4c1.5-0.9,2.6-2.3,3.3-4.1
		c0.8-1.8,1.1-4,1.1-6.6c0-2.6-0.4-4.8-1.1-6.6s-1.9-3.2-3.3-4.2c-1.5-0.9-3.3-1.4-5.3-1.4c-2.1,0-3.9,0.5-5.3,1.4
		c-1.4,0.9-2.5,2.3-3.3,4.2c-0.8,1.8-1.1,4-1.1,6.6c0,2.6,0.4,4.8,1.1,6.6c0.8,1.8,1.9,3.2,3.3,4.1
		C-480.1-931.3-478.4-930.8-476.3-930.8z"/>
	<path d="M-429.8-913.9v-79.9h21.9v79.9H-429.8z M-408.3-930.1l-10.8-13.6l26.7-28h28.5L-408.3-930.1z M-390.5-913.9l-19.2-27.1
		l15.3-11l28.9,38.1H-390.5z"/>
	<path d="M-329.6-912.9c-6.7,0-12.5-1.3-17.3-3.9c-4.8-2.6-8.5-6.1-11.1-10.6c-2.6-4.5-3.9-9.7-3.9-15.5c0-4.3,0.7-8.3,2.2-12
		c1.4-3.7,3.5-6.9,6.1-9.6c2.6-2.7,5.7-4.8,9.3-6.3c3.6-1.5,7.5-2.2,11.7-2.2c4.2,0,8.1,0.7,11.6,2.2c3.5,1.5,6.5,3.6,9,6.3
		c2.5,2.7,4.4,5.9,5.8,9.6c1.3,3.7,1.9,7.7,1.8,12l-0.1,4.5h-45.3l-2.5-10.3h30.3l-2.1,2.2v-1.9c0-1.4-0.3-2.6-1-3.6
		c-0.7-1-1.6-1.9-2.9-2.4c-1.2-0.6-2.7-0.9-4.3-0.9c-2.1,0-3.9,0.4-5.3,1.3c-1.4,0.9-2.5,2.1-3.3,3.7c-0.8,1.6-1.1,3.5-1.1,5.7
		c0,2.6,0.6,4.9,1.7,6.8c1.1,1.9,2.8,3.5,5,4.5s4.9,1.6,8.2,1.6c2.2,0,4-0.3,5.6-0.8c1.5-0.5,3.2-1.4,4.9-2.6l10,14.1
		c-2.7,2.1-5.3,3.7-7.8,4.9c-2.6,1.2-5.1,2-7.6,2.5C-324.5-913.1-327-912.9-329.6-912.9z"/>
</g>
<path id="Path_687" d="M32.7,9.3c-0.5,3.3-2.6,16.9-5.1,18.8c-2.8,2.2-8,0.7-7.6-4c0.3-3.5,7.7-11.1,11.3-14.6
	C32.2,8.7,32.8,8.4,32.7,9.3z"/>
<path d="M44.2,14c-1.2-2.7-2.8-5.2-4.9-7.3S34.7,3,32,1.8C29.1,0.6,26.1,0,23,0c-3.1,0-6.1,0.6-9,1.8C11.3,3,8.8,4.6,6.7,6.7
	S3,11.3,1.8,14C0.6,16.9,0,19.9,0,23c0,0.5,0,1,0.1,1.5h0.5c0-0.5,0.2-2,0.3-2.5c0.5-2.9,1.1-4.8,2.6-7.4c1.3-2.2,2.7-4,4.6-5.8
	c2.1-2,4.7-3.2,7.1-4.2C17.7,3.5,20.3,3,23,3c2.7,0,4.4,0.6,6.9,1.6c2.4,1,4.4,2.8,6.1,4.8c1.1,1.3,2.3,3.3,3,5.8
	c0.8,2.5,1.2,5.1,1.2,7.8c0,0.5,0,1-0.1,1.5h5.8c0-0.5,0.1-1,0.1-1.5C46,19.9,45.4,16.9,44.2,14z"/>
</svg>
