<?xml version="1.0" encoding="utf-8"?>
<!-- Generator: Adobe Illustrator 27.4.1, SVG Export Plug-In . SVG Version: 6.00 Build 0)  -->
<svg version="1.1" id="Layer_1" xmlns="http://www.w3.org/2000/svg" xmlns:xlink="http://www.w3.org/1999/xlink" x="0px" y="0px"
	 viewBox="0 0 11.3 15.1" style="enable-background:new 0 0 11.3 15.1;" xml:space="preserve">
<path id="Icon_awesome-map-marker-alt" d="M4.9,14.6C4.7,14.3,0,8,0,5.7C0,2.6,2.5,0,5.6,0s5.7,2.5,5.7,5.6c0,0.1,0,0.1,0,0.2
	c0,2.3-0.7,2.7-5,8.9C6.1,14.9,5.3,15.1,4.9,14.6z M5.6,8C6.9,8,8,6.9,8,5.6c0-1.3-1.1-2.4-2.4-2.4c-1.3,0-2.4,1.1-2.4,2.3
	C3.3,6.9,4.3,8,5.6,8C5.6,8,5.6,8,5.6,8z"/>
</svg>
