<?xml version="1.0" encoding="utf-8"?>
<!-- Generator: Adobe Illustrator 27.5.0, SVG Export Plug-In . SVG Version: 6.00 Build 0)  -->
<svg version="1.1" id="Layer_2_00000172405249553522386130000006362013265749822898_"
	 xmlns="http://www.w3.org/2000/svg" xmlns:xlink="http://www.w3.org/1999/xlink" x="0px" y="0px" viewBox="0 0 155.9 37.7"
	 style="enable-background:new 0 0 155.9 37.7;" xml:space="preserve">
<style type="text/css">
	.st0{fill:url(#SVGID_1_);}
	.st1{fill:url(#SVGID_00000139274397999844575790000010569763345476358293_);}
</style>
<g>
	<g>
		<g>
			<path d="M25.2,16.9c4.7,0,8.9-0.2,12.6-0.2c1.7,0,3.1,0.5,4.1,1.6c1,1,1.6,2.4,1.6,4.1v14.8h-5.9l-0.4-1.9
				c-1.2,0.8-2.4,1.4-3.7,1.7c-1.3,0.4-2.3,0.6-3.2,0.6h-1.3C27.4,37.6,26,37,25,36c-1-1-1.6-2.4-1.6-4.1v-1.7
				c0-1.7,0.5-3.1,1.6-4.1c1-1,2.4-1.6,4.1-1.6h7.8v-1.5c0-0.4-0.1-0.7-0.4-0.9c-0.3-0.3-0.6-0.4-0.9-0.4c-1.6,0-3.5,0-5.5,0.1
				c-2,0.1-3.6,0.2-4.8,0.3V16.9z M32.4,32.2c1.3,0,2.9-0.3,4.6-0.8v-2.3h-5.5c-0.4,0-0.7,0.1-0.9,0.4c-0.3,0.3-0.4,0.6-0.4,0.9v0.4
				c0,0.4,0.1,0.7,0.4,0.9c0.3,0.3,0.6,0.4,0.9,0.4H32.4z"/>
			<path d="M58.5,22.6c-1.6,0-3.2,0.4-4.9,1.1v13.5H47V17.1h5.9l0.4,2.5c2.2-1.9,4.5-2.8,6.8-2.8h1.7v5.9H58.5z"/>
			<path d="M78.5,37.2c-2.5,0.3-4.9,0.4-7.2,0.4c-1.7,0-3.1-0.5-4.1-1.6c-1-1-1.6-2.4-1.6-4.1v-9.7h-2.3v-5.1h2.3l0.8-4.6h5.9v4.6
				H77v5.1h-4.7v8.7c0,0.4,0.1,0.7,0.4,0.9c0.3,0.3,0.6,0.4,0.9,0.4h4.9V37.2z"/>
			<path d="M81.3,17.4c4.6-0.5,8.8-0.8,12.5-0.8c1.7,0,3.1,0.5,4.1,1.6c1,1,1.6,2.4,1.6,4.1v14.8h-5.9l-0.4-1.9
				c-1.2,0.8-2.4,1.4-3.7,1.7c-1.3,0.4-2.3,0.6-3.2,0.6h-1.3C83.4,37.6,82,37,81,36c-1-1-1.6-2.4-1.6-4.1v-1.7
				c0-1.7,0.5-3.1,1.6-4.1c1-1,2.4-1.6,4.1-1.6h7.8v-1.5c0-0.4-0.1-0.7-0.4-0.9c-0.3-0.3-0.6-0.4-0.9-0.4c-1.6,0-3.5,0.1-5.4,0.2
				c-2,0.2-3.6,0.3-4.8,0.3V17.4z M88.3,32.2c1.3,0,2.9-0.3,4.6-0.8v-2.3h-5.5c-0.4,0-0.7,0.1-0.9,0.4c-0.3,0.3-0.4,0.6-0.4,0.9v0.4
				c0,0.4,0.1,0.7,0.4,0.9c0.3,0.3,0.6,0.4,0.9,0.4H88.3z"/>
			<path d="M109.6,29.2v8h-6.6V10.6h6.6v13.5h3l4.2-7h7l-5.7,9.7l5.7,10.4h-7l-4.4-8H109.6z"/>
			<path d="M143.9,36.8c-4.9,0.5-9.3,0.8-13.3,0.8c-1.7,0-3.1-0.5-4.1-1.6c-1-1-1.6-2.4-1.6-4.1v-9.1c0-1.9,0.5-3.4,1.6-4.5
				c1.1-1.1,2.6-1.6,4.5-1.6h7.6c1.9,0,3.4,0.5,4.5,1.6c1.1,1.1,1.6,2.6,1.6,4.5v7h-13.1v1.5c0,0.4,0.1,0.7,0.4,0.9
				c0.3,0.3,0.6,0.4,0.9,0.4c2.5,0,6.2-0.2,11-0.6V36.8z M133.1,21.4c-1,0-1.5,0.5-1.5,1.5V25h6.5v-2.1c0-1-0.5-1.5-1.5-1.5H133.1z"
				/>
		</g>
		<linearGradient id="SVGID_1_" gradientUnits="userSpaceOnUse" x1="31.8081" y1="-9.9882" x2="3.7512" y2="27.1459">
			<stop  offset="0" style="stop-color:#AD87FF"/>
			<stop  offset="1" style="stop-color:#00CFFF"/>
		</linearGradient>
		<path class="st0" d="M22.4-0.2H9.3v6.4H1.8v30.9h7.6V22h16.1V2.8C25.4,1.2,24.1-0.2,22.4-0.2z M18.1,15.4H9.3V6.3h8.8V15.4z"/>
	</g>
	
		<linearGradient id="SVGID_00000017490003263313600050000006327145353412297909_" gradientUnits="userSpaceOnUse" x1="163.333" y1="23.6216" x2="143.2432" y2="42.0769">
		<stop  offset="0" style="stop-color:#AD87FF"/>
		<stop  offset="1" style="stop-color:#00CFFF"/>
	</linearGradient>
	
		<rect x="148.3" y="30.7" style="fill:url(#SVGID_00000017490003263313600050000006327145353412297909_);" width="7.6" height="6.5"/>
</g>
</svg>
