<?xml version="1.0" encoding="UTF-8"?><svg id="Layer_2" xmlns="http://www.w3.org/2000/svg" xmlns:xlink="http://www.w3.org/1999/xlink" viewBox="0 0 140.14 36.98"><defs><style>.cls-1{fill:url(#linear-gradient);}</style><linearGradient id="linear-gradient" x1="29.46" y1="-9.63" x2="1.95" y2="26.78" gradientUnits="userSpaceOnUse"><stop offset="0" stop-color="#ad87ff"/><stop offset="1" stop-color="#00cfff"/></linearGradient></defs><g id="Layer_1-2"><path d="m23.01,16.68c4.65,0,8.73-.17,12.38-.17,1.69,0,3.04.51,4.06,1.53,1.02,1.02,1.53,2.37,1.53,4.06v14.51h-5.77l-.37-1.86c-1.17.77-2.36,1.33-3.59,1.69-1.23.36-2.26.54-3.11.54h-1.3c-1.69,0-3.04-.51-4.06-1.53-1.02-1.02-1.53-2.37-1.53-4.06v-1.67c0-1.69.51-3.04,1.53-4.06,1.02-1.02,2.37-1.53,4.06-1.53h7.63v-1.49c0-.37-.12-.68-.37-.93-.25-.25-.56-.37-.93-.37-1.61,0-3.44.02-5.4.07s-3.56.21-4.75.28v-5.03Zm6.99,15.09c1.31,0,2.8-.25,4.47-.74v-2.23h-5.4c-.37,0-.68.12-.93.37s-.37.56-.37.93v.37c0,.37.12.68.37.93.25.25.56.37.93.37h.93Z"/><path d="m55.67,22.28c-1.56,0-3.18.37-4.84,1.12v13.21h-6.51v-19.72h5.77l.37,2.42c2.13-1.86,4.37-2.79,6.7-2.79h1.67v5.77h-3.16Z"/><path d="m75.21,36.61c-2.41.25-4.76.37-7.07.37-1.69,0-3.04-.51-4.06-1.53-1.02-1.02-1.53-2.37-1.53-4.06v-9.49h-2.23v-5.02h2.23l.74-4.47h5.77v4.47h4.65v5.02h-4.65v8.56c0,.37.12.68.37.93.25.25.56.37.93.37h4.84v4.84Z"/><path d="m78,17.26c4.54-.5,8.63-.74,12.28-.74,1.69,0,3.04.51,4.06,1.53,1.02,1.02,1.53,2.37,1.53,4.06v14.51h-5.77l-.37-1.86c-1.17.77-2.36,1.33-3.59,1.69-1.23.36-2.26.54-3.11.54h-1.3c-1.69,0-3.04-.51-4.06-1.53-1.02-1.02-1.53-2.37-1.53-4.06v-1.67c0-1.69.51-3.04,1.53-4.06,1.02-1.02,2.37-1.53,4.06-1.53h7.63v-1.49c0-.37-.12-.68-.37-.93-.25-.25-.56-.37-.93-.37-1.61,0-3.39.07-5.34.22-1.95.15-3.52.26-4.71.33v-4.65Zm6.88,14.51c1.31,0,2.8-.25,4.47-.74v-2.23h-5.4c-.37,0-.68.12-.93.37s-.37.56-.37.93v.37c0,.37.12.68.37.93.25.25.56.37.93.37h.93Z"/><path d="m105.72,28.8v7.81h-6.51V10.56h6.51v13.21h2.98l4.09-6.88h6.88l-5.58,9.49,5.58,10.23h-6.88l-4.28-7.81h-2.79Z"/><path d="m139.4,36.24c-4.79.5-9.13.74-13.02.74-1.69,0-3.04-.51-4.06-1.53-1.02-1.02-1.53-2.37-1.53-4.06v-8.93c0-1.86.53-3.32,1.58-4.37,1.05-1.05,2.51-1.58,4.37-1.58h7.44c1.86,0,3.32.53,4.37,1.58,1.05,1.05,1.58,2.51,1.58,4.37v6.88h-12.84v1.49c0,.37.12.68.37.93.25.25.56.37.93.37,2.46,0,6.05-.19,10.79-.56v4.65Zm-10.61-15.07c-.99,0-1.49.5-1.49,1.49v2.05h6.33v-2.05c0-.99-.5-1.49-1.49-1.49h-3.35Z"/><path class="cls-1" d="m20.24,0H7.43v6.27H0v30.34h7.43v-14.87h15.76V2.95c0-1.63-1.32-2.95-2.95-2.95Zm-4.19,15.31H7.43V6.38h8.63v8.93Z"/></g></svg>