<?xml version="1.0" encoding="UTF-8"?><svg id="Layer_2" xmlns="http://www.w3.org/2000/svg" xmlns:xlink="http://www.w3.org/1999/xlink" viewBox="0 0 45.09 26.11"><defs><style>.cls-1{fill:url(#linear-gradient);}.cls-2{fill:url(#linear-gradient-3);}.cls-3{fill:url(#linear-gradient-4);}.cls-4{fill:url(#linear-gradient-2);}.cls-5{fill:url(#linear-gradient-5);}</style><linearGradient id="linear-gradient" x1="-11.23" y1="58.18" x2="19.96" y2="-6.75" gradientUnits="userSpaceOnUse"><stop offset="0" stop-color="#ad87ff"/><stop offset="1" stop-color="#00cfff"/></linearGradient><linearGradient id="linear-gradient-2" x1="13.58" y1="70.1" x2="44.77" y2="5.17" xlink:href="#linear-gradient"/><linearGradient id="linear-gradient-3" x1="4.92" y1="65.94" x2="36.11" y2="1.01" xlink:href="#linear-gradient"/><linearGradient id="linear-gradient-4" x1="-6.67" y1="60.37" x2="24.52" y2="-4.56" xlink:href="#linear-gradient"/><linearGradient id="linear-gradient-5" x1="-4.07" y1="61.62" x2="27.12" y2="-3.31" xlink:href="#linear-gradient"/></defs><g id="Layer_1-2"><path class="cls-1" d="m0,12.75c.75-.13,1.49-.28,2.25-.39,1.44-.21,2.88-.27,4.36-.11.25,2.82,1.01,5.47,2.45,7.91,1.43,2.43,3.36,4.37,5.73,5.91-1.33,0-2.63-.19-3.88-.59-4.25-1.35-7.26-4.15-9.22-8.09-.64-1.29-1.04-2.7-1.54-4.05-.05-.14-.1-.27-.15-.41,0-.06,0-.12,0-.18Z"/><path class="cls-4" d="m45.09,12.93c-.2.66-.39,1.32-.62,1.97-1.17,3.3-2.99,6.16-5.82,8.29-2.46,1.85-5.24,2.82-8.46,2.93,5.11-3.31,7.73-7.98,8.31-13.87,1.47-.16,2.91-.09,4.35.12.75.11,1.5.26,2.24.39v.18Z"/><path class="cls-2" d="m22.99,26.07c-3.18-9.04,1.82-18.17,12.25-20.66.13.65.3,1.3.4,1.96.52,3.49.3,6.91-1.22,10.15-1.7,3.63-4.46,6.13-8.19,7.56-1.05.4-2.15.66-3.25.99Z"/><path class="cls-3" d="m9.85,5.41c1.75.39,3.35,1.01,4.86,1.83,2.53,1.36,4.63,3.19,6.14,5.65.09.14.13.4.07.54-1.72,3.85-1.95,7.81-.96,11.87,0,.03,0,.06.01.17-3.26-1.01-5.95-2.77-7.91-5.55-3.13-4.44-3.44-9.34-2.22-14.52Z"/><path class="cls-5" d="m22.46,0c1.9,1.83,3.38,3.9,4.43,6.31-1.66,1.21-3.1,2.62-4.33,4.32-1.24-1.7-2.68-3.13-4.39-4.34,1-2.39,2.44-4.44,4.29-6.28Z"/></g></svg>