<?xml version="1.0" encoding="UTF-8"?><svg id="Layer_2" xmlns="http://www.w3.org/2000/svg" xmlns:xlink="http://www.w3.org/1999/xlink" viewBox="0 0 34.46 34.52"><defs><style>.cls-1{fill:none;stroke:#000;stroke-miterlimit:10;stroke-width:3px;}.cls-2{fill:url(#linear-gradient);}</style><linearGradient id="linear-gradient" x1="8.6" y1="48.7" x2="17.44" y2="10.19" gradientUnits="userSpaceOnUse"><stop offset="0" stop-color="#ad87ff"/><stop offset="1" stop-color="#00cfff"/></linearGradient></defs><g id="Layer_1-2"><path class="cls-1" d="m1.94,17.26c0,8.7,7.06,15.76,15.76,15.76s15.26-7.06,15.26-15.76S26.4,1.5,17.7,1.5,1.94,8.56,1.94,17.26Z"/><path class="cls-2" d="m18.51,2c-.19-.03-.38-.05-.56-.08-.72-.1-1.45-.18-2.19-.18C7.06,1.75,0,8.8,0,17.51s7.06,15.76,15.76,15.76c.75,0,1.47-.07,2.19-.18.19-.03.38-.04.56-.08,7.39-1.3,13.01-7.74,13.01-15.5S25.9,3.31,18.51,2Z"/><path d="m15.86,25.58c-1.3,0-2.44-.26-3.43-.77-.99-.51-1.84-1.28-2.55-2.31l1.68-1.92c.74,1.06,1.45,1.79,2.13,2.19.68.41,1.49.61,2.42.61.57,0,1.09-.09,1.56-.27.47-.18.84-.43,1.11-.75.27-.32.41-.68.41-1.09,0-.27-.05-.53-.14-.77-.09-.24-.23-.46-.42-.66-.19-.2-.43-.38-.73-.54-.29-.17-.64-.31-1.03-.44-.39-.13-.84-.24-1.36-.33-1.09-.21-1.99-.53-2.7-.95-.72-.42-1.25-.96-1.61-1.61-.35-.65-.53-1.4-.53-2.26,0-.63.14-1.22.42-1.76.28-.54.66-1.01,1.15-1.41.49-.4,1.07-.71,1.73-.93.66-.22,1.38-.33,2.15-.33,1.22,0,2.29.24,3.2.71.91.48,1.63,1.16,2.16,2.07l-1.72,1.7c-.45-.74-.99-1.31-1.62-1.7s-1.32-.59-2.09-.59c-.59,0-1.1.09-1.54.27-.44.18-.78.43-1.03.76-.25.32-.37.71-.37,1.14,0,.32.06.61.18.87.12.27.31.5.55.7.25.2.58.38,1.01.54.42.16.93.3,1.52.42.83.18,1.57.41,2.22.69.65.28,1.2.61,1.65.99.45.38.8.8,1.03,1.27s.35.97.35,1.52c0,1.01-.23,1.89-.7,2.63-.47.74-1.13,1.31-1.99,1.71s-1.89.6-3.08.6Zm-1.36,1.83v-10.27l2.19.75v9.52h-2.19Zm3.1-9.52l-2.19-.75V7.66h2.19v10.23Z"/></g></svg>