<svg xmlns="http://www.w3.org/2000/svg" width="43.664" height="35.197" viewBox="0 0 43.664 35.197">
  <g id="Group_426" data-name="Group 426" transform="translate(12811.868 11698)">
    <path id="Path_678" data-name="Path 678" d="M-12776.708-11691.516c-17.658-4.391-27.791,9.174-27.791,9.174s5.76,2.381,5,6.7c-.079.023,6.952-.91,6.565,2.525s12.853-11.85,12.853-11.85S-12759.05-11687.125-12776.708-11691.516Z" transform="translate(-7.369 2.56)" fill="#0082fe"/>
    <g id="Union_4" data-name="Union 4" transform="translate(-12803.897 -11693.649)" fill="#0082fe">
      <path d="M 3.53412127494812 30.34669494628906 C 2.842971324920654 30.34674453735352 2.17634129524231 30.05684471130371 1.705151200294495 29.55132484436035 C 1.249811172485352 29.06334495544434 1.011801242828369 28.42683601379395 1.035141229629517 27.75923538208008 C 1.058481216430664 27.09160614013672 1.340411186218262 26.47313499450684 1.828991174697876 26.01774597167969 L 12.26992702484131 16.28183937072754 C 12.13606643676758 15.3258695602417 12.38994216918945 13.70912170410156 14.74280166625977 11.96271514892578 C 17.72369384765625 9.750731468200684 18.53869247436523 8.84648323059082 18.85150527954102 7.949526309967041 C 18.52729225158691 7.961023330688477 18.18945503234863 7.969296455383301 17.85822105407715 7.977405548095703 C 16.72661209106445 8.005125045776367 15.31828117370605 8.039615631103516 14.87920093536377 8.222335815429688 C 14.36193084716797 8.438175201416016 13.52780151367188 9.328715324401855 12.72114086151123 10.1899356842041 C 12.01896095275879 10.93960571289062 11.29288101196289 11.71480560302734 10.62592124938965 12.21795558929443 C 10.1808910369873 12.55382537841797 9.742061614990234 12.72416496276855 9.321711540222168 12.7241849899292 C 8.820880889892578 12.72420501708984 8.384071350097656 12.4663257598877 8.153231620788574 12.03434562683105 C 7.868321418762207 11.50116539001465 7.936601161956787 10.80308532714844 8.331440925598145 10.21250534057617 C 9.138951301574707 9.004665374755859 12.06216144561768 5.904515266418457 13.78175163269043 5.003055572509766 C 14.4509916305542 4.652665615081787 15.54666137695312 4.561525344848633 16.60627174377441 4.47337532043457 C 17.09988212585449 4.432315349578857 17.56612205505371 4.39352560043335 17.91329193115234 4.331745624542236 C 19.07828712463379 4.123939514160156 19.99074554443359 4.01314640045166 20.25216293334961 3.983096361160278 C 20.30335426330566 3.966200113296509 20.3558235168457 3.954766988754272 20.40903091430664 3.948955535888672 L 20.4285717010498 3.946825504302979 L 20.44822120666504 3.946235418319702 C 20.48249053955078 3.945195436477661 20.51713180541992 3.944685459136963 20.55207061767578 3.944685459136963 C 20.59610176086426 3.944685459136963 20.64062118530273 3.945505380630493 20.68551063537598 3.947135448455811 L 20.6676197052002 4.438615322113037 L 20.66818809509277 4.438394546508789 L 20.68611145019531 3.947155475616455 C 21.76442909240723 3.986488103866577 22.96290016174316 4.478050231933594 23.82636451721191 5.220434188842773 L 24.21257209777832 5.073845386505127 L 24.21531105041504 5.072805404663086 L 24.21806144714355 5.071795463562012 L 28.80587196350098 3.391680002212524 C 29.14729118347168 3.100316524505615 30.70285224914551 1.765945911407471 31.6079216003418 0.8733954429626465 C 31.98917198181152 0.4977354109287262 32.51654052734375 0.2909454107284546 33.09303283691406 0.2909454107284546 C 33.86352157592773 0.2909454107284546 34.59482192993164 0.6526154279708862 34.95611953735352 1.212345480918884 C 35.23842239379883 1.649685382843018 35.27138137817383 2.161645412445068 35.04894256591797 2.653895378112793 L 35.03543090820312 2.683785438537598 L 35.01814270019531 2.711655378341675 C 33.16570281982422 5.696585655212402 31.67703056335449 6.506755352020264 29.92338180541992 7.255725383758545 C 28.99973487854004 7.649969100952148 26.76683616638184 8.453289985656738 24.95426177978516 9.092999458312988 C 24.93928909301758 9.171243667602539 24.92436599731445 9.249655723571777 24.90942192077637 9.328185081481934 C 24.49887084960938 11.48512554168701 24.03354072570801 13.92984580993652 21.9613208770752 15.51447582244873 C 21.54255485534668 15.83458137512207 21.07611656188965 16.16226196289062 20.59334182739258 16.47598838806152 L 22.96459197998047 20.42269515991211 C 23.60831832885742 21.49419593811035 23.3629264831543 22.86923980712891 22.39842987060547 23.65057182312012 C 22.29424476623535 23.78150939941406 22.17642593383789 23.90241241455078 22.04747200012207 24.01066589355469 L 15.5575008392334 29.45662498474121 C 15.10819149017334 29.83375549316406 14.53792095184326 30.04149627685547 13.95179080963135 30.0415153503418 C 13.21019077301025 30.04154586791992 12.51164150238037 29.71604537963867 12.035231590271 29.1484546661377 C 11.60592079162598 28.63698577880859 11.40159130096436 27.98889541625977 11.45987129211426 27.32357597351074 C 11.51815128326416 26.65828514099121 11.83199119567871 26.05569458007812 12.34359073638916 25.62683486938477 L 17.60567665100098 21.21122550964355 L 16.42377662658691 19.24448776245117 L 5.238811016082764 29.67507553100586 C 4.774161338806152 30.10815620422363 4.168801307678223 30.34664535522461 3.53412127494812 30.34669494628906 Z" stroke="none"/>
      <path d="M 3.534081220626831 29.84669494628906 C 4.022490978240967 29.84665489196777 4.512251377105713 29.66876602172852 4.897801399230957 29.30940628051758 L 16.2135009765625 18.75690460205078 C 16.32656097412109 18.65151596069336 16.42461204528809 18.53615570068359 16.50768089294434 18.41339492797852 L 18.25422096252441 21.31972503662109 L 12.66480159759521 26.01000595092773 C 11.8188009262085 26.71920585632324 11.70810127258301 27.98100471496582 12.4182014465332 28.82700538635254 C 13.12830066680908 29.67300415039062 14.39009952545166 29.78371047973633 15.2361011505127 29.07360458374023 L 21.72600173950195 23.62770462036133 C 21.8456916809082 23.52723503112793 21.95063209533691 23.4157657623291 22.04064178466797 23.29598617553711 C 22.83716201782227 22.68549537658691 23.06512069702148 21.56094551086426 22.53600120544434 20.68020629882812 L 19.91362190246582 16.31551551818848 C 20.55375099182129 15.91796588897705 21.15243148803711 15.50344562530518 21.65760040283203 15.11729526519775 C 23.73221206665039 13.53083515167236 24.06625175476074 11.02840518951416 24.51767158508301 8.716745376586914 C 26.24606132507324 8.108165740966797 28.74997138977051 7.212935447692871 29.72700119018555 6.795905590057373 C 31.28220176696777 6.13169527053833 32.75460052490234 5.410795211791992 34.59329986572266 2.448005437850952 C 35.1890983581543 1.129504084587097 33.00028991699219 0.2033976465463638 31.9590015411377 1.229395389556885 C 30.91770172119141 2.256305456161499 29.0619010925293 3.830395460128784 29.0619010925293 3.830395460128784 L 24.39000129699707 5.541305541992188 L 23.71485137939453 5.797565460205078 C 22.88743209838867 4.975655555725098 21.65616035461426 4.482875347137451 20.66788101196289 4.446825504302979 C 20.66653060913086 4.443365573883057 20.66580200195312 4.441505432128906 20.66580200195312 4.441505432128906 C 20.66580200195312 4.441505432128906 20.66657066345215 4.443515300750732 20.66732215881348 4.446805477142334 C 20.59810066223145 4.44428539276123 20.52990341186523 4.443994998931885 20.46330070495605 4.446005344390869 C 20.43207168579102 4.44941520690918 20.4018611907959 4.458465576171875 20.37252044677734 4.472695350646973 C 20.14000129699707 4.498185634613037 19.1954517364502 4.610935211181641 18.00090026855469 4.824005603790283 C 16.9137020111084 5.017495632171631 14.89230155944824 4.985995292663574 14.01390075683594 5.445895195007324 C 12.3606014251709 6.312605381011963 9.489601135253906 9.379795074462891 8.747100830078125 10.49040508270264 C 8.004600524902344 11.60099601745605 8.893800735473633 12.89879322052002 10.32480144500732 11.8187952041626 C 11.75760078430176 10.73790550231934 13.58280086517334 8.221505165100098 14.68710136413574 7.760705471038818 C 15.44402122497559 7.445725440979004 17.86624145507812 7.517005443572998 19.48802185058594 7.419745445251465 C 19.46078109741211 7.587805271148682 19.43649101257324 7.72428560256958 19.41390037536621 7.81289529800415 C 19.11780166625977 8.973895072937012 18.35190200805664 9.907195091247559 15.04080104827881 12.3642053604126 C 13.01516151428223 13.86773586273193 12.53342151641846 15.34020519256592 12.81291103363037 16.45916557312012 L 2.169901132583618 26.38350486755371 C 1.361701250076294 27.13680458068848 1.317601203918457 28.40310478210449 2.070901155471802 29.21040534973145 C 2.46484112739563 29.6330451965332 2.998671293258667 29.84673500061035 3.534081220626831 29.84669494628906 M 3.534161329269409 30.84669494628906 L 3.534151315689087 30.84669494628906 C 2.704791307449341 30.84675598144531 1.904831171035767 30.49887466430664 1.339391231536865 29.89223480224609 C 0.7930812239646912 29.30676460266113 0.5074412226676941 28.54290580749512 0.5354512333869934 27.74176597595215 C 0.5634611845016479 26.94062614440918 0.9017711877822876 26.19846534729004 1.488081216812134 25.65198516845703 L 11.74757385253906 16.08526611328125 C 11.67783355712891 14.98478889465332 12.09036540985107 13.30879592895508 14.44479084014893 11.56122589111328 C 16.52252388000488 10.01944351196289 17.50858116149902 9.141482353210449 18.00058746337891 8.474061012268066 C 17.95713996887207 8.475132942199707 17.91372871398926 8.4761962890625 17.87046051025391 8.477255821228027 C 16.9554615020752 8.499665260314941 15.42402076721191 8.537175178527832 15.07130146026611 8.683955192565918 C 14.65350151062012 8.858295440673828 13.74756145477295 9.825515747070312 13.0860710144043 10.53174495697021 C 12.36942100524902 11.29686546325684 11.6283712387085 12.08803558349609 10.92704105377197 12.61710548400879 C 10.39338111877441 13.01987552642822 9.853211402893066 13.22416496276855 9.321721076965332 13.2241849899292 C 8.633221626281738 13.22422504425049 8.031551361083984 12.86751556396484 7.71225118637085 12.27000522613525 C 7.340201377868652 11.57376575469971 7.418181419372559 10.67889499664307 7.915781021118164 9.934615135192871 C 8.655470848083496 8.828205108642578 11.62704086303711 5.568085193634033 13.54960155487061 4.560215473175049 C 14.30871105194092 4.16277551651001 15.45564079284668 4.067365646362305 16.56482124328613 3.975095510482788 C 17.0464916229248 3.935025453567505 17.50145149230957 3.897175312042236 17.82568168640137 3.839475393295288 C 18.94357681274414 3.640079259872437 19.8342227935791 3.528655767440796 20.14998054504395 3.491613626480103 C 20.2170467376709 3.472757816314697 20.28544998168945 3.459482669830322 20.35476112365723 3.451915502548218 L 20.39391136169434 3.447635412216187 L 20.43328094482422 3.446455478668213 C 20.52157211303711 3.443798065185547 20.6119384765625 3.444137811660767 20.70366096496582 3.447465419769287 L 20.66769981384277 4.436392307281494 L 20.66827011108398 4.436171054840088 L 20.70433044433594 3.447485446929932 C 21.79445266723633 3.487256765365601 22.9946346282959 3.945524930953979 23.91721534729004 4.651144981384277 L 24.04612159729004 4.602295398712158 L 28.54945182800293 2.953117370605469 C 28.9907169342041 2.57551908493042 30.41367149353027 1.34889280796051 31.25683212280273 0.5173854231834412 C 31.73237037658691 0.04882542043924332 32.38437271118164 -0.2090545743703842 33.09303283691406 -0.2090545743703842 C 34.02898025512695 -0.2090545743703842 34.9251823425293 0.2424454241991043 35.37621307373047 0.9411954283714294 C 35.748291015625 1.517625451087952 35.79508209228516 2.216925382614136 35.50458145141602 2.859795331954956 L 35.47756958007812 2.919575452804565 L 35.4429817199707 2.97531533241272 C 33.51676940917969 6.079105377197266 31.89257049560547 6.958395481109619 30.11977195739746 7.715545654296875 C 29.2301025390625 8.09528636932373 27.15762329101562 8.843939781188965 25.39164352416992 9.468744277954102 C 24.9664478302002 11.70209789276123 24.47352600097656 14.22282886505127 22.26505088806152 15.91165542602539 C 21.95409965515137 16.14934158325195 21.61767578125 16.39098358154297 21.2680606842041 16.62814331054688 L 23.39318084716797 20.16519546508789 C 24.15623664855957 21.43532752990723 23.87801933288574 23.06099700927734 22.75526428222656 24.00435066223145 C 22.63896560668945 24.14513969421387 22.50944137573242 24.27568626403809 22.36893081665039 24.39362525939941 L 15.87890148162842 29.83963584899902 C 15.33974075317383 30.29218482971191 14.65532112121582 30.54148483276367 13.95180130004883 30.5415153503418 C 13.06207084655762 30.54156494140625 12.22392082214355 30.15097618103027 11.65225124359131 29.46991539001465 C 11.13705158233643 28.85610580444336 10.89184093475342 28.07836532592773 10.96178150177002 27.27993583679199 C 11.0317211151123 26.48153495788574 11.40838146209717 25.75836563110352 12.02237129211426 25.24365615844727 L 16.95713806152344 21.10272789001465 L 16.3132381439209 20.03124618530273 L 5.579811096191406 30.04074478149414 C 5.022211074829102 30.56046485900879 4.295781135559082 30.84663581848145 3.534161329269409 30.84669494628906 Z" stroke="none" fill="#fff"/>
    </g>
    <circle id="Ellipse_594" data-name="Ellipse 594" cx="4" cy="4" r="4" transform="translate(-12784 -11698)" fill="#0082fe"/>
    <path id="Path_679" data-name="Path 679" d="M-12783.215-11696.389s-5.529,4.364-8.163,3.953-.527.967,0,1.076,1.062.268,1.062.268.426.23-.831.391,1.979,1.574,3.139,1.522a36.457,36.457,0,0,0,5.122-1.377s1.015-5.729,2.4-6.224S-12783.215-11696.389-12783.215-11696.389Z" transform="translate(1 -0.899)" fill="#0082fe"/>
  </g>
</svg>
