<?xml version="1.0" encoding="UTF-8"?><svg id="Layer_2" xmlns="http://www.w3.org/2000/svg" xmlns:xlink="http://www.w3.org/1999/xlink" viewBox="0 0 47.72 42.74"><defs><style>.cls-1{fill:url(#linear-gradient);}.cls-2{fill:url(#linear-gradient-3);}.cls-3{fill:url(#linear-gradient-4);}.cls-4{fill:url(#linear-gradient-2);}</style><linearGradient id="linear-gradient" x1="-9.54" y1="49.1" x2="26.14" y2="9.19" gradientUnits="userSpaceOnUse"><stop offset="0" stop-color="#ad87ff"/><stop offset="1" stop-color="#00cfff"/></linearGradient><linearGradient id="linear-gradient-2" x1="-.1" y1="57.54" x2="35.59" y2="17.63" xlink:href="#linear-gradient"/><linearGradient id="linear-gradient-3" x1="-12.69" y1="46.29" x2="23" y2="6.37" xlink:href="#linear-gradient"/><linearGradient id="linear-gradient-4" x1="-6.36" y1="51.95" x2="29.33" y2="12.03" xlink:href="#linear-gradient"/></defs><g id="Layer_1-2"><path class="cls-1" d="m32.67,13.29C13.44,8.12,0,24.87,0,24.87c0,0,6.44,2.66,5.59,7.49-.09.03,7.78-1.02,7.34,2.82-.03.29.03.45.16.52l8.96-8.35c-.08-1.23.38-3.11,3.02-5.06,2.32-1.72,3.43-2.71,3.98-3.45-.05,0-.1,0-.15,0-1.02.02-2.74.07-3.13.23-.47.19-1.48,1.28-2.22,2.07-.8.86-1.63,1.74-2.42,2.33-.6.45-1.2.68-1.8.68-.77,0-1.44-.4-1.8-1.07-.42-.78-.33-1.78.23-2.61.83-1.24,4.15-4.88,6.3-6.01.85-.44,2.6-.58,3.37-.65l5.23-.51Z"/><path class="cls-4" d="m44.66,10.73c-1.16,1.15-3.24,2.91-3.24,2.91l-5.23,1.91-.76.29c-.42-.41-.93-.74-1.46-.99-.65-.31-1.34-.5-1.95-.52,0,0,0,0,0,0,0,0,0,0,0,0-.08,0-.3.01-.33.03-.26.03-1.32.15-2.65.39-1.22.22-3.48.18-4.46.7-1.85.97-5.06,4.4-5.89,5.64-.83,1.24.16,2.69,1.76,1.49,1.6-1.21,3.64-4.02,4.88-4.54.85-.35,3.56-.27,5.37-.38-.03.19-.06.34-.08.44-.19.74-.56,1.41-1.53,2.35-.48.47-1.11,1-1.93,1.65-.42.33-.89.69-1.43,1.09-1.56,1.16-2.29,2.3-2.5,3.31-.09.45-.09.88,0,1.27l-11.9,11.1c-.9.84-.95,2.26-.11,3.16.44.47,1.04.71,1.64.71.55,0,1.09-.2,1.52-.6l12.66-11.8c.13-.12.24-.25.33-.38l1.95,3.25-6.25,5.25c-.95.79-1.07,2.2-.28,3.15.79.95,2.21,1.07,3.15.28l7.26-6.09c.13-.11.25-.24.35-.37.89-.68,1.15-1.94.55-2.93l-2.93-4.88c.72-.44,1.39-.91,1.95-1.34,2.32-1.77,2.69-4.57,3.2-7.16,1.93-.68,4.73-1.68,5.83-2.15,1.74-.74,3.39-1.55,5.44-4.86.67-1.47-1.78-2.51-2.95-1.36Z"/><path class="cls-2" d="m28.74,0s-.11.07-.31.19c.11-.07.23-.13.35-.19-.03,0-.05,0-.05,0Z"/><path class="cls-3" d="m35.64,4.49c-.74,0-1.44.2-2.05.52-.12.06-.24.12-.35.19-.04.02-.08.05-.12.08-1.49.92-6.58,3.9-9.07,3.51-2.95-.46-.59,1.08,0,1.2.59.12,1.19.3,1.19.3,0,0,.48.26-.93.44-1.41.18,2.21,1.17,3.5,1.11,1.65,0,2.87-.14,4.1-.45.8,1.23,2.18,2.05,3.75,2.05,2.47,0,4.47-2,4.47-4.47s-2-4.47-4.47-4.47Z"/></g></svg>