<?xml version="1.0" encoding="UTF-8"?><svg id="Layer_2" xmlns="http://www.w3.org/2000/svg" xmlns:xlink="http://www.w3.org/1999/xlink" viewBox="0 0 35.94 39.08"><defs><style>.cls-1{fill:url(#linear-gradient);}.cls-2{fill:url(#linear-gradient-3);}.cls-3{fill:url(#linear-gradient-4);}.cls-4{fill:url(#linear-gradient-2);}.cls-5{fill:url(#linear-gradient-5);}</style><linearGradient id="linear-gradient" x1="28.08" y1="14" x2="14.3" y2="32.24" gradientUnits="userSpaceOnUse"><stop offset="0" stop-color="#ad87ff"/><stop offset="1" stop-color="#00cfff"/></linearGradient><linearGradient id="linear-gradient-2" x1="18.83" y1="7.02" x2="5.06" y2="25.25" xlink:href="#linear-gradient"/><linearGradient id="linear-gradient-3" x1="-14.33" y1="47.45" x2="21.61" y2="-9.01" xlink:href="#linear-gradient"/><linearGradient id="linear-gradient-4" x1="25.17" y1="11.8" x2="11.39" y2="30.04" xlink:href="#linear-gradient"/><linearGradient id="linear-gradient-5" x1="-3.53" y1="54.32" x2="32.4" y2="-2.14" xlink:href="#linear-gradient"/></defs><g id="Layer_1-2"><path class="cls-1" d="m18.84,19.61l-1.92,5.85-3.39-4.97c-.96.79-2.07,1.4-3.29,1.77,1.91,2.69,4.23,6.21,4.71,8.13.84,3.37-.37,7.66-.37,7.66,0,0,1.92,2.31,6.93,0,0,0-2.07-6.01-1.39-10.27.48-3.02,2.1-6.33,3.01-8.01-.58.09-1.15.15-1.71.15-.89,0-1.74-.12-2.57-.32Z"/><path class="cls-4" d="m7.56,18.65s.58.75,1.42,1.88c1.29-.26,2.46-.86,3.42-1.7l-1.05-1.54-3.79,1.36Z"/><path class="cls-2" d="m10.45,8.96c0-.86.11-1.69.3-2.49-.99-.48-2.09-.76-3.26-.76C3.36,5.71,0,9.07,0,13.2s3.36,7.48,7.48,7.48c.51,0,1.01-.05,1.49-.15,1.29-.26,2.46-.86,3.42-1.7.61-.53,1.13-1.16,1.54-1.86-2.14-2-3.49-4.84-3.49-8Z"/><path class="cls-3" d="m19.46,17.72c.96.21,1.97.26,3.01.13l-2.53-1.61-.48,1.47Z"/><path class="cls-5" d="m30.57,6.58l-.55-.12-.19-.53c-1.28-3.55-4.66-5.94-8.43-5.94s-6.96,2.31-8.3,5.58c-.13.32-.24.65-.33.99-.1.37-.18.74-.23,1.13-.06.41-.1.83-.1,1.26,0,2.3.88,4.4,2.3,6,.26.29.53.56.82.81.26.23.54.44.83.64.92.62,1.95,1.07,3.06,1.31.96.21,1.97.26,3.01.13.32-.04.64-.09.96-.17l.54-.13.39.4c1.28,1.29,2.99,2,4.8,2,3.73,0,6.77-3.03,6.77-6.76,0-3.18-2.26-5.96-5.37-6.62Z"/></g></svg>