<svg xmlns="http://www.w3.org/2000/svg" width="37.594" height="45.432" viewBox="0 0 37.594 45.432">
  <g id="Union_3" data-name="Union 3" transform="translate(1 0.5)" fill="#0082fe">
    <path d="M 33.0525016784668 44.43170166015625 C 31.37585067749023 44.43170166015625 30.01180076599121 43.06724166870117 30.01180076599121 41.39010238647461 C 30.01180076599121 40.28949356079102 30.59955024719238 39.32360076904297 31.47768783569336 38.7898063659668 L 31.49067115783691 38.29449081420898 C 31.49143218994141 38.26553726196289 31.5617618560791 35.50515747070312 31.47731971740723 32.41850280761719 L 21.9547119140625 32.41850280761719 C 21.90613746643066 33.23049926757812 21.87986755371094 33.98246765136719 21.85625076293945 34.65848159790039 C 21.83578109741211 35.2442626953125 21.81810188293457 35.75016021728516 21.79012107849121 36.15673065185547 C 21.63266181945801 38.45794296264648 21.78935050964355 42.73165130615234 21.79095077514648 42.77455139160156 L 21.81123161315918 43.31780242919922 L 21.2681713104248 43.29265975952148 C 21.26215171813965 43.29239273071289 20.65973091125488 43.26480102539062 20.11130142211914 43.26480102539062 C 19.72567176818848 43.26480102539062 19.53135108947754 43.2783317565918 19.43624114990234 43.28968048095703 L 19.40707015991211 43.29315948486328 L 19.37433052062988 43.29339981079102 C 19.37407875061035 43.29339981079102 19.37382125854492 43.29339981079102 19.37356948852539 43.29339981079102 C 19.19442558288574 43.29340362548828 19.0312328338623 43.20532608032227 18.92574119567871 43.05167007446289 C 18.82196044921875 42.9005126953125 18.66511154174805 42.67206954956055 18.68809127807617 40.09274291992188 C 18.70180130004883 38.5531005859375 18.7777214050293 36.60673141479492 18.90185165405273 34.61215972900391 C 19.04955101013184 32.23899078369141 19.47684097290039 26.50261116027832 20.25253105163574 24.49592018127441 C 20.95539474487305 22.67764472961426 21.82252502441406 21.37518501281738 22.89414024353027 20.53228378295898 L 19.23884201049805 14.68253993988037 C 17.69233512878418 15.94560623168945 15.75174331665039 17.31120300292969 15.00841522216797 17.82665824890137 C 15.24982833862305 18.60680389404297 15.85076522827148 20.57387733459473 16.42678070068359 22.65807151794434 C 17.94593048095703 28.15472030639648 17.81688117980957 29.09721183776855 17.77448081970215 29.40693092346191 C 17.4776611328125 31.57367134094238 15.09859085083008 32.07773208618164 14.99746131896973 32.09812927246094 L 14.9659309387207 32.1044921875 L 14.93385124206543 32.10676193237305 C 14.93385124206543 32.10676193237305 14.90162754058838 32.10903549194336 14.84060096740723 32.1132698059082 L 14.84060096740723 40.92840194702148 C 14.84060096740723 42.35047149658203 13.68367099761963 43.50740051269531 12.26160144805908 43.50740051269531 C 10.83904075622559 43.50740051269531 9.681700706481934 42.35047149658203 9.681700706481934 40.92840194702148 L 9.681700706481934 32.42092132568359 C 9.22184944152832 32.44362640380859 8.784085273742676 32.4636344909668 8.37230110168457 32.48077392578125 L 8.37230110168457 40.92840194702148 C 8.37230110168457 42.35047149658203 7.214961051940918 43.50740051269531 5.792401313781738 43.50740051269531 C 4.370331287384033 43.50740051269531 3.213401079177856 42.35047149658203 3.213401079177856 40.92840194702148 L 3.213401079177856 32.55671310424805 C 1.487924456596375 32.50486755371094 1.117808103561401 32.22992324829102 0.5443910956382751 31.5069408416748 C 0.4944611191749573 31.44399070739746 0.4412911236286163 31.37691116333008 0.3823211193084717 31.30556106567383 C -0.1750188916921616 30.63310050964355 -0.5210089087486267 28.82428169250488 -0.4987388849258423 26.6978702545166 C -0.4775288999080658 24.67394065856934 -0.1244388893246651 21.31379127502441 1.437281131744385 16.79972076416016 C 4.35496711730957 8.368072509765625 13.68727684020996 4.664782524108887 15.66531944274902 3.965167760848999 C 16.06161880493164 3.732106447219849 16.51165008544922 3.609211206436157 16.97062110900879 3.609211206436157 C 17.86729049682617 3.609211206436157 18.68584060668945 4.062541007995605 19.16024017333984 4.821871280670166 L 21.31718254089355 8.273848533630371 C 20.9665355682373 7.526358604431152 20.77060127258301 6.692751407623291 20.77060127258301 5.814001083374023 C 20.77060127258301 2.608371019363403 23.37857055664062 0.0004011016862932593 26.58420181274414 0.0004011016862932593 C 29.78983116149902 0.0004011016862932593 32.39780044555664 2.608371019363403 32.39780044555664 5.814001083374023 C 32.39780044555664 9.019130706787109 29.78983116149902 11.62670135498047 26.58420181274414 11.62670135498047 C 24.75520706176758 11.62670135498047 23.12064933776855 10.77769088745117 22.05416107177734 9.453312873840332 L 28.38386726379395 19.58340263366699 C 29.55133247375488 19.81477737426758 30.54581642150879 20.24075698852539 31.34234046936035 20.85112190246582 C 32.29889297485352 21.58412170410156 33.00221252441406 22.6038818359375 33.4327392578125 23.88210105895996 C 34.45989227294922 26.93067169189453 34.43170166015625 37.84626007080078 34.43000030517578 38.30944061279297 L 34.42864608764648 38.67878723144531 C 35.41619873046875 39.18173599243164 36.09410095214844 40.2082405090332 36.09410095214844 41.39010238647461 C 36.09410095214844 43.06724166870117 34.72964096069336 44.43170166015625 33.0525016784668 44.43170166015625 Z M 22.29019355773926 29.10820198059082 L 31.31948661804199 29.10820198059082 C 31.09377861022949 26.00594329833984 30.728271484375 24.77300453186035 30.45431137084961 24.2873706817627 C 30.1435432434082 23.73666954040527 29.68448829650879 23.25381660461426 29.13209915161133 22.88925743103027 C 28.92656135559082 23.36336326599121 28.58124732971191 23.76869773864746 28.13253021240234 24.04904174804688 C 27.72199058532715 24.3055419921875 27.25012016296387 24.44113159179688 26.76793098449707 24.4411506652832 C 25.87166023254395 24.44119071960449 25.05331039428711 23.98784065246582 24.57886123657227 23.22843170166016 L 24.56396293640137 23.20458984375 C 24.26470947265625 23.50265884399414 23.99621200561523 23.86421012878418 23.76224136352539 24.28478050231934 C 23.08457565307617 25.50344276428223 22.60134124755859 27.0853157043457 22.29019355773926 29.10820198059082 Z" stroke="none"/>
    <path d="M 33.0525016784668 43.93170166015625 C 34.45650100708008 43.93170166015625 35.59410095214844 42.79410171508789 35.59410095214844 41.39010238647461 C 35.59410095214844 39.98699951171875 34.45650100708008 38.84939956665039 33.0525016784668 38.84939956665039 C 31.64940071105957 38.84939956665039 30.51180076599121 39.98699951171875 30.51180076599121 41.39010238647461 C 30.51180076599121 42.79410171508789 31.64940071105957 43.93170166015625 33.0525016784668 43.93170166015625 M 12.26160144805908 43.00740051269531 C 13.41000080108643 43.00740051269531 14.34060096740723 42.07680130004883 14.34060096740723 40.92840194702148 L 14.34060096740723 31.64616203308105 C 14.69428157806396 31.62244033813477 14.89860153198242 31.60800170898438 14.89860153198242 31.60800170898438 C 14.89860153198242 31.60800170898438 17.02710151672363 31.17870140075684 17.27910041809082 29.33910179138184 C 17.53110122680664 27.49860191345215 14.42160129547119 17.62380027770996 14.42160129547119 17.62380027770996 C 14.42160129547119 17.62380027770996 17.4189510345459 15.57889080047607 19.35939025878906 13.93192100524902 L 23.56636047363281 20.66453170776367 C 22.36093139648438 21.45139122009277 21.4395809173584 22.81182098388672 20.71890068054199 24.67620086669922 C 19.47690200805664 27.88919639587402 18.84128379821777 42.85479354858398 19.37700080871582 42.7932014465332 C 19.91250228881836 42.72930908203125 21.29130363464355 42.7932014465332 21.29130172729492 42.7932014465332 C 21.29130172729492 42.7932014465332 21.13020133972168 38.47680282592773 21.29130172729492 36.12240219116211 C 21.35607147216797 35.18136978149414 21.36603164672852 33.65163040161133 21.48588180541992 31.91850090026855 L 31.96260070800781 31.91850090026855 C 32.07076263427734 35.24858093261719 31.99050140380859 38.30760192871094 31.99050140380859 38.30760192871094 L 33.93000030517578 38.30760192871094 C 33.93000030517578 38.30760192871094 33.97140121459961 27.04680061340332 32.95890045166016 24.04170036315918 C 32.11851119995117 21.54667091369629 30.30501174926758 20.42252159118652 28.07630157470703 20.03474044799805 L 18.7362003326416 5.086801052093506 C 18.12966346740723 4.115970611572266 16.85221290588379 3.818801164627075 15.8795108795166 4.419841289520264 C 12.55755138397217 5.583381175994873 4.522581100463867 9.412680625915527 1.909801125526428 16.96320152282715 C -0.9161989092826843 25.13160133361816 0.02700111083686352 30.09330177307129 0.7677010893821716 30.98700141906738 C 1.407501101493835 31.76101112365723 1.391571164131165 32.04933166503906 3.713401079177856 32.0654411315918 L 3.713401079177856 40.92840194702148 C 3.713401079177856 42.07680130004883 4.644901275634766 43.00740051269531 5.792401313781738 43.00740051269531 C 6.94080114364624 43.00740051269531 7.87230110168457 42.07680130004883 7.87230110168457 40.92840194702148 L 7.87230110168457 32.00028991699219 C 8.62583065032959 31.97170066833496 9.415481567382812 31.93472099304199 10.18170070648193 31.89495086669922 L 10.18170070648193 40.92840194702148 C 10.18170070648193 42.07680130004883 11.11320114135742 43.00740051269531 12.26160144805908 43.00740051269531 M 24.67960166931152 22.44610023498535 L 25.00290107727051 22.9635009765625 C 25.61129951477051 23.93729782104492 26.8937931060791 24.23340225219727 27.86760139465332 23.62500190734863 C 28.41221046447754 23.28474044799805 28.7451114654541 22.73331069946289 28.82620048522949 22.14303016662598 C 29.68985176086426 22.55646133422852 30.4319019317627 23.23029136657715 30.88980102539062 24.04170036315918 C 31.41506195068359 24.97281074523926 31.7016716003418 27.19120025634766 31.85458183288574 29.60820198059082 L 21.71352195739746 29.60820198059082 C 21.97551155090332 27.63852119445801 22.44507026672363 25.62464141845703 23.3253002166748 24.04170036315918 C 23.71415138244629 23.34273147583008 24.17612075805664 22.819091796875 24.67960166931152 22.44610023498535 M 26.58420181274414 11.12670135498047 C 29.51910018920898 11.12670135498047 31.89780044555664 8.748001098632812 31.89780044555664 5.814001083374023 C 31.89780044555664 2.879101037979126 29.51910018920898 0.5004010796546936 26.58420181274414 0.5004010796546936 C 23.65020179748535 0.5004010796546936 21.27060127258301 2.879101037979126 21.27060127258301 5.814001083374023 C 21.27060127258301 8.748001098632812 23.65020179748535 11.12670135498047 26.58420181274414 11.12670135498047 M 33.0525016784668 44.93170166015625 C 31.10015106201172 44.93170166015625 29.51180076599121 43.34294128417969 29.51180076599121 41.39010238647461 C 29.51180076599121 40.20896911621094 30.09308433532715 39.16109848022461 30.98466110229492 38.51751327514648 L 30.99084091186523 38.28140258789062 C 30.99156188964844 38.25410079956055 31.0543384552002 35.78849411010742 30.9896354675293 32.91850280761719 L 22.4277172088623 32.91850280761719 C 22.3953857421875 33.54688262939453 22.37481307983398 34.13572311401367 22.35594177246094 34.67594146728516 C 22.3353214263916 35.26625061035156 22.31750106811523 35.77606964111328 22.2889404296875 36.19107055664062 C 22.13328170776367 38.46601104736328 22.28901100158691 42.71327209472656 22.29060173034668 42.75590133666992 L 22.33115196228027 43.84233093261719 L 21.24507141113281 43.79212951660156 C 21.23916053771973 43.79186248779297 20.64750099182129 43.76480102539062 20.11130142211914 43.76480102539062 C 19.73122024536133 43.76480102539062 19.56232070922852 43.77818298339844 19.4954719543457 43.78615951538086 L 19.43645095825195 43.7932014465332 L 19.37364196777344 43.79339981079102 C 19.03365516662598 43.79570770263672 18.71107292175293 43.62239074707031 18.51354026794434 43.33468246459961 C 18.34156036376953 43.08419036865234 18.16373062133789 42.82517242431641 18.18810081481934 40.08829116821289 C 18.20189094543457 38.54006195068359 18.27815055847168 36.5842399597168 18.4028205871582 34.58110046386719 C 18.55196189880371 32.18474197387695 18.98532104492188 26.38739204406738 19.78616142272949 24.31565093994141 C 20.44700241088867 22.60607528686523 21.25493812561035 21.32524299621582 22.2408390045166 20.43033027648926 L 19.11330223083496 15.4251880645752 C 17.82831001281738 16.44456100463867 16.3892765045166 17.47128105163574 15.59369659423828 18.0282154083252 C 15.87950897216797 18.95978736877441 16.40370750427246 20.69760894775391 16.90872192382812 22.52487182617188 C 18.45526123046875 28.12065124511719 18.32056045532227 29.10441017150879 18.26986122131348 29.47475051879883 C 18.12417030334473 30.53825187683105 17.5148811340332 31.41888046264648 16.50784111022949 32.02149963378906 C 16.04715538024902 32.29717636108398 15.60526657104492 32.45074462890625 15.34060096740723 32.52678298950195 L 15.34060096740723 40.92840194702148 C 15.34060096740723 42.62617111206055 13.95937156677246 44.00740051269531 12.26160144805908 44.00740051269531 C 10.56334114074707 44.00740051269531 9.181700706481934 42.62617111206055 9.181700706481934 40.92840194702148 L 9.181700706481934 32.94549560546875 C 9.077236175537109 32.95036315917969 8.97409725189209 32.95507049560547 8.87230110168457 32.95962905883789 L 8.87230110168457 40.92840194702148 C 8.87230110168457 42.62617111206055 7.490661144256592 44.00740051269531 5.792401313781738 44.00740051269531 C 4.094631195068359 44.00740051269531 2.713401079177856 42.62617111206055 2.713401079177856 40.92840194702148 L 2.713401079177856 33.03459930419922 C 2.119973182678223 32.99623489379883 1.710844159126282 32.92042922973633 1.371591091156006 32.79386138916016 C 0.7400211095809937 32.55823135375977 0.4279711246490479 32.16477966308594 0.1526411175727844 31.81764030456543 C 0.1046711131930351 31.75715065002441 0.05361111089587212 31.69268035888672 -0.003068889258429408 31.62412071228027 C -0.6503589153289795 30.84312057495117 -1.022868871688843 28.99920082092285 -0.9987089037895203 26.69264030456543 C -0.9771189093589783 24.631591796875 -0.6189388632774353 21.2138614654541 0.9647611379623413 16.63625144958496 C 2.165801048278809 13.16543102264404 4.54348087310791 10.08959102630615 8.031770706176758 7.494121074676514 C 11.12713241577148 5.191006660461426 14.18940925598145 3.959681510925293 15.45516967773438 3.509173631668091 C 15.91763401031494 3.247153997421265 16.43905258178711 3.109211206436157 16.97062110900879 3.109211206436157 C 18.04085159301758 3.109211206436157 19.01792144775391 3.650421142578125 19.58429145812988 4.556941032409668 L 20.27249145507812 5.658342361450195 C 20.35544967651367 2.248672962188721 23.15493011474609 -0.499598890542984 26.58420181274414 -0.499598890542984 C 30.06553077697754 -0.499598890542984 32.89780044555664 2.332671165466309 32.89780044555664 5.814001083374023 C 32.89780044555664 9.294831275939941 30.06553077697754 12.12670135498047 26.58420181274414 12.12670135498047 C 25.64693641662598 12.12670135498047 24.75656890869141 11.92137050628662 23.95599746704102 11.55344581604004 L 28.69495582580566 19.13769912719727 C 31.32481384277344 19.71916961669922 33.07709884643555 21.25982856750488 33.90658950805664 23.72250175476074 C 34.95989227294922 26.84871101379395 34.93170928955078 37.84471130371094 34.92999267578125 38.311279296875 L 34.92970657348633 38.38876342773438 C 35.9287109375 39.01546859741211 36.59410095214844 40.12650680541992 36.59410095214844 41.39010238647461 C 36.59410095214844 43.34294128417969 35.00534057617188 44.93170166015625 33.0525016784668 44.93170166015625 Z M 22.88086318969727 28.60820198059082 L 30.77860450744629 28.60820198059082 C 30.5362434387207 25.73680305480957 30.17463684082031 24.80922317504883 30.01883125305176 24.53303146362305 C 29.8313159942627 24.20075225830078 29.58140563964844 23.89628410339355 29.28481674194336 23.63403701782227 C 29.05122566223145 23.96589469909668 28.75126075744629 24.25203514099121 28.3974609375 24.47308158874512 C 27.90739059448242 24.77927017211914 27.34392166137695 24.94112205505371 26.76795196533203 24.9411506652832 C 25.91267204284668 24.94119071960449 25.11683464050293 24.59531593322754 24.54260444641113 23.99336051940918 C 24.42093467712402 24.15693855285645 24.30629730224609 24.33529281616211 24.19917106628418 24.52785110473633 C 23.62472152709961 25.5609016418457 23.18269348144531 26.93001174926758 22.88086318969727 28.60820198059082 Z" stroke="none" fill="#fff"/>
  </g>
</svg>
