<svg xmlns="http://www.w3.org/2000/svg" width="16.776" height="11.743" viewBox="0 0 16.776 11.743">
  <path id="Icon_awesome-wifi" data-name="Icon awesome-wifi" d="M16.643,5.471a12.188,12.188,0,0,0-16.509,0,.417.417,0,0,0-.009.6l.9.89a.426.426,0,0,0,.587.01,10.057,10.057,0,0,1,13.558,0,.426.426,0,0,0,.587-.01l.9-.89a.417.417,0,0,0-.009-.6ZM8.388,10.638a1.678,1.678,0,1,0,1.678,1.678A1.677,1.677,0,0,0,8.388,10.638ZM13.7,8.447a8.047,8.047,0,0,0-10.625,0,.414.414,0,0,0-.015.607l.9.891a.428.428,0,0,0,.578.021,5.9,5.9,0,0,1,7.693,0,.428.428,0,0,0,.578-.021l.9-.891A.414.414,0,0,0,13.7,8.447Z" transform="translate(0 -2.25)" fill="#1de068"/>
</svg>
