<?xml version="1.0" encoding="UTF-8"?><svg id="Layer_2" xmlns="http://www.w3.org/2000/svg" xmlns:xlink="http://www.w3.org/1999/xlink" viewBox="0 0 35.26 35.75"><defs><style>.cls-1{fill:url(#linear-gradient);}.cls-2{stroke-miterlimit:10;stroke-width:4.89px;}.cls-2,.cls-3,.cls-4{fill:none;stroke:#000;}.cls-3{stroke-width:2px;}.cls-3,.cls-4{stroke-linecap:round;stroke-linejoin:round;}.cls-4{stroke-width:1.62px;}</style><linearGradient id="linear-gradient" x1="10.62" y1="48.41" x2="19.27" y2="10.72" gradientUnits="userSpaceOnUse"><stop offset="0" stop-color="#ad87ff"/><stop offset="1" stop-color="#00cfff"/></linearGradient></defs><g id="Layer_1-2"><path class="cls-2" d="m2.45,17.87c0,8.52,6.91,15.43,15.43,15.43s14.94-6.91,14.94-15.43S26.39,2.45,17.87,2.45,2.45,9.35,2.45,17.87Z"/><path class="cls-1" d="m20.33,2.7c-.18-.03-.37-.05-.55-.08-.7-.1-1.41-.17-2.15-.17-8.52,0-15.43,6.91-15.43,15.43s6.91,15.43,15.43,15.43c.73,0,1.44-.07,2.15-.17.18-.03.37-.04.55-.08,7.23-1.28,12.73-7.58,12.73-15.18S27.56,3.97,20.33,2.7Z"/><g id="Icon_feather-wifi"><path id="Path_901" class="cls-4" d="m12.31,18.58c3.29-2.74,8.08-2.74,11.37,0"/><path id="Path_902" class="cls-4" d="m9.42,15.71c4.88-4.31,12.21-4.31,17.09,0"/><path id="Path_903" class="cls-4" d="m15.16,21.45c1.68-1.19,3.93-1.19,5.61,0"/><path id="Path_904" class="cls-3" d="m17.96,24.6h0"/></g></g></svg>