<?xml version="1.0" encoding="UTF-8"?><svg id="Layer_2" xmlns="http://www.w3.org/2000/svg" xmlns:xlink="http://www.w3.org/1999/xlink" viewBox="0 0 21.38 28.12"><defs><style>.cls-1{fill:url(#linear-gradient);}.cls-2{fill:url(#linear-gradient-2);}</style><linearGradient id="linear-gradient" x1="-7.95" y1="63.83" x2="14.73" y2="9.77" gradientUnits="userSpaceOnUse"><stop offset="0" stop-color="#ad87ff"/><stop offset="1" stop-color="#00cfff"/></linearGradient><linearGradient id="linear-gradient-2" x1="-9.85" y1="63.03" x2="12.82" y2="8.97" xlink:href="#linear-gradient"/></defs><g id="Layer_1-2"><g id="Icon_ionic-ios-document"><path id="Path_811" class="cls-1" d="m14.62,6.96h6.4c.19,0,.35-.15.35-.34,0,0,0,0,0,0h0c0-.62-.27-1.21-.75-1.61L15.26.53C14.85.19,14.34,0,13.81,0h0c-.29,0-.52.23-.52.52,0,0,0,0,0,0v5.1c0,.74.6,1.34,1.34,1.33h0Z"/><path id="Path_812" class="cls-2" d="m11.46,5.62V0H2.25C1.01,0,0,1.01,0,2.25v23.62c0,1.24,1.01,2.25,2.25,2.25h16.88c1.24,0,2.25-1.01,2.25-2.25V8.79h-6.75c-1.75,0-3.16-1.42-3.16-3.16Z"/></g></g></svg>