<?xml version="1.0" encoding="UTF-8"?><svg id="Layer_2" xmlns="http://www.w3.org/2000/svg" xmlns:xlink="http://www.w3.org/1999/xlink" viewBox="0 0 29.86 41.58"><defs><style>.cls-1{fill:url(#linear-gradient);}.cls-2{fill:url(#linear-gradient-3);}.cls-3{fill:url(#linear-gradient-2);}</style><linearGradient id="linear-gradient" x1="-3.24" y1="42.94" x2="19.18" y2="10.92" gradientUnits="userSpaceOnUse"><stop offset="0" stop-color="#ad87ff"/><stop offset="1" stop-color="#00cfff"/></linearGradient><linearGradient id="linear-gradient-2" x1="-7.16" y1="52.54" x2="25.29" y2="23" xlink:href="#linear-gradient"/><linearGradient id="linear-gradient-3" x1="-3.66" y1="56.39" x2="28.79" y2="26.85" xlink:href="#linear-gradient"/></defs><g id="Layer_1-2"><path id="Icon_awesome-recycle" class="cls-1" d="m10.76,15.28c.12.5-.2,1-.7,1.12-.24.05-.49.01-.7-.12l-2.38-1.49-2.96,4.75c-.55.88-.28,2.03.6,2.58.29.18.63.28.98.28h3.03c.39,0,.7.31.7.7h0v2.33c0,.39-.31.7-.7.7h-3.03C2.5,26.14,0,23.63,0,20.53c0-1.05.3-2.07.85-2.96l2.97-4.75-2.38-1.48c-.44-.27-.57-.85-.29-1.29.13-.21.34-.36.58-.41l6.43-1.49c.5-.12,1,.2,1.12.7l1.48,6.43Zm5.75-10.67l2.41,3.86-2.38,1.49c-.44.27-.57.85-.29,1.29.13.21.34.36.58.41l6.43,1.49c.5.12,1-.2,1.12-.7l1.49-6.44c.12-.5-.2-1-.7-1.12-.24-.05-.49-.01-.7.12l-2.37,1.49-2.41-3.86C18.04,0,14.58-.79,11.96.85c-.72.45-1.33,1.06-1.78,1.78l-1.05,1.68c-.2.33-.11.76.22.96,0,0,0,0,0,0l1.98,1.24c.33.2.76.1.96-.22l1.05-1.68c.55-.87,1.7-1.14,2.58-.59.24.15.44.35.59.59h0Zm12.5,12.96l-1.61-2.57c-.2-.33-.64-.43-.96-.22h0s-1.98,1.24-1.98,1.24c-.33.2-.43.64-.22.96h0s1.61,2.57,1.61,2.57c.55.88.28,2.03-.6,2.58-.3.18-.64.28-.98.28h-5.6v-2.8c0-.52-.42-.93-.94-.93-.25,0-.48.1-.66.27l-4.67,4.67c-.36.36-.36.96,0,1.32h0s4.67,4.67,4.67,4.67c.37.36.96.36,1.32,0,.17-.17.27-.41.27-.66v-2.8h5.59c3.1,0,5.6-2.52,5.6-5.61,0-1.05-.3-2.07-.85-2.96Z"/><path class="cls-3" d="m8.71,41.58v-8.4h3.49c.48,0,.91.12,1.3.35.39.23.7.55.93.95.23.4.35.85.35,1.34s-.12.96-.35,1.36c-.23.4-.54.73-.93.97-.39.24-.82.36-1.3.36h-1.93v3.07h-1.56Zm1.56-4.51h1.82c.2,0,.38-.06.55-.17.16-.11.3-.26.4-.44.1-.18.15-.39.15-.62s-.05-.44-.15-.62c-.1-.18-.23-.32-.4-.43-.16-.11-.35-.16-.55-.16h-1.82v2.45Z"/><path class="cls-2" d="m16.44,41.58v-8.4h3.49c.48,0,.91.12,1.3.35.39.23.7.55.93.95.23.4.35.85.35,1.34s-.12.96-.35,1.36c-.23.4-.54.73-.93.97-.39.24-.82.36-1.3.36h-1.93v3.07h-1.56Zm1.56-4.51h1.82c.2,0,.38-.06.55-.17.16-.11.3-.26.4-.44.1-.18.15-.39.15-.62s-.05-.44-.15-.62c-.1-.18-.23-.32-.4-.43-.16-.11-.35-.16-.55-.16h-1.82v2.45Z"/></g></svg>