<?xml version="1.0" encoding="utf-8"?>
<!-- Generator: Adobe Illustrator 27.4.1, SVG Export Plug-In . SVG Version: 6.00 Build 0)  -->
<svg version="1.1" id="Layer_1" xmlns="http://www.w3.org/2000/svg" xmlns:xlink="http://www.w3.org/1999/xlink" x="0px" y="0px"
	 viewBox="0 0 800 800" style="enable-background:new 0 0 800 800;" xml:space="preserve">
<g>
	<polygon points="361.1,812.5 361.1,438.9 -12.5,438.9 -12.5,361.1 361.1,361.1 361.1,-12.5 438.9,-12.5 438.9,361.1 812.5,361.1 
		812.5,438.9 438.9,438.9 438.9,812.5 	"/>
	<path d="M426.4,0v373.6H800v52.7H426.4V800h-52.7V426.4H0v-52.7h373.6V0H426.4 M451.4-25h-25h-52.7h-25V0v348.6H0h-25v25v52.7v25H0
		h348.6V800v25h25h52.7h25v-25V451.4H800h25v-25v-52.7v-25h-25H451.4V0V-25L451.4-25z"/>
</g>
</svg>
