<?xml version="1.0" encoding="UTF-8"?><svg id="Layer_2" xmlns="http://www.w3.org/2000/svg" xmlns:xlink="http://www.w3.org/1999/xlink" viewBox="0 0 35.05 35.08"><defs><style>.cls-1{fill:url(#linear-gradient);}</style><linearGradient id="linear-gradient" x1="-3.8" y1="50.42" x2="22.52" y2="12.82" gradientUnits="userSpaceOnUse"><stop offset="0" stop-color="#ad87ff"/><stop offset="1" stop-color="#00cfff"/></linearGradient></defs><g id="Layer_1-2"><path id="Icon_awesome-recycle" class="cls-1" d="m12.63,17.94c.14.59-.23,1.18-.82,1.31-.28.06-.58.02-.82-.14l-2.8-1.74-3.47,5.58c-.64,1.03-.32,2.38.71,3.02.35.21.74.33,1.15.33h3.56c.45,0,.82.37.82.82h0v2.74c0,.45-.37.82-.82.82h-3.55C2.94,30.69,0,27.74,0,24.11c0-1.23.35-2.44,1-3.48l3.48-5.58-2.79-1.74c-.51-.32-.67-1-.34-1.51.15-.24.4-.42.68-.48l7.55-1.74c.59-.14,1.18.23,1.31.82l1.74,7.55Zm6.75-12.53l2.83,4.53-2.8,1.74c-.51.32-.67,1-.34,1.51.15.24.4.42.68.48l7.55,1.74c.59.14,1.18-.23,1.31-.82l1.75-7.56c.14-.59-.23-1.18-.82-1.31-.28-.06-.58-.02-.82.14l-2.79,1.75-2.83-4.53C21.18,0,17.12-.92,14.04,1c-.84.53-1.56,1.24-2.09,2.09l-1.23,1.97c-.24.38-.12.89.26,1.13,0,0,0,0,0,0l2.32,1.45c.39.24.89.12,1.13-.26l1.23-1.97c.64-1.03,2-1.34,3.02-.69.28.18.52.41.69.69h0Zm14.68,15.21l-1.88-3.02c-.24-.39-.75-.5-1.13-.26h0s-2.32,1.45-2.32,1.45c-.39.24-.5.75-.26,1.13h0s1.89,3.02,1.89,3.02c.64,1.03.33,2.38-.7,3.02-.35.22-.75.33-1.15.33h-6.58v-3.29c0-.61-.49-1.1-1.1-1.09-.29,0-.57.12-.77.32l-5.48,5.48c-.43.43-.43,1.12,0,1.55h0s5.48,5.48,5.48,5.48c.43.43,1.12.43,1.55,0,.2-.2.32-.48.32-.77v-3.29h6.57c3.63,0,6.58-2.95,6.57-6.59,0-1.23-.35-2.43-1-3.47Z"/></g></svg>