<svg xmlns="http://www.w3.org/2000/svg" width="31.361" height="31.361" viewBox="0 0 31.361 31.361">
  <path id="Icon_awesome-recycle" data-name="Icon awesome-recycle" d="M11.3,16.042a.981.981,0,0,1-1.474,1.052l-2.5-1.559L4.22,20.521a1.964,1.964,0,0,0,1.661,3H9.065a.735.735,0,0,1,.735.735v2.45a.735.735,0,0,1-.735.735H5.887a5.884,5.884,0,0,1-4.986-9l3.113-4.985L1.519,11.9a.981.981,0,0,1,.3-1.786L8.57,8.555a.98.98,0,0,1,1.175.734L11.3,16.042Zm6.037-11.2,2.529,4.047-2.5,1.559a.981.981,0,0,0,.3,1.786l6.752,1.559a.98.98,0,0,0,1.175-.734L27.161,6.3a.981.981,0,0,0-1.474-1.052L23.195,6.809,20.667,2.761a5.883,5.883,0,0,0-9.973,0l-1.1,1.762a.735.735,0,0,0,.234,1.013l2.078,1.3A.735.735,0,0,0,12.918,6.6l1.1-1.761A1.962,1.962,0,0,1,17.342,4.838ZM30.46,18.444l-1.685-2.7a.735.735,0,0,0-1.013-.234l-2.074,1.3a.735.735,0,0,0-.234,1.013l1.688,2.7a1.963,1.963,0,0,1-1.662,3H19.6V20.582a.981.981,0,0,0-1.673-.693l-4.9,4.9a.98.98,0,0,0,0,1.386l4.9,4.9a.981.981,0,0,0,1.673-.693V27.441h5.873A5.884,5.884,0,0,0,30.46,18.444Z" fill="#0082fe"/>
</svg>
