<?xml version="1.0" encoding="UTF-8"?><svg id="Layer_2" xmlns="http://www.w3.org/2000/svg" xmlns:xlink="http://www.w3.org/1999/xlink" viewBox="0 0 42.71 25.91"><defs><style>.cls-1{fill:url(#linear-gradient);}.cls-2{fill:url(#linear-gradient-3);}.cls-3{fill:url(#linear-gradient-2);}</style><linearGradient id="linear-gradient" x1="-6.08" y1="37.45" x2="29.86" y2="4.11" gradientUnits="userSpaceOnUse"><stop offset="0" stop-color="#ad87ff"/><stop offset="1" stop-color="#00cfff"/></linearGradient><linearGradient id="linear-gradient-2" x1="-5.02" y1="40.34" x2="30.92" y2="7" xlink:href="#linear-gradient"/><linearGradient id="linear-gradient-3" x1="-16.66" y1="26.05" x2="19.28" y2="-7.29" xlink:href="#linear-gradient"/></defs><g id="Layer_1-2"><path class="cls-1" d="m20.07,9.55c.11-.18.18-.39.33-.54,1.33-1.35,2.65-2.71,4.01-4.03.92-.89,2.11-.75,2.89.26,1.53,2,3.06,4.01,4.61,6,.11.15.36.26.55.27.8.03,1.6,0,2.39.02.78,0,1.37.35,1.68,1.07.31.7.22,1.39-.29,1.98-.42.5-1.01.62-1.63.63-1.63,0-3.27,0-4.9,0-3.58,0-7.17-.01-10.75.01-.65,0-1.17-.18-1.65-.58-1.29-1.08-2.59-2.16-3.89-3.24-1.11-.92-2.21-1.84-3.33-2.74-.46-.37-.62-.81-.51-1.38.27-1.37,1.44-2.29,3.04-2.33,1.17-.03,2.28.28,3.31.82,1.47.76,2.73,1.79,3.66,3.19.1.15.19.31.28.46.06.05.13.11.19.16Zm3.03,1.97h4.18s.05-.07.07-.1c-.6-.79-1.19-1.58-1.8-2.4-.83.85-1.6,1.64-2.44,2.5Z"/><path class="cls-3" d="m34.38,18.36c.51.65.96,1.22,1.41,1.79,1.06,1.35,2.11,2.7,3.17,4.05.12.15.24.31.33.48.22.41.15.79-.18,1.05-.32.24-.81.22-1.1-.11-.37-.42-.72-.86-1.07-1.31-1.49-1.91-2.98-3.82-4.45-5.73-.15-.2-.31-.27-.56-.27-7.04,0-14.08,0-21.12.03-.2,0-.46.12-.59.28-1.7,2.16-3.38,4.33-5.07,6.49-.13.16-.26.33-.4.48-.32.34-.81.4-1.13.16-.36-.28-.44-.8-.15-1.19.5-.67,1.03-1.32,1.55-1.98,1.02-1.3,2.04-2.59,3.06-3.89.05-.06.09-.13.2-.28-.22-.04-.38-.08-.54-.08-2.05,0-4.11,0-6.16.01-.27,0-.55,0-.82-.02-.43-.04-.73-.39-.75-.82-.02-.39.27-.78.69-.82.48-.05.97-.04,1.45-.02.4.02.67-.11.94-.43,1.42-1.68,2.86-3.33,4.3-5,.07-.08.12-.16.2-.26-.89-.72-1.75-1.44-2.63-2.14-.45-.36-.91-.7-1.35-1.07-.18-.15-.34-.33-.45-.53-.23-.41-.16-.66.2-1,.3-.28.61-.28.93-.05.48.36.97.71,1.43,1.1,1.79,1.47,3.57,2.95,5.35,4.43,1.79,1.49,3.58,2.97,5.36,4.47.37.31.76.46,1.25.46,5.91-.01,11.83-.01,17.74-.02,2,0,4,0,6.01,0,.21,0,.42.02.62.06.41.08.68.44.67.85-.01.39-.29.72-.7.78-.22.03-.44.03-.67.03-2.21,0-4.42-.02-6.63-.03-.07,0-.15.02-.33.04Zm-20.18-1.7s.05-.06.07-.09c-1.8-1.5-3.6-3-5.44-4.53-1.22,1.59-2.66,2.97-3.86,4.62h9.23Z"/><path class="cls-2" d="m11.17,3.07c.02,1.71-1.34,3.11-3.03,3.14-1.73.03-3.17-1.37-3.15-3.12C5.01,1.38,6.3.03,8.03,0c1.74-.03,3.11,1.33,3.13,3.07Z"/></g></svg>