<?xml version="1.0" encoding="UTF-8"?><svg id="Layer_2" xmlns="http://www.w3.org/2000/svg" xmlns:xlink="http://www.w3.org/1999/xlink" viewBox="0 0 51.04 35.21"><defs><style>.cls-1{fill:url(#linear-gradient);}.cls-2{fill:#fff;}.cls-3{fill:none;stroke:#fff;stroke-miterlimit:10;stroke-width:2px;}.cls-4{fill:url(#linear-gradient-2);}</style><linearGradient id="linear-gradient" x1="37.74" y1="14.56" x2="51.04" y2="14.56" gradientUnits="userSpaceOnUse"><stop offset="0" stop-color="#ad87ff"/><stop offset="1" stop-color="#00cfff"/></linearGradient><linearGradient id="linear-gradient-2" x1="-14.7" y1="57.26" x2="25.56" y2="7.85" xlink:href="#linear-gradient"/></defs><g id="Layer_1-2"><path id="Icon_ionic-ios-musical-note" class="cls-1" d="m50.49,2.86c-.26.05-6.65,1.36-6.88,1.4-.24.02-.43.21-.46.45h0v14.37c0,.23-.04.45-.14.66-.19.35-.52.61-.91.72-.19.06-.44.12-.74.19-1.36.3-3.63.82-3.63,2.92-.06,1.24.77,2.35,1.97,2.65.26.04.52.06.78.06,1.01-.03,1.99-.28,2.88-.74.9-.59,1.41-1.62,1.36-2.69v-12.94c0-.21.15-.4.36-.44l5.22-1.07c.42-.09.72-.45.72-.88V3.29c0-.25-.2-.44-.45-.44-.03,0-.07,0-.1.01Z"/><circle class="cls-4" cx="17.61" cy="17.61" r="17.61"/><path class="cls-3" d="m29.16,16.29s-4.36,5.06-8.71,0"/><path class="cls-3" d="m15.06,16.29s-4.36,5.06-8.71,0"/><circle class="cls-2" cx="25.23" cy="26.27" r="2.88"/></g></svg>