<?xml version="1.0" encoding="UTF-8"?><svg id="Layer_2" xmlns="http://www.w3.org/2000/svg" xmlns:xlink="http://www.w3.org/1999/xlink" viewBox="0 0 43.04 34.17"><defs><style>.cls-1{fill:url(#linear-gradient);}.cls-2{fill:url(#linear-gradient-2);}</style><linearGradient id="linear-gradient" x1="6.75" y1="48.06" x2="34.95" y2="12.34" gradientUnits="userSpaceOnUse"><stop offset="0" stop-color="#ad87ff"/><stop offset="1" stop-color="#00cfff"/></linearGradient><linearGradient id="linear-gradient-2" x1="-5.18" y1="38.64" x2="23.02" y2="2.92" xlink:href="#linear-gradient"/></defs><g id="Layer_1-2"><g id="Group_424"><path id="Path_671" class="cls-1" d="m16.24,33.08s8.56-.19,11.9-6.13c3.34-5.93,1.89-10.58,1.89-10.58l-5.38,2.14,4.78-15.94,13.61,8.3-6,2.54s1.87,6.91,0,12.09-7.79,9.08-14.15,8.64-6.64-1.06-6.64-1.06Z"/><path id="Path_672" class="cls-2" d="m26.79,1.1s-8.56.19-11.9,6.12c-3.34,5.93-1.89,10.58-1.89,10.58l5.39-2.14-4.78,15.94L0,23.3l5.99-2.54s-1.87-6.91,0-12.09S13.79-.4,20.15.03c6.36.44,6.64,1.06,6.64,1.06Z"/></g></g></svg>