<svg xmlns="http://www.w3.org/2000/svg" width="38.478" height="30.555" viewBox="0 0 38.478 30.555">
  <g id="Group_424" data-name="Group 424" transform="translate(12872.315 11511.346)">
    <path id="Path_671" data-name="Path 671" d="M-12865.312-11682.176s7.655-.172,10.638-5.477,1.691-9.464,1.691-9.464l-4.813,1.917,4.271-14.248,12.168,7.423-5.361,2.269s1.674,6.178,0,10.807-6.968,8.114-12.653,7.725S-12865.312-11682.176-12865.312-11682.176Z" transform="translate(7.521 200.404)" fill="#0082fe"/>
    <path id="Path_672" data-name="Path 672" d="M0,27.272S7.655,27.1,10.637,21.8s1.693-9.464,1.693-9.464L7.515,14.248,11.786,0,23.954,7.424l-5.36,2.268s1.672,6.178,0,10.807-6.968,8.114-12.655,7.725S0,27.272,0,27.272Z" transform="translate(-12848.361 -11483.093) rotate(180)" fill="#0082fe"/>
  </g>
</svg>
