<svg xmlns="http://www.w3.org/2000/svg" width="54.835" height="47.307" viewBox="0 0 54.835 47.307">
  <path id="Icon_metro-shopping-basket" data-name="Icon metro-shopping-basket" d="M44.259,22.565,33.342,6.226a2.424,2.424,0,0,0-2.069-1.059A2.455,2.455,0,0,0,29.2,6.226L18.288,22.565H6.349a2.5,2.5,0,0,0-2.493,2.492,2.926,2.926,0,0,0,.087.673l6.318,23.105a5,5,0,0,0,4.811,3.639h32.4a4.968,4.968,0,0,0,4.8-3.651l6.318-23.105a2.223,2.223,0,0,0,.1-.661A2.5,2.5,0,0,0,56.2,22.565H44.259Zm-20.463,0L31.274,11.6l7.477,10.967H23.8ZM31.274,42.5a4.985,4.985,0,1,1,4.985-4.985A4.984,4.984,0,0,1,31.274,42.5Z" transform="translate(-3.856 -5.167)" fill="#0082fe"/>
</svg>
