<?xml version="1.0" encoding="utf-8"?>
<!-- Generator: Adobe Illustrator 27.4.1, SVG Export Plug-In . SVG Version: 6.00 Build 0)  -->
<svg version="1.1" id="Layer_2_00000090279433502166278680000013612931566176268695_"
	 xmlns="http://www.w3.org/2000/svg" xmlns:xlink="http://www.w3.org/1999/xlink" x="0px" y="0px" viewBox="0 0 38.9 33.6"
	 style="enable-background:new 0 0 38.9 33.6;" xml:space="preserve">
<style type="text/css">
	.st0{fill:none;}
	.st1{fill:url(#SVGID_1_);}
</style>
<g>
	<polygon class="st0" points="14.2,12.4 14.2,12.4 24.8,12.4 19.5,4.6 	"/>
	<path class="st0" d="M19.5,19.4c-2,0-3.5,1.6-3.5,3.5c0,2,1.6,3.5,3.5,3.5c2,0,3.5-1.6,3.5-3.5C23,21,21.4,19.4,19.5,19.4z"/>
	
		<linearGradient id="SVGID_1_" gradientUnits="userSpaceOnUse" x1="-17.9399" y1="-25.3367" x2="41.0401" y2="41.0133" gradientTransform="matrix(1 0 0 -1 0 36)">
		<stop  offset="0.311" style="stop-color:#AD87FF"/>
		<stop  offset="0.8035" style="stop-color:#00CFFF"/>
	</linearGradient>
	<path class="st1" d="M38.9,14.1c0-1-0.8-1.8-1.8-1.8h-8.5h0h0L20.9,0.7C20.6,0.3,20,0,19.5,0c-0.6,0-1.1,0.3-1.5,0.8l-7.7,11.6H1.8
		c-1,0-1.8,0.8-1.8,1.8c0,0.2,0,0.3,0.1,0.5l4.1,15.1l0,0c0,0,1.2,1.8,4.8,1.8c3.5,0,20.8,0,20.8,0s3.5,0.2,4.9-1.6c0,0,0,0,0,0
		l4.2-15.3C38.9,14.4,38.9,14.3,38.9,14.1z M19.5,26.5c-1.9,0-3.5-1.6-3.5-3.5c0-2,1.6-3.5,3.5-3.5c2,0,3.5,1.6,3.5,3.5
		C23,24.9,21.4,26.5,19.5,26.5z M14.2,12.4L14.2,12.4l5.3-7.8l5.3,7.8H14.2z"/>
	<path d="M29.8,31.5c0,0-17.3,0-20.8,0c-3.5,0-4.8-1.8-4.8-1.8l0,0L4.5,31C5,32.5,6.4,33.6,8,33.6h23c1.6,0,3-1.1,3.4-2.6l0.3-1.1
		c0,0,0,0,0,0C33.3,31.6,29.8,31.5,29.8,31.5z"/>
</g>
<circle cx="19.5" cy="21.9" r="5.3"/>
</svg>
