<?xml version="1.0" encoding="UTF-8"?><svg id="Layer_2" xmlns="http://www.w3.org/2000/svg" xmlns:xlink="http://www.w3.org/1999/xlink" viewBox="0 0 38.92 33.58"><defs><style>.cls-1{fill:url(#linear-gradient);}</style><linearGradient id="linear-gradient" x1="-17.61" y1="61.63" x2="41.37" y2="-4.72" gradientUnits="userSpaceOnUse"><stop offset="0" stop-color="#ad87ff"/><stop offset="1" stop-color="#00cfff"/></linearGradient></defs><g id="Layer_1-2"><path id="Icon_metro-shopping-basket" class="cls-1" d="m28.68,12.35L20.93.75C20.6.27,20.04-.02,19.46,0c-.59-.01-1.14.27-1.47.75l-7.74,11.6H1.77c-.98,0-1.77.79-1.77,1.77,0,.16.02.32.06.48l4.48,16.4c.43,1.53,1.83,2.58,3.41,2.58h23c1.59,0,2.99-1.06,3.41-2.59l4.48-16.4c.05-.15.07-.31.07-.47,0-.97-.79-1.76-1.77-1.77h-8.48Zm-14.52,0l5.31-7.78,5.31,7.78h-10.61Zm5.31,14.15c-1.95,0-3.54-1.58-3.54-3.54,0-1.95,1.58-3.54,3.54-3.54s3.54,1.58,3.54,3.54h0c0,1.95-1.58,3.54-3.54,3.54h0Z"/></g></svg>