<svg id="Group_473" data-name="Group 473" xmlns="http://www.w3.org/2000/svg" xmlns:xlink="http://www.w3.org/1999/xlink" width="190.094" height="190.094" viewBox="0 0 190.094 190.094">
  <defs>
    <clipPath id="clip-path">
      <rect id="Rectangle_2630" data-name="Rectangle 2630" width="190.094" height="190.094" fill="none"/>
    </clipPath>
  </defs>
  <g id="Group_472" data-name="Group 472" clip-path="url(#clip-path)">
    <path id="Path_729" data-name="Path 729" d="M177.311,143.058a94.96,94.96,0,1,1-98.727-141l2.536,14.387a80.352,80.352,0,1,0,83.542,119.308Z" transform="translate(-0.026 -0.531)" fill="#3bb6ff"/>
    <path id="Path_730" data-name="Path 730" d="M180.511,106.7a80.352,80.352,0,1,1-132-61.553L57.9,56.335a65.742,65.742,0,1,0,108,50.363Z" transform="translate(-5.112 -11.65)" fill="#3a83f9"/>
    <path id="Path_731" data-name="Path 731" d="M138.111,173.607a65.742,65.742,0,0,1-89.8-89.8l12.652,7.3a51.133,51.133,0,0,0,69.848,69.848Z" transform="translate(-10.193 -21.626)" fill="#003add"/>
    <path id="Path_732" data-name="Path 732" d="M92.827,158.365a51.134,51.134,0,1,1,50.356-87.22l-9.391,11.192a36.523,36.523,0,1,0-35.969,62.3Z" transform="translate(-15.269 -15.269)" fill="#001dad"/>
    <path id="Path_733" data-name="Path 733" d="M81.078,127.9A36.524,36.524,0,0,1,115.4,78.88V93.489A21.915,21.915,0,0,0,94.806,122.9Z" transform="translate(-20.352 -20.356)" fill="#010b2d"/>
    <path id="Path_734" data-name="Path 734" d="M105.882,1.552a94.962,94.962,0,0,1,98.728,141l-12.652-7.3A80.358,80.358,0,0,0,108.418,15.939Z" transform="translate(-27.324 -0.024)" fill="#00cfff"/>
    <path id="Path_735" data-name="Path 735" d="M58.492,38.6a80.352,80.352,0,0,1,132,61.554H175.883A65.743,65.743,0,0,0,67.88,49.8Z" transform="translate(-15.095 -5.111)" fill="#60b0fd"/>
    <path id="Path_736" data-name="Path 736" d="M51.37,72.363a65.741,65.741,0,1,1,89.8,89.808l-7.3-12.651A51.133,51.133,0,1,0,64.021,79.67Z" transform="translate(-13.257 -10.19)" fill="#1a61ff"/>
    <path id="Path_737" data-name="Path 737" d="M154.891,75.312a51.134,51.134,0,0,1-50.356,87.22l5-13.726a36.523,36.523,0,0,0,35.968-62.3Z" transform="translate(-26.977 -19.435)" fill="#0033c4"/>
    <path id="Path_738" data-name="Path 738" d="M116.168,78.88A36.52,36.52,0,1,1,81.847,127.9l13.726-5a21.914,21.914,0,1,0,20.6-29.408Z" transform="translate(-21.122 -20.356)" fill="#001c77"/>
    <path id="Path_739" data-name="Path 739" d="M210.663,203.876a3.356,3.356,0,0,0-.473.484,2.706,2.706,0,0,0-.134,3.3l.024-.021a2.027,2.027,0,0,1,3.607-1.394,2.222,2.222,0,0,1,.008,3.141c-.027.027-.054.053-.082.079-1.057.953-2.486.757-3.645-.528a4.19,4.19,0,0,1-1.173-2.98,3.615,3.615,0,0,1,.921-2.152,4.415,4.415,0,0,1,.451-.476Zm2.38,3.02a1.35,1.35,0,0,0-1.879-.342,1.333,1.333,0,0,0-.16.129,1.483,1.483,0,0,0-.409,1.471.762.762,0,0,0,.191.365c.748.8,1.663,1.063,2.361.433a1.391,1.391,0,0,0-.007-1.966c-.032-.031-.065-.061-.1-.089m3.553-5.314c1.606,1.594,1.9,3.069.861,4.114-.915.923-2.4.688-3.974-.847-1.583-1.572-1.781-3.116-.826-4.081.988-.995,2.436-.681,3.939.811m-2.472,2.635c1.227,1.218,2.3,1.533,2.875.951.648-.653.2-1.721-1.008-2.917-1.163-1.156-2.219-1.613-2.875-.954-.555.559-.276,1.645,1.008,2.92m3.756-6.719c1.087.89,1.158,1.9.614,2.566-.525.643-1.493.776-2.539-.065-1.03-.843-1.149-1.879-.594-2.561.594-.722,1.534-.742,2.517.06m-1.494,1.929c.644.555,1.344.717,1.7.282.377-.46.053-1.069-.628-1.626-.625-.511-1.3-.757-1.695-.273-.356.435-.029,1.087.622,1.617m4.229,2.457-2.85-7.384.364-.445,2.851,7.385Zm2.136-5.991c1.087.89,1.158,1.9.621,2.558-.526.641-1.494.776-2.53-.06s-1.157-1.885-.6-2.567c.594-.722,1.527-.734,2.51.069m-1.494,1.929c.651.545,1.357.7,1.706.273.377-.46.054-1.068-.628-1.626-.625-.511-1.3-.757-1.693-.275-.356.437-.035,1.1.614,1.628" transform="translate(-53.882 -50.078)" fill="#fff"/>
    <path id="Path_740" data-name="Path 740" d="M218.509,148.952l.577.139,5.208,4.229-.217.9-5.04-4.177-.022,0-.758,3.161-.726-.174Zm4.146-4.554c2.215.445,3.27,1.515,2.977,2.958-.257,1.272-1.622,1.892-3.779,1.476-2.183-.44-3.19-1.626-2.926-2.947.277-1.372,1.657-1.907,3.728-1.484m-.614,3.555c1.692.344,2.76.018,2.92-.783.183-.9-.781-1.545-2.444-1.882-1.6-.323-2.736-.125-2.92.786-.157.77.672,1.522,2.444,1.879m.131-7.622c1.387.208,1.963,1.039,1.838,1.889-.122.816-.89,1.429-2.213,1.239s-1.946-1.024-1.816-1.895c.137-.919.936-1.422,2.192-1.233m-.3,2.418c.835.145,1.519-.074,1.6-.63.088-.588-.5-.942-1.37-1.075-.8-.119-1.5.015-1.6.631-.082.555.532.948,1.361,1.074m4.889-.054-6.221-4.885.085-.567,6.219,4.884Zm-1.232-6.24c1.385.208,1.963,1.039,1.839,1.88-.124.816-.89,1.429-2.2,1.242s-1.958-1.027-1.827-1.9c.139-.921.936-1.41,2.192-1.226m-.3,2.418c.838.136,1.524-.092,1.607-.638.086-.588-.5-.944-1.372-1.074-.8-.119-1.5.013-1.594.63-.082.556.53.959,1.358,1.082" transform="translate(-56.137 -35.205)" fill="#fff"/>
    <path id="Path_741" data-name="Path 741" d="M51.729,114.354a3.038,3.038,0,0,0,.653-1.385,1.3,1.3,0,0,0-.825-1.645,1.237,1.237,0,0,0-.2-.05c-.921-.142-1.452.621-1.594,1.479l-.082.5-.668-.11.082-.494C49.2,112,49,111.125,48.227,111c-.525-.088-1.046.169-1.179.988a2.443,2.443,0,0,0,.216,1.384l-.685.125a3.186,3.186,0,0,1-.223-1.8c.213-1.293,1.078-1.75,1.876-1.62a1.654,1.654,0,0,1,1.344,1.468H49.6a1.729,1.729,0,0,1,1.929-1.187c1.049.172,1.833,1.143,1.574,2.717a3.369,3.369,0,0,1-.726,1.632Zm-2.914-9.916-.608,2.462,1.6.657a3.749,3.749,0,0,1,.091-.536,2.8,2.8,0,0,1,.689-1.3,1.891,1.891,0,0,1,1.886-.514,2.3,2.3,0,0,1,1.65,2.811c-.011.045-.024.089-.039.133a3.261,3.261,0,0,1-.793,1.512l-.612-.383a2.97,2.97,0,0,0,.7-1.293,1.464,1.464,0,0,0-.935-1.847c-.029-.01-.058-.019-.088-.026-.835-.2-1.569.213-1.886,1.5a6.889,6.889,0,0,0-.148.912l-3-1.182.761-3.087Zm2.456-4.1c1.321.469,1.731,1.395,1.443,2.2-.277.781-1.143,1.235-2.409.8s-1.715-1.378-1.422-2.207c.311-.878,1.187-1.217,2.387-.793m-.755,2.316c.793.3,1.506.223,1.695-.311.2-.559-.311-1.021-1.141-1.316-.761-.27-1.476-.273-1.684.315-.187.53.339,1.033,1.131,1.312m4.808.879-5.171-5.98.19-.541,5.176,5.979Zm-.016-6.355c1.321.467,1.729,1.395,1.446,2.195-.276.781-1.143,1.235-2.4.8s-1.724-1.381-1.43-2.209c.311-.879,1.187-1.209,2.385-.784m-.755,2.316c.8.292,1.514.2,1.7-.321.2-.558-.312-1.021-1.143-1.315-.761-.27-1.476-.275-1.684.314-.188.53.336,1.039,1.128,1.322" transform="translate(-11.952 -25.03)" fill="#fff"/>
    <path id="Path_742" data-name="Path 742" d="M139.6,67.205l-2.438-.691-.714,1.574a3.717,3.717,0,0,1,.532.108,2.82,2.82,0,0,1,1.28.735,1.892,1.892,0,0,1,.445,1.9,2.3,2.3,0,0,1-2.858,1.554c-.047-.014-.093-.029-.139-.046a3.246,3.246,0,0,1-1.484-.844l.4-.594a2.993,2.993,0,0,0,1.268.742,1.464,1.464,0,0,0,1.878-.871c.01-.028.02-.057.029-.086.223-.828-.16-1.574-1.438-1.936a6.686,6.686,0,0,0-.9-.183l1.283-2.951,3.056.868Zm5.3,1.972-2.361-.929-.864,1.5a3.421,3.421,0,0,1,.519.161,2.791,2.791,0,0,1,1.2.854,1.892,1.892,0,0,1,.261,1.937,2.307,2.307,0,0,1-3.008,1.264c-.043-.018-.085-.037-.128-.057a3.237,3.237,0,0,1-1.393-.988l.46-.555a2.987,2.987,0,0,0,1.187.864,1.469,1.469,0,0,0,1.959-.687c.013-.026.024-.052.035-.079.306-.8,0-1.583-1.241-2.071a6.8,6.8,0,0,0-.882-.27l1.568-2.81,2.96,1.163Zm-.042,6.567,6.719-4.149.5.276-6.72,4.147Zm3.8-3.487c-.672,1.227-1.651,1.484-2.4,1.072-.728-.4-1.034-1.324-.4-2.5s1.632-1.471,2.4-1.049c.816.445,1.01,1.369.4,2.48M146.5,71.144c-.425.735-.457,1.45.036,1.72.519.285,1.057-.143,1.479-.915.387-.707.5-1.41-.042-1.706-.493-.272-1.071.169-1.473.9m4.633,5.6c-.668,1.227-1.649,1.484-2.394,1.077-.725-.4-1.034-1.322-.406-2.492s1.637-1.484,2.408-1.059c.816.445,1,1.363.393,2.475m-2.162-1.113c-.416.742-.438,1.459.045,1.725.519.283,1.058-.145,1.479-.915.389-.709.505-1.41-.041-1.711-.493-.27-1.081.165-1.484.9" transform="translate(-34.639 -16.933)" fill="#fff"/>
    <path id="Path_743" data-name="Path 743" d="M100.977,99.809l-.345-.431.121-.974c.312-2.322.371-3.472-.244-4.259a1.188,1.188,0,0,0-1.839-.187,2.262,2.262,0,0,0-.746,1.321l-.62-.315a2.905,2.905,0,0,1,1.045-1.7,1.871,1.871,0,0,1,2.795.234c.767.957.694,2.287.445,4.215l-.108.716.013.015,2.327-1.865.467.58Zm6-8.292c1.161,1.939,1.082,3.44-.181,4.2-1.113.668-2.494.074-3.642-1.8-1.144-1.913-.948-3.46.211-4.155,1.2-.72,2.523-.06,3.613,1.758m-3.042,1.942c.89,1.484,1.848,2.053,2.551,1.632.79-.472.615-1.62-.256-3.077-.841-1.4-1.753-2.109-2.551-1.632-.677.406-.675,1.525.256,3.078m6.341-4.921c.482,1.318.029,2.226-.78,2.519-.779.283-1.68-.095-2.152-1.351-.456-1.249-.03-2.2.8-2.5.875-.318,1.7.145,2.133,1.335m-2.266.89c.272.805.79,1.3,1.319,1.109.558-.2.589-.89.288-1.718-.277-.76-.729-1.313-1.316-1.1-.529.193-.58.919-.291,1.706m2.386,4.279,1.313-7.8.538-.2-1.312,7.8Zm4.891-4.064c.481,1.318.027,2.226-.77,2.516-.779.285-1.681-.093-2.148-1.343s-.032-2.209.793-2.51c.875-.321,1.687.145,2.124,1.335m-2.267.894c.282.8.811,1.3,1.33,1.106.558-.2.594-.89.289-1.72-.279-.758-.732-1.312-1.318-1.1-.529.193-.589.923-.3,1.712" transform="translate(-25.111 -22.118)" fill="#fff"/>
    <path id="Path_744" data-name="Path 744" d="M124.966,11.881l-.033-1.81-3.092.06-.012-.594,2.884-4.3.971-.019.082,4.133.932-.018.012.707-.929.016.035,1.813Zm-.048-2.516-.045-2.221c0-.348,0-.7.012-1.045h-.03c-.2.395-.355.684-.533.993l-1.583,2.291V9.4Zm6.929-.742c-.08,2.257-.96,3.472-2.431,3.422-1.3-.045-2.132-1.29-2.077-3.487.079-2.226,1.081-3.419,2.428-3.372,1.4.05,2.152,1.324,2.077,3.436M128.238,8.6c-.06,1.725.437,2.724,1.253,2.753.919.032,1.395-1.024,1.455-2.718C131,7,130.622,5.91,129.691,5.879c-.786-.03-1.39.911-1.453,2.718m7.673-1.026c-.142,1.393-.945,2.01-1.8,1.922-.824-.086-1.467-.816-1.34-2.152s.934-1.989,1.81-1.9c.924.1,1.461.87,1.331,2.13m-2.425-.188c-.107.841.142,1.514.7,1.572.594.06.919-.542,1.011-1.416.083-.8-.083-1.5-.7-1.563-.559-.057-.923.574-1.01,1.41m.279,4.878L138.35,5.83l.57.059-4.587,6.431Zm6.165-1.512c-.145,1.393-.947,2.008-1.79,1.921-.825-.085-1.468-.816-1.341-2.14s.933-2,1.809-1.91c.926.095,1.452.87,1.322,2.129M137.5,10.56c-.1.843.162,1.517.712,1.574.594.06.919-.542,1.01-1.417.082-.8-.082-1.5-.7-1.558-.559-.057-.93.573-1.018,1.405" transform="translate(-31.44 -1.338)" fill="#fff"/>
    <path id="Path_745" data-name="Path 745" d="M73.984,45a3.009,3.009,0,0,0,1.461-.464,1.3,1.3,0,0,0,.541-1.905c-.519-.77-1.442-.64-2.168-.16l-.416.277-.371-.564.418-.276c.545-.362,1.051-1.1.615-1.758a1,1,0,0,0-1.384-.3.987.987,0,0,0-.143.111,2.447,2.447,0,0,0-.868,1.1l-.558-.415a3.157,3.157,0,0,1,1.166-1.387,1.612,1.612,0,0,1,2.3,2.253l.012.016a1.736,1.736,0,0,1,2.181.6c.588.89.412,2.121-.919,3a3.369,3.369,0,0,1-1.69.58Zm6.849-6.982c1.123,1.96,1.016,3.458-.261,4.19-1.126.645-2.494.027-3.6-1.868-1.108-1.934-.884-3.477.286-4.147,1.215-.7,2.527-.01,3.579,1.826M77.753,39.9c.859,1.5,1.809,2.088,2.517,1.68.8-.457.645-1.609-.2-3.081-.816-1.419-1.711-2.142-2.519-1.678-.683.392-.7,1.511.2,3.08m6.041-4.906c.594,1.269.223,2.213-.555,2.577-.751.352-1.681.054-2.26-1.157s-.223-2.189.573-2.563c.844-.395,1.706-.007,2.243,1.143m-2.178,1.088c.341.779.9,1.229,1.41.989.538-.252.51-.939.136-1.735-.344-.733-.843-1.245-1.41-.98-.508.24-.5.968-.139,1.726m2.754,4.044.621-7.885.519-.244-.621,7.886Zm4.512-4.476c.594,1.269.223,2.212-.546,2.573-.751.351-1.681.054-2.255-1.147s-.226-2.2.57-2.572c.843-.4,1.693,0,2.232,1.146M86.7,36.736c.351.773.921,1.217,1.422.982.538-.252.51-.938.136-1.735-.344-.731-.843-1.243-1.41-.979-.51.24-.505.973-.148,1.732" transform="translate(-18.351 -8.256)" fill="#fff"/>
    <path id="Path_746" data-name="Path 746" d="M176.013,182.135a3.2,3.2,0,0,0-.549.395,2.7,2.7,0,0,0-.7,3.23l.026-.015a2.025,2.025,0,0,1,3.79-.758,2.226,2.226,0,0,1-.533,3.1c-.028.02-.056.039-.085.058-1.2.758-2.58.32-3.5-1.143a4.179,4.179,0,0,1-.647-3.135,3.63,3.63,0,0,1,1.273-1.965,4.181,4.181,0,0,1,.526-.393Zm1.829,3.38a1.35,1.35,0,0,0-1.793-.658,1.368,1.368,0,0,0-.18.1,1.476,1.476,0,0,0-.653,1.379.773.773,0,0,0,.125.393c.6.915,1.456,1.331,2.251.828a1.391,1.391,0,0,0,.329-1.939c-.025-.036-.053-.07-.081-.1m1.849-6.806-1.816,1.772,1.01,1.4a3.674,3.674,0,0,1,.359-.407,2.819,2.819,0,0,1,1.275-.742,1.894,1.894,0,0,1,1.876.558,2.31,2.31,0,0,1-.085,3.265c-.033.03-.067.061-.1.09a3.281,3.281,0,0,1-1.473.867l-.317-.648a2.994,2.994,0,0,0,1.274-.729,1.47,1.47,0,0,0,.178-2.071c-.019-.022-.038-.043-.057-.064-.609-.606-1.446-.647-2.4.282a7.022,7.022,0,0,0-.609.694l-1.921-2.583,2.276-2.222Zm3.695-2.083c.979,1,.936,2.014.321,2.615-.594.579-1.569.6-2.513-.349-.927-.954-.927-1.994-.3-2.609.668-.65,1.607-.565,2.491.344m-1.7,1.743c.577.622,1.255.864,1.657.47.427-.415.174-1.055-.441-1.684-.564-.58-1.2-.9-1.651-.463-.4.395-.148,1.077.436,1.677m3.926,2.914-2-7.649.41-.4,2,7.649Zm2.793-5.708c.979,1,.936,2.016.329,2.608s-1.569.6-2.505-.344-.936-2-.306-2.615c.668-.65,1.6-.556,2.483.351m-1.7,1.743c.586.615,1.271.849,1.666.463.424-.415.172-1.055-.441-1.684-.565-.577-1.2-.9-1.651-.461-.4.393-.16,1.082.427,1.683" transform="translate(-44.837 -44.705)" fill="#fff"/>
    <path id="Path_747" data-name="Path 747" d="M118.083,189.217l.292-1.787-3.048-.5.1-.585,3.613-3.71.96.158-.668,4.081.919.148-.116.7-.916-.148-.3,1.787Zm.407-2.483.358-2.189q.086-.52.2-1.025l-.03-.006c-.263.351-.47.608-.7.879l-1.971,1.968v.022Zm6.662-3.027-2.534.016-.249,1.709a3.5,3.5,0,0,1,.542-.047,2.827,2.827,0,0,1,1.433.351,1.891,1.891,0,0,1,.96,1.7,2.3,2.3,0,0,1-2.319,2.29c-.047,0-.094,0-.142-.005a3.276,3.276,0,0,1-1.657-.4l.223-.685a2.976,2.976,0,0,0,1.423.358,1.467,1.467,0,0,0,1.562-1.364c0-.029,0-.058,0-.087-.015-.859-.594-1.47-1.919-1.461a6.926,6.926,0,0,0-.919.074l.41-3.19,3.178-.021Zm3,5.95,3.642-7.016.573-.021-3.641,7.015Zm5.895-2.364c.054,1.4-.656,2.121-1.5,2.152-.828.03-1.568-.606-1.632-1.933s.645-2.112,1.525-2.146c.929-.035,1.558.657,1.607,1.924m-2.43.154c.024.849.371,1.48.926,1.458.594-.022.834-.668.8-1.544-.03-.808-.292-1.473-.915-1.449-.562.022-.844.7-.812,1.535m-1.994-2.735c.054,1.4-.656,2.123-1.515,2.156-.827.03-1.568-.606-1.632-1.945s.647-2.1,1.527-2.136c.927-.035,1.569.657,1.617,1.924m-2.43.155c.012.849.354,1.48.916,1.458.594-.022.832-.668.8-1.544-.03-.808-.292-1.474-.916-1.449-.561.022-.832.7-.8,1.535" transform="translate(-29.762 -47.128)" fill="#fff"/>
    <path id="Path_748" data-name="Path 748" d="M94.97,153.684a1.9,1.9,0,0,1,2.187-.371l.013-.029a1.646,1.646,0,0,1,.276-1.807,1.863,1.863,0,0,1,2.633.064q.039.041.076.085a1.715,1.715,0,0,1,.359,2.4,1.582,1.582,0,0,1-.1.123,1.687,1.687,0,0,1-1.865.364l-.022.022A1.841,1.841,0,0,1,98.3,156.7a2.047,2.047,0,0,1-2.894-.089c-.025-.027-.05-.055-.074-.083a1.97,1.97,0,0,1-.361-2.845m2.611,2.453c.561-.583.424-1.252-.048-2.061a1.444,1.444,0,0,0-1.813.158,1.235,1.235,0,0,0,.079,1.838,1.205,1.205,0,0,0,1.7.142c.028-.024.056-.05.082-.076m.519-4.113c-.46.478-.348,1.084.065,1.764a1.306,1.306,0,0,0,1.566-.168,1.034,1.034,0,0,0,.046-1.46,1.106,1.106,0,0,0-.106-.1,1.057,1.057,0,0,0-1.491-.11c-.027.024-.054.05-.079.076m5.729,6.631c-1.373,1.794-2.8,2.275-3.968,1.379-1.031-.79-.99-2.292.332-4.049,1.353-1.768,2.864-2.161,3.933-1.34,1.113.853.986,2.329-.3,4.01m-2.925-2.115c-1.052,1.373-1.227,2.477-.577,2.974.731.559,1.732-.027,2.765-1.375,1-1.3,1.316-2.406.579-2.973-.627-.479-1.667-.065-2.767,1.373m3.3,6.269,6.841-3.977.494.288-6.841,3.978Zm3.9-3.394c-.707,1.211-1.695,1.442-2.438,1.01-.716-.418-1-1.353-.335-2.517s1.675-1.43,2.434-.986c.806.467.976,1.395.339,2.494m-2.138-1.173c-.445.723-.5,1.441-.009,1.724.511.3,1.062-.117,1.5-.876.407-.7.543-1.4,0-1.715-.485-.285-1.078.142-1.5.868m4.492,5.731c-.706,1.211-1.693,1.442-2.428,1.015-.716-.416-1-1.353-.339-2.508s1.678-1.439,2.439-.995c.805.469.965,1.391.327,2.488M108.31,162.8c-.437.729-.479,1.45,0,1.729.514.3,1.063-.116,1.506-.876.407-.7.543-1.4,0-1.715-.488-.285-1.088.137-1.509.862" transform="translate(-24.392 -38.958)" fill="#fff"/>
  </g>
</svg>
