<?xml version="1.0" encoding="UTF-8"?><svg id="Layer_2" xmlns="http://www.w3.org/2000/svg" xmlns:xlink="http://www.w3.org/1999/xlink" viewBox="0 0 39.56 28.71"><defs><style>.cls-1{fill:url(#linear-gradient);}.cls-2{fill:url(#linear-gradient-2);}</style><linearGradient id="linear-gradient" x1="19.86" y1="57.79" x2="19.86" y2="12.34" gradientUnits="userSpaceOnUse"><stop offset="0" stop-color="#ad87ff"/><stop offset="1" stop-color="#00cfff"/></linearGradient><linearGradient id="linear-gradient-2" x1="19.9" x2="19.9" xlink:href="#linear-gradient"/></defs><g id="Layer_1-2"><path class="cls-1" d="m19.86,12.37c3.13,0,5.67-2.54,5.67-5.67s-2.54-5.67-5.67-5.67-5.67,2.54-5.67,5.67,2.54,5.67,5.67,5.67Z"/><path d="m32.69,9.28c2.56,0,4.64-2.08,4.64-4.64s-2.08-4.64-4.64-4.64-4.64,2.08-4.64,4.64,2.08,4.64,4.64,4.64Z"/><path d="m6.87,9.28c2.56,0,4.64-2.08,4.64-4.64S9.43,0,6.87,0,2.23,2.08,2.23,4.64s2.08,4.64,4.64,4.64Z"/><path d="m39.46,13.85c-.45-2.26-.88-2.8-2.65-2.8h-8.12c-1.21-.13-2.32.58-2.75,1.67.36.1.74.24,1.12.48.75.46,1.75,1.38,2.24,3.19.83,3.11,1.01,4.94,1.02,5.02v.02c.79.14,1.66.24,2.64.24,6.03,0,6.95-5.54,6.5-7.81Z"/><path d="m10.48,16.63c.31-.9.63-1.82,1.24-2.59.51-.64,1.16-1.05,1.92-1.28-.41-1.11-1.54-1.85-2.77-1.72H2.76c-1.77,0-2.21.54-2.66,2.8-.45,2.26.47,7.81,6.5,7.81,1.08,0,2.04-.11,2.88-.28.02-.2.27-2.62.92-4.49.03-.09.06-.17.09-.26Z"/><path class="cls-2" d="m28.65,21.56s-.02-.22-.08-.6c-.11-.74-.36-2.16-.89-4.14-.44-1.63-1.38-2.24-2.15-2.47-.35-.1-.66-.14-.88-.14-.2,0-.31.02-.31.02h-9.32c-.39,0-.71.07-.99.17-1.19.42-1.56,1.63-2.06,3.04-.41,1.17-.64,2.61-.75,3.44-.05.41-.08.68-.08.68,0,0-.57,7.16,8.74,7.16s8.77-7.16,8.77-7.16Z"/></g></svg>