<svg xmlns="http://www.w3.org/2000/svg" width="36.463" height="23.697" viewBox="0 0 36.463 23.697">
  <g id="Icon_ionic-ios-people" data-name="Icon ionic-ios-people" transform="translate(-2.215 -7.748)">
    <path id="Path_547" data-name="Path 547" d="M27.081,25.98c-.91-.325-2.4-.341-3.054-.593a4.314,4.314,0,0,1-1.413-.658,8.732,8.732,0,0,1-.236-2.314,3.739,3.739,0,0,0,.8-1.137,12.636,12.636,0,0,0,.39-2.233s.536.227.747-.845c.179-.926.52-1.413.43-2.1s-.471-.52-.471-.52.471-.69.471-3.037c0-2.42-1.827-4.8-5.246-4.8s-5.254,2.388-5.254,4.8a6.171,6.171,0,0,0,.463,3.037s-.382-.162-.471.52.244,1.169.43,2.1c.211,1.08.747.845.747.845a12.758,12.758,0,0,0,.39,2.233,3.739,3.739,0,0,0,.8,1.137,8.732,8.732,0,0,1-.236,2.314,4.152,4.152,0,0,1-1.413.65c-.65.252-2.136.284-3.054.609a5.731,5.731,0,0,0-3.719,5.457h22.6A5.72,5.72,0,0,0,27.081,25.98Z" transform="translate(0.926 0)" fill="#0082fe"/>
    <path id="Path_548" data-name="Path 548" d="M11.026,21.489a5.513,5.513,0,0,0,2.712-.755c-1.259-1.908-.577-4.134-.836-6.213A3.426,3.426,0,0,0,9.11,11.208H9.077a3.437,3.437,0,0,0-3.76,3.313c-.26,2.071.463,4.548-.828,6.213a5.1,5.1,0,0,0,2.721.674h0a4.113,4.113,0,0,1-.081,1.364,2.051,2.051,0,0,1-.975.447,18.843,18.843,0,0,0-2.1.585,3.419,3.419,0,0,0-1.835,3.021H8.736a5.834,5.834,0,0,1,2.6-2.42,5.453,5.453,0,0,1,2.006-.422s.309-.487-.707-.674a6.923,6.923,0,0,1-1.559-.544C10.921,22.585,11.026,21.489,11.026,21.489Z" transform="translate(0 0.536)" fill="#0082fe"/>
    <path id="Path_549" data-name="Path 549" d="M26.52,21.489a5.513,5.513,0,0,1-2.712-.755c1.259-1.908.577-4.134.836-6.213a3.426,3.426,0,0,1,3.793-3.313h.032a3.437,3.437,0,0,1,3.76,3.313c.26,2.071-.463,4.548.828,6.213a5.1,5.1,0,0,1-2.721.674h0a4.113,4.113,0,0,0,.081,1.364,2.051,2.051,0,0,0,.975.447,18.843,18.843,0,0,1,2.1.585,3.419,3.419,0,0,1,1.835,3.021H28.81a5.834,5.834,0,0,0-2.6-2.42,5.453,5.453,0,0,0-2.006-.422s-.309-.487.707-.674a6.923,6.923,0,0,0,1.559-.544C26.626,22.585,26.52,21.489,26.52,21.489Z" transform="translate(3.347 0.536)" fill="#0082fe"/>
  </g>
</svg>
