<svg xmlns="http://www.w3.org/2000/svg" width="35.363" height="27.174" viewBox="0 0 35.363 27.174">
  <g id="Group_431" data-name="Group 431" transform="translate(12497.766 12141.879)">
    <circle id="Ellipse_598" data-name="Ellipse 598" cx="5.068" cy="5.068" r="5.068" transform="translate(-12485.081 -12140.957)" fill="#0082fe"/>
    <ellipse id="Ellipse_600" data-name="Ellipse 600" cx="4.147" cy="4.147" rx="4.147" ry="4.147" transform="translate(-12472.686 -12141.879)" fill="#0082fe"/>
    <ellipse id="Ellipse_601" data-name="Ellipse 601" cx="4.147" cy="4.147" rx="4.147" ry="4.147" transform="translate(-12495.777 -12141.879)" fill="#0082fe"/>
    <path id="Path_685" data-name="Path 685" d="M-12432.167-12129.2h-7.257a2.379,2.379,0,0,0-2.605,2.019,41.97,41.97,0,0,0-.93,4.555s1.968,2.907,7.355,2.907,6.21-4.955,5.809-6.979S-12430.58-12129.2-12432.167-12129.2Z" transform="translate(-32.695 -2.799)" fill="#0082fe"/>
    <path id="Path_686" data-name="Path 686" d="M-12440.5-12129.2h7.257a2.378,2.378,0,0,1,2.6,2.019,41.841,41.841,0,0,1,.931,4.555s-1.968,2.907-7.355,2.907-6.21-4.955-5.809-6.979S-12442.087-12129.2-12440.5-12129.2Z" transform="translate(-54.806 -2.799)" fill="#0082fe"/>
    <g id="Path_683" data-name="Path 683" transform="translate(-44.849 0.039)" fill="#0082fe">
      <path d="M -12435.146484375 -12115.494140625 C -12438.1962890625 -12115.494140625 -12440.498046875 -12116.3125 -12441.98828125 -12117.9267578125 C -12443.8984375 -12119.9970703125 -12443.71484375 -12122.5927734375 -12443.7060546875 -12122.7021484375 L -12443.705078125 -12122.7080078125 L -12443.7041015625 -12122.7138671875 C -12443.6962890625 -12122.8046875 -12443.4853515625 -12124.9482421875 -12442.919921875 -12126.572265625 C -12442.8935546875 -12126.650390625 -12442.8671875 -12126.7265625 -12442.8408203125 -12126.802734375 C -12442.33203125 -12128.27734375 -12441.7548828125 -12129.9482421875 -12439.4892578125 -12129.9482421875 L -12431.2080078125 -12129.9482421875 C -12431.1376953125 -12129.9560546875 -12431.0244140625 -12129.9658203125 -12430.87890625 -12129.9658203125 C -12429.2138671875 -12129.9658203125 -12427.9306640625 -12128.884765625 -12427.4453125 -12127.0751953125 C -12426.716796875 -12124.35546875 -12426.5634765625 -12122.7783203125 -12426.556640625 -12122.712890625 L -12426.556640625 -12122.7060546875 L -12426.5556640625 -12122.69921875 C -12426.5478515625 -12122.58984375 -12426.3759765625 -12119.9951171875 -12428.294921875 -12117.92578125 C -12429.7919921875 -12116.3125 -12432.0966796875 -12115.494140625 -12435.146484375 -12115.494140625 Z" stroke="none"/>
      <path d="M -12430.87890625 -12129.2158203125 C -12431.0537109375 -12129.2158203125 -12431.16015625 -12129.1982421875 -12431.16015625 -12129.1982421875 C -12431.16015625 -12129.1982421875 -12437.6669921875 -12129.1982421875 -12439.4892578125 -12129.1982421875 C -12441.3115234375 -12129.1982421875 -12441.6689453125 -12127.884765625 -12442.2119140625 -12126.326171875 C -12442.75390625 -12124.7685546875 -12442.9580078125 -12122.642578125 -12442.9580078125 -12122.642578125 C -12442.9580078125 -12122.642578125 -12443.470703125 -12116.244140625 -12435.146484375 -12116.244140625 C -12426.822265625 -12116.244140625 -12427.3037109375 -12122.642578125 -12427.3037109375 -12122.642578125 C -12427.3037109375 -12122.642578125 -12427.44921875 -12124.19140625 -12428.169921875 -12126.880859375 C -12428.734375 -12128.9873046875 -12430.2490234375 -12129.2158203125 -12430.87890625 -12129.2158203125 M -12430.87890625 -12130.7158203125 L -12430.87890625 -12130.7158203125 C -12430.3427734375 -12130.7158203125 -12429.5322265625 -12130.6123046875 -12428.7216796875 -12130.12109375 C -12428.0478515625 -12129.7119140625 -12427.154296875 -12128.8857421875 -12426.720703125 -12127.26953125 C -12425.9765625 -12124.4892578125 -12425.81640625 -12122.8515625 -12425.810546875 -12122.783203125 L -12425.8076171875 -12122.7548828125 C -12425.798828125 -12122.6328125 -12425.6064453125 -12119.7216796875 -12427.7451171875 -12117.416015625 C -12429.3896484375 -12115.6435546875 -12431.8798828125 -12114.744140625 -12435.146484375 -12114.744140625 C -12438.4140625 -12114.744140625 -12440.9013671875 -12115.6435546875 -12442.5390625 -12117.41796875 C -12444.669921875 -12119.7265625 -12444.462890625 -12122.6396484375 -12444.453125 -12122.7626953125 L -12444.451171875 -12122.7861328125 C -12444.4423828125 -12122.8798828125 -12444.22265625 -12125.111328125 -12443.62890625 -12126.8193359375 C -12443.6015625 -12126.896484375 -12443.5751953125 -12126.9716796875 -12443.5498046875 -12127.0478515625 C -12443.2724609375 -12127.849609375 -12442.986328125 -12128.6787109375 -12442.4443359375 -12129.359375 C -12441.7353515625 -12130.248046875 -12440.7412109375 -12130.6982421875 -12439.4892578125 -12130.6982421875 L -12431.248046875 -12130.6982421875 C -12431.1552734375 -12130.70703125 -12431.0302734375 -12130.7158203125 -12430.87890625 -12130.7158203125 Z" stroke="none" fill="#fff"/>
    </g>
  </g>
</svg>
