<?xml version="1.0" encoding="UTF-8"?><svg id="Layer_2" xmlns="http://www.w3.org/2000/svg" xmlns:xlink="http://www.w3.org/1999/xlink" viewBox="0 0 40.21 32.16"><defs><style>.cls-1{fill:url(#linear-gradient);}</style><linearGradient id="linear-gradient" x1="-16.43" y1="60.81" x2="23.93" y2="13.64" gradientUnits="userSpaceOnUse"><stop offset="0" stop-color="#ad87ff"/><stop offset="1" stop-color="#00cfff"/></linearGradient></defs><g id="Layer_1-2"><path id="Icon_awesome-city" class="cls-1" d="m38.7,12.06h-8.54V1.51C30.15.68,29.48,0,28.65,0c0,0,0,0,0,0h-9.05c-.83,0-1.51.67-1.51,1.51h0v4.52h-4.02V1.01C14.07.45,13.62,0,13.07,0h-1.01C11.51,0,11.06.45,11.06,1.01v5.03h-4.02V1.01C7.04.45,6.59,0,6.03,0h-1.01C4.47,0,4.02.45,4.02,1.01v5.03H1.51C.68,6.03,0,6.7,0,7.54c0,0,0,0,0,0v22.62C0,31.26.9,32.16,2.01,32.16h36.18c1.11,0,2.01-.9,2.01-2.01V13.57c0-.83-.67-1.51-1.51-1.51h0Zm-30.66,13.32c0,.42-.34.75-.75.75h-2.51c-.42,0-.75-.34-.75-.75v-2.51c0-.42.34-.75.75-.75h2.51c.42,0,.75.34.75.75v2.51Zm0-6.03c0,.42-.34.75-.75.75h-2.51c-.42,0-.75-.34-.75-.75v-2.51c0-.42.34-.75.75-.75h2.51c.42,0,.75.34.75.75v2.51Zm0-6.03c0,.42-.34.75-.75.75h-2.51c-.42,0-.75-.34-.75-.75v-2.51c0-.42.34-.75.75-.75h2.51c.42,0,.75.34.75.75v2.51Zm8.04,12.06c0,.42-.34.75-.75.75h-2.51c-.42,0-.75-.34-.75-.75v-2.51c0-.42.34-.75.75-.75h2.51c.42,0,.75.34.75.75v2.51Zm0-6.03c0,.42-.34.75-.75.75h-2.51c-.42,0-.75-.34-.75-.75v-2.51c0-.42.34-.75.75-.75h2.51c.42,0,.75.34.75.75v2.51Zm0-6.03c0,.42-.34.75-.75.75h-2.51c-.42,0-.75-.34-.75-.75v-2.51c0-.42.34-.75.75-.75h2.51c.42,0,.75.34.75.75v2.51Zm10.05,6.03c0,.42-.34.75-.75.75h-2.51c-.42,0-.75-.34-.75-.75v-2.51c0-.42.34-.75.75-.75h2.51c.42,0,.75.34.75.75v2.51Zm0-6.03c0,.42-.34.75-.75.75h-2.51c-.42,0-.75-.34-.75-.75v-2.51c0-.42.34-.75.75-.75h2.51c.42,0,.75.34.75.75v2.51Zm0-6.03c0,.42-.34.75-.75.75h-2.51c-.42,0-.75-.34-.75-.75v-2.51c0-.42.34-.75.75-.75h2.51c.42,0,.75.34.75.75v2.51Zm10.05,18.09c0,.42-.34.75-.75.75h-2.51c-.42,0-.75-.34-.75-.75h0v-2.51c0-.42.34-.75.75-.75h2.51c.42,0,.75.34.75.75h0s0,2.51,0,2.51Zm0-6.03c0,.42-.34.75-.75.75h-2.51c-.42,0-.75-.34-.75-.75h0v-2.51c0-.42.34-.75.75-.75h2.51c.42,0,.75.34.75.75h0s0,2.51,0,2.51Z"/></g></svg>