<svg xmlns="http://www.w3.org/2000/svg" width="36.397" height="46.722" viewBox="0 0 36.397 46.722">
  <g id="Group_425" data-name="Group 425" transform="translate(12634.397 11452.721)">
    <g id="Path_670" data-name="Path 670" transform="translate(-12616.19 -11436.277) rotate(-124)" fill="#0082fe">
      <path d="M 3.533207893371582 12.04562664031982 L 2.957477807998657 11.79536628723145 C 2.922287940979004 11.78006649017334 2.085837841033936 11.4135160446167 1.250237822532654 10.79274654388428 C 0.04870786890387535 9.900146484375 -0.539492130279541 8.951725959777832 -0.4980221390724182 7.973846435546875 C -0.4628821313381195 7.145556449890137 -0.2946021258831024 6.620766162872314 -0.1461321264505386 6.157766342163086 C 0.07060787081718445 5.481816291809082 0.2577978670597076 4.898046016693115 0.03125786781311035 3.355776309967041 C -0.09304213523864746 2.511616230010986 0.08564786612987518 1.775146245956421 0.562397837638855 1.1669762134552 C 0.968687891960144 0.6486862301826477 2.015057802200317 -0.2555237710475922 4.458057880401611 -0.4880737662315369 C 4.542337894439697 -0.4960937798023224 4.619427680969238 -0.499993771314621 4.693747997283936 -0.499993771314621 C 5.535377979278564 -0.499993771314621 5.859277725219727 -0.003823772538453341 6.39589786529541 0.818206250667572 C 6.572877883911133 1.089316248893738 6.793138027191162 1.426716208457947 7.077817916870117 1.823826193809509 C 7.516247749328613 2.435236215591431 8.01580810546875 2.863346338272095 8.498917579650879 3.277366161346436 C 9.284478187561035 3.950576305389404 10.0264778137207 4.586446285247803 10.23456764221191 5.799136161804199 C 10.52972793579102 7.5250563621521 10.60496807098389 8.72110652923584 10.60802745819092 8.771185874938965 L 10.66983795166016 9.78316593170166 L 9.829338073730469 9.216166496276855 L 7.651025772094727 7.746703624725342 L 7.261727809906006 10.36732578277588 L 7.115838050842285 11.34940624237061 L 6.413667678833008 10.6474666595459 L 4.205771923065186 8.440321922302246 L 3.648327827453613 11.42850589752197 L 3.533207893371582 12.04562664031982 Z" stroke="none"/>
      <path d="M 3.156807899475098 11.33681583404541 L 3.888247966766357 7.415926456451416 L 6.767158031463623 10.29385662078857 L 7.273017883300781 6.888576030731201 L 10.10895824432373 8.801666259765625 C 10.10895824432373 8.801666259765625 10.03570747375488 7.60244607925415 9.741767883300781 5.88369607925415 C 9.446847915649414 4.16494607925415 7.86188793182373 3.775296211242676 6.671457767486572 2.115146160125732 C 5.481997966766357 0.4559663534164429 5.45953893661499 -0.08114385604858398 4.505437850952148 0.00967622734606266 C 3.551337957382202 0.1004962250590324 0.1236078664660454 0.550686240196228 0.5259478688240051 3.283106327056885 C 0.9273178577423096 6.015536308288574 0.08356786519289017 6.061426162719727 0.001527867163531482 7.995026111602783 C -0.08050213009119034 9.929595947265625 3.156807899475098 11.33681583404541 3.156807899475098 11.33681583404541 M 3.909597873687744 12.75443649291992 L 2.758157968521118 12.25391578674316 C 2.362367868423462 12.08187580108643 -1.105562090873718 10.49951648712158 -0.997572124004364 7.952666282653809 C -0.9595721364021301 7.057046413421631 -0.780372142791748 6.498176097869873 -0.6222621202468872 6.005086421966553 C -0.4163721203804016 5.363026142120361 -0.2537521421909332 4.855886459350586 -0.4634321331977844 3.428436279296875 C -0.6064121127128601 2.457416296005249 -0.3877821266651154 1.568626284599304 0.1688878685235977 0.8585062026977539 C 1.177487850189209 -0.4281337857246399 3.032297849655151 -0.8546137809753418 4.410677909851074 -0.9858237504959106 C 4.510767936706543 -0.9953537583351135 4.603377819061279 -0.9999938011169434 4.693747997283936 -0.9999938011169434 C 5.806087970733643 -0.9999938011169434 6.273427963256836 -0.2840837836265564 6.814578056335449 0.5448762178421021 C 6.997977733612061 0.8258262276649475 7.20584774017334 1.144256234169006 7.484188079833984 1.532506227493286 C 7.887417793273926 2.094836235046387 8.363687515258789 2.502996206283569 8.824277877807617 2.897706270217896 C 9.604477882385254 3.5663161277771 10.48877811431885 4.324136257171631 10.72736740112305 5.714576244354248 C 11.02709770202637 7.467196464538574 11.10396766662598 8.689526557922363 11.10709762573242 8.740695953369141 L 11.23072814941406 10.76465606689453 L 8.029041290283203 8.604846954345703 L 7.46452808380127 12.40495586395264 L 4.523294925689697 9.464735984802246 L 3.909597873687744 12.75443649291992 Z" stroke="none" fill="#fff"/>
    </g>
    <g id="Union_2" data-name="Union 2" transform="translate(-12614.318 -11442.626)" fill="#0082fe">
      <path d="M 3.610612630844116 10.92093658447266 C 1.34401261806488 10.92093658447266 -0.4999974370002747 8.719086647033691 -0.4999974370002747 6.012646675109863 C -0.4999974370002747 3.306216955184937 1.34401261806488 1.104366898536682 3.610612630844116 1.104366898536682 C 4.058607578277588 1.104366898536682 4.494718551635742 1.188262581825256 4.91204833984375 1.354271173477173 C 5.849474906921387 0.170444056391716 7.161656856536865 -0.5000031590461731 8.569332122802734 -0.5000031590461731 C 11.30219268798828 -0.5000031590461731 13.52554225921631 2.061526775360107 13.52554225921631 5.210076808929443 C 13.52554225921631 8.358186721801758 11.30219268798828 10.91936683654785 8.569332122802734 10.91936683654785 C 7.628960609436035 10.91936683654785 6.729943752288818 10.62219047546387 5.944852828979492 10.05563259124756 C 5.262635707855225 10.61648654937744 4.448081493377686 10.92093658447266 3.610612630844116 10.92093658447266 Z" stroke="none"/>
      <path d="M 3.610612630844116 10.42093658447266 C 4.489742755889893 10.42093658447266 5.295262336730957 10.03739643096924 5.921392440795898 9.399947166442871 C 6.661632537841797 10.04061698913574 7.577512741088867 10.41936683654785 8.569332122802734 10.41936683654785 C 11.03033256530762 10.41936683654785 13.02554225921631 8.086676597595215 13.02554225921631 5.210076808929443 C 13.02554225921631 2.332696914672852 11.03033256530762 -3.138275133096613e-06 8.569332122802734 -3.138275133096613e-06 C 7.151522636413574 -3.138275133096613e-06 5.888652324676514 0.7741368412971497 5.072702407836914 1.9806969165802 C 4.625722408294678 1.73876690864563 4.13113260269165 1.604366898536682 3.610612630844116 1.604366898536682 C 1.616962552070618 1.604366898536682 2.560119582994957e-06 3.577576875686646 2.560119582994957e-06 6.012646675109863 C 2.560119582994957e-06 8.44693660736084 1.616962552070618 10.42093658447266 3.610612630844116 10.42093658447266 M 3.610612630844116 11.42093658447266 C 2.341002464294434 11.42093658447266 1.159612536430359 10.83224678039551 0.2840725481510162 9.763306617736816 C -0.5439774394035339 8.752346992492676 -0.9999974370002747 7.420346736907959 -0.9999974370002747 6.012646675109863 C -0.9999974370002747 4.604636669158936 -0.5439574122428894 3.272506952285767 0.2841125726699829 2.261656761169434 C 1.159582614898682 1.192936897277832 2.340952634811401 0.6043668389320374 3.610612630844116 0.6043668389320374 C 4.000027656555176 0.6043668389320374 4.381186485290527 0.6596892476081848 4.750733375549316 0.7694736123085022 C 5.763583660125732 -0.3640844225883484 7.118866443634033 -1.000003099441528 8.569332122802734 -1.000003099441528 C 10.05659294128418 -1.000003099441528 11.44552230834961 -0.3337431252002716 12.48025226593018 0.8760268688201904 C 13.47675228118896 2.041096925735474 14.02554225921631 3.580286979675293 14.02554225921631 5.210076808929443 C 14.02554225921631 6.839546680450439 13.47673225402832 8.378506660461426 12.48022270202637 9.543477058410645 C 11.44545269012451 10.75316715240479 10.05654239654541 11.41936683654785 8.569332122802734 11.41936683654785 C 7.644214630126953 11.41936683654785 6.756531238555908 11.16210460662842 5.96210241317749 10.66894245147705 C 5.255956649780273 11.15821933746338 4.444496154785156 11.42093658447266 3.610612630844116 11.42093658447266 Z" stroke="none" fill="#fff"/>
    </g>
    <g id="Group_423" data-name="Group 423" transform="matrix(0.695, -0.719, 0.719, 0.695, -12633.248, -11444.37)">
      <g id="Union_1" data-name="Union 1" transform="translate(0.38 0)" fill="#0082fe">
        <path d="M 5.690231800079346 10.39533519744873 L 5.190211772918701 10.39532566070557 L 2.422231674194336 10.39524555206299 L 1.92225170135498 10.39523601531982 L 1.922241687774658 9.895256042480469 L 1.922096490859985 4.736092090606689 C 0.573019802570343 4.654804706573486 -0.4999597668647766 3.512689352035522 -0.4999983012676239 2.120475769042969 C -0.500018298625946 1.422555685043335 -0.2333983033895493 0.7658356428146362 0.2507616877555847 0.271305650472641 C 0.7377017140388489 -0.2260843366384506 1.385901689529419 -0.5000043511390686 2.075951814651489 -0.5000043511390686 C 2.724563360214233 -0.4999893605709076 3.337671995162964 -0.2539318203926086 3.805895090103149 0.1783375293016434 C 4.274142742156982 -0.2538888156414032 4.887249946594238 -0.4999043345451355 5.535831928253174 -0.4999043345451355 C 6.956141471862793 -0.4998543262481689 8.111661911010742 0.6757256388664246 8.111701965332031 2.120665550231934 C 8.111721992492676 2.818585634231567 7.845161914825439 3.475245714187622 7.361101627349854 3.969675779342651 C 6.910652637481689 4.429775238037109 6.322107791900635 4.698624134063721 5.690067291259766 4.736254692077637 L 5.690221786499023 9.895316123962402 L 5.690231800079346 10.39533519744873 Z" stroke="none"/>
        <path d="M 5.190221786499023 9.895325660705566 L 5.190051555633545 4.211495876312256 C 5.302608489990234 4.230777263641357 5.417575836181641 4.240853309631348 5.536066055297852 4.240825653076172 C 6.682519435882568 4.240825653076172 7.611741542816162 3.291714191436768 7.611701488494873 2.120675563812256 C 7.611671924591064 0.949575662612915 6.682441711425781 0.0001356642169412225 5.535891532897949 9.566421795170754e-05 C 4.811445713043213 7.55726287025027e-05 4.177781581878662 0.3766358196735382 3.805861711502075 0.9480356574058533 C 3.433965682983398 0.376560389995575 2.799618244171143 -4.333925971877761e-06 2.075947284698486 -4.335784979048185e-06 C 0.92949378490448 -4.335784979048185e-06 -3.82996367989108e-05 0.9494271278381348 1.697921788945678e-06 2.120465755462646 C 3.169792034896091e-05 3.291565656661987 0.9295716881752014 4.240695476531982 2.076121807098389 4.240725517272949 C 2.193971633911133 4.240725517272949 2.309601783752441 4.23067569732666 2.422081708908081 4.211415767669678 L 2.422241687774658 9.895245552062988 L 5.190221786499023 9.895325660705566 M 6.19025182723999 10.89535522460938 L 1.422271728515625 10.89521598815918 L 1.42210865020752 5.169735908508301 C 0.03902807459235191 4.86479377746582 -0.9999635815620422 3.613393545150757 -0.9999983310699463 2.120495557785034 C -1.000028252601624 1.291005611419678 -0.6827182769775391 0.5100656747817993 -0.1065283045172691 -0.07847433537244797 C 0.4752616882324219 -0.6727343201637268 1.250341653823853 -1.000004291534424 2.075951814651489 -1.000004291534424 C 2.703785181045532 -0.9999861717224121 3.303553104400635 -0.8076035380363464 3.805917501449585 -0.4607314169406891 C 4.308292388916016 -0.807564914226532 4.908034324645996 -0.9999043345451355 5.535831928253174 -0.9999043345451355 C 7.231841564178467 -0.9998443126678467 8.611661911010742 0.4000256657600403 8.611701965332031 2.120645761489868 C 8.61173152923584 2.950135707855225 8.294471740722656 3.731015682220459 7.718381881713867 4.319465637207031 C 7.293553829193115 4.753401279449463 6.765557289123535 5.044956207275391 6.190080165863037 5.170637130737305 L 6.19025182723999 10.89535522460938 Z" stroke="none" fill="#fff"/>
      </g>
      <g id="Path_668" data-name="Path 668" transform="translate(0 9.123)" fill="#0082fe">
        <path d="M 4.622579574584961 11.16642284393311 L 4.622579574584961 10.66642284393311 L 4.622459411621094 11.16642284393311 C 2.55985951423645 11.16636276245117 1.167139410972595 10.58271312713623 0.3645094335079193 9.382143020629883 C -0.397210568189621 8.242733001708984 -0.4999605715274811 6.6959228515625 -0.5000005960464478 5.333102703094482 C -0.500040590763092 3.788352966308594 0.02408942580223083 2.332822799682617 0.975849449634552 1.234602928161621 C 1.945249438285828 0.1160328760743141 3.240089416503906 -0.4999971091747284 4.62183952331543 -0.4999971091747284 C 7.446309566497803 -0.4999171197414398 9.744139671325684 2.116902828216553 9.744239807128906 5.333323001861572 C 9.744279861450195 6.696033000946045 9.641609191894531 8.242733001708984 8.879849433898926 9.382232666015625 C 8.077259063720703 10.58281326293945 6.684689521789551 11.16642284393311 4.622579574584961 11.16642284393311 Z" stroke="none"/>
        <path d="M 4.621840953826904 2.86102294921875e-06 C 2.069325923919678 2.86102294921875e-06 -8.0108642578125e-05 2.387812614440918 -9.5367431640625e-07 5.333082675933838 C 7.915496826171875e-05 8.278532981872559 0.5396289825439453 10.66630268096924 4.622269630432129 10.66642284393311 C 4.622518539428711 10.66642284393311 4.62232780456543 10.66642284393311 4.62257719039917 10.66642284393311 C 8.704535484313965 10.66642284393311 9.244318962097168 8.278613090515137 9.244239807128906 5.333343029022217 C 9.244149208068848 2.387892723083496 7.174689292907715 7.2479248046875e-05 4.621969223022461 2.86102294921875e-06 C 4.621813774108887 2.86102294921875e-06 4.621996879577637 2.86102294921875e-06 4.621840953826904 2.86102294921875e-06 M 4.62183952331543 -0.9999971389770508 L 4.621969223022461 -0.9999971389770508 C 7.722009658813477 -0.9999074935913086 10.2441291809082 1.841202735900879 10.24423980712891 5.33331298828125 C 10.2442798614502 6.771052837371826 10.13158988952637 8.409452438354492 9.295519828796387 9.660112380981445 C 8.393009185791016 11.01015281677246 6.864479541778564 11.66642284393311 4.622579574584961 11.66642284393311 C 2.380069255828857 11.66635322570801 0.85137939453125 11.01006317138672 -0.05116081237792969 9.660022735595703 C -0.8872003555297852 8.409462928771973 -0.9999608993530273 6.770962715148926 -1.000000953674316 5.333112716674805 C -1.00005054473877 3.668092727661133 -0.432530403137207 2.09625244140625 0.5979995727539062 0.9071426391601562 C 1.663829326629639 -0.3226966857910156 3.092859268188477 -0.9999971389770508 4.62183952331543 -0.9999971389770508 Z" stroke="none" fill="#fff"/>
      </g>
    </g>
    <g id="Path_669" data-name="Path 669" transform="translate(-12617.945 -11430.969)" fill="#0082fe">
      <path d="M 13.02902698516846 24.46933746337891 L -2.539573431015015 24.46933746337891 C -3.898881196975708 24.46933746337891 -5.00595760345459 23.36874771118164 -5.016467571258545 22.01194190979004 L -6.497653484344482 2.013777732849121 L -6.4990234375 1.995337724685669 L -6.4990234375 1.976847767829895 C -6.4990234375 0.6111077666282654 -5.387863636016846 -0.5000022053718567 -4.022053241729736 -0.5000022053718567 L 14.29648685455322 -0.5000022053718567 C 15.66229629516602 -0.5000022053718567 16.77345657348633 0.6111077666282654 16.77345657348633 1.976847767829895 L 16.77345657348633 1.9926677942276 L 16.77245712280273 2.008447885513306 L 15.50594043731689 22.00917816162109 C 15.49690437316895 23.36724472045898 14.38925170898438 24.46933746337891 13.02902698516846 24.46933746337891 Z" stroke="none"/>
      <path d="M -4.022053718566895 -1.9073486328125e-06 C -5.113903045654297 -1.9073486328125e-06 -5.9990234375 0.8850669860839844 -5.9990234375 1.976848602294922 L -4.516543388366699 21.99248695373535 C -4.516543388366699 23.08426856994629 -3.631422996520996 23.96933746337891 -2.539573669433594 23.96933746337891 L 13.02902603149414 23.96933746337891 C 14.12087631225586 23.96933746337891 15.00599670410156 23.08426856994629 15.00599670410156 21.99248695373535 L 16.27345657348633 1.976848602294922 C 16.27345657348633 0.8850669860839844 15.38833618164062 -1.9073486328125e-06 14.29648590087891 -1.9073486328125e-06 L -4.022053718566895 -1.9073486328125e-06 M -4.022053718566895 -1.000001907348633 L 14.29648590087891 -1.000001907348633 C 15.93799591064453 -1.000001907348633 17.27345657348633 0.3354072570800781 17.27345657348633 1.976848602294922 L 17.27145767211914 2.040048599243164 L 16.00579452514648 22.02727699279785 C 15.98707008361816 23.65274047851562 14.65891456604004 24.96933746337891 13.02902603149414 24.96933746337891 L -2.539573669433594 24.96933746337891 C -4.167457580566406 24.96933746337891 -5.494352340698242 23.65591049194336 -5.516268730163574 22.033203125 L -6.9990234375 2.013828277587891 L -6.9990234375 1.976848602294922 C -6.9990234375 0.3354072570800781 -5.66356372833252 -1.000001907348633 -4.022053718566895 -1.000001907348633 Z" stroke="none" fill="#fff"/>
    </g>
    <g id="Rectangle_2228" data-name="Rectangle 2228" transform="translate(-12625 -11434)" fill="#0082fe" stroke="#fff" stroke-width="2">
      <rect width="25" height="4" rx="2" stroke="none"/>
      <rect x="-1" y="-1" width="27" height="6" rx="3" fill="none"/>
    </g>
  </g>
</svg>
