<?xml version="1.0" encoding="UTF-8"?><svg id="Layer_2" xmlns="http://www.w3.org/2000/svg" xmlns:xlink="http://www.w3.org/1999/xlink" viewBox="0 0 35.92 47.62"><defs><style>.cls-1{fill:url(#linear-gradient);}.cls-2{fill:url(#linear-gradient-3);}.cls-3{fill:url(#linear-gradient-4);}.cls-4{fill:url(#linear-gradient-2);}.cls-5{fill:url(#linear-gradient-6);}.cls-6{fill:url(#linear-gradient-5);}</style><linearGradient id="linear-gradient" x1="-3.71" y1="57.33" x2="17.91" y2="12.68" gradientUnits="userSpaceOnUse"><stop offset="0" stop-color="#ad87ff"/><stop offset="1" stop-color="#00cfff"/></linearGradient><linearGradient id="linear-gradient-2" x1="4.39" y1="61.25" x2="26.01" y2="16.6" xlink:href="#linear-gradient"/><linearGradient id="linear-gradient-3" x1="-16.79" y1="51" x2="4.83" y2="6.35" xlink:href="#linear-gradient"/><linearGradient id="linear-gradient-4" x1="-6.57" y1="55.95" x2="15.05" y2="11.3" xlink:href="#linear-gradient"/><linearGradient id="linear-gradient-5" x1="7.22" y1="62.62" x2="28.84" y2="17.97" xlink:href="#linear-gradient"/><linearGradient id="linear-gradient-6" x1="2.29" y1="60.24" x2="23.91" y2="15.59" xlink:href="#linear-gradient"/></defs><g id="Layer_1-2"><path class="cls-1" d="m19.98,10.67c.08-.12.15-.25.25-.36.98-1.2,2.3-1.85,3.72-1.85.44,0,.86.06,1.28.18.36-.4.77-.75,1.2-1.03.19-1.36-.07-2.75-.07-2.75l-4.09,1.77.87-4.47-3.47,1.66V0s-1.07.82-2.48,2.17c-1.36,1.3-.83,2.94-1.5,4.98.95.36,1.86.92,2.65,1.68.57.55,1.16,1.17,1.66,1.85Z"/><path class="cls-4" d="m25.58,9.99c-.11-.06-.22-.09-.33-.13-.41-.17-.84-.29-1.3-.29-1.38,0-2.6.85-3.33,2.14.06.13.12.26.17.39.08.19.14.38.2.57.03.09.06.18.08.27.02.11.03.23.05.34.14,1.01-.04,2.01-.59,3.02h13.16c.07,0,.14.02.21.02.37-.81.58-1.74.58-2.72,0-3.22-2.23-5.83-4.98-5.83-.74,0-1.43.19-2.06.53-.26.14-.51.3-.74.49-.42.33-.79.73-1.11,1.2Z"/><path class="cls-2" d="m9.67,7.74l-3.22-3.12c.1-.08.2-.16.29-.26.89-.92.85-2.41-.09-3.32s-2.43-.9-3.32.02c-.56.58-.75,1.38-.58,2.13-.75-.15-1.54.07-2.11.65-.89.92-.85,2.41.09,3.32.94.91,2.43.9,3.32-.02.09-.09.17-.2.25-.3l3.42,3.31c.27-.64.65-1.22,1.14-1.73.25-.26.53-.48.82-.69Z"/><path class="cls-3" d="m8.6,11c-.07.21-.1.43-.14.65-.04.23-.07.47-.08.71-.05,1.36.41,2.79,1.36,4,.15-.02.3-.05.45-.05h9.02c.1-.15.19-.3.27-.45.2-.37.35-.72.44-1.07.07-.29.11-.57.11-.84,0-.17,0-.34-.03-.51,0-.03,0-.06-.01-.09-.03-.19-.07-.37-.14-.55-.04-.13-.1-.27-.16-.4-.1-.21-.2-.42-.33-.63-.45-.73-1.1-1.43-1.82-2.13-.68-.66-1.46-1.12-2.27-1.43-.18-.07-.35-.13-.53-.18-.19-.05-.37-.09-.55-.12-.89-.16-1.78-.12-2.6.14-.19.06-.38.15-.56.23-.18.08-.36.16-.53.26-.3.19-.58.41-.83.67-.5.52-.86,1.13-1.07,1.8Z"/><path class="cls-6" d="m33.68,23.02H10.2c-.36,0-.71-.07-1.04-.18,0,.06-.02.12-.02.19l1.66,22.39c0,1.22.99,2.21,2.21,2.21h17.41c1.22,0,2.21-.99,2.21-2.21l1.42-22.39s0-.03,0-.05c-.12.01-.24.04-.36.04Z"/><path class="cls-5" d="m34.49,17.58c-.18-.07-.38-.11-.58-.13-.07,0-.15-.02-.22-.02H10.2c-.08,0-.16.02-.24.02-.22.02-.43.07-.63.15-.8.34-1.37,1.13-1.37,2.06,0,.6.24,1.13.62,1.53.13.14.28.26.44.36.16.1.33.17.51.23.21.07.44.11.67.11h23.49s.03,0,.05,0c.2,0,.39-.04.58-.1.18-.05.35-.13.51-.22.65-.39,1.1-1.1,1.1-1.92,0-.95-.59-1.76-1.43-2.08Z"/></g></svg>