<?xml version="1.0" encoding="UTF-8"?><svg id="Layer_2" xmlns="http://www.w3.org/2000/svg" xmlns:xlink="http://www.w3.org/1999/xlink" viewBox="0 0 42.78 37.37"><defs><style>.cls-1{fill:url(#linear-gradient);}.cls-2{fill:url(#linear-gradient-2);}</style><linearGradient id="linear-gradient" x1="19.4" y1="47.88" x2="36.94" y2="10.97" gradientUnits="userSpaceOnUse"><stop offset="0" stop-color="#ad87ff"/><stop offset="1" stop-color="#00cfff"/></linearGradient><linearGradient id="linear-gradient-2" x1="-1.94" y1="37.74" x2="15.59" y2=".83" xlink:href="#linear-gradient"/></defs><g id="Layer_1-2"><g id="Group_301"><path id="Icon_feather-droplet" class="cls-1" d="m30.31,5.04l8.82,11.05c4.87,4.86,4.87,12.76,0,17.62-4.86,4.87-12.76,4.87-17.62,0-4.87-4.86-4.87-12.76,0-17.62,0,0,0,0,0,0l8.8-11.05Z"/><path id="Icon_feather-droplet-2" class="cls-2" d="m8.92,0l6.31,8.55c3.49,3.48,3.49,9.14,0,12.62-3.48,3.49-9.14,3.49-12.62,0-3.49-3.48-3.49-9.14,0-12.62,0,0,0,0,0,0L8.92,0Z"/></g><path d="m30.32,34.39s8.25-4.43,7.96-13.79c0,0,3.79,5.94.34,10.16s-8.3,3.62-8.3,3.62Z"/><path d="m7.63,22.17s6.73-3.62,6.5-11.25c0,0,3.1,4.85.28,8.3-2.79,3.41-6.77,2.96-6.77,2.96Z"/></g></svg>