<?xml version="1.0" encoding="UTF-8"?><svg id="Layer_2" xmlns="http://www.w3.org/2000/svg" xmlns:xlink="http://www.w3.org/1999/xlink" viewBox="0 0 31.72 27.76"><defs><style>.cls-1{fill:url(#linear-gradient);}.cls-2{fill:#00cfff;}</style><linearGradient id="linear-gradient" x1="13.41" y1="34.75" x2="17.12" y2="6.15" gradientUnits="userSpaceOnUse"><stop offset=".24" stop-color="#ad87ff"/><stop offset="1" stop-color="#00cfff"/></linearGradient></defs><g id="Layer_1-2"><polygon class="cls-2" points="1.92 13.88 3.75 15.86 15.22 22.78 27.96 15.86 29.8 13.88 21 6.15 9.09 6.15 1.92 13.88"/><path id="Icon_awesome-heartbeat" class="cls-1" d="m19.84,13.12l-3.08,6.16c-.25.49-.84.69-1.33.44-.2-.1-.37-.27-.46-.48l-3.53-7.83-1.86,4.45H3.75l11.31,11.55c.42.44,1.12.45,1.56.03.01-.01.02-.02.03-.03l11.31-11.55h-6.75l-1.37-2.74Z"/><path d="m29.34,2.6l-.15-.15c-3.13-3.21-8.27-3.27-11.48-.13-.04.04-.09.09-.13.13l-1.72,1.77-1.73-1.77C11.01-.76,5.88-.82,2.67,2.3c-.05.05-.1.1-.15.15l-.15.15c-2.98,3.11-3.17,7.95-.45,11.28h6.34l2.22-5.34c.21-.51.79-.74,1.3-.53.23.1.42.28.52.51l3.61,8.01,3.04-6.07c.24-.49.84-.69,1.33-.44.19.1.35.25.44.44l1.71,3.42h7.37c2.73-3.33,2.54-8.18-.45-11.28h0Z"/></g></svg>