<svg xmlns="http://www.w3.org/2000/svg" width="28.363" height="24.818" viewBox="0 0 28.363 24.818">
  <path id="Icon_awesome-heartbeat" data-name="Icon awesome-heartbeat" d="M17.737,13.982l-2.753,5.506a.886.886,0,0,1-1.6-.033l-3.152-7L8.569,16.43H3.357L13.466,26.761a.987.987,0,0,0,1.424,0L25,16.43H18.961Zm8.5-9.411-.133-.138a7.257,7.257,0,0,0-10.381,0L14.181,6.016,12.635,4.437a7.247,7.247,0,0,0-10.381,0l-.133.133a7.606,7.606,0,0,0-.4,10.087H7.389L9.378,9.883a.888.888,0,0,1,1.629-.022l3.224,7.162L16.945,11.6a.885.885,0,0,1,1.584,0l1.529,3.058h6.586a7.606,7.606,0,0,0-.4-10.087Z" transform="translate(0.001 -2.246)" fill="#0082fe"/>
</svg>
