<svg xmlns="http://www.w3.org/2000/svg" xmlns:xlink="http://www.w3.org/1999/xlink" width="36" height="36" viewBox="0 0 36 36">
  <defs>
    <linearGradient id="linear-gradient" x1="0.806" y1="0.17" x2="-0.087" y2="1.352" gradientUnits="objectBoundingBox">
      <stop offset="0" stop-color="#00cfff"/>
      <stop offset="1" stop-color="#a58aff"/>
    </linearGradient>
  </defs>
  <path id="Icon_awesome-wheelchair" data-name="Icon awesome-wheelchair" d="M34.882,27.117l1,2.015a1.125,1.125,0,0,1-.508,1.508l-4.6,2.312a2.25,2.25,0,0,1-3.037-1.059L23.321,22.5H13.5a2.25,2.25,0,0,1-2.227-1.932C8.89,3.889,9.027,4.925,9,4.5a4.5,4.5,0,1,1,5.159,4.452l.328,2.3h9.138a1.125,1.125,0,0,1,1.125,1.125v2.25a1.125,1.125,0,0,1-1.125,1.125h-8.5L15.451,18h9.3a2.25,2.25,0,0,1,2.036,1.293L30.83,27.9l2.544-1.29a1.125,1.125,0,0,1,1.508.508ZM21.892,24.75H20.169A7.875,7.875,0,1,1,8.46,16.794L7.793,12.13A12.375,12.375,0,1,0,23.7,28.6Z" fill="url(#linear-gradient)"/>
</svg>
